<svg width="76" height="92" viewBox="0 0 76 92" fill="none" xmlns="http://www.w3.org/2000/svg">
<path fill-rule="evenodd" clip-rule="evenodd" d="M46.5569 89.1676L33.0059 85.7026L33.7539 79.6966L42.584 81.9686L45.334 67.6766L62.7489 70.4356L69.1649 17.9956L15.0849 6.95562L6.83595 72.7686L16.8689 75.3506L17.8339 72.0326L30.6679 75.0356L27.3139 91.4916L20.4659 86.0976L13.2609 87.7586L15.1849 81.1446L0.418945 77.3696L10.5009 0.515625L75.5809 13.3956L67.67 76.5376L46.5569 89.1676ZM61.8319 26.2766L60.916 32.7166L21.5019 25.3556L22.4179 18.9166L61.8319 26.2766ZM19.6689 38.2366L20.5839 31.7966L48.084 36.3966L47.166 42.8366L19.6689 38.2366ZM34.5639 67.9766L32.9989 72.0526L16.2879 68.4446L17.0629 62.8226L14.1529 57.9006L18.0599 54.8116L18.9299 48.6916L23.9659 49.4676L27.014 45.3776L31.3689 49.4356L36.5319 48.3206L37.0749 54.0506L41.4939 57.1636L38.9059 61.2816L39.4799 66.5396L34.5639 67.9766Z" fill="#E3E3E3"/>
</svg>
