<svg width="33" height="26" viewBox="0 0 33 26" fill="none" xmlns="http://www.w3.org/2000/svg">
<path fill-rule="evenodd" clip-rule="evenodd" d="M27.8164 0.0498047C30.3674 0.0498047 32.4355 2.11792 32.4355 4.66895V20.7637C32.4355 23.3147 30.3674 25.3828 27.8164 25.3828H5.2832C2.73221 25.3828 0.664062 23.3147 0.664062 20.7637V4.66895C0.664062 2.11794 2.73221 0.0498493 5.2832 0.0498047H27.8164ZM29.5039 9.14062C29.4227 9.09714 29.3238 9.10224 29.2471 9.15332L19.1123 15.9102C17.5608 16.9445 15.5388 16.9445 13.9873 15.9102L3.85254 9.15332C3.77602 9.10247 3.67777 9.09745 3.59668 9.14062C3.51542 9.18411 3.4639 9.26917 3.46387 9.36133V20.7637C3.46387 21.7683 4.27861 22.583 5.2832 22.583H27.8164C28.821 22.583 29.6357 21.7683 29.6357 20.7637V9.36133C29.6357 9.26919 29.5851 9.18412 29.5039 9.14062ZM5.2832 2.84961C4.27861 2.84965 3.46387 3.66434 3.46387 4.66895V5.39551C3.46393 5.47896 3.5058 5.55717 3.5752 5.60352L15.541 13.5801C16.152 13.9874 16.9476 13.9873 17.5586 13.5801L29.5244 5.60352C29.5939 5.55718 29.6357 5.47903 29.6357 5.39551V4.66895C29.6357 3.66431 28.821 2.84961 27.8164 2.84961H5.2832Z" fill="white"/>
</svg>
