<svg width="33" height="33" viewBox="0 0 33 33" fill="none" xmlns="http://www.w3.org/2000/svg">
<path d="M7.29616 0.261063C9.4522 -0.170138 11.6301 0.895138 12.6135 2.86165L13.718 5.07063C14.7229 7.08042 14.1465 9.52126 12.3489 10.8695C12.0835 11.0686 11.9111 11.3001 11.8313 11.4984C11.759 11.6781 11.7632 11.8173 11.8176 11.9476C12.4237 13.3933 13.8583 15.3076 15.6184 17.0677C17.3786 18.8278 19.2928 20.2625 20.7385 20.8685C20.8688 20.923 21.008 20.9272 21.1878 20.8548C21.386 20.775 21.6176 20.6027 21.8167 20.3372C23.1649 18.5396 25.6057 17.9632 27.6155 18.9681L29.8245 20.0726C31.791 21.056 32.8563 23.2339 32.4251 25.39L31.7473 28.7767C31.2992 31.0176 29.2805 32.8005 26.8255 32.5228C13.2368 30.9855 1.70063 19.4493 0.163347 5.86067C-0.114366 3.40567 1.66856 1.38697 3.90944 0.938797L7.29616 0.261063ZM10.2883 4.02473C9.82933 3.1067 8.81238 2.60958 7.80593 2.81087L4.41921 3.4886C3.31702 3.70904 2.64085 4.63602 2.74635 5.56868C4.14747 17.9527 14.7335 28.5387 27.1174 29.9398C28.0501 30.0453 28.9771 29.3691 29.1975 28.2669L29.8753 24.8802C30.0766 23.8737 29.5794 22.8568 28.6614 22.3978L26.4524 21.2933C25.5666 20.8505 24.491 21.1046 23.8967 21.8968C23.0731 22.995 21.4742 23.996 19.7327 23.2659C17.8367 22.4711 15.6429 20.7679 13.7805 18.9056C11.9182 17.0433 10.215 14.8495 9.42018 12.9534C8.69015 11.2119 9.69113 9.61303 10.7893 8.78938C11.5815 8.19512 11.8356 7.11951 11.3928 6.23372L10.2883 4.02473Z" fill="white"/>
</svg>
