<svg width="35" height="34" viewBox="0 0 35 34" fill="none" xmlns="http://www.w3.org/2000/svg">
<path d="M12.79 8.90039C12.92 8.90875 13.04 8.91602 13.1543 8.91602C13.1772 8.91601 13.2022 8.91425 13.2354 8.91211C13.2667 8.91009 13.3042 8.90817 13.3438 8.9082C13.4245 8.90828 13.5193 8.91818 13.6201 8.96191C13.7983 9.03927 13.9633 9.20705 14.1182 9.52246L14.1836 9.66699L14.1846 9.66797C14.4325 10.267 14.9432 11.5045 15.2236 12.166L15.4092 12.5908L15.4102 12.5928C15.5159 12.8133 15.6046 13.0946 15.4424 13.4258C15.3149 13.6807 15.2393 13.8644 15.0186 14.1094L15.0195 14.1104C14.9223 14.2233 14.8225 14.348 14.7188 14.4736C14.6175 14.5962 14.5126 14.7175 14.4131 14.8135L14.4141 14.8145C14.3104 14.9159 14.2342 14.9952 14.2002 15.0859C14.1789 15.1429 14.1704 15.2167 14.21 15.3213L14.2666 15.4365L14.2676 15.4385C14.4803 15.8092 15.1926 16.9543 16.2393 17.9414L16.4531 18.1367L16.7314 18.376C18.1073 19.5212 19.2411 19.8905 19.6201 20.0801C19.807 20.1728 19.931 20.1989 20.0254 20.1875C20.1148 20.1767 20.2033 20.1292 20.3125 20.0127C20.5444 19.7527 21.2899 18.8628 21.5615 18.4805C21.7097 18.2616 21.8766 18.1458 22.0762 18.123C22.2605 18.1021 22.4483 18.1657 22.623 18.2305C22.8223 18.2997 23.4108 18.5726 23.9902 18.8467L25.3721 19.5088L25.3789 19.5117C25.4754 19.5638 25.5637 19.6087 25.6455 19.6504C25.7264 19.6916 25.8024 19.7303 25.8691 19.7676C25.9974 19.8393 26.1199 19.9204 26.1904 20.0381L26.2188 20.0996C26.2433 20.1671 26.256 20.2511 26.2627 20.3359C26.2722 20.4569 26.2714 20.608 26.2568 20.7803C26.2277 21.1255 26.1439 21.5666 25.9785 22.0439C25.7967 22.551 25.2677 23.0278 24.7207 23.3779C24.24 23.6857 23.7094 23.9183 23.3203 23.9961L23.1631 24.0205C22.9889 24.0362 22.8763 24.0757 22.6895 24.1133C22.5094 24.1495 22.299 24.1726 21.9844 24.1416C21.3638 24.0804 20.334 23.8078 18.3086 23.0156C14.2155 21.4166 11.6368 17.2742 11.4385 17.0088C11.3325 16.8741 10.919 16.3293 10.5312 15.5713C10.1442 14.8147 9.77639 13.8323 9.77637 12.8271C9.77637 10.8161 10.8488 9.82163 11.209 9.42969L11.3633 9.28027C11.7285 8.96634 12.1258 8.88281 12.3848 8.88281C12.5252 8.88283 12.662 8.89216 12.79 8.90039Z" fill="white"/>
<path fill-rule="evenodd" clip-rule="evenodd" d="M17.8604 0.118164C26.9175 0.11838 34.2596 7.40961 34.2598 16.3984C34.2598 25.3847 26.9176 32.6805 17.8604 32.6807C15.011 32.6807 12.3262 31.9504 9.98926 30.6855L1.04492 33.5215L0.762695 33.6113L3.77441 24.7373C2.29886 22.2998 1.45024 19.4468 1.4502 16.4004C1.4502 7.40984 8.79609 0.118164 17.8604 0.118164ZM17.8604 2.9873C10.4081 2.9873 4.33984 9.00152 4.33984 16.4004C4.3399 19.3388 5.29764 22.0563 6.91309 24.2666L6.95898 24.3291L6.93359 24.4033L5.32617 29.1455L10.2959 27.5752L10.3643 27.5537L10.4238 27.5928C12.5547 28.9951 15.1117 29.8047 17.8604 29.8047C25.3069 29.8045 31.373 23.7875 31.373 16.3887C31.3728 9.00254 25.3068 2.98752 17.8604 2.9873Z" fill="white"/>
</svg>
