<svg width="78" height="78" viewBox="0 0 78 78" fill="none" xmlns="http://www.w3.org/2000/svg">
<path d="M24.6516 0L21.9946 0V2.65694H24.6516V0Z" fill="#F7F7F7"/>
<path d="M27.3088 0L24.6519 0V2.65694H27.3088V0Z" fill="#F7F7F7"/>
<path d="M37.9372 0L35.2803 0V2.65694H37.9372V0Z" fill="#F7F7F7"/>
<path d="M51.2233 0L48.5664 0V2.65694H51.2233V0Z" fill="#F7F7F7"/>
<path d="M53.8801 0L51.2231 0V2.65694H53.8801V0Z" fill="#F7F7F7"/>
<path d="M56.5368 0L53.8799 0V2.65694H56.5368V0Z" fill="#F7F7F7"/>
<path d="M24.6516 2.65527H21.9946V5.31221H24.6516V2.65527Z" fill="#F7F7F7"/>
<path d="M32.6242 2.65527H29.9673V5.31221H32.6242V2.65527Z" fill="#F7F7F7"/>
<path d="M37.9372 2.65527H35.2803V5.31221H37.9372V2.65527Z" fill="#F7F7F7"/>
<path d="M56.5368 2.65527H53.8799V5.31221H56.5368V2.65527Z" fill="#F7F7F7"/>
<path d="M27.3088 5.31152H24.6519V7.96846H27.3088V5.31152Z" fill="#F7F7F7"/>
<path d="M29.965 5.31152H27.3081V7.96846H29.965V5.31152Z" fill="#F7F7F7"/>
<path d="M32.6242 5.31152H29.9673V7.96846H32.6242V5.31152Z" fill="#F7F7F7"/>
<path d="M37.9372 5.31152H35.2803V7.96846H37.9372V5.31152Z" fill="#F7F7F7"/>
<path d="M40.5939 5.31152H37.937V7.96846H40.5939V5.31152Z" fill="#F7F7F7"/>
<path d="M43.2512 5.31152H40.5942V7.96846H43.2512V5.31152Z" fill="#F7F7F7"/>
<path d="M45.9079 5.31152H43.251V7.96846H45.9079V5.31152Z" fill="#F7F7F7"/>
<path d="M51.2233 5.31152H48.5664V7.96846H51.2233V5.31152Z" fill="#F7F7F7"/>
<path d="M56.5368 5.31152H53.8799V7.96846H56.5368V5.31152Z" fill="#F7F7F7"/>
<path d="M24.6516 7.97363H21.9946V10.6306H24.6516V7.97363Z" fill="#F7F7F7"/>
<path d="M29.965 7.97363H27.3081V10.6306H29.965V7.97363Z" fill="#F7F7F7"/>
<path d="M32.6242 7.97363H29.9673V10.6306H32.6242V7.97363Z" fill="#F7F7F7"/>
<path d="M45.9079 7.97363H43.251V10.6306H45.9079V7.97363Z" fill="#F7F7F7"/>
<path d="M48.5642 7.97363H45.9072V10.6306H48.5642V7.97363Z" fill="#F7F7F7"/>
<path d="M53.8801 7.97363H51.2231V10.6306H53.8801V7.97363Z" fill="#F7F7F7"/>
<path d="M27.3088 10.6299H24.6519V13.2868H27.3088V10.6299Z" fill="#F7F7F7"/>
<path d="M32.6242 10.6299H29.9673V13.2868H32.6242V10.6299Z" fill="#F7F7F7"/>
<path d="M37.9372 10.6299H35.2803V13.2868H37.9372V10.6299Z" fill="#F7F7F7"/>
<path d="M40.5939 10.6299H37.937V13.2868H40.5939V10.6299Z" fill="#F7F7F7"/>
<path d="M43.2512 10.6299H40.5942V13.2868H43.2512V10.6299Z" fill="#F7F7F7"/>
<path d="M45.9079 10.6299H43.251V13.2868H45.9079V10.6299Z" fill="#F7F7F7"/>
<path d="M53.8801 10.6299H51.2231V13.2868H53.8801V10.6299Z" fill="#F7F7F7"/>
<path d="M56.5373 10.6299H53.8804V13.2868H56.5373V10.6299Z" fill="#F7F7F7"/>
<path d="M27.3088 13.2861H24.6519V15.9431H27.3088V13.2861Z" fill="#F7F7F7"/>
<path d="M32.6242 13.2861H29.9673V15.9431H32.6242V13.2861Z" fill="#F7F7F7"/>
<path d="M40.5939 13.2861H37.937V15.9431H40.5939V13.2861Z" fill="#F7F7F7"/>
<path d="M48.5642 13.2861H45.9072V15.9431H48.5642V13.2861Z" fill="#F7F7F7"/>
<path d="M51.2233 13.2861H48.5664V15.9431H51.2233V13.2861Z" fill="#F7F7F7"/>
<path d="M53.8801 13.2861H51.2231V15.9431H53.8801V13.2861Z" fill="#F7F7F7"/>
<path d="M56.5373 13.2861H53.8804V15.9431H56.5373V13.2861Z" fill="#F7F7F7"/>
<path d="M24.6516 15.9424H21.9946V18.5993H24.6516V15.9424Z" fill="#F7F7F7"/>
<path d="M29.965 15.9424H27.3081V18.5993H29.965V15.9424Z" fill="#F7F7F7"/>
<path d="M35.281 15.9424H32.624V18.5993H35.281V15.9424Z" fill="#F7F7F7"/>
<path d="M40.5939 15.9424H37.937V18.5993H40.5939V15.9424Z" fill="#F7F7F7"/>
<path d="M45.9079 15.9424H43.251V18.5993H45.9079V15.9424Z" fill="#F7F7F7"/>
<path d="M51.2233 15.9424H48.5664V18.5993H51.2233V15.9424Z" fill="#F7F7F7"/>
<path d="M56.5368 15.9424H53.8799V18.5993H56.5368V15.9424Z" fill="#F7F7F7"/>
<path d="M24.6516 18.5977H21.9946V21.2546H24.6516V18.5977Z" fill="#F7F7F7"/>
<path d="M27.3088 18.5977H24.6519V21.2546H27.3088V18.5977Z" fill="#F7F7F7"/>
<path d="M37.9372 18.5977H35.2803V21.2546H37.9372V18.5977Z" fill="#F7F7F7"/>
<path d="M40.5939 18.5977H37.937V21.2546H40.5939V18.5977Z" fill="#F7F7F7"/>
<path d="M43.2512 18.5977H40.5942V21.2546H43.2512V18.5977Z" fill="#F7F7F7"/>
<path d="M48.5642 18.5977H45.9072V21.2546H48.5642V18.5977Z" fill="#F7F7F7"/>
<path d="M51.2233 18.5977H48.5664V21.2546H51.2233V18.5977Z" fill="#F7F7F7"/>
<path d="M3.39766 21.2539H0.740723V23.9108H3.39766V21.2539Z" fill="#F7F7F7"/>
<path d="M8.70918 21.2539H6.05225V23.9108H8.70918V21.2539Z" fill="#F7F7F7"/>
<path d="M11.3708 21.2539H8.71387V23.9108H11.3708V21.2539Z" fill="#F7F7F7"/>
<path d="M16.6838 21.2539H14.0269V23.9108H16.6838V21.2539Z" fill="#F7F7F7"/>
<path d="M19.34 21.2539H16.6831V23.9108H19.34V21.2539Z" fill="#F7F7F7"/>
<path d="M21.9948 21.2539H19.3379V23.9108H21.9948V21.2539Z" fill="#F7F7F7"/>
<path d="M27.3088 21.2549H24.6519V23.9118H27.3088V21.2549Z" fill="#F7F7F7"/>
<path d="M37.9372 21.2549H35.2803V23.9118H37.9372V21.2549Z" fill="#F7F7F7"/>
<path d="M40.5949 21.2549H37.938V23.9118H40.5949V21.2549Z" fill="#F7F7F7"/>
<path d="M43.2512 21.2549H40.5942V23.9118H43.2512V21.2549Z" fill="#F7F7F7"/>
<path d="M45.9079 21.2549H43.251V23.9118H45.9079V21.2549Z" fill="#F7F7F7"/>
<path d="M48.5642 21.2539H45.9072V23.9108H48.5642V21.2539Z" fill="#F7F7F7"/>
<path d="M51.2233 21.2539H48.5664V23.9108H51.2233V21.2539Z" fill="#F7F7F7"/>
<path d="M61.8503 21.2539H59.1934V23.9108H61.8503V21.2539Z" fill="#F7F7F7"/>
<path d="M69.8181 21.2539H67.1611V23.9108H69.8181V21.2539Z" fill="#F7F7F7"/>
<path d="M75.1359 21.2539H72.479V23.9108H75.1359V21.2539Z" fill="#F7F7F7"/>
<path d="M77.7927 21.2539H75.1357V23.9108H77.7927V21.2539Z" fill="#F7F7F7"/>
<path d="M6.05244 23.9111H3.39551V26.5681H6.05244V23.9111Z" fill="#F7F7F7"/>
<path d="M8.70918 23.9111H6.05225V26.5681H8.70918V23.9111Z" fill="#F7F7F7"/>
<path d="M11.3708 23.9111H8.71387V26.5681H11.3708V23.9111Z" fill="#F7F7F7"/>
<path d="M16.6838 23.9111H14.0269V26.5681H16.6838V23.9111Z" fill="#F7F7F7"/>
<path d="M21.9948 23.9111H19.3379V26.5681H21.9948V23.9111Z" fill="#F7F7F7"/>
<path d="M24.6521 23.9111H21.9951V26.5681H24.6521V23.9111Z" fill="#F7F7F7"/>
<path d="M45.9079 23.9111H43.251V26.5681H45.9079V23.9111Z" fill="#F7F7F7"/>
<path d="M48.5642 23.9111H45.9072V26.5681H48.5642V23.9111Z" fill="#F7F7F7"/>
<path d="M51.2233 23.9111H48.5664V26.5681H51.2233V23.9111Z" fill="#F7F7F7"/>
<path d="M53.8801 23.9111H51.2231V26.5681H53.8801V23.9111Z" fill="#F7F7F7"/>
<path d="M56.5373 23.9111H53.8804V26.5681H56.5373V23.9111Z" fill="#F7F7F7"/>
<path d="M59.1936 23.9111H56.5366V26.5681H59.1936V23.9111Z" fill="#F7F7F7"/>
<path d="M61.8503 23.9111H59.1934V26.5681H61.8503V23.9111Z" fill="#F7F7F7"/>
<path d="M64.5051 23.9111H61.8481V26.5681H64.5051V23.9111Z" fill="#F7F7F7"/>
<path d="M67.1618 23.9111H64.5049V26.5681H67.1618V23.9111Z" fill="#F7F7F7"/>
<path d="M77.7927 23.9111H75.1357V26.5681H77.7927V23.9111Z" fill="#F7F7F7"/>
<path d="M3.39766 26.5674H0.740723V29.2243H3.39766V26.5674Z" fill="#F7F7F7"/>
<path d="M8.70918 26.5674H6.05225V29.2243H8.70918V26.5674Z" fill="#F7F7F7"/>
<path d="M14.0271 26.5674H11.3701V29.2243H14.0271V26.5674Z" fill="#F7F7F7"/>
<path d="M16.6838 26.5674H14.0269V29.2243H16.6838V26.5674Z" fill="#F7F7F7"/>
<path d="M19.34 26.5674H16.6831V29.2243H19.34V26.5674Z" fill="#F7F7F7"/>
<path d="M21.9948 26.5674H19.3379V29.2243H21.9948V26.5674Z" fill="#F7F7F7"/>
<path d="M29.965 26.5674H27.3081V29.2243H29.965V26.5674Z" fill="#F7F7F7"/>
<path d="M35.281 26.5674H32.624V29.2243H35.281V26.5674Z" fill="#F7F7F7"/>
<path d="M40.5949 26.5674H37.938V29.2243H40.5949V26.5674Z" fill="#F7F7F7"/>
<path d="M45.9079 26.5674H43.251V29.2243H45.9079V26.5674Z" fill="#F7F7F7"/>
<path d="M48.5642 26.5674H45.9072V29.2243H48.5642V26.5674Z" fill="#F7F7F7"/>
<path d="M51.2233 26.5674H48.5664V29.2243H51.2233V26.5674Z" fill="#F7F7F7"/>
<path d="M61.8503 26.5674H59.1934V29.2243H61.8503V26.5674Z" fill="#F7F7F7"/>
<path d="M64.5051 26.5674H61.8481V29.2243H64.5051V26.5674Z" fill="#F7F7F7"/>
<path d="M67.1618 26.5674H64.5049V29.2243H67.1618V26.5674Z" fill="#F7F7F7"/>
<path d="M72.4782 26.5674H69.8213V29.2243H72.4782V26.5674Z" fill="#F7F7F7"/>
<path d="M75.1359 26.5674H72.479V29.2243H75.1359V26.5674Z" fill="#F7F7F7"/>
<path d="M3.39766 29.2246H0.740723V31.8815H3.39766V29.2246Z" fill="#F7F7F7"/>
<path d="M11.3708 29.2246H8.71387V31.8815H11.3708V29.2246Z" fill="#F7F7F7"/>
<path d="M14.0271 29.2246H11.3701V31.8815H14.0271V29.2246Z" fill="#F7F7F7"/>
<path d="M16.6838 29.2246H14.0269V31.8815H16.6838V29.2246Z" fill="#F7F7F7"/>
<path d="M21.9948 29.2246H19.3379V31.8815H21.9948V29.2246Z" fill="#F7F7F7"/>
<path d="M29.965 29.2246H27.3081V31.8815H29.965V29.2246Z" fill="#F7F7F7"/>
<path d="M32.6242 29.2246H29.9673V31.8815H32.6242V29.2246Z" fill="#F7F7F7"/>
<path d="M37.9372 29.2246H35.2803V31.8815H37.9372V29.2246Z" fill="#F7F7F7"/>
<path d="M40.5939 29.2246H37.937V31.8815H40.5939V29.2246Z" fill="#F7F7F7"/>
<path d="M45.9079 29.2246H43.251V31.8815H45.9079V29.2246Z" fill="#F7F7F7"/>
<path d="M51.2233 29.2246H48.5664V31.8815H51.2233V29.2246Z" fill="#F7F7F7"/>
<path d="M53.8801 29.2246H51.2231V31.8815H53.8801V29.2246Z" fill="#F7F7F7"/>
<path d="M59.1936 29.2246H56.5366V31.8815H59.1936V29.2246Z" fill="#F7F7F7"/>
<path d="M61.8503 29.2246H59.1934V31.8815H61.8503V29.2246Z" fill="#F7F7F7"/>
<path d="M64.5051 29.2246H61.8481V31.8815H64.5051V29.2246Z" fill="#F7F7F7"/>
<path d="M67.1618 29.2246H64.5049V31.8815H67.1618V29.2246Z" fill="#F7F7F7"/>
<path d="M77.7927 29.2246H75.1357V31.8815H77.7927V29.2246Z" fill="#F7F7F7"/>
<path d="M6.05244 31.8838H3.39551V34.5407H6.05244V31.8838Z" fill="#F7F7F7"/>
<path d="M8.70918 31.8838H6.05225V34.5407H8.70918V31.8838Z" fill="#F7F7F7"/>
<path d="M11.3708 31.8838H8.71387V34.5407H11.3708V31.8838Z" fill="#F7F7F7"/>
<path d="M16.6838 31.8838H14.0269V34.5407H16.6838V31.8838Z" fill="#F7F7F7"/>
<path d="M19.34 31.8838H16.6831V34.5407H19.34V31.8838Z" fill="#F7F7F7"/>
<path d="M21.9948 31.8838H19.3379V34.5407H21.9948V31.8838Z" fill="#F7F7F7"/>
<path d="M29.965 31.8838H27.3081V34.5407H29.965V31.8838Z" fill="#F7F7F7"/>
<path d="M32.6242 31.8838H29.9673V34.5407H32.6242V31.8838Z" fill="#F7F7F7"/>
<path d="M35.281 31.8838H32.624V34.5407H35.281V31.8838Z" fill="#F7F7F7"/>
<path d="M43.2512 31.8838H40.5942V34.5407H43.2512V31.8838Z" fill="#F7F7F7"/>
<path d="M48.5642 31.8838H45.9072V34.5407H48.5642V31.8838Z" fill="#F7F7F7"/>
<path d="M51.2233 31.8838H48.5664V34.5407H51.2233V31.8838Z" fill="#F7F7F7"/>
<path d="M69.8181 31.8838H67.1611V34.5407H69.8181V31.8838Z" fill="#F7F7F7"/>
<path d="M72.4782 31.8838H69.8213V34.5407H72.4782V31.8838Z" fill="#F7F7F7"/>
<path d="M3.39766 34.54H0.740723V37.197H3.39766V34.54Z" fill="#F7F7F7"/>
<path d="M6.05244 34.54H3.39551V37.197H6.05244V34.54Z" fill="#F7F7F7"/>
<path d="M8.70918 34.54H6.05225V37.197H8.70918V34.54Z" fill="#F7F7F7"/>
<path d="M11.3708 34.54H8.71387V37.197H11.3708V34.54Z" fill="#F7F7F7"/>
<path d="M21.9948 34.54H19.3379V37.197H21.9948V34.54Z" fill="#F7F7F7"/>
<path d="M27.3088 34.54H24.6519V37.197H27.3088V34.54Z" fill="#F7F7F7"/>
<path d="M32.6242 34.54H29.9673V37.197H32.6242V34.54Z" fill="#F7F7F7"/>
<path d="M37.9372 34.54H35.2803V37.197H37.9372V34.54Z" fill="#F7F7F7"/>
<path d="M43.2512 34.54H40.5942V37.197H43.2512V34.54Z" fill="#F7F7F7"/>
<path d="M45.9079 34.54H43.251V37.197H45.9079V34.54Z" fill="#F7F7F7"/>
<path d="M53.8801 34.54H51.2231V37.197H53.8801V34.54Z" fill="#F7F7F7"/>
<path d="M61.8503 34.54H59.1934V37.197H61.8503V34.54Z" fill="#F7F7F7"/>
<path d="M64.5051 34.54H61.8481V37.197H64.5051V34.54Z" fill="#F7F7F7"/>
<path d="M72.4782 34.54H69.8213V37.197H72.4782V34.54Z" fill="#F7F7F7"/>
<path d="M75.1359 34.54H72.479V37.197H75.1359V34.54Z" fill="#F7F7F7"/>
<path d="M77.7927 34.54H75.1357V37.197H77.7927V34.54Z" fill="#F7F7F7"/>
<path d="M3.39766 37.1963H0.740723V39.8532H3.39766V37.1963Z" fill="#F7F7F7"/>
<path d="M11.3708 37.1963H8.71387V39.8532H11.3708V37.1963Z" fill="#F7F7F7"/>
<path d="M14.0271 37.1963H11.3701V39.8532H14.0271V37.1963Z" fill="#F7F7F7"/>
<path d="M16.6838 37.1963H14.0269V39.8532H16.6838V37.1963Z" fill="#F7F7F7"/>
<path d="M19.34 37.1963H16.6831V39.8532H19.34V37.1963Z" fill="#F7F7F7"/>
<path d="M27.3088 37.1973H24.6519V39.8542H27.3088V37.1973Z" fill="#F7F7F7"/>
<path d="M35.281 37.1963H32.624V39.8532H35.281V37.1963Z" fill="#F7F7F7"/>
<path d="M40.5949 37.1973H37.938V39.8542H40.5949V37.1973Z" fill="#F7F7F7"/>
<path d="M45.9079 37.1973H43.251V39.8542H45.9079V37.1973Z" fill="#F7F7F7"/>
<path d="M48.5642 37.1963H45.9072V39.8532H48.5642V37.1963Z" fill="#F7F7F7"/>
<path d="M51.2233 37.1963H48.5664V39.8532H51.2233V37.1963Z" fill="#F7F7F7"/>
<path d="M53.8801 37.1973H51.2231V39.8542H53.8801V37.1973Z" fill="#F7F7F7"/>
<path d="M59.194 37.1973H56.5371V39.8542H59.194V37.1973Z" fill="#F7F7F7"/>
<path d="M64.5051 37.1963H61.8481V39.8532H64.5051V37.1963Z" fill="#F7F7F7"/>
<path d="M67.1618 37.1963H64.5049V39.8532H67.1618V37.1963Z" fill="#F7F7F7"/>
<path d="M72.4782 37.1963H69.8213V39.8532H72.4782V37.1963Z" fill="#F7F7F7"/>
<path d="M75.1359 37.1963H72.479V39.8532H75.1359V37.1963Z" fill="#F7F7F7"/>
<path d="M77.7927 37.1963H75.1357V39.8532H77.7927V37.1963Z" fill="#F7F7F7"/>
<path d="M3.39766 39.8535H0.740723V42.5105H3.39766V39.8535Z" fill="#F7F7F7"/>
<path d="M6.05244 39.8535H3.39551V42.5105H6.05244V39.8535Z" fill="#F7F7F7"/>
<path d="M8.70918 39.8535H6.05225V42.5105H8.70918V39.8535Z" fill="#F7F7F7"/>
<path d="M14.0271 39.8535H11.3701V42.5105H14.0271V39.8535Z" fill="#F7F7F7"/>
<path d="M21.9948 39.8535H19.3379V42.5105H21.9948V39.8535Z" fill="#F7F7F7"/>
<path d="M27.3088 39.8535H24.6519V42.5105H27.3088V39.8535Z" fill="#F7F7F7"/>
<path d="M29.965 39.8535H27.3081V42.5105H29.965V39.8535Z" fill="#F7F7F7"/>
<path d="M37.9372 39.8535H35.2803V42.5105H37.9372V39.8535Z" fill="#F7F7F7"/>
<path d="M43.2512 39.8535H40.5942V42.5105H43.2512V39.8535Z" fill="#F7F7F7"/>
<path d="M45.9079 39.8535H43.251V42.5105H45.9079V39.8535Z" fill="#F7F7F7"/>
<path d="M53.8801 39.8535H51.2231V42.5105H53.8801V39.8535Z" fill="#F7F7F7"/>
<path d="M59.194 39.8535H56.5371V42.5105H59.194V39.8535Z" fill="#F7F7F7"/>
<path d="M61.8503 39.8535H59.1934V42.5105H61.8503V39.8535Z" fill="#F7F7F7"/>
<path d="M64.5051 39.8535H61.8481V42.5105H64.5051V39.8535Z" fill="#F7F7F7"/>
<path d="M67.1618 39.8535H64.5049V42.5105H67.1618V39.8535Z" fill="#F7F7F7"/>
<path d="M75.1359 39.8535H72.479V42.5105H75.1359V39.8535Z" fill="#F7F7F7"/>
<path d="M6.05244 42.5098H3.39551V45.1667H6.05244V42.5098Z" fill="#F7F7F7"/>
<path d="M14.0271 42.5098H11.3701V45.1667H14.0271V42.5098Z" fill="#F7F7F7"/>
<path d="M19.34 42.5098H16.6831V45.1667H19.34V42.5098Z" fill="#F7F7F7"/>
<path d="M21.9948 42.5098H19.3379V45.1667H21.9948V42.5098Z" fill="#F7F7F7"/>
<path d="M24.6521 42.5098H21.9951V45.1667H24.6521V42.5098Z" fill="#F7F7F7"/>
<path d="M29.965 42.5098H27.3081V45.1667H29.965V42.5098Z" fill="#F7F7F7"/>
<path d="M32.6242 42.5098H29.9673V45.1667H32.6242V42.5098Z" fill="#F7F7F7"/>
<path d="M35.281 42.5098H32.624V45.1667H35.281V42.5098Z" fill="#F7F7F7"/>
<path d="M51.2233 42.5098H48.5664V45.1667H51.2233V42.5098Z" fill="#F7F7F7"/>
<path d="M59.1936 42.5098H56.5366V45.1667H59.1936V42.5098Z" fill="#F7F7F7"/>
<path d="M67.1618 42.5098H64.5049V45.1667H67.1618V42.5098Z" fill="#F7F7F7"/>
<path d="M69.8181 42.5098H67.1611V45.1667H69.8181V42.5098Z" fill="#F7F7F7"/>
<path d="M75.1359 42.5098H72.479V45.1667H75.1359V42.5098Z" fill="#F7F7F7"/>
<path d="M6.05244 45.167H3.39551V47.8239H6.05244V45.167Z" fill="#F7F7F7"/>
<path d="M8.70918 45.167H6.05225V47.8239H8.70918V45.167Z" fill="#F7F7F7"/>
<path d="M11.3708 45.167H8.71387V47.8239H11.3708V45.167Z" fill="#F7F7F7"/>
<path d="M14.0271 45.167H11.3701V47.8239H14.0271V45.167Z" fill="#F7F7F7"/>
<path d="M16.6838 45.167H14.0269V47.8239H16.6838V45.167Z" fill="#F7F7F7"/>
<path d="M24.6516 45.167H21.9946V47.8239H24.6516V45.167Z" fill="#F7F7F7"/>
<path d="M35.281 45.167H32.624V47.8239H35.281V45.167Z" fill="#F7F7F7"/>
<path d="M37.9372 45.167H35.2803V47.8239H37.9372V45.167Z" fill="#F7F7F7"/>
<path d="M43.2512 45.167H40.5942V47.8239H43.2512V45.167Z" fill="#F7F7F7"/>
<path d="M51.2233 45.167H48.5664V47.8239H51.2233V45.167Z" fill="#F7F7F7"/>
<path d="M56.5373 45.167H53.8804V47.8239H56.5373V45.167Z" fill="#F7F7F7"/>
<path d="M59.1936 45.167H56.5366V47.8239H59.1936V45.167Z" fill="#F7F7F7"/>
<path d="M64.5051 45.167H61.8481V47.8239H64.5051V45.167Z" fill="#F7F7F7"/>
<path d="M69.8181 45.167H67.1611V47.8239H69.8181V45.167Z" fill="#F7F7F7"/>
<path d="M72.4782 45.167H69.8213V47.8239H72.4782V45.167Z" fill="#F7F7F7"/>
<path d="M75.1359 45.167H72.479V47.8239H75.1359V45.167Z" fill="#F7F7F7"/>
<path d="M3.39766 47.8232H0.740723V50.4802H3.39766V47.8232Z" fill="#F7F7F7"/>
<path d="M11.3708 47.8232H8.71387V50.4802H11.3708V47.8232Z" fill="#F7F7F7"/>
<path d="M16.6838 47.8232H14.0269V50.4802H16.6838V47.8232Z" fill="#F7F7F7"/>
<path d="M19.34 47.8232H16.6831V50.4802H19.34V47.8232Z" fill="#F7F7F7"/>
<path d="M27.3088 47.8232H24.6519V50.4802H27.3088V47.8232Z" fill="#F7F7F7"/>
<path d="M43.2512 47.8232H40.5942V50.4802H43.2512V47.8232Z" fill="#F7F7F7"/>
<path d="M48.5642 47.8232H45.9072V50.4802H48.5642V47.8232Z" fill="#F7F7F7"/>
<path d="M51.2233 47.8232H48.5664V50.4802H51.2233V47.8232Z" fill="#F7F7F7"/>
<path d="M56.5373 47.8232H53.8804V50.4802H56.5373V47.8232Z" fill="#F7F7F7"/>
<path d="M59.1936 47.8232H56.5366V50.4802H59.1936V47.8232Z" fill="#F7F7F7"/>
<path d="M64.5051 47.8232H61.8481V50.4802H64.5051V47.8232Z" fill="#F7F7F7"/>
<path d="M72.4782 47.8232H69.8213V50.4802H72.4782V47.8232Z" fill="#F7F7F7"/>
<path d="M16.6838 50.4824H14.0269V53.1394H16.6838V50.4824Z" fill="#F7F7F7"/>
<path d="M29.965 50.4824H27.3081V53.1394H29.965V50.4824Z" fill="#F7F7F7"/>
<path d="M32.6242 50.4824H29.9673V53.1394H32.6242V50.4824Z" fill="#F7F7F7"/>
<path d="M35.281 50.4824H32.624V53.1394H35.281V50.4824Z" fill="#F7F7F7"/>
<path d="M43.2512 50.4824H40.5942V53.1394H43.2512V50.4824Z" fill="#F7F7F7"/>
<path d="M45.9079 50.4824H43.251V53.1394H45.9079V50.4824Z" fill="#F7F7F7"/>
<path d="M48.5642 50.4824H45.9072V53.1394H48.5642V50.4824Z" fill="#F7F7F7"/>
<path d="M53.8801 50.4824H51.2231V53.1394H53.8801V50.4824Z" fill="#F7F7F7"/>
<path d="M59.1936 50.4824H56.5366V53.1394H59.1936V50.4824Z" fill="#F7F7F7"/>
<path d="M61.8503 50.4824H59.1934V53.1394H61.8503V50.4824Z" fill="#F7F7F7"/>
<path d="M72.4782 50.4824H69.8213V53.1394H72.4782V50.4824Z" fill="#F7F7F7"/>
<path d="M6.05244 53.1396H3.39551V55.7966H6.05244V53.1396Z" fill="#F7F7F7"/>
<path d="M8.70918 53.1396H6.05225V55.7966H8.70918V53.1396Z" fill="#F7F7F7"/>
<path d="M11.3708 53.1396H8.71387V55.7966H11.3708V53.1396Z" fill="#F7F7F7"/>
<path d="M14.0271 53.1396H11.3701V55.7966H14.0271V53.1396Z" fill="#F7F7F7"/>
<path d="M16.6838 53.1396H14.0269V55.7966H16.6838V53.1396Z" fill="#F7F7F7"/>
<path d="M19.34 53.1396H16.6831V55.7966H19.34V53.1396Z" fill="#F7F7F7"/>
<path d="M27.3088 53.1396H24.6519V55.7966H27.3088V53.1396Z" fill="#F7F7F7"/>
<path d="M32.6242 53.1396H29.9673V55.7966H32.6242V53.1396Z" fill="#F7F7F7"/>
<path d="M35.281 53.1396H32.624V55.7966H35.281V53.1396Z" fill="#F7F7F7"/>
<path d="M37.9372 53.1396H35.2803V55.7966H37.9372V53.1396Z" fill="#F7F7F7"/>
<path d="M43.2512 53.1396H40.5942V55.7966H43.2512V53.1396Z" fill="#F7F7F7"/>
<path d="M45.9079 53.1396H43.251V55.7966H45.9079V53.1396Z" fill="#F7F7F7"/>
<path d="M48.5642 53.1396H45.9072V55.7966H48.5642V53.1396Z" fill="#F7F7F7"/>
<path d="M51.2233 53.1396H48.5664V55.7966H51.2233V53.1396Z" fill="#F7F7F7"/>
<path d="M53.8801 53.1396H51.2231V55.7966H53.8801V53.1396Z" fill="#F7F7F7"/>
<path d="M56.5373 53.1396H53.8804V55.7966H56.5373V53.1396Z" fill="#F7F7F7"/>
<path d="M59.1936 53.1396H56.5366V55.7966H59.1936V53.1396Z" fill="#F7F7F7"/>
<path d="M61.8503 53.1396H59.1934V55.7966H61.8503V53.1396Z" fill="#F7F7F7"/>
<path d="M64.5051 53.1396H61.8481V55.7966H64.5051V53.1396Z" fill="#F7F7F7"/>
<path d="M67.1618 53.1396H64.5049V55.7966H67.1618V53.1396Z" fill="#F7F7F7"/>
<path d="M69.8181 53.1396H67.1611V55.7966H69.8181V53.1396Z" fill="#F7F7F7"/>
<path d="M72.4782 53.1396H69.8213V55.7966H72.4782V53.1396Z" fill="#F7F7F7"/>
<path d="M24.6521 55.7959H21.9951V58.4528H24.6521V55.7959Z" fill="#F7F7F7"/>
<path d="M29.965 55.7959H27.3081V58.4528H29.965V55.7959Z" fill="#F7F7F7"/>
<path d="M32.6242 55.7959H29.9673V58.4528H32.6242V55.7959Z" fill="#F7F7F7"/>
<path d="M37.9372 55.7959H35.2803V58.4528H37.9372V55.7959Z" fill="#F7F7F7"/>
<path d="M40.5949 55.7959H37.938V58.4528H40.5949V55.7959Z" fill="#F7F7F7"/>
<path d="M45.9079 55.7959H43.251V58.4528H45.9079V55.7959Z" fill="#F7F7F7"/>
<path d="M51.2233 55.7959H48.5664V58.4528H51.2233V55.7959Z" fill="#F7F7F7"/>
<path d="M56.5368 55.7959H53.8799V58.4528H56.5368V55.7959Z" fill="#F7F7F7"/>
<path d="M67.1618 55.7959H64.5049V58.4528H67.1618V55.7959Z" fill="#F7F7F7"/>
<path d="M69.8181 55.7959H67.1611V58.4528H69.8181V55.7959Z" fill="#F7F7F7"/>
<path d="M72.4782 55.7959H69.8213V58.4528H72.4782V55.7959Z" fill="#F7F7F7"/>
<path d="M75.1359 55.7959H72.479V58.4528H75.1359V55.7959Z" fill="#F7F7F7"/>
<path d="M77.7927 55.7959H75.1357V58.4528H77.7927V55.7959Z" fill="#F7F7F7"/>
<path d="M24.6516 58.4531H21.9946V61.1101H24.6516V58.4531Z" fill="#F7F7F7"/>
<path d="M27.3088 58.4531H24.6519V61.1101H27.3088V58.4531Z" fill="#F7F7F7"/>
<path d="M29.965 58.4531H27.3081V61.1101H29.965V58.4531Z" fill="#F7F7F7"/>
<path d="M32.6242 58.4531H29.9673V61.1101H32.6242V58.4531Z" fill="#F7F7F7"/>
<path d="M35.281 58.4531H32.624V61.1101H35.281V58.4531Z" fill="#F7F7F7"/>
<path d="M37.9372 58.4531H35.2803V61.1101H37.9372V58.4531Z" fill="#F7F7F7"/>
<path d="M45.9079 58.4531H43.251V61.1101H45.9079V58.4531Z" fill="#F7F7F7"/>
<path d="M48.5642 58.4531H45.9072V61.1101H48.5642V58.4531Z" fill="#F7F7F7"/>
<path d="M51.2233 58.4531H48.5664V61.1101H51.2233V58.4531Z" fill="#F7F7F7"/>
<path d="M53.8801 58.4531H51.2231V61.1101H53.8801V58.4531Z" fill="#F7F7F7"/>
<path d="M56.5368 58.4531H53.8799V61.1101H56.5368V58.4531Z" fill="#F7F7F7"/>
<path d="M61.8503 58.4531H59.1934V61.1101H61.8503V58.4531Z" fill="#F7F7F7"/>
<path d="M67.1618 58.4531H64.5049V61.1101H67.1618V58.4531Z" fill="#F7F7F7"/>
<path d="M69.8181 58.4531H67.1611V61.1101H69.8181V58.4531Z" fill="#F7F7F7"/>
<path d="M75.1359 58.4531H72.479V61.1101H75.1359V58.4531Z" fill="#F7F7F7"/>
<path d="M24.6516 61.1074H21.9946V63.7644H24.6516V61.1074Z" fill="#F7F7F7"/>
<path d="M27.3088 61.1074H24.6519V63.7644H27.3088V61.1074Z" fill="#F7F7F7"/>
<path d="M45.9079 61.1074H43.251V63.7644H45.9079V61.1074Z" fill="#F7F7F7"/>
<path d="M51.2233 61.1074H48.5664V63.7644H51.2233V61.1074Z" fill="#F7F7F7"/>
<path d="M56.5373 61.1074H53.8804V63.7644H56.5373V61.1074Z" fill="#F7F7F7"/>
<path d="M67.1618 61.1074H64.5049V63.7644H67.1618V61.1074Z" fill="#F7F7F7"/>
<path d="M69.8181 61.1074H67.1611V63.7644H69.8181V61.1074Z" fill="#F7F7F7"/>
<path d="M75.1359 61.1074H72.479V63.7644H75.1359V61.1074Z" fill="#F7F7F7"/>
<path d="M77.7927 61.1074H75.1357V63.7644H77.7927V61.1074Z" fill="#F7F7F7"/>
<path d="M27.3088 63.7637H24.6519V66.4206H27.3088V63.7637Z" fill="#F7F7F7"/>
<path d="M32.6242 63.7637H29.9673V66.4206H32.6242V63.7637Z" fill="#F7F7F7"/>
<path d="M40.5939 63.7637H37.937V66.4206H40.5939V63.7637Z" fill="#F7F7F7"/>
<path d="M43.2512 63.7637H40.5942V66.4206H43.2512V63.7637Z" fill="#F7F7F7"/>
<path d="M48.5642 63.7637H45.9072V66.4206H48.5642V63.7637Z" fill="#F7F7F7"/>
<path d="M56.5368 63.7637H53.8799V66.4206H56.5368V63.7637Z" fill="#F7F7F7"/>
<path d="M59.194 63.7637H56.5371V66.4206H59.194V63.7637Z" fill="#F7F7F7"/>
<path d="M61.8503 63.7637H59.1934V66.4206H61.8503V63.7637Z" fill="#F7F7F7"/>
<path d="M64.5051 63.7637H61.8481V66.4206H64.5051V63.7637Z" fill="#F7F7F7"/>
<path d="M67.1618 63.7637H64.5049V66.4206H67.1618V63.7637Z" fill="#F7F7F7"/>
<path d="M72.4782 63.7637H69.8213V66.4206H72.4782V63.7637Z" fill="#F7F7F7"/>
<path d="M24.6516 66.4209H21.9946V69.0778H24.6516V66.4209Z" fill="#F7F7F7"/>
<path d="M27.3088 66.4209H24.6519V69.0778H27.3088V66.4209Z" fill="#F7F7F7"/>
<path d="M32.6242 66.4209H29.9673V69.0778H32.6242V66.4209Z" fill="#F7F7F7"/>
<path d="M37.9372 66.4209H35.2803V69.0778H37.9372V66.4209Z" fill="#F7F7F7"/>
<path d="M40.5939 66.4209H37.937V69.0778H40.5939V66.4209Z" fill="#F7F7F7"/>
<path d="M43.2512 66.4209H40.5942V69.0778H43.2512V66.4209Z" fill="#F7F7F7"/>
<path d="M45.9079 66.4209H43.251V69.0778H45.9079V66.4209Z" fill="#F7F7F7"/>
<path d="M48.5642 66.4209H45.9072V69.0778H48.5642V66.4209Z" fill="#F7F7F7"/>
<path d="M53.8801 66.4209H51.2231V69.0778H53.8801V66.4209Z" fill="#F7F7F7"/>
<path d="M56.5368 66.4209H53.8799V69.0778H56.5368V66.4209Z" fill="#F7F7F7"/>
<path d="M59.194 66.4209H56.5371V69.0778H59.194V66.4209Z" fill="#F7F7F7"/>
<path d="M67.1618 66.4209H64.5049V69.0778H67.1618V66.4209Z" fill="#F7F7F7"/>
<path d="M69.8181 66.4209H67.1611V69.0778H69.8181V66.4209Z" fill="#F7F7F7"/>
<path d="M77.7927 66.4209H75.1357V69.0778H77.7927V66.4209Z" fill="#F7F7F7"/>
<path d="M24.6516 69.0781H21.9946V71.7351H24.6516V69.0781Z" fill="#F7F7F7"/>
<path d="M29.965 69.0781H27.3081V71.7351H29.965V69.0781Z" fill="#F7F7F7"/>
<path d="M37.9372 69.0781H35.2803V71.7351H37.9372V69.0781Z" fill="#F7F7F7"/>
<path d="M40.5939 69.0781H37.937V71.7351H40.5939V69.0781Z" fill="#F7F7F7"/>
<path d="M45.9079 69.0781H43.251V71.7351H45.9079V69.0781Z" fill="#F7F7F7"/>
<path d="M51.2233 69.0781H48.5664V71.7351H51.2233V69.0781Z" fill="#F7F7F7"/>
<path d="M53.8801 69.0781H51.2231V71.7351H53.8801V69.0781Z" fill="#F7F7F7"/>
<path d="M59.1936 69.0781H56.5366V71.7351H59.1936V69.0781Z" fill="#F7F7F7"/>
<path d="M64.5051 69.0781H61.8481V71.7351H64.5051V69.0781Z" fill="#F7F7F7"/>
<path d="M72.4782 69.0781H69.8213V71.7351H72.4782V69.0781Z" fill="#F7F7F7"/>
<path d="M77.7927 69.0781H75.1357V71.7351H77.7927V69.0781Z" fill="#F7F7F7"/>
<path d="M27.3088 71.7383H24.6519V74.3952H27.3088V71.7383Z" fill="#F7F7F7"/>
<path d="M29.965 71.7383H27.3081V74.3952H29.965V71.7383Z" fill="#F7F7F7"/>
<path d="M40.5939 71.7383H37.937V74.3952H40.5939V71.7383Z" fill="#F7F7F7"/>
<path d="M43.2512 71.7383H40.5942V74.3952H43.2512V71.7383Z" fill="#F7F7F7"/>
<path d="M51.2233 71.7383H48.5664V74.3952H51.2233V71.7383Z" fill="#F7F7F7"/>
<path d="M56.5373 71.7383H53.8804V74.3952H56.5373V71.7383Z" fill="#F7F7F7"/>
<path d="M64.5051 71.7383H61.8481V74.3952H64.5051V71.7383Z" fill="#F7F7F7"/>
<path d="M69.8181 71.7383H67.1611V74.3952H69.8181V71.7383Z" fill="#F7F7F7"/>
<path d="M75.1359 71.7383H72.479V74.3952H75.1359V71.7383Z" fill="#F7F7F7"/>
<path d="M24.6516 74.3955H21.9946V77.0524H24.6516V74.3955Z" fill="#F7F7F7"/>
<path d="M29.965 74.3955H27.3081V77.0524H29.965V74.3955Z" fill="#F7F7F7"/>
<path d="M45.9079 74.3955H43.251V77.0524H45.9079V74.3955Z" fill="#F7F7F7"/>
<path d="M51.2233 74.3955H48.5664V77.0524H51.2233V74.3955Z" fill="#F7F7F7"/>
<path d="M53.8801 74.3955H51.2231V77.0524H53.8801V74.3955Z" fill="#F7F7F7"/>
<path d="M56.5373 74.3955H53.8804V77.0524H56.5373V74.3955Z" fill="#F7F7F7"/>
<path d="M69.8181 74.3955H67.1611V77.0524H69.8181V74.3955Z" fill="#F7F7F7"/>
<path d="M75.1359 74.3955H72.479V77.0524H75.1359V74.3955Z" fill="#F7F7F7"/>
<path d="M16.549 0L3.53002 0L0.740234 0V2.78978V15.8088V18.5986H3.53002H16.549H19.3388V15.8088V2.78978V0L16.549 0ZM16.549 15.8088H3.53002V2.78978H16.549V15.8088Z" fill="#F7F7F7"/>
<path d="M75.0002 0L61.9812 0L59.1914 0V2.78978V15.8088V18.5986H61.9812H75.0002H77.79V15.8088V2.78978V0L75.0002 0ZM75.0002 15.8088H61.9812V2.78978H75.0002V15.8088Z" fill="#F7F7F7"/>
<path d="M16.549 58.4512H3.53002H0.740234V61.241V74.2599V77.0497H3.53002H16.549H19.3388V74.2599V61.241V58.4512H16.549ZM16.549 74.2599H3.53002V61.241H16.549V74.2599Z" fill="#F7F7F7"/>
<path d="M14.0231 5.31152H6.05225V13.2823H14.0231V5.31152Z" fill="#F7F7F7"/>
<path d="M72.4757 5.31152H64.5049V13.2823H72.4757V5.31152Z" fill="#F7F7F7"/>
<path d="M14.0231 63.7637H6.05225V71.7345H14.0231V63.7637Z" fill="#F7F7F7"/>
</svg>
