<svg width="24" height="24" viewBox="0 0 24 24" fill="none" xmlns="http://www.w3.org/2000/svg">
<path d="M22.5797 10H12.2197V14.26H18.1397C17.8797 15.63 17.0997 16.79 15.9297 17.57C14.9497 18.23 13.6997 18.63 12.2197 18.63C9.35973 18.63 6.92973 16.7 6.05973 14.1H6.04673L6.05973 14.09C5.83973 13.43 5.70973 12.73 5.70973 12C5.70973 11.27 5.83973 10.57 6.05973 9.91C6.92973 7.31 9.35973 5.38 12.2197 5.38C13.8397 5.38 15.2797 5.94 16.4297 7.02L19.5797 3.87C17.6697 2.09 15.1897 1 12.2197 1C7.91973 1 4.20973 3.47 2.39973 7.07C1.64973 8.55 1.21973 10.22 1.21973 12C1.21973 13.78 1.64973 15.45 2.39973 16.93V16.94C4.20973 20.53 7.91973 23 12.2197 23C15.1897 23 17.6797 22.02 19.4997 20.34C21.5797 18.42 22.7797 15.6 22.7797 12.25C22.7797 11.47 22.7097 10.72 22.5797 10Z" fill="#FC4C53"/>
<mask id="mask0_2312_21658" style="mask-type:luminance" maskUnits="userSpaceOnUse" x="1" y="1" width="22" height="22">
<path d="M22.5797 10H12.2197V14.26H18.1397C17.8797 15.63 17.0997 16.79 15.9297 17.57C14.9497 18.23 13.6997 18.63 12.2197 18.63C9.35973 18.63 6.92973 16.7 6.05973 14.1H6.04673L6.05973 14.09C5.83973 13.43 5.70973 12.73 5.70973 12C5.70973 11.27 5.83973 10.57 6.05973 9.91C6.92973 7.31 9.35973 5.38 12.2197 5.38C13.8397 5.38 15.2797 5.94 16.4297 7.02L19.5797 3.87C17.6697 2.09 15.1897 1 12.2197 1C7.91973 1 4.20973 3.47 2.39973 7.07C1.64973 8.55 1.21973 10.22 1.21973 12C1.21973 13.78 1.64973 15.45 2.39973 16.93V16.94C4.20973 20.53 7.91973 23 12.2197 23C15.1897 23 17.6797 22.02 19.4997 20.34C21.5797 18.42 22.7797 15.6 22.7797 12.25C22.7797 11.47 22.7097 10.72 22.5797 10Z" fill="white"/>
</mask>
<g mask="url(#mask0_2312_21658)">
<path d="M3.86535 24.041C8.14832 24.041 11.6204 19.3539 11.6204 13.572C11.6204 7.79016 8.14832 3.10303 3.86535 3.10303C-0.417616 3.10303 -3.88965 7.79016 -3.88965 13.572C-3.88965 19.3539 -0.417616 24.041 3.86535 24.041Z" fill="url(#paint0_radial_2312_21658)"/>
<path d="M17.2404 34.6619C25.88 33.5827 32.2198 27.3923 31.4008 20.8351C30.5817 14.278 22.9139 9.83726 14.2743 10.9164C5.63466 11.9956 -0.705163 18.1861 0.113895 24.7432C0.932954 31.3003 8.60073 35.7411 17.2404 34.6619Z" fill="url(#paint1_radial_2312_21658)"/>
<path d="M11.3242 8.28003L11.8152 13.876L12.4382 17.623L19.8002 24.471L28.4072 8.57403L11.3242 8.28003Z" fill="url(#paint2_linear_2312_21658)"/>
</g>
<defs>
<radialGradient id="paint0_radial_2312_21658" cx="0" cy="0" r="1" gradientUnits="userSpaceOnUse" gradientTransform="translate(3.86628 13.5718) scale(7.7549 10.468)">
<stop offset="0.368" stop-color="#FFCF09"/>
<stop offset="0.718" stop-color="#FFCF09" stop-opacity="0.7"/>
<stop offset="1" stop-color="#FFCF09" stop-opacity="0"/>
</radialGradient>
<radialGradient id="paint1_radial_2312_21658" cx="0" cy="0" r="1" gradientUnits="userSpaceOnUse" gradientTransform="translate(15.7577 22.7892) rotate(-7.12) scale(15.7645 11.9647)">
<stop offset="0.383" stop-color="#34A853"/>
<stop offset="0.706" stop-color="#34A853" stop-opacity="0.7"/>
<stop offset="1" stop-color="#34A853" stop-opacity="0"/>
</radialGradient>
<linearGradient id="paint2_linear_2312_21658" x1="23.7772" y1="6.28603" x2="12.3672" y2="20.299" gradientUnits="userSpaceOnUse">
<stop offset="0.671" stop-color="#4285F4"/>
<stop offset="0.885" stop-color="#4285F4" stop-opacity="0"/>
</linearGradient>
</defs>
</svg>
