<svg width="78" height="78" viewBox="0 0 78 78" fill="none" xmlns="http://www.w3.org/2000/svg">
<path d="M28.27 0L25.188 0V3.08205H28.27V0Z" fill="#F7F7F7"/>
<path d="M31.353 0L28.271 0V3.08205H31.353V0Z" fill="#F7F7F7"/>
<path d="M40.5982 0L37.5161 0V3.08205H40.5982V0Z" fill="#F7F7F7"/>
<path d="M43.6812 0L40.5991 0V3.08205H43.6812V0Z" fill="#F7F7F7"/>
<path d="M52.9273 0L49.8452 0V3.08205H52.9273V0Z" fill="#F7F7F7"/>
<path d="M28.27 3.08105H25.188V6.1631H28.27V3.08105Z" fill="#F7F7F7"/>
<path d="M31.353 3.08105H28.271V6.1631H31.353V3.08105Z" fill="#F7F7F7"/>
<path d="M34.4346 3.08105H31.3525V6.1631H34.4346V3.08105Z" fill="#F7F7F7"/>
<path d="M40.5982 3.08105H37.5161V6.1631H40.5982V3.08105Z" fill="#F7F7F7"/>
<path d="M43.6812 3.08105H40.5991V6.1631H43.6812V3.08105Z" fill="#F7F7F7"/>
<path d="M52.9273 3.08105H49.8452V6.1631H52.9273V3.08105Z" fill="#F7F7F7"/>
<path d="M34.4346 6.16406H31.3525V9.24611H34.4346V6.16406Z" fill="#F7F7F7"/>
<path d="M40.5982 6.16406H37.5161V9.24611H40.5982V6.16406Z" fill="#F7F7F7"/>
<path d="M43.6812 6.16406H40.5991V9.24611H43.6812V6.16406Z" fill="#F7F7F7"/>
<path d="M52.9273 6.16406H49.8452V9.24611H52.9273V6.16406Z" fill="#F7F7F7"/>
<path d="M28.27 9.24609H25.188V12.3281H28.27V9.24609Z" fill="#F7F7F7"/>
<path d="M34.4346 9.24609H31.3525V12.3281H34.4346V9.24609Z" fill="#F7F7F7"/>
<path d="M37.5156 9.24609H34.4336V12.3281H37.5156V9.24609Z" fill="#F7F7F7"/>
<path d="M43.6807 9.24609H40.5986V12.3281H43.6807V9.24609Z" fill="#F7F7F7"/>
<path d="M46.7637 9.24609H43.6816V12.3281H46.7637V9.24609Z" fill="#F7F7F7"/>
<path d="M49.8447 9.24609H46.7627V12.3281H49.8447V9.24609Z" fill="#F7F7F7"/>
<path d="M31.3526 12.3262H28.2705V15.4082H31.3526V12.3262Z" fill="#F7F7F7"/>
<path d="M34.4346 12.3262H31.3525V15.4082H34.4346V12.3262Z" fill="#F7F7F7"/>
<path d="M46.7637 12.3262H43.6816V15.4082H46.7637V12.3262Z" fill="#F7F7F7"/>
<path d="M49.8447 12.3262H46.7627V15.4082H49.8447V12.3262Z" fill="#F7F7F7"/>
<path d="M52.9273 12.3262H49.8452V15.4082H52.9273V12.3262Z" fill="#F7F7F7"/>
<path d="M34.4346 15.4092H31.3525V18.4912H34.4346V15.4092Z" fill="#F7F7F7"/>
<path d="M37.5156 15.4092H34.4336V18.4912H37.5156V15.4092Z" fill="#F7F7F7"/>
<path d="M43.6812 15.4092H40.5991V18.4912H43.6812V15.4092Z" fill="#F7F7F7"/>
<path d="M46.7637 15.4092H43.6816V18.4912H46.7637V15.4092Z" fill="#F7F7F7"/>
<path d="M52.9273 15.4092H49.8452V18.4912H52.9273V15.4092Z" fill="#F7F7F7"/>
<path d="M28.27 18.4922H25.188V21.5742H28.27V18.4922Z" fill="#F7F7F7"/>
<path d="M34.4346 18.4922H31.3525V21.5742H34.4346V18.4922Z" fill="#F7F7F7"/>
<path d="M40.5982 18.4922H37.5161V21.5742H40.5982V18.4922Z" fill="#F7F7F7"/>
<path d="M46.7637 18.4922H43.6816V21.5742H46.7637V18.4922Z" fill="#F7F7F7"/>
<path d="M52.9273 18.4922H49.8452V21.5742H52.9273V18.4922Z" fill="#F7F7F7"/>
<path d="M28.27 21.5752H25.188V24.6572H28.27V21.5752Z" fill="#F7F7F7"/>
<path d="M31.353 21.5752H28.271V24.6572H31.353V21.5752Z" fill="#F7F7F7"/>
<path d="M34.4346 21.5752H31.3525V24.6572H34.4346V21.5752Z" fill="#F7F7F7"/>
<path d="M37.5156 21.5742H34.4336V24.6563H37.5156V21.5742Z" fill="#F7F7F7"/>
<path d="M46.7637 21.5742H43.6816V24.6563H46.7637V21.5742Z" fill="#F7F7F7"/>
<path d="M3.61476 24.6553H0.532715V27.7373H3.61476V24.6553Z" fill="#F7F7F7"/>
<path d="M9.77882 24.6553H6.69678V27.7373H9.77882V24.6553Z" fill="#F7F7F7"/>
<path d="M12.8609 24.6553H9.77881V27.7373H12.8609V24.6553Z" fill="#F7F7F7"/>
<path d="M19.0239 24.6553H15.9419V27.7373H19.0239V24.6553Z" fill="#F7F7F7"/>
<path d="M22.1065 24.6553H19.0244V27.7373H22.1065V24.6553Z" fill="#F7F7F7"/>
<path d="M25.189 24.6553H22.1069V27.7373H25.189V24.6553Z" fill="#F7F7F7"/>
<path d="M31.353 24.6553H28.271V27.7373H31.353V24.6553Z" fill="#F7F7F7"/>
<path d="M40.5982 24.6553H37.5161V27.7373H40.5982V24.6553Z" fill="#F7F7F7"/>
<path d="M46.7637 24.6553H43.6816V27.7373H46.7637V24.6553Z" fill="#F7F7F7"/>
<path d="M59.0899 24.6553H56.0078V27.7373H59.0899V24.6553Z" fill="#F7F7F7"/>
<path d="M68.3384 24.6553H65.2563V27.7373H68.3384V24.6553Z" fill="#F7F7F7"/>
<path d="M74.501 24.6553H71.4189V27.7373H74.501V24.6553Z" fill="#F7F7F7"/>
<path d="M77.5835 24.6553H74.5015V27.7373H77.5835V24.6553Z" fill="#F7F7F7"/>
<path d="M3.61476 27.7383H0.532715V30.8203H3.61476V27.7383Z" fill="#F7F7F7"/>
<path d="M9.77882 27.7383H6.69678V30.8203H9.77882V27.7383Z" fill="#F7F7F7"/>
<path d="M12.8609 27.7383H9.77881V30.8203H12.8609V27.7383Z" fill="#F7F7F7"/>
<path d="M15.9409 27.7383H12.8589V30.8203H15.9409V27.7383Z" fill="#F7F7F7"/>
<path d="M31.353 27.7383H28.271V30.8203H31.353V27.7383Z" fill="#F7F7F7"/>
<path d="M34.4346 27.7383H31.3525V30.8203H34.4346V27.7383Z" fill="#F7F7F7"/>
<path d="M52.9273 27.7383H49.8452V30.8203H52.9273V27.7383Z" fill="#F7F7F7"/>
<path d="M56.0088 27.7383H52.9268V30.8203H56.0088V27.7383Z" fill="#F7F7F7"/>
<path d="M62.1724 27.7383H59.0903V30.8203H62.1724V27.7383Z" fill="#F7F7F7"/>
<path d="M74.5015 27.7383H71.4194V30.8203H74.5015V27.7383Z" fill="#F7F7F7"/>
<path d="M6.69582 30.8203H3.61377V33.9024H6.69582V30.8203Z" fill="#F7F7F7"/>
<path d="M22.1065 30.8203H19.0244V33.9024H22.1065V30.8203Z" fill="#F7F7F7"/>
<path d="M28.27 30.8203H25.188V33.9024H28.27V30.8203Z" fill="#F7F7F7"/>
<path d="M31.353 30.8203H28.271V33.9024H31.353V30.8203Z" fill="#F7F7F7"/>
<path d="M40.5982 30.8203H37.5161V33.9024H40.5982V30.8203Z" fill="#F7F7F7"/>
<path d="M46.7637 30.8203H43.6816V33.9024H46.7637V30.8203Z" fill="#F7F7F7"/>
<path d="M62.1724 30.8203H59.0903V33.9024H62.1724V30.8203Z" fill="#F7F7F7"/>
<path d="M3.61476 33.9014H0.532715V36.9834H3.61476V33.9014Z" fill="#F7F7F7"/>
<path d="M6.69582 33.9014H3.61377V36.9834H6.69582V33.9014Z" fill="#F7F7F7"/>
<path d="M9.77834 33.9014H6.69629V36.9834H9.77834V33.9014Z" fill="#F7F7F7"/>
<path d="M15.9409 33.9014H12.8589V36.9834H15.9409V33.9014Z" fill="#F7F7F7"/>
<path d="M19.0239 33.9014H15.9419V36.9834H19.0239V33.9014Z" fill="#F7F7F7"/>
<path d="M28.27 33.9014H25.188V36.9834H28.27V33.9014Z" fill="#F7F7F7"/>
<path d="M43.6807 33.9014H40.5986V36.9834H43.6807V33.9014Z" fill="#F7F7F7"/>
<path d="M46.7637 33.9014H43.6816V36.9834H46.7637V33.9014Z" fill="#F7F7F7"/>
<path d="M56.0088 33.9014H52.9268V36.9834H56.0088V33.9014Z" fill="#F7F7F7"/>
<path d="M59.0899 33.9014H56.0078V36.9834H59.0899V33.9014Z" fill="#F7F7F7"/>
<path d="M68.3379 33.9014H65.2559V36.9834H68.3379V33.9014Z" fill="#F7F7F7"/>
<path d="M71.419 33.9014H68.3369V36.9834H71.419V33.9014Z" fill="#F7F7F7"/>
<path d="M12.8609 36.9844H9.77881V40.0664H12.8609V36.9844Z" fill="#F7F7F7"/>
<path d="M15.9409 36.9844H12.8589V40.0664H15.9409V36.9844Z" fill="#F7F7F7"/>
<path d="M19.0239 36.9844H15.9419V40.0664H19.0239V36.9844Z" fill="#F7F7F7"/>
<path d="M22.1065 36.9844H19.0244V40.0664H22.1065V36.9844Z" fill="#F7F7F7"/>
<path d="M28.27 36.9844H25.188V40.0664H28.27V36.9844Z" fill="#F7F7F7"/>
<path d="M31.3526 36.9844H28.2705V40.0664H31.3526V36.9844Z" fill="#F7F7F7"/>
<path d="M43.6807 36.9844H40.5986V40.0664H43.6807V36.9844Z" fill="#F7F7F7"/>
<path d="M49.8447 36.9844H46.7627V40.0664H49.8447V36.9844Z" fill="#F7F7F7"/>
<path d="M56.0088 36.9844H52.9268V40.0664H56.0088V36.9844Z" fill="#F7F7F7"/>
<path d="M59.0899 36.9844H56.0078V40.0664H59.0899V36.9844Z" fill="#F7F7F7"/>
<path d="M62.1729 36.9844H59.0908V40.0664H62.1729V36.9844Z" fill="#F7F7F7"/>
<path d="M65.2554 36.9844H62.1733V40.0664H65.2554V36.9844Z" fill="#F7F7F7"/>
<path d="M71.419 36.9844H68.3369V40.0664H71.419V36.9844Z" fill="#F7F7F7"/>
<path d="M74.501 36.9844H71.4189V40.0664H74.501V36.9844Z" fill="#F7F7F7"/>
<path d="M77.5835 36.9844H74.5015V40.0664H77.5835V36.9844Z" fill="#F7F7F7"/>
<path d="M12.8609 40.0664H9.77881V43.1485H12.8609V40.0664Z" fill="#F7F7F7"/>
<path d="M15.9409 40.0664H12.8589V43.1485H15.9409V40.0664Z" fill="#F7F7F7"/>
<path d="M34.4346 40.0664H31.3525V43.1485H34.4346V40.0664Z" fill="#F7F7F7"/>
<path d="M37.5156 40.0664H34.4336V43.1485H37.5156V40.0664Z" fill="#F7F7F7"/>
<path d="M43.6812 40.0664H40.5991V43.1485H43.6812V40.0664Z" fill="#F7F7F7"/>
<path d="M46.7637 40.0664H43.6816V43.1485H46.7637V40.0664Z" fill="#F7F7F7"/>
<path d="M49.8443 40.0664H46.7622V43.1485H49.8443V40.0664Z" fill="#F7F7F7"/>
<path d="M52.9273 40.0664H49.8452V43.1485H52.9273V40.0664Z" fill="#F7F7F7"/>
<path d="M59.0899 40.0664H56.0078V43.1485H59.0899V40.0664Z" fill="#F7F7F7"/>
<path d="M62.1724 40.0664H59.0903V43.1485H62.1724V40.0664Z" fill="#F7F7F7"/>
<path d="M65.2554 40.0664H62.1733V43.1485H65.2554V40.0664Z" fill="#F7F7F7"/>
<path d="M77.5835 40.0664H74.5015V43.1485H77.5835V40.0664Z" fill="#F7F7F7"/>
<path d="M6.69582 43.1494H3.61377V46.2315H6.69582V43.1494Z" fill="#F7F7F7"/>
<path d="M9.77882 43.1494H6.69678V46.2315H9.77882V43.1494Z" fill="#F7F7F7"/>
<path d="M15.9409 43.1494H12.8589V46.2315H15.9409V43.1494Z" fill="#F7F7F7"/>
<path d="M22.1065 43.1494H19.0244V46.2315H22.1065V43.1494Z" fill="#F7F7F7"/>
<path d="M40.5982 43.1494H37.5161V46.2315H40.5982V43.1494Z" fill="#F7F7F7"/>
<path d="M46.7637 43.1494H43.6816V46.2315H46.7637V43.1494Z" fill="#F7F7F7"/>
<path d="M56.0088 43.1494H52.9268V46.2315H56.0088V43.1494Z" fill="#F7F7F7"/>
<path d="M65.2554 43.1494H62.1733V46.2315H65.2554V43.1494Z" fill="#F7F7F7"/>
<path d="M71.419 43.1494H68.3369V46.2315H71.419V43.1494Z" fill="#F7F7F7"/>
<path d="M74.501 43.1494H71.4189V46.2315H74.501V43.1494Z" fill="#F7F7F7"/>
<path d="M3.61476 46.2305H0.532715V49.3125H3.61476V46.2305Z" fill="#F7F7F7"/>
<path d="M12.8609 46.2305H9.77881V49.3125H12.8609V46.2305Z" fill="#F7F7F7"/>
<path d="M28.27 46.2305H25.188V49.3125H28.27V46.2305Z" fill="#F7F7F7"/>
<path d="M31.3526 46.2305H28.2705V49.3125H31.3526V46.2305Z" fill="#F7F7F7"/>
<path d="M40.5982 46.2305H37.5161V49.3125H40.5982V46.2305Z" fill="#F7F7F7"/>
<path d="M49.8447 46.2305H46.7627V49.3125H49.8447V46.2305Z" fill="#F7F7F7"/>
<path d="M52.9273 46.2305H49.8452V49.3125H52.9273V46.2305Z" fill="#F7F7F7"/>
<path d="M56.0088 46.2305H52.9268V49.3125H56.0088V46.2305Z" fill="#F7F7F7"/>
<path d="M62.1729 46.2305H59.0908V49.3125H62.1729V46.2305Z" fill="#F7F7F7"/>
<path d="M65.2554 46.2305H62.1733V49.3125H65.2554V46.2305Z" fill="#F7F7F7"/>
<path d="M77.5835 46.2305H74.5015V49.3125H77.5835V46.2305Z" fill="#F7F7F7"/>
<path d="M9.77882 49.3125H6.69678V52.3945H9.77882V49.3125Z" fill="#F7F7F7"/>
<path d="M22.1065 49.3125H19.0244V52.3945H22.1065V49.3125Z" fill="#F7F7F7"/>
<path d="M31.353 49.3125H28.271V52.3945H31.353V49.3125Z" fill="#F7F7F7"/>
<path d="M34.4346 49.3125H31.3525V52.3945H34.4346V49.3125Z" fill="#F7F7F7"/>
<path d="M37.5156 49.3125H34.4336V52.3945H37.5156V49.3125Z" fill="#F7F7F7"/>
<path d="M43.6812 49.3125H40.5991V52.3945H43.6812V49.3125Z" fill="#F7F7F7"/>
<path d="M52.9273 49.3125H49.8452V52.3945H52.9273V49.3125Z" fill="#F7F7F7"/>
<path d="M56.0088 49.3125H52.9268V52.3945H56.0088V49.3125Z" fill="#F7F7F7"/>
<path d="M59.0899 49.3125H56.0078V52.3945H59.0899V49.3125Z" fill="#F7F7F7"/>
<path d="M62.1724 49.3125H59.0903V52.3945H62.1724V49.3125Z" fill="#F7F7F7"/>
<path d="M65.2554 49.3125H62.1733V52.3945H65.2554V49.3125Z" fill="#F7F7F7"/>
<path d="M68.3384 49.3125H65.2563V52.3945H68.3384V49.3125Z" fill="#F7F7F7"/>
<path d="M71.419 49.3125H68.3369V52.3945H71.419V49.3125Z" fill="#F7F7F7"/>
<path d="M74.5015 49.3125H71.4194V52.3945H74.5015V49.3125Z" fill="#F7F7F7"/>
<path d="M77.5835 49.3125H74.5015V52.3945H77.5835V49.3125Z" fill="#F7F7F7"/>
<path d="M28.27 52.3945H25.188V55.4766H28.27V52.3945Z" fill="#F7F7F7"/>
<path d="M40.5982 52.3945H37.5161V55.4766H40.5982V52.3945Z" fill="#F7F7F7"/>
<path d="M52.9273 52.3945H49.8452V55.4766H52.9273V52.3945Z" fill="#F7F7F7"/>
<path d="M65.2554 52.3945H62.1733V55.4766H65.2554V52.3945Z" fill="#F7F7F7"/>
<path d="M71.419 52.3945H68.3369V55.4766H71.419V52.3945Z" fill="#F7F7F7"/>
<path d="M77.5835 52.3945H74.5015V55.4766H77.5835V52.3945Z" fill="#F7F7F7"/>
<path d="M28.27 55.4756H25.188V58.5576H28.27V55.4756Z" fill="#F7F7F7"/>
<path d="M31.3526 55.4756H28.2705V58.5576H31.3526V55.4756Z" fill="#F7F7F7"/>
<path d="M37.5156 55.4756H34.4336V58.5576H37.5156V55.4756Z" fill="#F7F7F7"/>
<path d="M40.5982 55.4756H37.5161V58.5576H40.5982V55.4756Z" fill="#F7F7F7"/>
<path d="M43.6807 55.4756H40.5986V58.5576H43.6807V55.4756Z" fill="#F7F7F7"/>
<path d="M52.9273 55.4756H49.8452V58.5576H52.9273V55.4756Z" fill="#F7F7F7"/>
<path d="M59.0899 55.4756H56.0078V58.5576H59.0899V55.4756Z" fill="#F7F7F7"/>
<path d="M65.2554 55.4756H62.1733V58.5576H65.2554V55.4756Z" fill="#F7F7F7"/>
<path d="M71.419 55.4756H68.3369V58.5576H71.419V55.4756Z" fill="#F7F7F7"/>
<path d="M74.501 55.4756H71.4189V58.5576H74.501V55.4756Z" fill="#F7F7F7"/>
<path d="M77.5835 55.4756H74.5015V58.5576H77.5835V55.4756Z" fill="#F7F7F7"/>
<path d="M28.27 58.5586H25.188V61.6406H28.27V58.5586Z" fill="#F7F7F7"/>
<path d="M31.3526 58.5586H28.2705V61.6406H31.3526V58.5586Z" fill="#F7F7F7"/>
<path d="M40.5982 58.5586H37.5161V61.6406H40.5982V58.5586Z" fill="#F7F7F7"/>
<path d="M49.8447 58.5586H46.7627V61.6406H49.8447V58.5586Z" fill="#F7F7F7"/>
<path d="M52.9273 58.5586H49.8452V61.6406H52.9273V58.5586Z" fill="#F7F7F7"/>
<path d="M65.2554 58.5586H62.1733V61.6406H65.2554V58.5586Z" fill="#F7F7F7"/>
<path d="M74.501 58.5586H71.4189V61.6406H74.501V58.5586Z" fill="#F7F7F7"/>
<path d="M31.353 61.6406H28.271V64.7227H31.353V61.6406Z" fill="#F7F7F7"/>
<path d="M34.4346 61.6406H31.3525V64.7227H34.4346V61.6406Z" fill="#F7F7F7"/>
<path d="M37.5156 61.6406H34.4336V64.7227H37.5156V61.6406Z" fill="#F7F7F7"/>
<path d="M46.7637 61.6406H43.6816V64.7227H46.7637V61.6406Z" fill="#F7F7F7"/>
<path d="M52.9273 61.6406H49.8452V64.7227H52.9273V61.6406Z" fill="#F7F7F7"/>
<path d="M56.0088 61.6406H52.9268V64.7227H56.0088V61.6406Z" fill="#F7F7F7"/>
<path d="M59.0899 61.6406H56.0078V64.7227H59.0899V61.6406Z" fill="#F7F7F7"/>
<path d="M62.1724 61.6406H59.0903V64.7227H62.1724V61.6406Z" fill="#F7F7F7"/>
<path d="M65.2554 61.6406H62.1733V64.7227H65.2554V61.6406Z" fill="#F7F7F7"/>
<path d="M68.3384 61.6406H65.2563V64.7227H68.3384V61.6406Z" fill="#F7F7F7"/>
<path d="M77.5835 61.6406H74.5015V64.7227H77.5835V61.6406Z" fill="#F7F7F7"/>
<path d="M28.27 64.7236H25.188V67.8057H28.27V64.7236Z" fill="#F7F7F7"/>
<path d="M31.353 64.7236H28.271V67.8057H31.353V64.7236Z" fill="#F7F7F7"/>
<path d="M40.5982 64.7236H37.5161V67.8057H40.5982V64.7236Z" fill="#F7F7F7"/>
<path d="M43.6812 64.7236H40.5991V67.8057H43.6812V64.7236Z" fill="#F7F7F7"/>
<path d="M46.7637 64.7236H43.6816V67.8057H46.7637V64.7236Z" fill="#F7F7F7"/>
<path d="M49.8443 64.7236H46.7622V67.8057H49.8443V64.7236Z" fill="#F7F7F7"/>
<path d="M52.9273 64.7236H49.8452V67.8057H52.9273V64.7236Z" fill="#F7F7F7"/>
<path d="M59.0899 64.7236H56.0078V67.8057H59.0899V64.7236Z" fill="#F7F7F7"/>
<path d="M65.2554 64.7236H62.1733V67.8057H65.2554V64.7236Z" fill="#F7F7F7"/>
<path d="M68.3384 64.7236H65.2563V67.8057H68.3384V64.7236Z" fill="#F7F7F7"/>
<path d="M71.419 64.7236H68.3369V67.8057H71.419V64.7236Z" fill="#F7F7F7"/>
<path d="M74.501 64.7236H71.4189V67.8057H74.501V64.7236Z" fill="#F7F7F7"/>
<path d="M77.5835 64.7236H74.5015V67.8057H77.5835V64.7236Z" fill="#F7F7F7"/>
<path d="M28.27 67.8047H25.188V70.8867H28.27V67.8047Z" fill="#F7F7F7"/>
<path d="M31.3526 67.8047H28.2705V70.8867H31.3526V67.8047Z" fill="#F7F7F7"/>
<path d="M34.4346 67.8047H31.3525V70.8867H34.4346V67.8047Z" fill="#F7F7F7"/>
<path d="M37.5156 67.8047H34.4336V70.8867H37.5156V67.8047Z" fill="#F7F7F7"/>
<path d="M40.5982 67.8047H37.5161V70.8867H40.5982V67.8047Z" fill="#F7F7F7"/>
<path d="M43.6807 67.8047H40.5986V70.8867H43.6807V67.8047Z" fill="#F7F7F7"/>
<path d="M46.7637 67.8047H43.6816V70.8867H46.7637V67.8047Z" fill="#F7F7F7"/>
<path d="M56.0088 67.8047H52.9268V70.8867H56.0088V67.8047Z" fill="#F7F7F7"/>
<path d="M59.0899 67.8047H56.0078V70.8867H59.0899V67.8047Z" fill="#F7F7F7"/>
<path d="M65.2554 67.8047H62.1733V70.8867H65.2554V67.8047Z" fill="#F7F7F7"/>
<path d="M71.419 67.8047H68.3369V70.8867H71.419V67.8047Z" fill="#F7F7F7"/>
<path d="M74.501 67.8047H71.4189V70.8867H74.501V67.8047Z" fill="#F7F7F7"/>
<path d="M37.5156 70.8867H34.4336V73.9688H37.5156V70.8867Z" fill="#F7F7F7"/>
<path d="M40.5982 70.8867H37.5161V73.9688H40.5982V70.8867Z" fill="#F7F7F7"/>
<path d="M43.6807 70.8867H40.5986V73.9688H43.6807V70.8867Z" fill="#F7F7F7"/>
<path d="M49.8447 70.8867H46.7627V73.9688H49.8447V70.8867Z" fill="#F7F7F7"/>
<path d="M56.0088 70.8867H52.9268V73.9688H56.0088V70.8867Z" fill="#F7F7F7"/>
<path d="M59.0899 70.8867H56.0078V73.9688H59.0899V70.8867Z" fill="#F7F7F7"/>
<path d="M65.2554 70.8867H62.1733V73.9688H65.2554V70.8867Z" fill="#F7F7F7"/>
<path d="M71.419 70.8867H68.3369V73.9688H71.419V70.8867Z" fill="#F7F7F7"/>
<path d="M28.27 73.9688H25.188V77.0508H28.27V73.9688Z" fill="#F7F7F7"/>
<path d="M34.4346 73.9688H31.3525V77.0508H34.4346V73.9688Z" fill="#F7F7F7"/>
<path d="M37.5156 73.9688H34.4336V77.0508H37.5156V73.9688Z" fill="#F7F7F7"/>
<path d="M40.5982 73.9688H37.5161V77.0508H40.5982V73.9688Z" fill="#F7F7F7"/>
<path d="M43.6812 73.9688H40.5991V77.0508H43.6812V73.9688Z" fill="#F7F7F7"/>
<path d="M62.1724 73.9688H59.0903V77.0508H62.1724V73.9688Z" fill="#F7F7F7"/>
<path d="M65.2554 73.9688H62.1733V77.0508H65.2554V73.9688Z" fill="#F7F7F7"/>
<path d="M68.3384 73.9688H65.2563V77.0508H68.3384V73.9688Z" fill="#F7F7F7"/>
<path d="M71.419 73.9688H68.3369V77.0508H71.419V73.9688Z" fill="#F7F7F7"/>
<path d="M74.501 73.9688H71.4189V77.0508H74.501V73.9688Z" fill="#F7F7F7"/>
<path d="M77.5835 73.9688H74.5015V77.0508H77.5835V73.9688Z" fill="#F7F7F7"/>
<path d="M18.8704 0L3.76838 0L0.532227 0V3.23615V18.3382V21.5743H3.76838H18.8704H22.1066V18.3382V3.23615V0L18.8704 0ZM18.8704 18.3382H3.76838V3.23615H18.8704V18.3382Z" fill="#F7F7F7"/>
<path d="M74.3465 0L59.2444 0L56.0083 0V3.23615V18.3382V21.5743H59.2444H74.3465H77.5826V18.3382V3.23615V0L74.3465 0ZM74.3465 18.3382H59.2444V3.23615H74.3465V18.3382Z" fill="#F7F7F7"/>
<path d="M18.8704 55.4756H3.76838H0.532227V58.7117V73.8138V77.0499H3.76838H18.8704H22.1066V73.8138V58.7117V55.4756H18.8704ZM18.8704 73.8138H3.76838V58.7117H18.8704V73.8138Z" fill="#F7F7F7"/>
<path d="M15.9429 6.16406H6.69678V15.4102H15.9429V6.16406Z" fill="#F7F7F7"/>
<path d="M71.4195 6.16406H62.1733V15.4102H71.4195V6.16406Z" fill="#F7F7F7"/>
<path d="M15.9429 61.6406H6.69678V70.8868H15.9429V61.6406Z" fill="#F7F7F7"/>
</svg>
