<svg width="151" height="61" viewBox="0 0 151 61" fill="none" xmlns="http://www.w3.org/2000/svg">
<path d="M97.083 25.3278H94.4596L91.4032 20.0809H88.6092V25.3278H86.2087V10.8987H91.9804C92.5896 10.897 93.1931 11.0155 93.7564 11.2474C94.3197 11.4793 94.8317 11.8201 95.2631 12.2503C95.6944 12.6804 96.0367 13.1914 96.2702 13.7541C96.5037 14.3167 96.6239 14.9199 96.6239 15.5291C96.6326 16.4365 96.3523 17.3232 95.8238 18.0608C95.3146 18.8073 94.5924 19.3833 93.7512 19.7136L97.083 25.3278ZM92.0329 13.1155H88.6355V17.9427H92.0329C92.3353 17.9453 92.635 17.8847 92.9128 17.765C93.1906 17.6453 93.4404 17.4691 93.6463 17.2475C94.0562 16.7714 94.2817 16.164 94.2817 15.5357C94.2817 14.9074 94.0562 14.3 93.6463 13.8239C93.4431 13.5979 93.1941 13.4179 92.9159 13.2958C92.6377 13.1736 92.3367 13.1122 92.0329 13.1155Z" fill="#F7F7F7"/>
<path d="M101.267 19.1626V23.0585H107.655V25.3278H98.8928V10.8987H107.563V13.168H101.267V16.9195H107.039V19.1626H101.267Z" fill="#F7F7F7"/>
<path d="M109.819 10.8996H115.485C116.407 10.879 117.322 11.053 118.172 11.4101C119.022 11.7672 119.787 12.2994 120.417 12.9721C121.692 14.3787 122.398 16.2092 122.398 18.1076C122.398 20.0059 121.692 21.8364 120.417 23.243C119.788 23.918 119.024 24.4527 118.174 24.8121C117.324 25.1715 116.408 25.3476 115.485 25.3287H109.819V10.8996ZM112.18 23.0594H115.485C116.108 23.0828 116.727 22.9692 117.301 22.7267C117.874 22.4842 118.387 22.1186 118.804 21.6558C119.688 20.6923 120.159 19.4208 120.116 18.1141C120.156 16.8039 119.686 15.5291 118.804 14.5593C118.385 14.1003 117.871 13.7382 117.298 13.4981C116.725 13.2579 116.106 13.1456 115.485 13.1689H112.18V23.0594Z" fill="#F7F7F7"/>
<path d="M86.2087 28.9365H91.5213C92.165 28.9026 92.8088 29.0002 93.4136 29.2232C94.0184 29.4462 94.5714 29.79 95.039 30.2336C95.5067 30.6773 95.8791 31.2115 96.1335 31.8038C96.388 32.396 96.5193 33.0338 96.5193 33.6784C96.5193 34.323 96.388 34.9609 96.1335 35.5531C95.8791 36.1453 95.5067 36.6795 95.039 37.1232C94.5714 37.5668 94.0184 37.9107 93.4136 38.1337C92.8088 38.3567 92.165 38.4542 91.5213 38.4203H88.583V43.3656H86.2087V28.9365ZM88.583 36.1904H91.5213C91.8437 36.2022 92.1648 36.1451 92.4634 36.0229C92.762 35.9008 93.0311 35.7164 93.2528 35.482C93.6918 34.9838 93.9339 34.3425 93.9339 33.6784C93.9339 33.0143 93.6918 32.373 93.2528 31.8748C93.0317 31.6387 92.7631 31.4523 92.4646 31.3279C92.1661 31.2036 91.8445 31.144 91.5213 31.1533H88.583V36.1904Z" fill="#F7F7F7"/>
<path d="M108.94 43.3644H106.316L105.306 40.4523H99.1672L98.1572 43.3644H95.5337L100.781 28.9353H103.627L108.94 43.3644ZM102.302 31.7555L100.007 38.3142H104.572L102.302 31.7555Z" fill="#F7F7F7"/>
<path d="M119.148 38.7208V28.9353H121.523V43.3644H119.66L112.865 33.5657V43.3644H110.491V28.9353H112.354L119.148 38.7208Z" fill="#F7F7F7"/>
<path d="M124.409 28.9362H130.075C130.997 28.9157 131.913 29.0896 132.762 29.4467C133.612 29.8038 134.377 30.3361 135.008 31.0087C136.282 32.4154 136.988 34.2458 136.988 36.1442C136.988 38.0425 136.282 39.873 135.008 41.2796C134.378 41.9547 133.614 42.4894 132.764 42.8488C131.914 43.2082 130.998 43.3842 130.075 43.3653H124.409V28.9362ZM126.783 41.096H130.075C130.698 41.1194 131.317 41.0059 131.891 40.7633C132.464 40.5208 132.978 40.1552 133.394 39.6924C134.278 38.7289 134.749 37.4574 134.706 36.1508C134.747 34.8405 134.276 33.5657 133.394 32.5959C132.975 32.137 132.461 31.7748 131.888 31.5347C131.315 31.2945 130.696 31.1822 130.075 31.2055H126.783V41.096Z" fill="#F7F7F7"/>
<path d="M150.579 43.3644H148.021L147.011 40.4523H140.859L139.849 43.3644H137.225L142.472 28.9353H145.319L150.579 43.3644ZM143.928 31.7555L141.633 38.3142H146.211L143.928 31.7555Z" fill="#F7F7F7"/>
<path d="M86.3508 52.2588H88.6464C89.051 52.2578 89.4469 52.3768 89.784 52.6008C90.121 52.8247 90.384 53.1436 90.5399 53.5171C90.6957 53.8905 90.7373 54.3018 90.6595 54.6989C90.5816 55.096 90.3877 55.4611 90.1024 55.748C89.9103 55.9363 89.6826 56.0843 89.4326 56.1835C89.1826 56.2826 88.9153 56.3307 88.6464 56.3252H87.1903V58.5945H86.3508V52.2588ZM87.1903 55.5381H88.6464C88.8075 55.5436 88.968 55.5149 89.1172 55.4538C89.2664 55.3928 89.401 55.3008 89.5121 55.184C89.7371 54.9414 89.8621 54.6228 89.8621 54.292C89.8621 53.9612 89.7371 53.6426 89.5121 53.4C89.401 53.2832 89.2664 53.1912 89.1172 53.1301C88.968 53.0691 88.8075 53.0404 88.6464 53.0458H87.1903V55.5381Z" fill="#F7F7F7"/>
<path d="M92.2953 54.0567V54.8175C92.4122 54.5484 92.6105 54.3228 92.8622 54.1722C93.1139 54.0216 93.4066 53.9537 93.6989 53.978V54.7912C93.3394 54.7716 92.985 54.8835 92.702 55.1061C92.5569 55.2427 92.445 55.4106 92.3745 55.5969C92.304 55.7833 92.277 55.9833 92.2953 56.1817V58.5822H91.4558V54.0567H92.2953Z" fill="#F7F7F7"/>
<path d="M94.8653 53.2426C94.7946 53.2433 94.7244 53.2298 94.659 53.2027C94.5936 53.1757 94.5344 53.1357 94.4849 53.0852C94.4358 53.038 94.3975 52.9807 94.3725 52.9173C94.3476 52.8539 94.3367 52.7859 94.3406 52.7179C94.3376 52.65 94.3489 52.5822 94.3737 52.5189C94.3986 52.4557 94.4365 52.3983 94.4849 52.3506C94.5575 52.2741 94.6515 52.2214 94.7545 52.1991C94.8576 52.1768 94.9649 52.1861 95.0626 52.2258C95.1603 52.2654 95.2438 52.3335 95.3022 52.4213C95.3606 52.5091 95.3912 52.6125 95.39 52.7179C95.3915 52.7856 95.3795 52.8529 95.3547 52.916C95.3299 52.979 95.2929 53.0365 95.2457 53.0852C95.1962 53.1357 95.137 53.1757 95.0716 53.2027C95.0062 53.2298 94.9361 53.2433 94.8653 53.2426ZM95.2588 58.5945H94.4718V54.0559H95.2588V58.5945Z" fill="#F7F7F7"/>
<path d="M98.7159 53.95C98.9572 53.937 99.1986 53.9746 99.4245 54.0604C99.6504 54.1463 99.8558 54.2785 100.028 54.4485C100.344 54.8109 100.513 55.2792 100.5 55.7602V58.5411H99.7128V55.7996C99.7238 55.6464 99.7026 55.4925 99.6507 55.3479C99.5987 55.2034 99.5171 55.0713 99.4111 54.9601C99.3055 54.8531 99.1784 54.7697 99.0382 54.7154C98.898 54.6611 98.7479 54.6372 98.5978 54.6453C98.4202 54.6359 98.2427 54.665 98.0774 54.7306C97.9121 54.7963 97.763 54.897 97.6402 55.0257C97.3821 55.3374 97.2551 55.7371 97.2861 56.1406V58.5411H96.499V54.055H97.2861V54.7109C97.4335 54.4598 97.6476 54.2546 97.9046 54.118C98.1617 53.9813 98.4516 53.9187 98.7421 53.9369" fill="#F7F7F7"/>
<path d="M104.021 54.0563V54.8171H102.814V57.2701C102.802 57.438 102.848 57.605 102.945 57.7423C103 57.7925 103.064 57.8311 103.134 57.8559C103.204 57.8807 103.278 57.8911 103.352 57.8866H104.021V58.5949C103.513 58.7077 102.982 58.6477 102.513 58.4244C102.344 58.289 102.211 58.1139 102.127 57.9148C102.042 57.7157 102.008 57.4987 102.027 57.2832V54.8302H101.135V54.0563H102.027V53.0201L102.814 52.7839V54.0957L104.021 54.0563Z" fill="#F7F7F7"/>
<path d="M105.359 53.2434C105.288 53.2467 105.217 53.2342 105.152 53.207C105.086 53.1798 105.027 53.1385 104.979 53.086C104.927 53.04 104.887 52.9833 104.859 52.9198C104.832 52.8564 104.819 52.7877 104.822 52.7187C104.828 52.5781 104.887 52.445 104.986 52.3455C105.086 52.246 105.219 52.1873 105.359 52.1809C105.429 52.1828 105.497 52.1989 105.561 52.2283C105.624 52.2576 105.68 52.2995 105.727 52.3514C105.777 52.3985 105.817 52.4554 105.844 52.5186C105.871 52.5818 105.885 52.6499 105.884 52.7187C105.886 52.7877 105.873 52.8564 105.846 52.9198C105.819 52.9833 105.778 53.04 105.727 53.086C105.68 53.1361 105.623 53.176 105.559 53.2031C105.496 53.2302 105.428 53.2439 105.359 53.2434ZM105.74 58.5953H104.953V54.0567H105.74V58.5953Z" fill="#F7F7F7"/>
<path d="M109.207 53.9509C109.448 53.937 109.69 53.9742 109.916 54.0601C110.142 54.146 110.347 54.2787 110.519 54.4494C110.835 54.8117 111.004 55.28 110.991 55.7611V58.542H110.204V55.8004C110.214 55.6483 110.194 55.4957 110.144 55.3515C110.095 55.2073 110.017 55.0745 109.915 54.9609C109.808 54.8529 109.678 54.7689 109.536 54.7147C109.393 54.6604 109.241 54.637 109.089 54.6461C108.912 54.6416 108.736 54.673 108.571 54.7384C108.407 54.8037 108.257 54.9018 108.131 55.0265C107.873 55.3382 107.746 55.738 107.777 56.1415V58.542H106.99V54.0558H107.777V54.7117C107.925 54.4586 108.142 54.252 108.401 54.1153C108.661 53.9785 108.954 53.917 109.246 53.9378" fill="#F7F7F7"/>
<path d="M115.802 54.8436V54.0565H116.576V58.3853C116.592 58.6794 116.54 58.9732 116.424 59.244C116.308 59.5147 116.131 59.755 115.907 59.9463C115.44 60.3147 114.862 60.5136 114.267 60.5103C113.814 60.5171 113.365 60.4183 112.956 60.2217C112.599 60.042 112.309 59.7523 112.129 59.3953L112.811 59.0149C112.957 59.2733 113.174 59.4832 113.438 59.6185C113.702 59.7538 113.999 59.8085 114.294 59.7757C114.697 59.7988 115.093 59.6621 115.396 59.3953C115.532 59.2659 115.638 59.1087 115.709 58.9345C115.779 58.7602 115.811 58.5729 115.802 58.3853V57.7425C115.623 58.03 115.37 58.265 115.071 58.4239C114.772 58.5828 114.436 58.6599 114.097 58.6476C113.791 58.6624 113.485 58.6116 113.2 58.4985C112.915 58.3853 112.657 58.2126 112.444 57.9918C112.223 57.7724 112.049 57.5105 111.931 57.222C111.814 56.9334 111.757 56.6241 111.762 56.3127C111.757 56.0033 111.815 55.6961 111.932 55.4097C112.049 55.1233 112.223 54.8638 112.444 54.6468C112.652 54.4247 112.904 54.249 113.184 54.1314C113.465 54.0139 113.767 53.957 114.071 53.9647C114.408 53.951 114.743 54.0262 115.043 54.1828C115.342 54.3393 115.595 54.5717 115.776 54.8567M115.776 56.3127C115.78 56.1005 115.74 55.8897 115.66 55.693C115.58 55.4964 115.461 55.3179 115.311 55.1684C115.16 55.0189 114.98 54.9014 114.783 54.8231C114.586 54.7447 114.375 54.7071 114.163 54.7124C113.939 54.6922 113.714 54.7188 113.502 54.7903C113.29 54.8619 113.094 54.977 112.929 55.1281C112.763 55.2793 112.631 55.4633 112.541 55.6684C112.45 55.8735 112.404 56.0952 112.404 56.3193C112.404 56.5434 112.45 56.7651 112.541 56.9702C112.631 57.1753 112.763 57.3593 112.929 57.5104C113.094 57.6616 113.29 57.7767 113.502 57.8482C113.714 57.9198 113.939 57.9464 114.163 57.9262C114.376 57.9316 114.588 57.8935 114.786 57.8144C114.985 57.7352 115.165 57.6165 115.315 57.4656C115.466 57.3147 115.585 57.1347 115.664 56.9365C115.743 56.7383 115.781 56.5261 115.776 56.3127Z" fill="#F7F7F7"/>
<path d="M123.778 54.8423V54.0552H124.565V58.5807H123.778V57.7937C123.602 58.084 123.35 58.3213 123.05 58.4806C122.75 58.6398 122.412 58.7152 122.073 58.6988C121.768 58.7032 121.466 58.6435 121.186 58.5238C120.906 58.404 120.654 58.2268 120.447 58.0036C120.016 57.5481 119.776 56.945 119.776 56.318C119.776 55.6911 120.016 55.0879 120.447 54.6324C120.655 54.4105 120.907 54.2341 121.187 54.1144C121.467 53.9948 121.769 53.9344 122.073 53.9372C122.411 53.9222 122.746 53.9968 123.046 54.1534C123.345 54.3101 123.598 54.5432 123.778 54.8292M122.165 57.9905C122.378 57.9955 122.59 57.9574 122.789 57.8785C122.987 57.7996 123.168 57.6816 123.319 57.5313C123.62 57.2176 123.785 56.7983 123.778 56.3639C123.782 56.151 123.743 55.9396 123.663 55.7423C123.583 55.5449 123.464 55.3657 123.314 55.2151C123.163 55.0646 122.984 54.9459 122.786 54.8661C122.589 54.7862 122.378 54.7469 122.165 54.7505C121.739 54.7539 121.332 54.9254 121.032 55.2276C120.733 55.5298 120.565 55.9382 120.565 56.3639C120.561 56.5802 120.601 56.795 120.682 56.9956C120.763 57.1962 120.884 57.3783 121.037 57.5313C121.184 57.6802 121.36 57.7976 121.554 57.8765C121.748 57.9554 121.956 57.9942 122.165 57.9905Z" fill="#F7F7F7"/>
<path d="M129.496 54.8435V54.0564H130.283V58.3852C130.296 58.6802 130.242 58.9744 130.123 59.2451C130.005 59.5157 129.826 59.7556 129.601 59.9461C129.141 60.3184 128.566 60.5179 127.974 60.5102C127.52 60.5185 127.071 60.4196 126.662 60.2216C126.305 60.0383 126.012 59.7499 125.823 59.3952L126.518 59.0148C126.66 59.2733 126.875 59.4837 127.137 59.6192C127.398 59.7548 127.694 59.8092 127.987 59.7756C128.394 59.7952 128.792 59.6592 129.102 59.3952C129.236 59.2646 129.34 59.1069 129.408 58.9327C129.476 58.7585 129.506 58.5718 129.496 58.3852V57.7424C129.319 58.0297 129.07 58.265 128.772 58.424C128.475 58.583 128.141 58.6602 127.804 58.6475C127.498 58.6562 127.193 58.6 126.911 58.4824C126.628 58.3648 126.373 58.1886 126.164 57.9654C125.947 57.7436 125.776 57.481 125.661 57.1928C125.547 56.9047 125.49 56.5966 125.495 56.2864C125.49 55.9782 125.547 55.6722 125.662 55.3862C125.777 55.1001 125.947 54.8398 126.164 54.6205C126.373 54.3973 126.628 54.2211 126.911 54.1035C127.193 53.9859 127.498 53.9297 127.804 53.9384C128.139 53.9257 128.472 54.0014 128.769 54.158C129.066 54.3145 129.317 54.5464 129.496 54.8304M129.496 56.2864C129.499 56.0752 129.46 55.8656 129.381 55.6698C129.302 55.474 129.184 55.2962 129.035 55.1469C128.886 54.9976 128.708 54.8798 128.512 54.8006C128.316 54.7215 128.107 54.6825 127.895 54.6861C127.683 54.6807 127.472 54.7184 127.275 54.7967C127.077 54.8751 126.898 54.9926 126.747 55.1421C126.597 55.2916 126.478 55.47 126.398 55.6667C126.318 55.8633 126.278 56.0741 126.282 56.2864C126.278 56.4997 126.316 56.7117 126.395 56.9099C126.474 57.1082 126.591 57.2886 126.741 57.4407C126.893 57.5909 127.073 57.709 127.271 57.7879C127.47 57.8668 127.682 57.9048 127.895 57.8998C128.108 57.9034 128.318 57.8641 128.515 57.7841C128.712 57.7041 128.89 57.5852 129.04 57.4344C129.189 57.2837 129.307 57.1043 129.385 56.907C129.463 56.7097 129.501 56.4986 129.496 56.2864Z" fill="#F7F7F7"/>
<path d="M135.836 56.6787H132.045C132.108 57.0466 132.304 57.3785 132.596 57.6101C132.907 57.8504 133.293 57.9714 133.685 57.9511C133.943 57.9704 134.2 57.9196 134.431 57.8042C134.662 57.6887 134.858 57.5128 134.997 57.2953L135.666 57.6757C135.453 58.007 135.157 58.2762 134.807 58.4559C134.457 58.6356 134.065 58.7194 133.672 58.6988C133.349 58.7099 133.027 58.6564 132.726 58.5415C132.424 58.4266 132.148 58.2527 131.914 58.0298C131.694 57.8025 131.521 57.5333 131.406 57.2382C131.291 56.9431 131.237 56.628 131.245 56.3115C131.236 55.9987 131.29 55.6873 131.405 55.3963C131.52 55.1053 131.693 54.8409 131.914 54.6193C132.134 54.3917 132.4 54.2133 132.694 54.0957C132.988 53.9782 133.303 53.9241 133.619 53.9372C133.924 53.9257 134.228 53.9835 134.508 54.1062C134.787 54.2289 135.035 54.4133 135.233 54.6455C135.446 54.869 135.612 55.1325 135.722 55.4207C135.833 55.7089 135.885 56.0161 135.876 56.3246C135.882 56.4425 135.882 56.5608 135.876 56.6787M133.646 54.6849C133.267 54.675 132.897 54.7954 132.596 55.026C132.314 55.277 132.132 55.6218 132.085 55.9966H135.102C135.059 55.6233 134.882 55.2783 134.603 55.026C134.474 54.9083 134.323 54.8175 134.159 54.7589C133.994 54.7003 133.82 54.6752 133.646 54.6849Z" fill="#F7F7F7"/>
<path d="M139.002 53.95C139.243 53.937 139.485 53.9746 139.711 54.0604C139.936 54.1463 140.142 54.2785 140.314 54.4485C140.63 54.8109 140.799 55.2792 140.786 55.7602V58.5411H139.986V55.7996C139.997 55.6464 139.976 55.4925 139.924 55.3479C139.872 55.2034 139.79 55.0713 139.684 54.9601C139.578 54.8531 139.451 54.7697 139.311 54.7154C139.171 54.6611 139.021 54.6372 138.871 54.6453C138.694 54.6408 138.518 54.6721 138.353 54.7375C138.188 54.8029 138.039 54.9009 137.913 55.0257C137.655 55.3374 137.528 55.7371 137.559 56.1406V58.5411H136.772V54.055H137.559V54.7109C137.706 54.4598 137.921 54.2546 138.178 54.118C138.435 53.9813 138.725 53.9187 139.015 53.9369" fill="#F7F7F7"/>
<path d="M143.99 58.7121C143.518 58.71 143.057 58.5691 142.665 58.3068C142.273 58.0446 141.967 57.6726 141.785 57.2374C141.603 56.8022 141.553 56.323 141.642 55.8598C141.731 55.3965 141.954 54.9697 142.284 54.6326C142.664 54.2685 143.151 54.0363 143.673 53.9701C144.195 53.904 144.725 54.0075 145.183 54.2653C145.527 54.472 145.804 54.7723 145.983 55.131L145.328 55.5114C145.212 55.2684 145.024 55.0669 144.79 54.9342C144.482 54.7615 144.127 54.6925 143.778 54.7374C143.428 54.7823 143.102 54.9387 142.848 55.1835C142.555 55.4909 142.391 55.8996 142.391 56.3247C142.391 56.7497 142.555 57.1585 142.848 57.4659C142.996 57.6183 143.173 57.738 143.37 57.8171C143.567 57.8962 143.778 57.9329 143.99 57.925C144.275 57.9307 144.556 57.8581 144.803 57.7151C145.037 57.5778 145.227 57.3779 145.354 57.138L146.023 57.5315C145.825 57.8893 145.535 58.1881 145.183 58.3972C144.821 58.6068 144.408 58.7155 143.99 58.7121Z" fill="#F7F7F7"/>
<path d="M148.659 57.6105L149.971 54.0688H150.824L148.974 58.8697C148.816 59.3264 148.534 59.7304 148.161 60.0372C147.824 60.3062 147.397 60.4374 146.967 60.4045V59.6699C147.518 59.6699 147.925 59.4076 148.187 58.7386L148.266 58.568L146.285 54.0557H147.124L148.659 57.6105Z" fill="#F7F7F7"/>
<g opacity="0.3">
<mask id="mask0_352_6341" style="mask-type:luminance" maskUnits="userSpaceOnUse" x="0" y="0" width="73" height="43">
<path d="M72.0931 0.510498H0V42.9321H72.0931V0.510498Z" fill="white"/>
</mask>
<g mask="url(#mask0_352_6341)">
<path d="M72.0931 0.510498H0V42.9321H72.0931V0.510498Z" fill="#F7F7F7"/>
</g>
</g>
<g opacity="0.3">
<mask id="mask1_352_6341" style="mask-type:luminance" maskUnits="userSpaceOnUse" x="0" y="11" width="58" height="32">
<path d="M57.4016 11.1213H0V42.9178H57.4016V11.1213Z" fill="white"/>
</mask>
<g mask="url(#mask1_352_6341)">
<path d="M57.4016 11.1213H0V42.9178H57.4016V11.1213Z" fill="#F7F7F7"/>
</g>
</g>
<g opacity="0.6">
<mask id="mask2_352_6341" style="mask-type:luminance" maskUnits="userSpaceOnUse" x="0" y="21" width="43" height="22">
<path d="M42.8938 21.6934H0V42.9172H42.8938V21.6934Z" fill="white"/>
</mask>
<g mask="url(#mask2_352_6341)">
<path d="M42.8938 21.6934H0V42.9172H42.8938V21.6934Z" fill="#F7F7F7"/>
</g>
</g>
<path d="M28.0974 32.3076H0V42.854H28.0974V32.3076Z" fill="#F7F7F7"/>
</svg>
