<svg width="124" height="44" viewBox="0 0 124 44" fill="none" xmlns="http://www.w3.org/2000/svg">
<g clip-path="url(#clip0_2301_21631)">
<path fill-rule="evenodd" clip-rule="evenodd" d="M38.0273 42.3373H46.3191V0.883789H38.0273V42.3373Z" fill="#8F8F8F"/>
<path fill-rule="evenodd" clip-rule="evenodd" d="M51.9404 42.3373H60.2322V0.883789H51.9404V42.3373Z" fill="#8F8F8F"/>
<path fill-rule="evenodd" clip-rule="evenodd" d="M83.6285 30.4357C83.6285 33.7482 81.4393 35.7075 78.8321 35.7075H78.3567C75.7495 35.7075 73.5603 33.7587 73.5603 30.4357V12.7236H65.2686V30.0752C65.2686 38.6595 70.8382 43.3984 77.8237 43.3984H79.3598C86.3454 43.3984 91.915 38.6647 91.915 30.0752V12.7236H83.6233V30.4357H83.6337H83.6285Z" fill="#8F8F8F"/>
<path fill-rule="evenodd" clip-rule="evenodd" d="M110.098 11.6621H109.147C102.161 11.6621 96.2939 16.2808 96.2939 24.9906V42.3421H104.586V25.0533C104.586 21.2078 107.01 19.4314 109.617 19.4314H109.852C112.397 19.4314 114.764 21.0929 114.946 25.1787L115.009 26.3647L123.243 26.0146V25.304C123.238 16.9966 117.376 11.6726 110.093 11.6726L110.098 11.6621Z" fill="#8F8F8F"/>
<path fill-rule="evenodd" clip-rule="evenodd" d="M16.5376 35.6123C12.0548 35.6123 8.57505 32.1953 8.57505 27.587C8.57505 22.984 12.0548 19.5617 16.5376 19.5617C21.2556 19.5617 24.798 22.9265 24.798 27.587C24.7928 32.3677 21.2556 35.6123 16.5376 35.6123ZM16.4749 11.9492C7.44649 11.9492 0.251953 18.6735 0.251953 27.587C0.251953 36.5528 7.2166 43.042 15.7069 43.042C20.0905 43.042 23.4657 41.7201 25.7437 39.5152L25.8587 42.3366H32.7031V27.5243C32.6666 18.6526 25.4302 11.9492 16.4802 11.9492H16.4749Z" fill="#8F8F8F"/>
</g>
<defs>
<clipPath id="clip0_2301_21631">
<rect width="123" height="42.5194" fill="white" transform="translate(0.25 0.883789)"/>
</clipPath>
</defs>
</svg>
