<svg width="543" height="459" viewBox="0 0 543 459" fill="none" xmlns="http://www.w3.org/2000/svg">
<path d="M401.187 9.2524C383.479 12.2629 363.493 13.2175 299.421 13.9518C251.219 14.4658 248.354 14.6126 241.447 16.0812C232.556 18.0638 223.739 21.368 219.991 24.1583C218.375 25.3331 214.48 28.6374 211.247 31.5745C204.928 37.3019 191.408 48.3161 181.709 55.6589C176.639 59.5506 175.39 60.138 174.215 59.4772C170.1 57.2743 165.324 59.9177 162.017 66.306C160.033 70.0508 159.666 70.3445 156.8 70.7116C155.11 70.8585 152.612 71.8865 151.29 72.841C149.379 74.3096 148.204 74.6033 146.073 74.383C137.696 73.2816 131.818 80.9181 137.623 85.4707C138.872 86.5721 140.415 87.7469 140.929 88.1875C142.105 89.1421 142.031 93.8415 140.709 97.6597C139.166 102.139 139.313 109.041 141.15 113.006C142.178 115.356 142.84 119.027 143.281 125.489C144.162 136.283 145.558 142.084 147.836 143.258C148.791 143.772 150.996 143.919 153.861 143.626C156.36 143.332 159.593 143.112 161.136 143.185C164.442 143.258 168.043 140.175 168.704 136.65C169.145 134.667 170.247 133.786 177.374 129.821C185.824 125.048 191.408 120.276 193.613 115.943C194.348 114.548 195.229 113.226 195.67 112.933C196.846 112.198 199.638 113.52 204.855 117.192C209.043 120.202 209.41 120.716 208.455 121.744C206.471 124.02 203.532 130.555 201.989 136.356C200.079 143.332 196.552 151.262 192.07 158.385C187.735 165.287 181.342 178.944 181.636 180.486C181.783 181.294 182.738 181.808 184.428 181.955C185.824 182.102 187.294 182.542 187.735 182.91C188.69 183.864 194.348 183.717 197.801 182.689C200.814 181.808 205.002 177.77 205.002 175.64C205.002 174.979 205.516 173.731 206.104 172.997C206.692 172.189 207.206 169.986 207.206 168.077C207.206 164.993 207.794 163.745 211.541 158.091C213.966 154.566 218.669 148.619 222.049 145.021C225.429 141.349 229.102 137.164 230.278 135.622C232.85 132.244 237.332 129.013 242.255 127.104L245.929 125.709L247.913 130.923C249.088 133.86 252.174 140.321 254.893 145.388L259.743 154.566L259.669 162.643C259.669 169.472 259.302 171.675 257.612 176.595C256.51 179.826 254.82 183.864 253.791 185.553C250.191 191.721 251.66 192.969 264.519 194.291C268.486 194.732 272.013 192.822 273.924 189.298C274.585 188.05 275.908 186.214 276.863 185.186C279.067 182.689 279.508 180.633 279.435 174.025C279.435 171.014 279.361 162.423 279.288 154.934C279.141 140.395 278.186 126.811 276.863 122.625C276.422 121.23 275.026 119.174 273.63 117.999C269.074 114.181 268.633 107.646 272.601 102.212C274.144 100.083 276.496 98.4674 282.594 95.3834C287.003 93.1806 292.44 90.0232 294.645 88.3344C296.849 86.6455 301.331 83.7084 304.564 81.8727C310.81 78.3481 314.116 77.7607 318.819 79.3761C320.876 80.1104 321.39 80.037 322.786 78.7153C328.15 73.6488 336.012 75.7047 336.674 82.2398L336.894 84.8098L342.919 84.663C346.299 84.5895 353.059 83.635 358.056 82.607C367.24 80.6978 375.397 79.9636 401.555 78.5684C429.843 77.0264 428.374 77.2467 428.374 75.1907C428.374 74.2362 429.55 69.6836 431.019 65.1311C433.517 57.4946 433.664 56.4666 433.297 50.6658C433.003 47.2147 432.195 41.781 431.386 38.5502C430.578 35.3193 430.064 32.6025 430.211 32.4556C430.505 32.1619 433.885 42.6621 435.281 48.2427C435.869 50.7392 438.44 58.3023 440.939 64.9843L445.494 77.2467L451.446 76.7327C454.752 76.439 457.471 76.1453 457.618 75.9985C457.691 75.925 455.708 72.9879 453.062 69.5368C447.111 61.68 444.319 55.6589 442.702 47.7287C439.91 33.9976 435.722 22.5429 431.68 17.77C429.403 14.9798 424.7 12.4832 418.822 10.721C414.781 9.54611 404.567 8.66497 401.187 9.2524Z" fill="#8F8F8F"/>
<path d="M323.668 82.4596L320.876 84.8828L318.231 83.4876C316.468 82.6065 314.631 82.2393 312.794 82.4596C309.855 82.9002 302.139 87.0856 296.335 91.5647C294.424 93.1067 289.06 96.3375 284.431 98.7606C277.231 102.505 275.761 103.607 274.585 106.03C272.601 109.848 273.483 113.52 277.01 115.869C278.553 116.897 279.729 118.366 279.949 119.541C280.317 121.597 282.08 122.404 286.636 122.551C288.105 122.625 291.632 123.359 294.351 124.167C298.098 125.342 301.478 125.782 307.136 125.856C316.394 125.929 317.129 126.296 324.918 135.548C327.783 138.999 331.971 143.185 334.249 144.873C336.527 146.636 339.172 149.499 340.201 151.262C341.891 154.272 342.038 155.3 341.964 163.01C341.891 173.07 340.201 180.045 335.792 189.224C333.661 193.63 332.118 195.832 330.281 197.007C326.608 199.357 326.093 202.074 329.253 203.028C329.988 203.322 330.649 203.983 330.649 204.497C330.649 206.847 338.07 206.7 343.14 204.277C345.197 203.249 345.785 202.514 346.153 200.238C346.373 198.696 347.475 196.567 348.577 195.392C349.753 194.217 350.708 192.161 351.002 190.472C351.443 187.168 361.069 168.003 364.816 162.937C367.094 159.779 367.608 159.486 370.768 159.192C374.074 158.972 374.295 159.045 377.454 162.643C382.157 167.783 386.933 174.685 388.843 178.871C390.019 181.587 390.46 183.937 390.46 188.49C390.46 194.144 390.313 194.731 388.108 197.815C385.096 202 385.022 203.836 387.961 204.497C389.431 204.791 390.166 205.452 390.166 206.333C390.166 209.784 399.571 208.462 403.906 204.424C406.184 202.294 406.478 201.633 406.037 199.577C405.523 197.154 405.449 195.832 405.523 192.381C405.816 184.598 403.245 162.716 401.555 158.458C401.187 157.43 401.922 157.576 406.11 159.339C412.356 161.982 419.998 163.304 424.847 162.716C427.713 162.276 429.55 161.395 433.371 158.458C440.057 153.391 441.6 152.73 442.629 154.566C444.613 158.09 447.331 160 452.695 161.468C455.708 162.349 459.602 163.451 461.439 163.965C465.48 165.14 468.052 168.517 468.052 172.629C468.052 174.098 466.803 179.825 465.186 185.259C462.688 193.923 462.027 195.465 459.823 197.374C458.5 198.623 456.883 200.458 456.296 201.486C455.414 203.175 455.487 203.542 456.59 204.717C457.251 205.378 458.28 206.626 458.867 207.434C459.676 208.682 460.631 208.903 464.672 208.829C470.624 208.756 473.71 206.994 473.342 203.763C473.195 202.441 473.783 201.046 475.326 199.357C476.722 197.668 477.751 195.465 478.339 192.602C480.323 182.542 482.086 176.007 483.556 173.143C485.466 169.398 485.613 165.433 484.07 160.073C483.409 157.87 483.042 155.814 483.188 155.52C483.703 154.713 487.597 156.328 489.581 158.164C490.83 159.339 491.712 161.468 492.594 165.654C495.092 177.035 495.974 179.238 499.501 183.056C501.411 185.039 503.836 187.095 504.938 187.682C506.922 188.71 514.71 189.077 516.841 188.269C518.311 187.682 518.311 185.479 516.841 181.147C515.298 176.594 512.58 173.731 510.228 174.245C508.612 174.538 508.318 174.171 506.848 169.325C505.452 164.699 505.379 163.671 506.113 159.192C507.803 149.499 507.069 143.185 504.203 143.185C502.807 143.185 492.3 133.052 492.3 131.656C492.3 131.216 493.99 128.352 495.974 125.342C498.766 121.303 499.941 118.733 500.529 115.355L501.411 110.803L503.468 122.772C504.57 129.38 505.893 136.87 506.26 139.513C507.657 148.251 510.155 153.978 515.078 159.486C517.796 162.643 520.956 164.112 520.956 162.349C520.956 161.982 519.927 158.898 518.678 155.52C514.196 143.258 504.791 104.561 504.791 98.1732C504.791 94.6487 502.88 89.0682 500.603 86.0576C499.647 84.7359 497.443 82.9736 495.753 82.0925C492.667 80.5505 492.52 80.5505 456.296 80.9911C402.657 81.7254 371.87 83.6345 354.529 87.3793C349.018 88.5542 345.344 88.9213 339.834 88.701C335.792 88.5542 332.118 88.187 331.604 87.8933C330.943 87.4527 331.09 86.645 332.192 84.4422C333 82.8268 333.514 81.2114 333.221 80.7708C333 80.4036 331.384 80.0365 329.62 80.0365C327.122 80.0365 325.946 80.5505 323.668 82.4596Z" fill="#8F8F8F"/>
<path d="M34.534 142.964C29.0232 143.331 12.9316 145.387 10.8008 145.975C8.89034 146.489 9.03729 146.636 14.842 150.894C28.5089 160.734 40.7796 175.126 47.907 189.517C50.4052 194.657 52.2422 197.448 52.9769 197.448C53.6382 197.521 56.6508 196.42 59.6634 195.025C67.6725 191.353 83.1028 186.14 93.3897 183.643C113.596 178.65 132.627 176.374 159.226 175.713C169.439 175.493 177.595 174.979 177.375 174.685C176.787 173.657 164.957 167.563 156.874 164.111C133.582 154.199 98.9005 145.754 70.9055 143.184C63.4842 142.524 42.4696 142.377 34.534 142.964Z" fill="#8F8F8F"/>
<path d="M433.665 162.643C431.46 164.479 428.668 166.095 427.199 166.388C424.921 166.829 424.627 167.123 425.068 168.444C425.288 169.252 425.729 174.098 425.95 179.165C426.17 184.231 426.684 188.784 427.125 189.371C427.713 190.032 428.962 190.252 431.093 189.959C432.857 189.812 434.473 189.885 434.693 190.252C435.428 191.501 439.91 190.913 441.894 189.371C444.393 187.462 448.213 180.854 448.213 178.504C448.213 177.476 447.185 175.86 445.789 174.465C443.07 171.895 441.233 168.004 440.498 162.79C439.837 158.385 438.735 158.385 433.665 162.643Z" fill="#8F8F8F"/>
<path d="M376.866 172.702C376.352 174.024 374.001 177.549 371.723 180.632C369.445 183.643 367.388 186.874 367.094 187.755C366.432 189.884 367.828 192.381 369.665 192.381C370.474 192.381 371.723 192.895 372.384 193.556C373.266 194.51 374.588 194.657 378.336 194.364C380.981 194.217 384.067 193.629 385.243 193.115C387.006 192.234 387.227 191.794 387.227 188.416C387.227 186.36 386.859 183.496 386.492 182.028C385.537 178.503 380.173 170.353 378.85 170.353C378.336 170.353 377.38 171.381 376.866 172.702Z" fill="#8F8F8F"/>
<path d="M102.648 269.994C72.5953 340.485 60.7654 368.388 60.4714 369.563C60.1041 370.738 60.9858 370.811 74.5792 370.664L89.1277 370.444L94.712 356.639L100.223 342.908H125.279H150.335L155.919 356.639L161.503 370.444L176.272 370.664C184.428 370.738 191.041 370.517 191.041 370.224C191.041 369.856 179.358 342.027 165.03 308.324L138.946 247.085L125.793 246.864L112.567 246.718L102.648 269.994ZM133.288 300.981C137.182 310.453 140.342 318.31 140.342 318.383C140.342 318.53 133.508 318.677 125.205 318.677C113.375 318.677 110.142 318.457 110.436 317.722C120.723 292.39 125.279 282.036 125.72 282.844C126.014 283.432 129.467 291.582 133.288 300.981Z" fill="#8F8F8F"/>
<path d="M314.852 284.827C303.389 288.132 292.735 296.87 287.812 306.929C283.697 315.3 282.668 320.513 283.036 330.059C283.771 347.535 292 360.532 306.769 367.581C314.484 371.252 321.244 372.5 331.384 372.06C343.435 371.472 350.415 369.196 360.996 362.221L365.919 358.916V339.898V320.881H346.447H326.976V329.325V337.769H336.528H346.08V343.717V349.591L341.891 351.573C338.071 353.336 336.822 353.556 329.547 353.556C322.493 353.556 321.024 353.336 318.305 351.867C313.456 349.297 309.12 344.892 306.696 340.192C304.712 336.227 304.565 335.346 304.565 327.856C304.565 320.513 304.785 319.412 306.622 315.594C309.12 310.527 313.529 305.975 318.526 303.405C321.612 301.789 323.155 301.422 328.078 301.422C335.205 301.422 339.908 302.964 345.712 307.003C348.064 308.618 350.194 309.866 350.488 309.72C351.15 309.426 362.98 295.401 362.98 294.887C362.98 294.3 353.134 288.132 350.121 286.883C343.949 284.313 338.585 283.432 328.812 283.506C322.126 283.506 317.938 283.946 314.852 284.827Z" fill="#8F8F8F"/>
<path d="M482.16 284.167C473.857 285.929 466.876 290.849 463.276 297.53C461.439 300.835 461.072 302.45 460.851 308.031C460.484 315.961 461.365 319.779 464.598 323.965C468.86 329.545 474.297 332.262 489.36 336.374C502.807 339.972 507.142 343.129 505.819 348.269C505.158 351.133 501.631 353.776 497.737 354.364C490.61 355.392 482.233 353.042 474.151 347.608C471.505 345.846 469.081 344.378 468.713 344.378C468.419 344.378 465.554 347.388 462.468 351.133L456.736 357.815L459.969 360.679C468.052 367.581 480.323 371.546 493.843 371.546C507.069 371.546 515.225 368.462 520.956 361.193C524.924 356.199 526.393 350.913 525.952 343.35C525.218 330.206 518.458 324.405 497.149 318.311C485.98 315.153 482.233 313.391 481.278 310.894C480.029 307.737 480.47 306.122 483.115 303.478L485.687 300.908L491.859 301.128C497.663 301.422 498.545 301.642 505.819 305.387C510.155 307.517 513.755 309.206 513.902 309.059C513.975 308.912 516.327 305.534 519.045 301.642L523.968 294.52L521.544 292.758C518.164 290.261 511.11 286.737 506.26 285.268C501.558 283.873 486.862 283.139 482.16 284.167Z" fill="#8F8F8F"/>
<path d="M195.45 327.856V370.811H205.37H215.289L215.436 344.671L215.657 318.457L235.569 344.451L255.481 370.444L264.372 370.664L273.337 370.885V327.856V284.901H263.05H252.763L252.616 309.719L252.395 334.538L233.585 309.94L214.848 285.268L205.149 285.047L195.45 284.827V327.856Z" fill="#8F8F8F"/>
<path d="M375.617 315.52C375.911 344.598 375.984 346.434 377.454 350.325C382.891 364.864 394.868 372.28 412.944 372.28C433.076 372.28 445.935 363.028 450.05 345.699C450.932 342.028 451.152 335.273 451.152 312.95V284.901H441.306H431.46L431.166 312.583L430.946 340.339L428.741 344.745C427.198 347.829 425.582 349.811 423.377 351.353C420.365 353.409 419.704 353.556 413.311 353.556C406.845 353.556 406.257 353.409 403.245 351.353C401.187 349.811 399.35 347.682 397.881 344.745L395.676 340.413L395.456 312.657L395.235 284.901H385.316H375.396L375.617 315.52Z" fill="#8F8F8F"/>
<path d="M83.5438 380.063C83.4703 380.137 82.0742 380.284 80.4577 380.43C76.0491 380.724 70.2443 383.514 66.8644 386.966C65.2479 388.581 63.9253 390.27 63.9253 390.637C63.9253 391.078 63.6314 391.371 63.3374 391.371C62.4557 391.371 60.9127 395.043 61.3535 395.85C61.6475 396.217 61.427 396.511 60.9862 396.511C60.5453 396.511 60.3983 396.878 60.6922 397.319C60.9127 397.759 60.6922 398.42 60.1779 398.787C59.2962 399.301 59.2962 399.448 60.1779 399.448C60.9862 399.448 60.9862 399.669 60.2514 400.55C58.8553 402.239 60.1044 413.693 61.8679 414.942C62.2353 415.162 62.6027 416.043 62.8231 416.924C63.1905 418.98 66.7909 423.68 67.9665 423.68C68.4809 423.68 69.1422 424.194 69.3626 424.854C69.6565 425.515 70.0239 425.882 70.3178 425.662C70.5383 425.368 71.1261 425.442 71.5669 425.809C74.5795 428.379 86.9973 429.774 91.3324 428.159C92.7285 427.571 93.4633 427.865 95.2267 429.48C97.6515 431.683 106.395 437.631 107.277 437.631C107.865 437.631 111.686 432.931 111.686 432.197C111.686 431.977 110.363 430.949 108.747 429.921C107.13 428.893 105.22 427.571 104.485 426.984C103.824 426.396 102.648 425.442 101.84 424.928C100.517 423.973 100.591 423.826 102.501 421.77C107.865 416.116 110.29 404.295 107.718 396.438C104.779 387.48 97.6515 381.532 88.6138 380.43C85.8951 380.137 83.6908 379.99 83.5438 380.063ZM89.7894 387.847C91.4059 388.287 92.8755 389.168 93.0959 389.682C93.3163 390.196 93.9776 390.637 94.5655 390.637C95.1533 390.637 95.3737 390.931 95.1533 391.371C94.9328 391.738 95.0063 392.106 95.3737 392.106C95.7411 392.106 96.9167 393.868 97.9454 395.997C103.456 407.672 96.3289 422.211 85.0134 422.211C80.6047 422.211 77.2247 420.963 74.2856 418.246C65.6887 410.316 67.1583 393.647 76.9308 388.508C80.1638 386.819 85.4542 386.525 89.7894 387.847Z" fill="#8F8F8F"/>
<path d="M296.997 380.431C284.726 381.972 276.79 391.592 276.864 404.955C276.864 415.823 282.228 423.9 291.633 427.424C295.013 428.673 297.07 428.893 303.095 428.673L310.443 428.452L316.174 432.491C319.407 434.694 322.42 436.823 322.934 437.19C323.669 437.704 324.551 437.19 326.167 435.502C327.416 434.18 328.445 432.932 328.445 432.785C328.445 432.271 325.873 429.554 325.359 429.554C325.065 429.554 323.155 428.306 321.171 426.837C317.57 424.12 317.497 424.047 318.82 422.578C321.612 419.494 324.551 413.62 325.065 410.316C325.8 405.323 325.726 398.347 324.918 396.805C324.551 395.997 323.596 394.088 322.861 392.546C318.599 383.661 308.68 379.035 296.997 380.431ZM307.577 388.361C313.897 391.224 317.203 397.906 316.542 406.351C315.733 416.19 310.002 422.064 301.258 422.064C292.294 422.064 285.828 415.235 285.608 405.396C285.461 396.805 288.694 390.71 294.792 388.067C298.172 386.598 303.977 386.745 307.577 388.361Z" fill="#8F8F8F"/>
<path d="M344.169 382.193C339.246 384.616 337.189 387.553 336.748 392.766C336.087 400.403 340.422 404.001 353.427 406.791C362.392 408.7 364.155 409.434 365.992 412.078C367.241 413.767 367.388 414.648 366.874 416.851C365.992 420.742 362.833 422.431 356.44 422.358C350.268 422.358 346.227 420.522 344.243 416.777C342.847 414.207 342.7 414.134 338.585 414.134C336.234 414.134 334.323 414.427 334.323 414.795C334.323 415.162 334.911 416.924 335.719 418.686C338.511 425.221 345.345 428.819 354.897 428.819C361.069 428.819 367.168 427.718 368.564 426.323C369.152 425.735 370.18 425.075 370.915 424.854C372.385 424.34 375.03 420.081 375.765 416.851C376.279 414.648 374.442 406.791 373.413 406.791C373.046 406.791 372.164 406.204 371.356 405.469C369.225 403.56 363.347 400.99 359.82 400.476C355.999 399.962 352.399 398.934 348.872 397.466C346.227 396.364 344.904 394.014 345.492 391.298C346.227 387.92 352.619 385.497 358.203 386.525C361.069 387.112 364.89 389.976 365.551 392.105C365.919 393.354 366.727 393.574 370.254 393.574C374.516 393.574 374.516 393.574 374.148 391.518C373.487 387.92 370.327 384.175 366.433 382.193C363.2 380.577 361.73 380.357 355.264 380.357C348.798 380.357 347.329 380.577 344.169 382.193Z" fill="#8F8F8F"/>
<path d="M132.847 384.028C132.112 385.644 131.525 387.112 131.525 387.259C131.525 387.479 131.157 388.507 130.643 389.682C130.202 390.784 129.761 391.885 129.688 392.105C129.614 392.326 129.1 393.427 128.585 394.675C128.071 395.85 127.63 397.098 127.704 397.392C127.777 397.759 127.557 397.979 127.116 397.979C126.748 397.979 126.455 398.2 126.528 398.493C126.602 399.154 125.426 402.165 123.369 406.497C122.634 408.113 121.972 409.875 121.972 410.315C121.972 410.829 121.679 411.784 121.311 412.518C118.813 417.364 116.829 422.064 116.829 422.945C116.829 423.606 116.315 424.781 115.727 425.588C114.257 427.718 114.919 428.085 119.915 428.085C123.515 428.085 124.177 427.865 124.177 426.763C124.177 426.029 124.471 425.148 124.765 424.707C125.132 424.34 126.161 421.99 127.189 419.42L128.953 414.868H139.24H149.6L150.702 417.585C151.29 419.127 152.466 421.844 153.347 423.606C154.229 425.442 154.817 427.13 154.597 427.498C154.376 427.791 156.36 428.085 159.005 428.085C161.65 428.085 163.855 427.791 163.855 427.351C163.855 426.984 163.046 424.928 162.091 422.798C161.136 420.669 159.813 417.585 159.152 415.969C158.417 414.354 154.817 405.91 151.07 397.245L144.31 381.458L139.24 381.238L134.096 381.018L132.847 384.028ZM140.268 391.885C140.856 393.427 141.885 396.07 142.62 397.833C143.354 399.521 143.942 400.99 143.869 401.137C143.869 401.21 144.53 402.679 145.412 404.368C146.22 406.057 146.955 407.672 146.955 407.892C146.955 408.113 143.428 408.259 139.166 408.259C133.215 408.259 131.451 408.039 131.745 407.305C131.892 406.864 133.508 402.532 135.272 397.833C137.035 393.06 138.652 389.168 138.872 389.168C139.166 389.168 139.754 390.416 140.268 391.885Z" fill="#8F8F8F"/>
<path d="M172.672 384.395V387.7L187 387.846L201.401 388.067L199.124 390.49C197.948 391.812 196.919 393.06 196.919 393.207C196.919 393.354 196.185 394.308 195.303 395.263C194.348 396.217 191.115 399.742 188.102 403.119C185.089 406.424 182.15 409.655 181.709 410.169C181.195 410.683 180.754 411.197 180.754 411.343C180.754 411.49 178.623 413.913 175.978 416.704C171.643 421.33 171.202 422.137 171.202 424.928V428.085H192.143H213.084L213.452 426.029C214.554 421.036 216.024 421.55 198.609 421.33C182.885 421.109 182.885 421.109 184.208 419.641C184.942 418.833 191.629 411.27 198.977 402.899C212.056 387.993 212.35 387.553 212.35 384.395V381.091H192.511H172.672V384.395Z" fill="#8F8F8F"/>
<path d="M238.288 386.011C237.039 388.801 235.716 391.812 235.422 392.84C235.128 393.868 234.026 396.585 232.85 398.861C231.748 401.211 231.013 403.12 231.16 403.12C231.307 403.12 230.573 405.029 229.544 407.305C226.899 413.326 226.09 415.089 225.943 416.043C225.797 416.41 224.915 418.613 223.96 420.816C220.506 428.306 220.433 428.085 225.429 428.085H229.838L232.41 421.624L234.981 415.235L245.195 415.015L255.408 414.795L257.098 417.805C257.98 419.421 258.494 420.742 258.2 420.742C257.98 420.742 258.2 421.477 258.788 422.358C259.376 423.312 260.111 424.928 260.405 426.029C260.845 428.012 261.066 428.085 265.695 428.085C269.295 428.085 270.471 427.865 270.177 427.131C269.957 426.69 265.474 416.116 260.111 403.634L250.412 381.091H245.489H240.566L238.288 386.011ZM248.354 396.511C249.456 398.714 250.338 400.697 250.412 400.917C250.559 401.798 252.102 405.837 252.763 406.938C253.424 408.186 252.91 408.26 245.489 408.26H237.553L241.227 398.641C244.533 390.196 245.048 389.242 245.709 390.71C246.076 391.665 247.252 394.308 248.354 396.511Z" fill="#8F8F8F"/>
<path d="M381.936 384.395L382.23 387.7H390.607H399.057L398.836 407.892L398.616 428.085H402.877H407.066V407.892V387.7H415.516H423.965V384.395V381.091H402.804H381.716L381.936 384.395Z" fill="#8F8F8F"/>
<path d="M440.131 383.441C439.322 385.79 438.073 388.654 431.387 404.735C429.697 408.7 428.374 412.078 428.374 412.371C428.374 412.592 427.493 414.648 426.464 416.924C424.333 421.476 422.496 426.396 422.496 427.424C422.496 427.791 424.333 428.085 426.611 428.085C430.505 428.085 430.726 428.012 431.607 425.662C432.122 424.414 432.856 422.651 433.15 421.844C433.518 421.036 433.812 420.228 433.885 420.008C433.959 419.788 434.473 418.539 434.914 417.218L435.869 414.868H446.229H456.663L459.529 421.476L462.394 428.085H466.289C468.42 428.085 470.33 427.791 470.55 427.424C470.771 427.057 470.11 424.854 469.081 422.504C464.672 412.518 463.717 410.242 463.276 408.994C462.909 407.892 461.292 404.001 460.704 402.752C460.337 401.945 459.161 399.154 458.133 396.584C457.031 394.014 455.708 391.077 455.047 390.123C454.459 389.242 454.165 388.434 454.459 388.434C454.679 388.434 454.238 387.259 453.357 385.864C452.475 384.469 452.034 383.294 452.255 383.294C452.548 383.294 452.402 382.78 451.887 382.192C451.226 381.385 449.536 381.091 446.009 381.091C441.086 381.091 441.012 381.091 440.131 383.441ZM448.948 395.41C450.271 398.64 451.961 402.826 452.695 404.735L454.091 408.259H446.523C439.322 408.259 438.882 408.186 439.029 406.791C439.102 405.983 439.543 404.882 439.984 404.441C440.498 403.927 440.866 403.046 440.866 402.385C440.866 401.798 441.306 400.476 441.821 399.448C442.335 398.42 443.217 396.144 443.805 394.308C444.686 391.298 446.009 388.874 446.376 389.315C446.45 389.462 447.625 392.179 448.948 395.41Z" fill="#8F8F8F"/>
<path d="M480.544 404.588V428.158L484.806 427.938L488.994 427.718V414.868C488.994 407.819 488.773 399.448 488.553 396.29C488.259 393.133 488.186 390.71 488.259 390.783C488.406 390.93 492.006 396.29 496.415 402.752C500.75 409.214 504.718 414.868 505.085 415.382C505.526 415.896 507.731 418.906 509.935 422.137L513.976 428.085H518.605H523.161V404.588V381.091H519.046H514.858L515.225 398.346C515.446 407.819 515.299 415.602 514.931 415.602C514.638 415.602 514.344 415.088 514.344 414.501C514.344 413.913 514.05 413.399 513.609 413.399C513.242 413.399 512.874 412.959 512.874 412.445C512.874 411.931 512.213 411.123 511.405 410.609C510.523 410.095 510.008 409.434 510.229 409.067C510.449 408.773 509.935 407.966 509.127 407.305C508.392 406.644 507.731 405.542 507.731 404.955C507.731 404.294 507.437 404 506.996 404.221C506.629 404.441 506.261 404.147 506.261 403.56C506.261 402.899 505.967 402.385 505.526 402.385C505.159 402.385 504.792 401.944 504.792 401.43C504.792 400.916 504.13 399.742 503.322 398.86C502.44 397.979 502.073 397.245 502.367 397.245C502.661 397.245 502.146 396.731 501.265 396.07C500.383 395.483 499.648 394.528 499.648 393.941C499.648 393.353 498.766 392.032 497.664 390.857C496.489 389.755 495.68 388.581 495.827 388.287C495.901 387.993 495.68 387.699 495.313 387.699C494.946 387.699 494.358 387.039 494.137 386.231C493.843 385.423 492.815 383.881 491.86 382.927C490.316 381.385 489.361 381.091 485.32 381.091H480.544V404.588Z" fill="#8F8F8F"/>
</svg>
