<svg width="195" height="26" viewBox="0 0 195 26" fill="none" xmlns="http://www.w3.org/2000/svg">
<g clip-path="url(#clip0_2301_21769)">
<path d="M55.7806 8.91297C55.7806 13.4727 53.4584 16.9687 46.2361 16.9687H37.2988V25.5932H31.9727V0.84668H46.2361C53.3519 0.85721 55.7806 4.3533 55.7806 8.91297ZM50.4544 8.91297C50.4544 6.57522 48.9525 5.16414 46.2041 5.16414H37.2988V12.6197H46.2041C48.9525 12.6197 50.4544 11.2086 50.4544 8.91297Z" fill="#8F8F8F"/>
<path d="M82.8061 8.91297C82.8061 13.4727 80.4839 16.9687 73.2615 16.9687H64.3243V25.5932H58.998V0.84668H73.2615C80.3773 0.85721 82.8061 4.3533 82.8061 8.91297ZM77.4799 8.91297C77.4799 6.57522 75.9779 5.16414 73.2296 5.16414H64.3243V12.6197H73.2296C75.9779 12.6197 77.4799 11.2086 77.4799 8.91297Z" fill="#8F8F8F"/>
<path d="M101.085 20.0436H88.6006L86.1719 25.5932H80.377L91.53 0.84668H98.1132L109.309 25.5932H103.557L101.085 20.0436ZM99.2636 15.9157L94.8961 6.04869H94.7577L90.4328 15.9157H99.2636Z" fill="#8F8F8F"/>
<path d="M135.344 21.2538V25.6028H111.461V22.2121L127.014 5.3108V5.1739H112.313V0.856445H134.874V4.24724L119.28 21.1064V21.2433H135.344V21.2538Z" fill="#8F8F8F"/>
<path d="M136.974 13.2303C136.974 5.2377 142.726 0.499023 150.993 0.499023C159.29 0.499023 165.043 5.2377 165.043 13.2303C165.043 21.2228 159.29 25.9615 150.993 25.9615C142.726 25.951 136.974 21.2123 136.974 13.2303ZM159.492 13.2303C159.492 8.14409 156.062 4.92179 150.982 4.92179C145.942 4.92179 142.503 8.13357 142.503 13.2303C142.503 18.327 145.932 21.5072 150.982 21.5072C156.062 21.4966 159.492 18.3165 159.492 13.2303Z" fill="#8F8F8F"/>
<path d="M6.21593 25.5924H0.208008L8.90034 0.856445H14.9189L6.21593 25.5924Z" fill="#8F8F8F"/>
<path d="M23.6112 25.5924H29.6192L20.9269 0.856445H14.9189L23.6112 25.5924Z" fill="#8F8F8F"/>
<path d="M188.2 0.856445H194.208L185.516 25.5924H179.508L188.2 0.856445Z" fill="#8F8F8F"/>
<path d="M170.805 0.856445H164.797L173.489 25.5924H179.508L170.805 0.856445Z" fill="#8F8F8F"/>
</g>
<defs>
<clipPath id="clip0_2301_21769">
<rect width="194" height="25.4625" fill="white" transform="translate(0.208008 0.499023)"/>
</clipPath>
</defs>
</svg>
