<svg width="1105" height="145" viewBox="0 0 1105 145" fill="none" xmlns="http://www.w3.org/2000/svg">
<path fill-rule="evenodd" clip-rule="evenodd" d="M858.662 0C905.911 4.71168e-05 938.675 26.9852 938.675 72.5C938.675 118.015 905.911 145 858.662 145C811.585 144.94 778.829 117.955 778.829 72.5C778.829 26.9851 811.585 0 858.662 0ZM858.6 25.1865C829.904 25.1866 810.314 43.4761 810.314 72.5C810.314 101.524 829.841 119.634 858.6 119.634C887.531 119.574 907.064 101.464 907.064 72.5C907.064 43.536 887.531 25.1865 858.6 25.1865Z" fill="#8F8F8F"/>
<path d="M766.878 21.3457L678.071 117.353V118.132H769.55V142.958H633.546V123.648L722.114 27.4023V26.6221H638.398V2.03613H766.878V21.3457Z" fill="#8F8F8F"/>
<path fill-rule="evenodd" clip-rule="evenodd" d="M262.111 1.97949C302.633 2.03947 316.464 21.9484 316.464 47.9141C316.464 73.8799 303.24 93.7881 262.111 93.7881H211.216V142.902H180.886V1.97949H262.111ZM211.216 69.0225H261.929C277.58 69.0225 286.133 60.9868 286.133 47.9141C286.133 34.6015 277.58 26.5654 261.929 26.5654H211.216V69.0225Z" fill="#8F8F8F"/>
<path fill-rule="evenodd" clip-rule="evenodd" d="M416.012 1.97949C456.534 2.03948 470.364 21.9484 470.364 47.9141C470.364 73.8799 457.141 93.7881 416.012 93.7881H365.117V142.902H334.786V1.97949H416.012ZM365.117 69.0225H415.83C431.48 69.0225 440.034 60.9868 440.034 47.9141C440.034 34.6015 431.48 26.5654 415.83 26.5654H365.117V69.0225Z" fill="#8F8F8F"/>
<path fill-rule="evenodd" clip-rule="evenodd" d="M621.294 142.902H588.537L574.463 111.299H503.368L489.537 142.902H456.537L520.05 1.97949H557.539L621.294 142.902ZM513.802 87.792H564.09L539.219 31.6035H538.431L513.802 87.792Z" fill="#8F8F8F"/>
<path d="M34.2129 142.898H0L49.5 2.03613H83.7734L34.2129 142.898Z" fill="#8F8F8F"/>
<path d="M167.487 142.898H133.274L83.7734 2.03613H117.987L167.487 142.898Z" fill="#8F8F8F"/>
<path d="M971.485 2.03613L1021.05 142.898H986.772L937.272 2.03613H971.485Z" fill="#8F8F8F"/>
<path d="M1055.26 142.898H1021.05L1070.55 2.03613H1104.76L1055.26 142.898Z" fill="#8F8F8F"/>
</svg>
