<svg width="517" height="168" viewBox="0 0 517 168" fill="none" xmlns="http://www.w3.org/2000/svg">
<path fill-rule="evenodd" clip-rule="evenodd" d="M130.581 14.3959C167.487 39.2998 178.343 88.711 155.423 126.83C131.602 166.465 80.2252 179.211 40.5911 155.39C40.147 150.402 39.9536 145.445 40.0101 140.52C40.4674 129.95 41.7822 119.435 43.7415 109.052C47.3659 89.8265 52.3858 70.8259 57.6937 51.9633C67.138 45.1607 77.0583 39.0276 87.3099 33.4955C101.31 26.0423 115.498 19.1204 130.581 14.3959ZM124.869 98.7807C124.125 99.5218 124.123 99.6886 124.205 99.8539C124.37 100.268 125.031 100.435 126.103 101.512C128.329 103.75 127.74 107.799 125.668 109.861C123.596 111.922 119.627 112.573 117.318 110.252C116.246 109.175 116.081 108.513 115.668 108.347C115.503 108.264 115.336 108.266 114.592 109.006L109.785 113.788L127.02 131.111C127.042 131.137 128.349 132.684 129.578 132.688C130.808 132.691 132.204 131.07 132.228 131.041L149.467 113.889L143.86 108.253C142.788 107.176 142.459 106.762 142.377 106.183C142.298 105.109 143.867 105.36 145.359 103.958C146.933 102.392 146.94 99.746 145.373 98.1713C143.807 96.5971 141.243 96.5903 139.586 98.1566C138.178 99.5583 138.339 101.212 137.347 101.127C136.851 101.043 136.438 100.711 135.284 99.6342L129.676 93.9984L124.869 98.7807ZM71.3597 114.25C71.3585 114.278 71.2786 116.322 72.179 117.146C73.0777 118.049 75.0345 118.062 75.0706 118.062L99.4583 118.124L99.4788 110.105C99.4828 108.535 99.5671 108.039 99.8987 107.626C100.562 106.802 101.551 108.126 103.617 108.131C105.849 108.219 107.672 106.406 107.678 104.174C107.683 101.943 105.87 100.119 103.638 100.113C101.572 100.108 100.658 101.428 99.9163 100.599C99.5871 100.185 99.5051 99.6882 99.5091 98.1186L99.5296 90.099L92.7503 90.0815C91.7593 90.079 91.5924 90.1621 91.5091 90.4096C91.343 90.8225 91.672 91.4857 91.6683 92.9731C91.66 96.1143 88.3467 98.5859 85.4534 98.5785C82.5602 98.5707 79.2597 96.1646 79.2679 92.9408C79.2718 91.4534 79.604 90.792 79.4398 90.3783C79.3573 90.2131 79.1905 90.0478 78.2005 90.0453L71.4212 90.0277L71.3597 114.25ZM75.515 59.7016C75.4755 59.6987 73.1922 59.5388 72.2884 60.4379C71.3861 61.336 71.5344 63.2906 71.5374 63.3295L71.4749 87.8002L79.4944 87.8197C81.064 87.8237 81.5606 87.9085 81.973 88.2397C82.7979 88.903 81.4737 89.8922 81.4681 91.9584C81.4624 94.1902 83.2764 96.0138 85.5081 96.0199C87.7402 96.0256 89.564 94.211 89.5696 91.9789C89.5745 89.9128 88.255 89 89.0833 88.2582C89.4974 87.9287 89.9937 87.847 91.5638 87.851L99.5833 87.8715L99.5999 81.0922C99.6024 80.1006 99.5205 79.9343 99.2728 79.851C98.8598 79.6852 98.1965 80.0139 96.7093 80.0102C93.5682 80.0017 91.0965 76.6885 91.1038 73.7953C91.1116 70.9022 93.5179 67.6019 96.7415 67.6098C98.2285 67.6136 98.8893 67.9453 99.303 67.7816C99.4686 67.6994 99.6345 67.5342 99.637 66.5424L99.6546 59.7631L75.515 59.7016ZM101.598 67.8432C101.594 69.4137 101.511 69.9102 101.179 70.3227C100.516 71.1476 99.526 69.822 97.4593 69.8168C95.228 69.729 93.4049 71.5436 93.3987 73.8578C93.3933 76.0895 95.2072 77.9122 97.4388 77.9184C99.5051 77.9236 100.419 76.6046 101.16 77.432C101.49 77.8462 101.572 78.3432 101.568 79.9135L101.547 87.932L108.326 87.9496C109.318 87.9521 109.483 87.8693 109.567 87.6215C109.733 87.2086 109.405 86.5463 109.409 85.059C109.417 81.9181 112.729 79.4457 115.622 79.4525C118.516 79.4599 121.817 81.8664 121.809 85.0902C121.805 86.5774 121.473 87.2389 121.637 87.6527C121.719 87.8182 121.885 87.9832 122.876 87.9857L129.656 88.0033L129.718 63.2025C129.72 63.1681 129.797 61.4586 128.981 60.6381C128.156 59.8098 126.171 59.8861 126.171 59.8861L101.618 59.8246L101.598 67.8432Z" fill="#8F8F8F"/>
<path fill-rule="evenodd" clip-rule="evenodd" d="M54.2103 54.682C49.1089 73.1131 44.1892 91.72 40.8089 110.621C38.9498 120.609 37.8412 130.691 37.3402 140.798C37.2711 145.01 37.3841 149.398 37.8157 153.672C22.4391 143.664 10.8681 128.844 4.78546 111.608C4.71037 111.395 4.67208 111.288 4.59699 111.076C14.436 94.2031 26.1906 78.6888 41.2991 65.2211C45.411 61.6164 49.773 58.0426 54.2103 54.682ZM34.0423 135.861C32.2401 130.754 24.367 133.532 26.1693 138.639C27.9715 143.746 35.8444 140.968 34.0423 135.861ZM49.2405 64.3324C48.2264 61.4605 43.8655 63 44.8792 65.8725C45.8932 68.7448 50.2543 67.205 49.2405 64.3324Z" fill="#8F8F8F"/>
<path fill-rule="evenodd" clip-rule="evenodd" d="M70.7874 0.975985C65.7613 15.5516 61.2359 30.1903 56.9984 44.9662C50.2642 49.6159 43.8932 54.6162 37.7786 60.0043C23.9031 72.5582 11.8798 86.9711 2.41632 102.873C1.87823 100.671 1.37699 98.5743 1.08918 96.4027C-6.02491 50.8158 25.2006 8.09031 70.7874 0.975985ZM15.9915 71.1625C14.7525 67.6515 9.3267 69.5665 10.5657 73.0775C11.9113 76.5508 17.2305 74.6735 15.9915 71.1625ZM52.8118 38.1879C50.1836 30.7402 38.6935 34.795 41.3216 42.2426C43.9123 49.5839 55.4025 45.5292 52.8118 38.1879ZM53.1819 20.5893C51.9429 17.0782 46.5171 18.9932 47.7562 22.5043C48.9955 26.0145 54.4206 24.1 53.1819 20.5893Z" fill="#8F8F8F"/>
<path d="M439.408 50.1811C442.628 50.1811 445.849 50.3352 448.916 50.7953C451.984 51.2554 455.051 51.715 457.965 52.4818V64.1381C456.278 63.678 454.591 63.2173 452.904 62.9106C451.217 62.6039 449.53 62.2973 447.843 62.144C446.156 61.9906 444.622 61.8374 443.088 61.684C441.555 61.5307 440.174 61.5307 438.948 61.5307C435.267 61.5307 432.352 61.8371 430.359 62.6039C428.365 63.3707 426.832 64.2912 425.911 65.518C424.991 66.7449 424.378 68.2792 424.225 69.9662C424.072 71.6531 423.917 73.6465 423.917 75.64C423.917 77.6338 424.072 79.6278 424.225 81.3148C424.378 83.0019 424.991 84.5362 425.911 85.7631C426.832 86.9898 428.365 88.0627 430.359 88.6762C432.352 89.443 435.267 89.7504 438.948 89.7504C440.174 89.7504 441.555 89.7504 443.088 89.5971C444.622 89.4437 446.156 89.2905 447.843 89.1371C449.53 88.9838 451.217 88.6763 452.904 88.2162C454.591 87.9095 456.278 87.4498 457.965 86.9897V98.7992C455.051 99.566 451.984 100.026 448.916 100.486C445.849 100.946 442.628 101.099 439.408 101.099H436.8C431.739 101.099 427.445 100.486 424.071 99.2592C420.697 98.0323 418.09 96.3447 416.096 94.1977C414.102 92.0506 412.722 89.5969 411.955 86.683C411.189 83.9224 410.728 80.8549 410.728 77.4809V73.8002C410.728 70.5795 411.189 67.512 411.955 64.5981C412.722 61.6842 414.102 59.2305 416.096 57.0834C418.09 54.9364 420.697 53.2488 424.071 52.0219C427.445 50.795 431.586 50.1811 436.8 50.1811H439.408Z" fill="#8F8F8F"/>
<path fill-rule="evenodd" clip-rule="evenodd" d="M245.092 96.8061V99.7201H233.436L229.295 90.3647H205.063L200.922 99.7201H189.266V96.8061L210.738 51.4086H223.62L245.092 96.8061ZM209.818 79.6283H224.54L217.179 63.2182L209.818 79.6283Z" fill="#8F8F8F"/>
<path d="M292.943 63.0639H274.232V99.7182H261.196V63.0639H242.485V51.5609H292.943V63.0639Z" fill="#8F8F8F"/>
<path d="M349.381 63.0639H330.67V99.7182H317.634V63.0639H298.923V51.5609H349.381V63.0639Z" fill="#8F8F8F"/>
<path d="M402.907 63.0639H369.779V70.2719H395.698V81.7748H369.779V88.2162H402.907V99.7182H356.742V51.5609H402.907V63.0639Z" fill="#8F8F8F"/>
<path d="M478.976 70.2719H503.975V51.5609H516.858V99.7182H503.975V81.7748H478.823V99.7182H465.786V51.5609H478.976V70.2719Z" fill="#8F8F8F"/>
<path fill-rule="evenodd" clip-rule="evenodd" d="M73.6907 0.592196C91.033 -1.45989 108.469 1.83936 123.745 10.2074C111.191 14.6379 99.0115 20.1329 87.2767 26.5473C78.0141 31.4911 69.0082 36.8231 60.4027 42.6117C64.5088 28.4802 68.9024 14.4859 73.6907 0.592196ZM80.6116 20.8822C78.4336 14.7119 68.8588 18.0913 71.0364 24.2621C73.2143 30.4327 82.7893 27.0531 80.6116 20.8822Z" fill="#8F8F8F"/>
</svg>
