<svg width="264" height="68" viewBox="0 0 264 68" fill="none" xmlns="http://www.w3.org/2000/svg">
<path d="M25.7559 0.805976C25.4932 1.50642 23.5737 6.44992 14.5286 29.8069C10.8041 39.4043 6.04921 51.6621 3.96809 57.0433C1.88697 62.4246 0.108928 67.0381 0.00790232 67.2402C-0.126798 67.5702 1.42899 67.6712 7.10661 67.6712H14.367L15.4243 64.7482C15.9834 63.152 17.2361 59.7306 18.1655 57.1444L19.8829 52.3895H46.6209L47.5773 54.9824C48.1026 56.3766 49.4227 59.8316 50.5138 62.6199L52.4939 67.6712H59.8552C63.9165 67.6712 67.2503 67.6039 67.2503 67.5365C67.2503 67.4355 65.6676 63.4551 63.7548 58.6328C61.8017 53.8173 59.9563 49.2375 59.6599 48.4023C59.3299 47.5739 54.9724 36.5824 49.9211 23.9879C44.9035 11.3665 40.7076 0.873327 40.6133 0.637601C40.4786 0.34126 38.6938 0.240234 33.2183 0.240234C26.6112 0.240234 25.9512 0.307585 25.7559 0.805976ZM42.0007 40.1654C42.2297 40.7311 41.664 40.7648 33.2519 40.7648H24.3011L24.5368 40.0038C24.6311 39.5997 26.6112 34.0567 28.8944 27.7124L33.0499 16.1214L37.4074 27.8807C39.7849 34.3194 41.866 39.8691 42.0007 40.1654Z" fill="#8F8F8F"/>
<path d="M72.5297 11.8649L88.0809 11.9322L103.598 12.0332L68.5695 55.4808V67.6712H123.372L123.305 61.9599L123.204 56.2082H104.157C87.2525 56.2082 85.1781 56.1476 85.5418 55.7098C85.8045 55.4472 94.0885 45.1493 104.023 32.8916L122.079 10.5381L121.985 5.48681L121.884 0.408611L97.227 0.307585L72.5297 0.240234V11.8649Z" fill="#8F8F8F"/>
<path d="M150.542 1.47274C149.612 3.72897 125.285 66.506 125.117 67.0718C124.955 67.6375 125.447 67.6712 132.148 67.6712H139.382L141.099 62.923C142.022 60.33 143.275 56.9086 143.84 55.2788L144.891 52.3895L158.26 52.4568L171.602 52.5578L174.505 60.0337L177.374 67.5028L184.87 67.6039L192.366 67.6712L191.74 66.1087C191.376 65.2129 187.807 56.2756 183.813 46.2471C179.785 36.185 174.04 21.7317 171.003 14.0942L165.46 0.240234H151.067L150.542 1.47274ZM158.859 18.2429C159.189 19.206 161.203 24.6883 163.311 30.366L167.177 40.7648H149.154L150.111 38.1718C150.636 36.7777 152.582 31.3291 154.468 26.0825C156.347 20.8359 157.93 16.5188 158.065 16.5188C158.166 16.5188 158.496 17.3135 158.859 18.2429Z" fill="#8F8F8F"/>
<path d="M198.967 67.6712H211.844L211.905 15.6904L212.834 19.3407C215.205 28.6755 217.522 37.9428 217.616 38.4076C217.683 38.7039 219.104 44.3209 220.754 50.8943C222.438 57.4744 224.055 63.8861 224.351 65.1792L224.883 67.5028L231.551 67.6039L238.252 67.6712L238.447 66.7754C238.582 66.2434 239.902 60.8958 241.417 54.8814C242.94 48.8401 245.775 37.5118 247.721 29.6386L251.291 15.3873L251.385 41.5326L251.453 67.6712H264V0.240234H243.633L237.787 22.7284C234.555 35.1209 231.881 45.385 231.813 45.5804C231.679 46.0451 231.517 45.513 230.029 39.768C229.274 36.9461 227.26 29.2412 225.509 22.6611C223.758 16.0877 221.711 8.38287 220.95 5.55416L219.596 0.408611L209.298 0.307585L198.967 0.240234V67.6712Z" fill="#8F8F8F"/>
</svg>
