<svg width="789" height="164" viewBox="0 0 789 164" fill="none" xmlns="http://www.w3.org/2000/svg">
<path d="M455.097 0.688477C467.44 0.359186 479.814 0.673133 492.188 0.568359C492.127 31.6564 492.217 62.7446 492.126 93.8477C509.53 69.1808 526.859 44.4842 544.249 19.8174C551.153 9.90875 561.608 0.927285 574.359 0.62793C586.385 0.433359 598.442 0.658484 610.482 0.553711C610.452 54.8118 610.452 109.07 610.482 163.328C595.133 163.298 579.782 163.312 564.448 163.312C564.478 132.24 564.404 101.166 564.479 70.1084C546.999 95.0896 529.186 119.847 511.691 144.828C505.043 154.063 495.359 162.399 483.454 163.193C471.035 163.522 458.602 163.179 446.183 163.328C446.213 132.27 446.183 101.227 446.198 70.1836C428.431 95.2696 410.634 120.341 392.897 145.457C386.265 154.572 376.445 162.67 364.63 163.209C350.837 163.493 337.043 163.194 323.25 163.343C357.227 116.06 391.643 69.0757 424.911 21.3135C431.83 11.1057 442.043 1.42203 455.097 0.688477Z" fill="#8F8F8F"/>
<path d="M168.967 0C169.179 54.3929 168.967 108.771 169.058 163.164C153.708 163.149 138.359 163.149 123.009 163.164C123.024 132.106 123.009 101.032 123.009 69.959C105.484 94.8504 87.7616 119.622 70.2666 144.544C63.5284 154.033 53.4517 162.55 41.2295 163.074C27.4964 163.328 13.7482 163.029 0 163.194C33.9324 115.97 68.3028 69.0613 101.51 21.3291C108.415 10.9863 118.658 1.33198 131.756 0.329102C144.145 -0.284575 156.564 0.374183 168.967 0Z" fill="#8F8F8F"/>
<path d="M355.188 0.404297C355.142 12.3783 355.339 24.3674 355.142 36.3564C354.765 48.5851 346.108 58.6887 336.469 65.4541C311.224 82.5473 286.447 100.284 261.277 117.482C286.462 117.422 311.647 117.497 336.832 117.452C325.757 132.585 314.97 147.941 303.821 163.029C266.293 162.879 228.749 162.999 191.221 162.969C191.327 150.711 191.025 138.452 191.342 126.208C192.128 114.144 200.936 104.475 210.439 97.7695C235.155 80.2573 260.31 63.3436 285.132 45.9512C253.828 45.9661 222.54 45.9215 191.236 45.9814C191.206 30.8191 191.251 15.6565 191.206 0.494141C245.867 0.449237 300.527 0.613846 355.188 0.404297Z" fill="#8F8F8F"/>
<path d="M788.303 0.0595703C788.757 13.2909 788.635 28.9768 777.35 38.167C763.859 49.3031 745.184 44.7679 729.124 45.7109C729.14 84.7469 729.11 123.769 729.141 162.79C713.836 162.82 698.531 162.745 683.242 162.835C683.075 123.799 683.196 84.7472 683.166 45.6963C663.48 45.7412 643.795 45.6967 624.109 45.7266C624.124 30.5044 624.109 15.2818 624.124 0.0595703H788.303Z" fill="#8F8F8F"/>
</svg>
