<svg width="191" height="49" viewBox="0 0 191 49" fill="none" xmlns="http://www.w3.org/2000/svg">
<g clip-path="url(#clip0_2301_21639)">
<path fill-rule="evenodd" clip-rule="evenodd" d="M180.12 24.6389H174.931V15.9913C174.931 15.7442 175.179 15.4971 175.673 15.4971H180.12C183.579 15.4971 185.803 16.9796 185.803 20.1915C185.803 22.9094 183.579 24.6389 180.12 24.6389ZM180.614 11.544H171.472C170.978 11.544 170.484 11.791 170.484 12.2852V36.0043C170.484 36.4984 170.978 36.9926 171.472 36.9926H174.437C174.684 36.9926 174.931 36.7455 174.931 36.2514V28.8391H180.12C185.556 28.8391 190.25 25.6272 190.25 19.9445C190.25 14.7559 186.544 11.544 180.614 11.544ZM83.7611 22.6623H74.1252C73.8781 22.6623 73.6311 22.9094 73.6311 23.1564V26.1213C73.6311 26.3684 73.8781 26.6155 74.1252 26.6155H80.055V31.3099C78.5725 32.5453 76.3489 33.2865 73.8781 33.2865C68.6896 33.2865 65.2305 29.3333 65.2305 24.1447C65.2305 19.2033 68.9367 15.003 73.6311 15.003C76.596 15.003 78.3255 15.9913 80.3021 17.4737L80.5491 17.7208C80.7962 17.7208 81.0433 17.4737 81.0433 17.4737L82.7728 15.2501C83.0199 15.003 83.0199 14.7559 83.0199 14.5088C83.0199 14.2618 83.0199 14.0147 82.7728 13.7676C80.3021 12.0381 77.5842 11.0498 73.6311 11.0498C65.9718 11.0498 60.5361 16.9796 60.5361 24.1447C60.5361 31.557 65.7247 37.4867 73.8781 37.4867C78.0784 37.4867 81.7845 35.7572 84.2552 33.5336C84.2552 33.5336 84.5023 33.2865 84.5023 33.0394V23.1564C84.5023 22.9094 84.2552 22.6623 83.7611 22.6623ZM93.397 24.1447V15.9913C93.397 15.7442 93.8911 15.4971 94.1382 15.4971H100.068C103.28 15.4971 105.257 16.9796 105.257 19.6974C105.257 22.4152 103.28 24.1447 100.068 24.1447H93.397ZM109.951 36.0043L103.774 27.3567C107.48 26.3684 109.951 23.6506 109.951 19.4503C109.951 14.7559 106.492 11.544 100.315 11.544H89.938C89.4438 11.544 88.9497 11.791 88.9497 12.2852V36.0043C88.9497 36.4984 89.4438 36.9926 89.938 36.9926H92.9028C93.1499 36.9926 93.397 36.7455 93.397 36.2514V28.0979H99.0797L105.009 36.4984C105.257 36.7455 105.504 36.9926 105.998 36.9926H109.704C109.951 36.9926 110.198 36.7455 110.198 36.2514C110.198 36.2514 110.198 36.0043 109.951 36.0043ZM126.505 33.2865C121.316 33.2865 117.857 29.0862 117.857 24.1447C117.857 19.2033 121.316 15.003 126.258 15.003C131.446 15.003 134.905 19.2033 134.905 24.1447C134.905 29.3333 131.446 33.2865 126.505 33.2865ZM126.505 11.0498C118.599 11.0498 113.163 16.9796 113.163 24.1447C113.163 31.557 118.599 37.4867 126.258 37.4867C134.164 37.4867 139.847 31.3099 139.847 24.1447C139.847 16.9796 134.164 11.0498 126.505 11.0498ZM164.307 11.544H161.342C161.095 11.544 160.848 11.791 160.848 12.0381V26.1213C160.848 30.8157 158.377 33.2865 154.424 33.2865C150.471 33.2865 148 30.5687 148 25.8743V12.0381C148 11.791 147.753 11.544 147.506 11.544H144.541C144.047 11.544 143.553 11.791 143.553 12.2852V26.1213C143.553 33.5336 147.753 37.2397 154.424 37.2397C161.095 37.2397 165.296 33.5336 165.296 25.8743V12.2852C165.296 11.791 164.801 11.544 164.307 11.544Z" fill="#8F8F8F"/>
<path d="M26.6867 18.9561C26.6867 17.2266 25.2042 16.2383 22.9805 16.2383H18.5332C18.2861 16.2383 18.0391 16.4854 18.0391 16.7324V21.6739H22.4864C24.9571 21.6739 26.6867 20.9327 26.6867 18.9561Z" fill="#8F8F8F"/>
<path d="M23.7218 26.3682H18.0391V31.5567C18.0391 31.8038 18.2861 32.0509 18.5332 32.0509H23.9688C26.4396 32.0509 27.922 31.3096 27.922 29.3331C27.922 27.6035 26.6867 26.3682 23.7218 26.3682Z" fill="#8F8F8F"/>
<path d="M38.0523 45.146C34.8404 46.3813 31.1343 47.1225 27.6752 47.1225C23.9691 47.1225 20.263 46.3813 17.051 45.146C8.40345 42.1811 1.73244 35.263 1.73244 24.1447C1.73244 13.2734 8.40345 6.10824 17.051 3.14336C20.263 1.90798 23.9691 1.41384 27.6752 1.41384C31.1343 1.41384 34.8404 1.90798 38.0523 3.14336C46.6999 6.10824 53.3709 13.2734 53.3709 24.1447C53.3709 35.263 46.6999 42.1811 38.0523 45.146ZM0.25 24.1447C0.25 56.2643 54.8534 56.2643 54.8534 24.1447C54.8534 -7.72791 0.25 -7.72791 0.25 24.1447Z" fill="#8F8F8F"/>
<path d="M42.4996 36.0044C42.4996 36.7456 42.2526 36.9927 41.5113 36.9927H37.5581C37.064 36.9927 36.8169 36.7456 36.8169 36.4986V11.7912C36.8169 11.5441 37.064 11.297 37.5581 11.297H41.5113C42.2526 11.297 42.4996 11.7912 42.4996 12.2853V36.0044ZM23.9691 36.9927H13.592C12.8507 36.9927 12.6037 36.7456 12.6037 36.0044V12.2853C12.6037 11.7912 12.8507 11.297 13.592 11.297H23.722C27.9223 11.297 32.1225 13.2736 32.1225 17.968C32.1225 20.9329 30.6401 22.6624 28.9106 23.6507C31.8754 24.639 33.605 26.3685 33.605 30.0746C33.605 34.769 29.8989 36.9927 23.9691 36.9927ZM37.8052 4.37893C34.5933 3.14356 31.1342 2.64941 27.6752 2.64941C23.9691 2.64941 20.51 3.14356 17.2981 4.37893C9.14463 7.09675 2.96777 13.7677 2.96777 24.1449C2.96777 34.522 9.14463 41.193 17.2981 44.1579C20.51 45.1462 23.9691 45.8874 27.6752 45.8874C31.1342 45.8874 34.5933 45.1462 37.8052 44.1579C45.9587 41.193 52.1355 34.522 52.1355 24.1449C52.1355 13.7677 45.9587 7.09675 37.8052 4.37893Z" fill="#8F8F8F"/>
</g>
<defs>
<clipPath id="clip0_2301_21639">
<rect width="190" height="48.0031" fill="white" transform="translate(0.25 0.142578)"/>
</clipPath>
</defs>
</svg>
