<svg width="533" height="170" viewBox="0 0 533 170" fill="none" xmlns="http://www.w3.org/2000/svg">
<path d="M180.235 46.8682H116.311V61.4667H144.824C165.215 61.4667 171.204 73.646 171.204 88.6709C171.204 103.72 165.215 115.936 144.824 115.936H116.311V169.621H58.9669V115.936H26.9694C6.56534 115.936 0.680664 103.72 0.680664 88.6709C0.680806 73.6449 6.56445 61.4667 26.9694 61.4667H59.6637V0.541452H180.235V46.8682Z" fill="#8F8F8F"/>
<path d="M245.317 0.538086C277.479 0.538086 280.456 17.7746 284.838 38.3925L295.367 93.2858L305.963 38.3925C310.337 17.7746 313.358 0.538086 345.501 0.538086H398.99V169.617H348.49V47.8174L323.288 169.617H267.543L242.335 47.8174V169.617H191.838V0.538086H245.317Z" fill="#8F8F8F"/>
<path d="M532.086 55.3035H489.917C482.374 55.3035 464.608 58.4282 464.608 84.5913C464.608 110.751 482.374 114.637 489.917 114.637H532.086V169.617H474.288C442.835 169.617 409.415 146.365 409.358 83.5344C409.33 32.0956 439.691 0.538086 474.288 0.538086H532.086V55.3035Z" fill="#8F8F8F"/>
</svg>
