<svg width="638" height="254" viewBox="0 0 638 254" fill="none" xmlns="http://www.w3.org/2000/svg">
<g clip-path="url(#clip0_2364_21860)">
<path fill-rule="evenodd" clip-rule="evenodd" d="M562.608 0.544101C662.317 0.544101 662.314 152.026 562.605 152.029C462.898 152.029 462.898 0.547108 562.608 0.544101ZM195.415 113.084H258.477L228.917 28.2292L227.799 28.2382L195.415 113.084ZM212.806 9.02975C218.915 9.57401 226.306 10.3062 222.504 19.6864L179.978 124.622C175.446 135.808 170.904 142.107 156.938 143.767V148.67H203.187V143.767C196.281 143.176 184.453 141.807 187.596 133.578L192.426 120.922H261.278L266.736 136.176C269.229 143.136 262.523 142.528 253.772 143.769V148.672H278.558H278.639C280.334 148.634 280.959 147.362 279.505 143.627L232.127 11.6789H236.743L284.62 143.319C285.963 146.75 286.788 148.616 289.21 148.673H289.327H311.095V143.77C297.357 142.273 293.021 139.007 288.673 127.214L243.253 4.1284H212.809V9.03276L212.806 9.02975ZM88.0277 88.8932H142.818V93.8171C129.928 95.1582 129.585 96.1776 129.585 112.859V131.639C129.585 136.557 129.485 137.463 135.007 138.928C134.723 140.551 134.442 142.174 134.158 143.793C130.316 144.772 126.475 145.749 122.633 146.725C120.417 147.373 120.141 146.815 120.141 142.673V96.3745H115.232V142.808C115.232 147.54 114.832 148.457 111.359 149.148C52.2944 162.678 0.463402 136.042 0.703959 76.1196C0.879866 31.146 30.748 0.957559 84.1833 0.0930565C100.768 -0.174563 117.523 3.42327 134.424 9.48531C131.805 19.3722 129.184 29.2576 126.566 39.1415C124.995 39.4332 123.423 39.7263 121.852 40.018C120.715 23.2407 117.959 16.466 108.433 11.6097C100.337 7.48267 89.6935 6.08594 79.9089 6.08594C44.3591 5.40787 26.3789 33.8041 26.3549 73.9035C26.3263 119.784 47.7193 147.364 85.6732 147.143C108.913 147.007 105.695 137.059 105.939 119.424C106 115.153 106.057 110.88 106.116 106.606C106.116 95.5732 99.9683 94.1328 88.0382 93.7885C88.0352 92.1558 88.0322 90.523 88.0292 88.8917L88.0277 88.8932ZM21.9031 37.5117C3.48991 64.9021 9.8767 100.81 24.6905 118.873C14.3917 92.8895 13.0881 65.1307 21.9031 37.5117ZM330.031 148.618H354.634C357.315 148.618 357.877 147.322 357.788 145.015V11.5045H362.524V144.926C362.524 147.607 363.165 148.618 366.26 148.618H390.462V143.661C376.881 142.763 372.422 143.736 372.422 127.755C372.295 113.024 372.169 99.1469 372.043 84.4203C372.043 83.3258 372.455 82.6071 373.802 82.6071H389.766C393.304 82.6071 393.556 83.2597 394.923 85.5525C419.093 127.679 449.594 164.41 503.288 170.029C503.506 168.857 503.719 167.686 503.934 166.518C464.376 157.927 442.004 119.303 418.591 80.4617C417.493 78.7928 417.654 77.4427 419.233 76.5707C435.022 68.2609 444.383 54.9792 444.383 38.9039C444.055 13.0501 421.524 4.12389 385.257 4.12389H330.033V8.98916C341.769 9.12147 348.008 10.8866 348.008 21.5327V130.534C348.008 143.694 341.892 142.873 330.033 143.692V148.615L330.031 148.618ZM422.817 17.4132C439.028 27.2865 440.027 45.4381 428.24 60.5511C433.535 45.6696 433.457 30.725 422.817 17.4132ZM403.927 83.0792C405.777 82.6177 407.53 82.0704 409.221 81.454C421.568 104.986 434.574 124.9 448.441 140.084C435.001 129.953 420.159 111.02 403.929 83.0792H403.927ZM372.067 73.6284C372.017 74.8838 372.482 75.4942 373.825 75.4942H393.367C411.724 75.4942 423.456 62.6289 423.226 44.103C422.943 21.1734 409.668 10.2927 386.186 10.1965H376.272C373.602 10.1965 372.67 11.1617 372.67 13.8198C372.468 33.756 372.267 53.6937 372.068 73.6284H372.067ZM507.698 40.1293C491.425 67.3182 494.047 105.407 520.948 128.026C501.697 102.882 497.077 69.7494 507.698 40.1293ZM604.597 24.8494C623.623 50.0267 628.105 83.2852 617.372 112.728C636.104 81.7472 628.281 45.0893 604.597 24.8494ZM562.609 142.067C531.881 140.532 515.179 110.315 512.378 79.2258C509.243 44.4548 523.827 8.58171 562.609 10.5062V10.431C595.408 12.0728 612.423 46.4003 613.2 79.5746C613.961 112.239 599.046 143.8 562.609 141.992V142.065V142.067Z" fill="#8F8F8F"/>
<path d="M84.1794 0.0950357C30.7441 0.959538 0.877464 31.1479 0.700053 76.1216C0.459496 136.044 52.2905 162.68 111.353 149.149C114.828 148.46 115.226 147.54 115.226 142.81V96.3765H120.137V142.675C120.137 146.815 120.412 147.375 122.629 146.727C126.471 145.751 130.312 144.774 134.154 143.795C134.438 142.173 134.719 140.552 135.002 138.93C129.481 137.465 129.582 136.559 129.582 131.641V112.861C129.582 96.1796 129.926 95.1617 142.814 93.8191V88.8952H88.0238C88.0268 90.528 88.0298 92.1607 88.0328 93.792C99.9644 94.1363 106.112 95.5767 106.112 106.611C106.052 110.884 105.995 115.155 105.933 119.428C105.69 137.062 108.907 147.011 85.6678 147.146C47.7154 147.367 26.3209 119.787 26.3495 73.907C26.3735 33.8076 44.3536 5.41135 79.9035 6.08791C89.6881 6.08791 100.331 7.48465 108.428 11.6132C117.954 16.468 120.709 23.2441 121.846 40.0215C123.417 39.7298 124.99 39.4366 126.561 39.145C129.179 29.2596 131.799 19.3742 134.418 9.48879C118.108 3.63724 101.931 0.0830078 85.9159 0.0830078C85.3371 0.0830078 84.7582 0.0875183 84.1779 0.0965391L84.1794 0.0950357ZM21.8976 37.5137C13.0827 65.1327 14.3862 92.8914 24.6851 118.875C9.87279 100.812 3.483 64.9056 21.8976 37.5137ZM562.601 152.031C662.312 152.028 662.315 0.544577 562.604 0.544577C462.894 0.549087 462.894 152.031 562.601 152.031ZM562.604 10.4345C595.402 12.0748 612.417 46.4038 613.193 79.5781C613.955 112.243 599.041 143.804 562.604 141.995V142.069C531.876 140.532 515.174 110.318 512.373 79.2263C509.238 44.4568 523.822 8.58369 562.604 10.5082V10.433V10.4345ZM604.592 24.8529C628.276 45.0927 636.099 81.7521 617.367 112.733C628.1 83.2857 623.618 50.0287 604.592 24.8529ZM507.694 40.1328C497.07 69.7544 501.692 102.885 520.942 128.029C494.041 105.409 491.42 67.3217 507.694 40.1328ZM330.024 4.12888V8.99414C341.762 9.12645 348.003 10.8915 348.003 21.5377V130.539C348.003 143.699 341.885 142.878 330.024 143.697V148.619H354.629C357.309 148.619 357.872 147.323 357.782 145.019V11.5065H362.519V144.928C362.519 147.609 363.159 148.619 366.255 148.619H390.457V143.663C376.876 142.765 372.416 143.738 372.416 127.757C372.29 113.026 372.164 99.1489 372.038 84.4223C372.038 83.3263 372.449 82.6091 373.797 82.6091H389.761C393.298 82.6091 393.551 83.2616 394.918 85.5544C419.087 127.681 449.587 164.411 503.282 170.031C503.5 168.859 503.714 167.688 503.927 166.52C464.371 157.929 442.001 119.303 418.585 80.4637C417.488 78.7933 417.65 77.4447 419.227 76.5726C435.018 68.2629 444.378 54.9826 444.378 38.9059C444.05 13.052 421.517 4.12587 385.252 4.12587H330.026L330.024 4.12888ZM372.062 73.6303C372.262 53.6972 372.462 33.7595 372.663 13.8233C372.663 11.1652 373.594 10.1999 376.265 10.1999H386.179C409.662 10.2962 422.936 21.1754 423.219 44.1065C423.449 62.6324 411.717 75.4977 393.358 75.4977H373.818C372.477 75.4977 372.01 74.8888 372.06 73.6303H372.062ZM422.812 17.4167C439.022 27.2885 440.022 45.4416 428.235 60.5546C433.53 45.6731 433.452 30.7285 422.812 17.4167ZM403.922 83.0827C405.771 82.6227 407.524 82.0739 409.216 81.4575C421.562 104.99 434.569 124.905 448.435 140.087C434.996 129.957 420.153 111.023 403.923 83.0827H403.922ZM212.802 4.12888V9.03324C218.909 9.5775 226.302 10.3097 222.5 19.6899L179.975 124.624C175.442 135.811 170.9 142.111 156.934 143.771V148.674H203.181V143.771C196.279 143.18 184.45 141.81 187.59 133.582L192.421 120.925H261.275L266.732 136.18C269.225 143.139 262.519 142.532 253.768 143.772V148.675H278.554H278.635C280.33 148.638 280.955 147.367 279.501 143.631L232.124 11.6824H236.739L284.618 143.323C285.957 146.755 286.784 148.619 289.206 148.677H289.323H311.091V143.774C297.354 142.276 293.018 139.011 288.669 127.217L243.249 4.13188H212.805L212.802 4.12888ZM227.793 28.2417L228.914 28.2327L258.474 113.088H195.411L227.793 28.2417Z" fill="#8F8F8F"/>
<path fill-rule="evenodd" clip-rule="evenodd" d="M156.009 245.819V246.984H169.08V245.802C167.993 245.664 167.357 245.507 166.659 245.311C165.351 244.942 165.206 244.076 165.203 242.837L165.133 225.607C165.133 224.66 165.786 224.006 166.514 223.426C168.261 222.115 170.367 221.533 171.603 221.533C175.963 221.533 177.824 224.62 177.856 226.694L178.077 242.331C178.102 244.219 177.785 244.972 176.837 245.311C175.974 245.617 175.492 245.674 174.184 245.819V246.984L187.31 246.979V245.805C185.869 245.658 185.256 245.416 184.47 245.09C183.901 244.852 183.456 244.293 183.456 243.419L183.383 229.895C183.377 228.147 183.311 226.334 183.09 224.878C183.09 224.734 183.09 224.369 183.238 224.227C185.418 222.331 187.528 221.608 189.416 221.608C193.851 221.608 195.896 224.484 195.959 227.21L196.254 240.293C196.319 243.273 196.245 244.715 195.307 245.091C194.432 245.441 193.824 245.548 192.369 245.766L192.375 246.981L205.443 246.985V245.796C203.623 245.589 202.776 245.422 202.068 244.801C201.644 244.431 201.564 243.855 201.561 243.203L201.415 228.951C201.351 222.115 198.58 217.973 193.2 217.973C190.293 217.973 186.729 219.933 182.876 222.915C182.805 222.988 182.512 223.06 182.44 222.839C181.133 220.005 178.513 217.973 175.168 217.973C172.842 217.973 169.5 219.572 165.425 222.839C165.351 222.915 165.136 222.767 165.136 222.624C165.136 221.607 165.206 218.699 165.206 218.117C165.206 218.043 165.06 217.898 164.989 217.898L156.555 220.73L156.263 221.825C157.281 222.043 158.736 222.403 159.389 223.205C159.97 223.933 160.047 225.171 160.043 225.607L159.826 241.964C159.808 243.487 159.664 244.829 158.443 245.235C157.699 245.48 157.32 245.673 156.01 245.819H156.009ZM418.79 245.789C417.496 245.647 417.087 245.527 416.401 245.3C415.373 244.957 414.865 244.276 414.871 242.746L414.943 217.768L406.253 219.959V221.058C407.567 221.42 408.517 221.64 409.171 222.444C409.609 223.027 409.609 223.469 409.609 223.902L409.536 242.233C409.535 244.272 409.085 244.835 408.222 245.223C407.478 245.56 406.698 245.736 405.677 245.81V246.978H418.789V245.787L418.79 245.789ZM412.094 206.31C413.845 206.31 415.268 207.733 415.268 209.486C415.268 211.239 413.845 212.661 412.094 212.661C410.339 212.661 408.918 211.239 408.918 209.486C408.918 207.733 410.339 206.31 412.094 206.31ZM422.845 245.811V246.979H436.022V245.802C434.851 245.653 434.123 245.407 433.457 245.153C432.597 244.826 432.159 244.348 432.143 242.234L431.994 226.458C431.985 224.925 432.216 224.341 432.726 223.83C434.478 222.225 436.522 221.42 438.641 221.42C440.831 221.42 442.145 222.079 443.094 223.029C444.482 224.269 445.199 226.443 445.213 227.703L445.357 243.109C445.367 244.205 444.989 245.005 443.826 245.374C443.39 245.512 442.706 245.665 441.391 245.811V246.979H454.56V245.784C453.366 245.637 452.535 245.419 451.64 245.008C450.906 244.787 450.69 244.204 450.69 243.327L450.615 229.891C450.597 226.388 450.177 223.609 448.86 221.568C447.403 219.228 445.285 217.842 442.362 217.842C440.099 217.842 436.74 219.082 432.287 222.661C432.14 222.734 431.991 222.588 431.991 222.372C432.068 221.13 432.14 219.523 432.287 218.063C432.287 217.914 432.14 217.768 432.068 217.768L423.523 220.542V221.629C426.178 222.397 426.735 222.894 426.735 223.757V242.379C426.735 243.765 426.362 244.926 425.347 245.298C424.618 245.574 423.791 245.736 422.841 245.81L422.845 245.811ZM356.993 219.753L359.111 220.13C360.84 220.438 361.405 221.344 362.542 224.95L369.551 247.197L371.963 247.124L379.411 227.714C379.506 227.466 379.629 227.639 379.704 227.714L387.079 247.27L389.487 247.124L398.176 223.465C399.047 221.1 399.564 220.617 401.609 220.105C402.193 219.887 402.557 219.887 403.071 219.738V218.645H391.531V219.769C392.52 219.924 393.706 220.19 394.453 220.395C395.84 220.762 396.163 221.614 395.768 222.808L390.146 239.746C390.098 239.898 389.924 239.746 389.851 239.746L382.693 220.175L380.14 220.249L372.984 239.454C372.984 239.597 372.912 239.525 372.761 239.525L367.215 221.637C367.016 220.992 367.215 220.467 368.09 220.249C368.515 220.105 369.425 219.96 370.282 219.753V218.643H356.991V219.75L356.993 219.753ZM305.512 213.318C305.512 217.624 307.265 220.47 309.747 223.248C309.821 223.321 309.821 223.466 309.671 223.612C285.436 240.48 312.523 258.959 328.4 239.591C336.182 246.479 338.47 248.11 338.08 253.327C342.819 248.154 342.472 243 338.895 240.471L331.868 234.747C334.087 231.266 336.006 227.593 337.861 224.417C338.587 223.251 339.321 222.376 340.927 221.859L343.412 221.365V220.183H330.703V221.362C332.275 221.575 333.414 221.719 334.063 222.01C335.233 222.521 335.377 223.396 334.867 224.782C334.01 227.544 332.596 230.781 330.704 233.798L315.961 221.784C320.636 219.225 325.083 216.531 325.083 210.98C325.083 199.008 305.514 200.114 305.514 213.319L305.512 213.318ZM327.143 238.473C313.351 253.22 295.846 234.4 311.194 224.507L327.143 238.473ZM320.772 211.127C320.772 214.85 318.655 217.989 315.079 220.765C314.933 220.911 314.712 220.765 314.712 220.765C311.573 217.989 309.598 214.339 309.598 210.905C309.598 201.619 320.772 202.012 320.772 211.127ZM269.404 236.219C269.382 240.871 269.48 242.765 270.353 244.511C271.442 246.763 273.694 247.564 276.021 247.564C278.203 247.564 280.966 246.691 282.709 244.362L282.858 243.13C281.765 243.855 280.676 244.288 278.854 244.288C277.039 244.288 275.587 243.419 275.006 241.747C274.713 241.095 274.492 239.71 274.492 237.381V236.219L274.734 221.622L282.13 221.752L282.709 218.7L274.773 219.185L274.933 209.463L269.48 212.951L269.462 219.509L266.133 219.714L265.554 221.459L269.454 221.53L269.404 236.219ZM253.431 229.127C253.425 229.27 253.14 229.728 252.998 229.78L239.548 234.654C239.181 235.377 238.747 239.199 238.747 239.782C238.747 242.329 239.691 244.581 241.145 246.034C242.164 247.056 243.471 247.635 244.854 247.635C246.308 247.635 249.799 245.962 252.925 243.854C252.998 243.78 253.218 243.854 253.218 244.002C253.292 244.509 253.505 245.453 253.725 245.889C254.377 247.055 255.324 247.635 257.144 247.635C258.815 247.635 261.14 246.907 262.812 245.017C262.957 244.875 263.105 243.781 263.105 243.565C262.233 243.855 261.795 243.927 260.632 243.927C258.524 243.927 257.994 242.037 258.017 240.728L258.232 228.733C258.271 226.479 257.945 223.493 256.706 221.608C255.251 219.279 252.998 217.973 250.088 217.973C245.95 217.973 240.998 221.177 239.548 225.609L241.513 227.5C244.627 217.334 254.051 220.026 253.431 229.129V229.127ZM253.362 231.808L253.216 241.307C253.21 242.025 252.923 242.544 252.561 242.836C251.324 243.563 249.799 243.926 248.78 243.926C245.795 243.926 243.764 241.674 243.764 238.62C243.764 237.968 243.988 235.103 244.271 234.994L253.14 231.662C253.216 231.59 253.362 231.742 253.362 231.808ZM481.932 240.507C479.312 242.982 476.768 243.563 474.004 243.563C470.951 243.563 468.19 242.544 466.003 239.854C464.409 237.891 463.372 234.694 463.316 231.859C463.31 231.504 463.465 231.07 463.75 231.056L481.741 230.14C482.094 224.406 478.446 217.97 472.114 217.97C470.223 217.97 466.661 218.985 464.696 220.294C460.841 222.697 458.443 227.129 458.443 233.02C458.443 236.947 459.463 241.162 462.224 244.147C464.188 246.325 467.097 247.633 470.73 247.633C474.297 247.633 478.585 245.744 482.075 241.962L481.934 240.507H481.932ZM469.787 219.858C474.003 219.858 476.038 224.439 476.477 228.147C476.477 228.438 476.196 228.727 476.038 228.732L463.749 229.238C463.678 229.238 463.534 229.02 463.534 228.804C463.823 222.987 466.515 219.858 469.787 219.858ZM232.539 240.507C229.917 242.982 227.373 243.563 224.611 243.563C221.556 243.563 218.797 242.544 216.61 239.854C215.016 237.891 213.979 234.694 213.923 231.859C213.917 231.504 214.07 231.07 214.356 231.056L232.348 230.14C232.701 224.406 229.051 217.97 222.72 217.97C220.83 217.97 217.268 218.985 215.303 220.294C211.448 222.697 209.05 227.129 209.05 233.02C209.05 236.947 210.069 241.162 212.831 244.147C214.795 246.325 217.704 247.633 221.337 247.633C224.904 247.633 229.192 245.744 232.68 241.962L232.541 240.507H232.539ZM220.392 219.858C224.61 219.858 226.644 224.439 227.083 228.147C227.083 228.438 226.803 228.727 226.644 228.732L214.354 229.238C214.285 229.238 214.141 229.02 214.141 228.804C214.428 222.987 217.122 219.858 220.392 219.858Z" fill="#8F8F8F"/>
<path fill-rule="evenodd" clip-rule="evenodd" d="M562.608 0.544101C662.317 0.544101 662.314 152.026 562.605 152.029C462.898 152.029 462.898 0.547108 562.608 0.544101ZM195.415 113.084H258.477L228.917 28.2292L227.799 28.2382L195.415 113.084ZM212.806 9.02975C218.915 9.57401 226.306 10.3062 222.504 19.6864L179.978 124.622C175.446 135.808 170.904 142.107 156.938 143.767V148.67H203.187V143.767C196.281 143.176 184.453 141.807 187.596 133.578L192.426 120.922H261.278L266.736 136.176C269.229 143.136 262.523 142.528 253.772 143.769V148.672H278.558H278.639C280.334 148.634 280.959 147.362 279.505 143.627L232.127 11.6789H236.743L284.62 143.319C285.963 146.75 286.788 148.616 289.21 148.673H289.327H311.095V143.77C297.357 142.273 293.021 139.007 288.673 127.214L243.253 4.1284H212.809V9.03276L212.806 9.02975ZM88.0277 88.8932H142.818V93.8171C129.928 95.1582 129.585 96.1776 129.585 112.859V131.639C129.585 136.557 129.485 137.463 135.007 138.928C134.723 140.551 134.442 142.174 134.158 143.793C130.316 144.772 126.475 145.749 122.633 146.725C120.417 147.373 120.141 146.815 120.141 142.673V96.3745H115.232V142.808C115.232 147.54 114.832 148.457 111.359 149.148C52.2944 162.678 0.463402 136.042 0.703959 76.1196C0.879866 31.146 30.748 0.957559 84.1833 0.0930565C100.768 -0.174563 117.523 3.42327 134.424 9.48531C131.805 19.3722 129.184 29.2576 126.566 39.1415C124.995 39.4332 123.423 39.7263 121.852 40.018C120.715 23.2407 117.959 16.466 108.433 11.6097C100.337 7.48267 89.6935 6.08594 79.9089 6.08594C44.3591 5.40787 26.3789 33.8041 26.3549 73.9035C26.3263 119.784 47.7193 147.364 85.6732 147.143C108.913 147.007 105.695 137.059 105.939 119.424C106 115.153 106.057 110.88 106.116 106.606C106.116 95.5732 99.9683 94.1328 88.0382 93.7885C88.0352 92.1558 88.0322 90.523 88.0292 88.8917L88.0277 88.8932ZM21.9031 37.5117C3.48991 64.9021 9.8767 100.81 24.6905 118.873C14.3917 92.8895 13.0881 65.1307 21.9031 37.5117ZM330.031 148.618H354.634C357.315 148.618 357.877 147.322 357.788 145.015V11.5045H362.524V144.926C362.524 147.607 363.165 148.618 366.26 148.618H390.462V143.661C376.881 142.763 372.422 143.736 372.422 127.755C372.295 113.024 372.169 99.1469 372.043 84.4203C372.043 83.3258 372.455 82.6071 373.802 82.6071H389.766C393.304 82.6071 393.556 83.2597 394.923 85.5525C419.093 127.679 449.594 164.41 503.288 170.029C503.506 168.857 503.719 167.686 503.934 166.518C464.376 157.927 442.004 119.303 418.591 80.4617C417.493 78.7928 417.654 77.4427 419.233 76.5707C435.022 68.2609 444.383 54.9792 444.383 38.9039C444.055 13.0501 421.524 4.12389 385.257 4.12389H330.033V8.98916C341.769 9.12147 348.008 10.8866 348.008 21.5327V130.534C348.008 143.694 341.892 142.873 330.033 143.692V148.615L330.031 148.618ZM422.817 17.4132C439.028 27.2865 440.027 45.4381 428.24 60.5511C433.535 45.6696 433.457 30.725 422.817 17.4132ZM403.927 83.0792C405.777 82.6177 407.53 82.0704 409.221 81.454C421.568 104.986 434.574 124.9 448.441 140.084C435.001 129.953 420.159 111.02 403.929 83.0792H403.927ZM372.067 73.6284C372.017 74.8838 372.482 75.4942 373.825 75.4942H393.367C411.724 75.4942 423.456 62.6289 423.226 44.103C422.943 21.1734 409.668 10.2927 386.186 10.1965H376.272C373.602 10.1965 372.67 11.1617 372.67 13.8198C372.468 33.756 372.267 53.6937 372.068 73.6284H372.067ZM507.698 40.1293C491.425 67.3182 494.047 105.407 520.948 128.026C501.697 102.882 497.077 69.7494 507.698 40.1293ZM604.597 24.8494C623.623 50.0267 628.105 83.2852 617.372 112.728C636.104 81.7472 628.281 45.0893 604.597 24.8494ZM562.609 142.067C531.881 140.532 515.179 110.315 512.378 79.2258C509.243 44.4548 523.827 8.58171 562.609 10.5062V10.431C595.408 12.0728 612.423 46.4003 613.2 79.5746C613.961 112.239 599.046 143.8 562.609 141.992V142.065V142.067Z" fill="#8F8F8F"/>
<path d="M84.1794 0.0950357C30.7441 0.959538 0.877464 31.1479 0.700053 76.1216C0.459496 136.044 52.2905 162.68 111.353 149.149C114.828 148.46 115.226 147.54 115.226 142.81V96.3765H120.137V142.675C120.137 146.815 120.412 147.375 122.629 146.727C126.471 145.751 130.312 144.774 134.154 143.795C134.438 142.173 134.719 140.552 135.002 138.93C129.481 137.465 129.582 136.559 129.582 131.641V112.861C129.582 96.1796 129.926 95.1617 142.814 93.8191V88.8952H88.0238C88.0268 90.528 88.0298 92.1607 88.0328 93.792C99.9644 94.1363 106.112 95.5767 106.112 106.611C106.052 110.884 105.995 115.155 105.933 119.428C105.69 137.062 108.907 147.011 85.6678 147.146C47.7154 147.367 26.3209 119.787 26.3495 73.907C26.3735 33.8076 44.3536 5.41135 79.9035 6.08791C89.6881 6.08791 100.331 7.48465 108.428 11.6132C117.954 16.468 120.709 23.2441 121.846 40.0215C123.417 39.7298 124.99 39.4366 126.561 39.145C129.179 29.2596 131.799 19.3742 134.418 9.48879C118.108 3.63724 101.931 0.0830078 85.9159 0.0830078C85.3371 0.0830078 84.7582 0.0875183 84.1779 0.0965391L84.1794 0.0950357ZM21.8976 37.5137C13.0827 65.1327 14.3862 92.8914 24.6851 118.875C9.87279 100.812 3.483 64.9056 21.8976 37.5137ZM562.601 152.031C662.312 152.028 662.315 0.544577 562.604 0.544577C462.894 0.549087 462.894 152.031 562.601 152.031ZM562.604 10.4345C595.402 12.0748 612.417 46.4038 613.193 79.5781C613.955 112.243 599.041 143.804 562.604 141.995V142.069C531.876 140.532 515.174 110.318 512.373 79.2263C509.238 44.4568 523.822 8.58369 562.604 10.5082V10.433V10.4345ZM604.592 24.8529C628.276 45.0927 636.099 81.7521 617.367 112.733C628.1 83.2857 623.618 50.0287 604.592 24.8529ZM507.694 40.1328C497.07 69.7544 501.692 102.885 520.942 128.029C494.041 105.409 491.42 67.3217 507.694 40.1328ZM330.024 4.12888V8.99414C341.762 9.12645 348.003 10.8915 348.003 21.5377V130.539C348.003 143.699 341.885 142.878 330.024 143.697V148.619H354.629C357.309 148.619 357.872 147.323 357.782 145.019V11.5065H362.519V144.928C362.519 147.609 363.159 148.619 366.255 148.619H390.457V143.663C376.876 142.765 372.416 143.738 372.416 127.757C372.29 113.026 372.164 99.1489 372.038 84.4223C372.038 83.3263 372.449 82.6091 373.797 82.6091H389.761C393.298 82.6091 393.551 83.2616 394.918 85.5544C419.087 127.681 449.587 164.411 503.282 170.031C503.5 168.859 503.714 167.688 503.927 166.52C464.371 157.929 442.001 119.303 418.585 80.4637C417.488 78.7933 417.65 77.4447 419.227 76.5726C435.018 68.2629 444.378 54.9826 444.378 38.9059C444.05 13.052 421.517 4.12587 385.252 4.12587H330.026L330.024 4.12888ZM372.062 73.6303C372.262 53.6972 372.462 33.7595 372.663 13.8233C372.663 11.1652 373.594 10.1999 376.265 10.1999H386.179C409.662 10.2962 422.936 21.1754 423.219 44.1065C423.449 62.6324 411.717 75.4977 393.358 75.4977H373.818C372.477 75.4977 372.01 74.8888 372.06 73.6303H372.062ZM422.812 17.4167C439.022 27.2885 440.022 45.4416 428.235 60.5546C433.53 45.6731 433.452 30.7285 422.812 17.4167ZM403.922 83.0827C405.771 82.6227 407.524 82.0739 409.216 81.4575C421.562 104.99 434.569 124.905 448.435 140.087C434.996 129.957 420.153 111.023 403.923 83.0827H403.922ZM212.802 4.12888V9.03324C218.909 9.5775 226.302 10.3097 222.5 19.6899L179.975 124.624C175.442 135.811 170.9 142.111 156.934 143.771V148.674H203.181V143.771C196.279 143.18 184.45 141.81 187.59 133.582L192.421 120.925H261.275L266.732 136.18C269.225 143.139 262.519 142.532 253.768 143.772V148.675H278.554H278.635C280.33 148.638 280.955 147.367 279.501 143.631L232.124 11.6824H236.739L284.618 143.323C285.957 146.755 286.784 148.619 289.206 148.677H289.323H311.091V143.774C297.354 142.276 293.018 139.011 288.669 127.217L243.249 4.13188H212.805L212.802 4.12888ZM227.793 28.2417L228.914 28.2327L258.474 113.088H195.411L227.793 28.2417Z" fill="#8F8F8F"/>
</g>
<defs>
<clipPath id="clip0_2364_21860">
<rect width="636.688" height="253.245" fill="white" transform="translate(0.699219 0.0791016)"/>
</clipPath>
</defs>
</svg>
