<svg width="145" height="61" viewBox="0 0 145 61" fill="none" xmlns="http://www.w3.org/2000/svg">
<path d="M23.2473 6.86038H39.5977V13.3998H23.2473C17.8296 13.3998 13.438 17.7915 13.438 23.2091C13.438 28.6278 17.8297 33.0184 23.2473 33.0184H33.0576V26.479H23.2473V19.9398H33.0576H39.5977V26.479V33.0184V39.5586H33.0576H23.2473C14.2189 39.5586 6.89855 32.2392 6.89855 23.2091C6.89855 14.1799 14.2189 6.86038 23.2473 6.86038ZM0.359375 46.098H46.1369V0.320312H0.359375V46.098Z" fill="#8F8F8F"/>
<path d="M55.9464 23.2091V6.86065H78.8363C84.254 6.86065 88.6456 11.2514 88.6456 16.67C88.6456 19.1814 87.6995 21.4734 86.1469 23.2091C87.6994 24.9451 88.6456 27.2368 88.6456 29.7486C88.6456 35.1672 84.2539 39.5579 78.8363 39.5579H55.9464V23.2091ZM49.4072 46.098H95.1849V0.320312H49.4072V46.098Z" fill="#8F8F8F"/>
<path d="M82.105 29.7489C82.105 27.9438 80.6412 26.479 78.8351 26.479H65.7546V19.9396H78.8351C80.6412 19.9396 82.105 18.4748 82.105 16.6696C82.105 14.8632 80.6412 13.4004 78.8351 13.4004H62.4854V23.2097V33.019H78.8351C80.6412 33.019 82.105 31.5552 82.105 29.7488V29.7489Z" fill="#8F8F8F"/>
<path d="M137.691 13.3997H121.343C115.925 13.3997 111.534 17.7914 111.534 23.209C111.534 28.6266 115.925 33.0182 121.343 33.0182H131.152V26.4791H121.343V19.9389H131.152H137.691V26.4791V33.0182V39.5577H131.152H121.343C112.314 39.5577 104.993 32.2391 104.993 23.209C104.993 14.179 112.314 6.86049 121.343 6.86049H137.691V13.3997ZM98.4531 46.0978H144.231V0.320146H98.4531V46.0978Z" fill="#8F8F8F"/>
<path d="M4.2633 60.3021C3.70865 60.3021 3.1937 60.2027 2.71556 60.0058C2.23742 59.8079 1.82377 59.5358 1.47527 59.1862C1.12568 58.8364 0.852377 58.4218 0.655699 57.9391C0.457462 57.4576 0.359375 56.9364 0.359375 56.374C0.359375 55.8124 0.457462 55.2913 0.655699 54.8085C0.852257 54.327 1.12568 53.9112 1.47527 53.5626C1.82377 53.213 2.23742 52.9397 2.71556 52.743C3.1937 52.5447 3.70865 52.4463 4.2633 52.4463C5.09139 52.4463 5.79631 52.65 6.38083 53.0554C6.96571 53.4617 7.40679 54.0071 7.70217 54.6891H6.10873C5.90293 54.4125 5.64233 54.1899 5.3286 54.02C5.0126 53.8519 4.6581 53.7663 4.2633 53.7663C3.9148 53.7663 3.59413 53.8336 3.30235 53.9665C3.00961 54.101 2.75452 54.2838 2.53926 54.5166C2.32303 54.7483 2.15394 55.0226 2.03222 55.3397C1.91181 55.6548 1.85041 55.9998 1.85041 56.3738C1.85041 56.7477 1.91181 57.0926 2.03222 57.409C2.15394 57.7251 2.32303 58.0005 2.53926 58.2322C2.75452 58.4649 3.00961 58.6478 3.30235 58.782C3.59413 58.9152 3.9148 58.9811 4.2633 58.9811C4.81112 58.9811 5.25544 58.8341 5.60167 58.5423C5.94693 58.2506 6.18427 57.8616 6.31391 57.3765H3.8534V56.0556H7.91852C7.91852 56.7083 7.82724 57.2955 7.64543 57.82C7.46363 58.3445 7.20892 58.7891 6.88236 59.1584C6.5558 59.5254 6.17013 59.8079 5.72677 60.0058C5.2834 60.2027 4.79469 60.3021 4.2633 60.3021Z" fill="#8F8F8F"/>
<path d="M10.8485 55.9302H12.9894C13.3773 55.9302 13.6773 55.8386 13.8949 55.6549C14.1102 55.4708 14.2192 55.2253 14.2192 54.9171C14.2192 54.6092 14.1102 54.366 13.8949 54.1855C13.6774 54.006 13.3773 53.9157 12.9894 53.9157H10.8485V55.9302ZM15.7105 54.9171C15.7105 55.1822 15.6721 55.4392 15.5969 55.686C15.5204 55.9325 15.4068 56.156 15.2552 56.3575C15.1037 56.559 14.9104 56.7304 14.6753 56.8751C14.439 57.0185 14.161 57.1216 13.8426 57.183L16.1085 60.1539H14.2526L12.0447 57.2513H10.8485V60.1539H9.35742V52.5947H13.0914C13.5395 52.5947 13.9284 52.6571 14.2586 52.7822C14.5884 52.9086 14.8627 53.0762 15.0781 53.2892C15.2947 53.5012 15.4546 53.7477 15.5563 54.0293C15.6583 54.3105 15.7105 54.6056 15.7105 54.9171Z" fill="#8F8F8F"/>
<path d="M19.6565 57.16H21.9224L20.7944 54.5758L19.6565 57.16ZM24.8375 60.1542H23.2537L22.5152 58.4814H19.0648L18.325 60.1542H16.7988L20.0893 52.5947H21.5472L24.8373 60.1542H24.8375Z" fill="#8F8F8F"/>
<path d="M32.7068 52.5947V60.1541H31.0903L27.3321 54.8491V60.1541H25.8408V52.5947H27.4585L31.2154 57.8997V52.5947H32.7068Z" fill="#8F8F8F"/>
<path d="M37.1685 58.8342C37.5784 58.8342 37.9489 58.7728 38.2787 58.6514C38.6089 58.5286 38.8891 58.3597 39.1219 58.1421C39.3523 57.9255 39.5305 57.6649 39.6556 57.3639C39.7816 57.064 39.8443 56.7341 39.8443 56.375C39.8443 56.0163 39.7816 55.6862 39.6556 55.3852C39.5305 55.0841 39.3523 54.8246 39.1219 54.6083C38.8893 54.3907 38.609 54.2213 38.2787 54.099C37.9489 53.9772 37.5784 53.9158 37.1685 53.9158H36.086V58.8342H37.1685ZM37.2138 52.5947C37.8739 52.5947 38.4584 52.6955 38.9677 52.8971C39.4751 53.0985 39.9058 53.3693 40.2598 53.711C40.613 54.0523 40.8794 54.4531 41.0612 54.9116C41.2453 55.3714 41.3356 55.8587 41.3356 56.375C41.3356 56.8903 41.2453 57.379 41.0612 57.8385C40.8794 58.2969 40.613 58.6977 40.2598 59.0394C39.9056 59.3807 39.4751 59.6519 38.9677 59.8533C38.4584 60.0546 37.8739 60.1553 37.2138 60.1553H34.5947V52.5948H37.2138V52.5947Z" fill="#8F8F8F"/>
<path d="M47.4268 58.8332H49.2595C49.6173 58.8332 49.9021 58.7591 50.1141 58.6087C50.3258 58.4581 50.4335 58.2368 50.4335 57.9451C50.4335 57.6385 50.3282 57.4091 50.1198 57.2598C49.9113 57.1092 49.6242 57.034 49.2595 57.034H47.4268V58.8332ZM47.4268 55.714H49.2595C49.6173 55.714 49.9021 55.6365 50.1141 55.4836C50.3258 55.332 50.4335 55.1098 50.4335 54.819C50.4335 54.5147 50.3282 54.2866 50.1198 54.1383C49.9113 53.989 49.6242 53.9147 49.2595 53.9147H47.4268V55.714ZM49.4079 52.5938C49.8408 52.5938 50.215 52.6505 50.5297 52.7651C50.8447 52.8774 51.1049 53.0312 51.3101 53.2249C51.5139 53.4182 51.6679 53.6473 51.7709 53.9125C51.8726 54.1776 51.9249 54.459 51.9249 54.7543C51.9249 55.0947 51.8497 55.4071 51.7013 55.692C51.5534 55.9759 51.3354 56.2017 51.0473 56.3684C51.3354 56.5361 51.5534 56.7619 51.7013 57.0468C51.8497 57.3316 51.9249 57.6455 51.9249 57.9881C51.9249 58.2831 51.8727 58.5658 51.7709 58.831C51.6679 59.0974 51.5139 59.3278 51.3101 59.5211C51.1051 59.7154 50.8447 59.8696 50.5297 59.983C50.2148 60.0965 49.8408 60.1543 49.4079 60.1543H45.9355V52.5939H49.4079V52.5938Z" fill="#8F8F8F"/>
<path d="M53.4521 52.5938H54.9432V56.9841C54.9432 57.6385 55.1066 58.1351 55.4332 58.4731C55.7594 58.8112 56.2078 58.9815 56.7762 58.9815C57.346 58.9815 57.7917 58.8112 58.1133 58.4731C58.4366 58.135 58.5974 57.6385 58.5974 56.9841V52.5938H60.0888V56.9887C60.0888 57.5203 60.01 57.9903 59.8502 58.4003C59.6916 58.8102 59.4669 59.1551 59.1787 59.4355C58.8892 59.7167 58.542 59.931 58.1367 60.0791C57.7304 60.2275 57.2774 60.3014 56.7762 60.3014C56.2747 60.3014 55.8198 60.2275 55.4099 60.0791C55 59.9312 54.6514 59.7168 54.362 59.4355C54.0738 59.1552 53.8503 58.8103 53.6905 58.4003C53.531 57.9904 53.4523 57.5204 53.4523 56.9887V52.5938H53.4521Z" fill="#8F8F8F"/>
<path d="M63.4258 60.1533H61.9346V52.5938H63.4258V60.1533Z" fill="#8F8F8F"/>
<path d="M66.8019 58.8331H70.6156V60.1541H65.3105V52.5938H66.8019V58.8331Z" fill="#8F8F8F"/>
<path d="M74.3589 58.8332C74.7688 58.8332 75.1393 58.7718 75.4691 58.6505C75.7993 58.5277 76.0796 58.3587 76.3123 58.1411C76.5427 57.9246 76.7209 57.664 76.846 57.3629C76.9721 57.063 77.0348 56.7331 77.0348 56.374C77.0348 56.0153 76.9721 55.6852 76.846 55.3842C76.7209 55.0832 76.5427 54.8236 76.3123 54.6073C76.0797 54.3898 75.7994 54.2207 75.4691 54.098C75.1393 53.9763 74.7688 53.9148 74.3589 53.9148H73.2764V58.8332H74.3589ZM74.4042 52.5938C75.0643 52.5938 75.6488 52.6945 76.1581 52.8961C76.6655 53.0976 77.0962 53.3683 77.4502 53.71C77.8034 54.0513 78.0698 54.4521 78.2516 54.9106C78.4357 55.3704 78.526 55.8578 78.526 56.374C78.526 56.8894 78.4357 57.3781 78.2516 57.8375C78.0698 58.296 77.8034 58.6968 77.4502 59.0384C77.096 59.3797 76.6655 59.6509 76.1581 59.8524C75.6488 60.0536 75.0643 60.1543 74.4042 60.1543H71.7852V52.5939H74.4042V52.5938Z" fill="#8F8F8F"/>
<path d="M81.4678 60.1533H79.9766V52.5938H81.4678V60.1533Z" fill="#8F8F8F"/>
<path d="M90.2185 52.5938V60.1533H88.6022L84.8439 54.8482V60.1533H83.3525V52.5938H84.97L88.7272 57.8989V52.5938H90.2185Z" fill="#8F8F8F"/>
<path d="M95.5983 60.3021C95.044 60.3021 94.5286 60.2024 94.0505 60.0054C93.5724 59.8076 93.1587 59.5354 92.8102 59.1859C92.4606 58.836 92.1873 58.4215 91.9907 57.9388C91.7928 57.4573 91.6943 56.9361 91.6943 56.3736C91.6943 55.812 91.7928 55.2909 91.9907 54.8081C92.1872 54.3266 92.4606 53.9108 92.8102 53.5622C93.1587 53.2126 93.5724 52.9393 94.0505 52.7426C94.5286 52.5444 95.044 52.4463 95.5983 52.4463C96.4263 52.4463 97.1313 52.6498 97.7161 53.0552C98.3007 53.4615 98.7417 54.0069 99.0371 54.6889H97.444C97.2379 54.4122 96.9773 54.1896 96.6636 54.0197C96.3476 53.8517 95.9931 53.7661 95.5983 53.7661C95.2498 53.7661 94.9291 53.8333 94.6373 53.9666C94.3446 54.1008 94.0898 54.2837 93.8742 54.5163C93.658 54.748 93.4889 55.0224 93.3672 55.3395C93.2468 55.6545 93.1853 55.9996 93.1853 56.3736C93.1853 56.7474 93.2468 57.0927 93.3672 57.4088C93.4889 57.7248 93.658 58.0003 93.8742 58.232C94.0898 58.4646 94.3446 58.6475 94.6373 58.7821C94.9291 58.915 95.2498 58.9809 95.5983 58.9809C96.1461 58.9809 96.5908 58.8339 96.9366 58.5421C97.2819 58.2503 97.5192 57.8614 97.6489 57.3763H95.1884V56.0553H99.2538C99.2538 56.7081 99.1622 57.2952 98.9804 57.8198C98.7986 58.3442 98.5439 58.7889 98.2173 59.1582C97.8908 59.5251 97.5054 59.8077 97.0617 60.0056C96.6183 60.2025 96.1299 60.3022 95.5983 60.3022V60.3021Z" fill="#8F8F8F"/>
<path d="M107.757 60.3017C107.203 60.3017 106.688 60.2032 106.21 60.0053C105.732 59.8084 105.318 59.5353 104.969 59.1855C104.62 58.837 104.347 58.4215 104.15 57.9396C103.952 57.4581 103.854 56.936 103.854 56.3731C103.854 55.8129 103.952 55.2907 104.15 54.809C104.346 54.3275 104.62 53.9107 104.969 53.5621C105.318 53.2136 105.732 52.9402 106.21 52.7423C106.688 52.5454 107.203 52.4473 107.757 52.4473C108.586 52.4473 109.29 52.6498 109.875 53.0551C110.46 53.4614 110.901 54.0068 111.196 54.6886H109.603C109.397 54.4119 109.136 54.1897 108.823 54.0207C108.507 53.8517 108.152 53.767 107.757 53.767C107.409 53.767 107.088 53.8343 106.796 53.9676C106.504 54.1018 106.249 54.2836 106.033 54.5163C105.817 54.749 105.648 55.0221 105.526 55.3395C105.406 55.6555 105.345 56.0005 105.345 56.3734C105.345 56.7485 105.406 57.0938 105.526 57.4099C105.648 57.7247 105.817 58.0003 106.033 58.2331C106.249 58.4644 106.504 58.6475 106.796 58.7818C107.088 58.9151 107.409 58.981 107.757 58.981C108.305 58.981 108.75 58.835 109.096 58.5422C109.441 58.2505 109.678 57.8615 109.808 57.3761H107.348V56.0551H111.413C111.413 56.7082 111.321 57.2963 111.14 57.8198C110.958 58.3442 110.703 58.79 110.377 59.1582C110.05 59.5261 109.664 59.8087 109.221 60.0056C108.778 60.2034 108.289 60.3019 107.757 60.3019V60.3017Z" fill="#8F8F8F"/>
<path d="M114.343 55.9306H116.484C116.871 55.9306 117.171 55.838 117.389 55.6539C117.604 55.4698 117.713 55.2243 117.713 54.9174C117.713 54.6096 117.604 54.3654 117.389 54.1859C117.172 54.0054 116.871 53.9147 116.484 53.9147H114.343V55.9306ZM119.205 54.9174C119.205 55.1826 119.166 55.4386 119.091 55.6851C119.015 55.9319 118.901 56.1554 118.749 56.3569C118.598 56.5581 118.404 56.7307 118.169 56.8741C117.933 57.0189 117.655 57.1219 117.337 57.1823L119.603 60.1533H117.747L115.539 57.2517H114.343V60.1533H112.852V52.5938H116.586C117.034 52.5938 117.423 52.6574 117.753 52.7825C118.082 52.9076 118.357 53.0766 118.572 53.2896C118.789 53.5016 118.949 53.748 119.05 54.0283C119.152 54.3108 119.205 54.6049 119.205 54.9174Z" fill="#8F8F8F"/>
<path d="M124.223 58.9809C124.571 58.9809 124.895 58.9127 125.196 58.7748C125.496 58.6383 125.753 58.4518 125.97 58.2155C126.186 57.9795 126.355 57.7029 126.476 57.3855C126.599 57.0705 126.658 56.7324 126.658 56.3737C126.658 56.0088 126.598 55.6675 126.476 55.35C126.355 55.0352 126.186 54.7597 125.97 54.5269C125.753 54.2952 125.496 54.11 125.196 53.9735C124.895 53.8357 124.571 53.7674 124.223 53.7674C123.865 53.7674 123.538 53.8356 123.243 53.9735C122.947 54.11 122.691 54.2952 122.474 54.5269C122.259 54.7595 122.089 55.0352 121.968 55.35C121.847 55.6674 121.786 56.0088 121.786 56.3737C121.786 56.7324 121.847 57.0705 121.968 57.3855C122.089 57.7029 122.259 57.9795 122.474 58.2155C122.691 58.4518 122.947 58.6383 123.243 58.7748C123.538 58.9126 123.865 58.9809 124.223 58.9809ZM124.223 60.3019C123.638 60.3019 123.106 60.2002 122.628 59.994C122.15 59.7892 121.737 59.5089 121.387 59.1512C121.038 58.7957 120.769 58.3777 120.58 57.8994C120.389 57.4213 120.294 56.9132 120.294 56.3736C120.294 55.8271 120.389 55.3174 120.58 54.8429C120.769 54.3693 121.038 53.9524 121.387 53.597C121.737 53.2392 122.15 52.959 122.628 52.7528C123.106 52.548 123.638 52.4463 124.223 52.4463C124.799 52.4463 125.328 52.548 125.81 52.7528C126.292 52.959 126.707 53.2392 127.057 53.597C127.405 53.9524 127.675 54.3692 127.865 54.8429C128.055 55.3174 128.15 55.8271 128.15 56.3736C128.15 56.9132 128.055 57.4213 127.865 57.8994C127.675 58.3776 127.406 58.7957 127.057 59.1512C126.707 59.5089 126.292 59.7892 125.81 59.994C125.328 60.2002 124.799 60.3019 124.223 60.3019Z" fill="#8F8F8F"/>
<path d="M129.532 52.5938H131.024V56.9854C131.024 57.6382 131.187 58.1351 131.513 58.4731C131.84 58.8125 132.288 58.9815 132.856 58.9815C133.426 58.9815 133.872 58.8125 134.194 58.4731C134.517 58.135 134.677 57.6382 134.677 56.9854V52.5938H136.169V56.9887C136.169 57.5203 136.09 57.9903 135.931 58.4013C135.772 58.8102 135.547 59.1561 135.259 59.4365C134.969 59.7167 134.622 59.932 134.217 60.0803C133.81 60.2283 133.358 60.3012 132.856 60.3012C132.355 60.3012 131.9 60.2283 131.49 60.0803C131.08 59.932 130.732 59.7167 130.442 59.4365C130.154 59.1562 129.931 58.8102 129.771 58.4013C129.611 57.9904 129.532 57.5204 129.532 56.9887V52.5938H129.532Z" fill="#8F8F8F"/>
<path d="M139.498 55.9306H141.639C142.027 55.9306 142.327 55.838 142.545 55.6539C142.76 55.4698 142.869 55.2243 142.869 54.9174C142.869 54.6096 142.76 54.3654 142.545 54.1859C142.327 54.0054 142.027 53.9147 141.639 53.9147H139.498V55.9306ZM144.36 54.9174C144.36 55.2348 144.308 55.5358 144.206 55.816C144.104 56.0973 143.944 56.3441 143.728 56.5558C143.513 56.7688 143.238 56.9379 142.908 57.0642C142.578 57.188 142.189 57.2517 141.741 57.2517H139.498V60.1533H138.007V52.5938H141.741C142.189 52.5938 142.578 52.6574 142.908 52.7825C143.238 52.9076 143.513 53.0766 143.728 53.2896C143.944 53.5016 144.104 53.748 144.206 54.0283C144.308 54.3108 144.36 54.6049 144.36 54.9174Z" fill="#8F8F8F"/>
</svg>
