<svg width="142" height="47" viewBox="0 0 142 47" fill="none" xmlns="http://www.w3.org/2000/svg">
<g clip-path="url(#clip0_2301_21779)">
<path fill-rule="evenodd" clip-rule="evenodd" d="M35.8613 17.704V32.8301H36.0287L42.3703 29.6324C43.8982 28.8539 44.8819 27.2972 44.8819 25.5721V19.1556H53.4628V13.0967H44.8819V7.71107H46.6189H54.4674C55.0744 7.69006 55.6604 7.52174 56.1627 7.22724C56.4139 7.07993 56.6441 6.91167 56.8534 6.72234C57.1883 6.42779 57.4603 6.04913 57.6696 5.62836L60.3693 0.22168H56.8534H42.6215H35.8613V1.82054V17.704Z" fill="#8F8F8F"/>
<path d="M62.8599 31.6515C60.8091 30.5996 59.2183 29.127 58.0673 27.2546C56.9161 25.3823 56.3301 23.2575 56.3301 20.8802C56.3301 18.5451 56.8952 16.4202 58.0673 14.5479C59.2183 12.6755 60.8091 11.2239 62.8392 10.1721C64.8693 9.1412 67.1712 8.61523 69.7248 8.61523C72.2992 8.61523 74.6012 9.1412 76.6313 10.1721C78.6827 11.2029 80.2522 12.6545 81.4032 14.5268C82.5334 16.3782 83.0985 18.503 83.0985 20.8802C83.0985 23.2575 82.5334 25.3823 81.4032 27.2546C80.273 29.127 78.6827 30.5996 76.6313 31.6515C74.5804 32.7034 72.2785 33.2293 69.7248 33.2293C67.1712 33.2293 64.89 32.7034 62.8599 31.6515ZM73.3036 25.0877C74.2456 24.078 74.7063 22.6684 74.7063 20.8802C74.7063 19.113 74.2456 17.7456 73.3036 16.7568C72.3622 15.768 71.169 15.2631 69.7248 15.2631C68.2599 15.2631 67.0667 15.768 66.1461 16.7568C65.204 17.7456 64.7434 19.1341 64.7434 20.8802C64.7434 22.6684 65.204 24.0569 66.1461 25.0877C67.0875 26.0976 68.2806 26.6025 69.7248 26.6025C71.169 26.6025 72.3622 26.0976 73.3036 25.0877Z" fill="#8F8F8F"/>
<path d="M91.9725 31.6515C89.9216 30.5996 88.3308 29.127 87.1798 27.2546C86.0283 25.3823 85.4424 23.2575 85.4424 20.8802C85.4424 18.5451 86.0283 16.4202 87.1798 14.5479C88.3308 12.6755 89.9216 11.2239 91.9517 10.1721C93.9818 9.1412 96.2837 8.61523 98.8374 8.61523C101.412 8.61523 103.714 9.1412 105.744 10.1721C107.774 11.2029 109.365 12.6545 110.516 14.5268C111.646 16.3782 112.232 18.503 112.232 20.8802C112.232 23.2575 111.667 25.3823 110.516 27.2546C109.386 29.127 107.795 30.5996 105.744 31.6515C103.693 32.7034 101.39 33.2293 98.8374 33.2293C96.3045 33.2293 94.0234 32.7034 91.9725 31.6515ZM102.437 25.0877C103.379 24.078 103.84 22.6684 103.84 20.8802C103.84 19.113 103.379 17.7456 102.437 16.7568C101.495 15.768 100.302 15.2631 98.8582 15.2631C97.3932 15.2631 96.2 15.768 95.2794 16.7568C94.3374 17.7456 93.8767 19.1341 93.8767 20.8802C93.8767 22.6684 94.3374 24.0569 95.2794 25.0877C96.2208 26.0976 97.414 26.6025 98.8582 26.6025C100.302 26.6025 101.495 26.0976 102.437 25.0877Z" fill="#8F8F8F"/>
<path d="M141.261 0.22168V32.8301H133.35V30.4528C131.801 32.3042 129.478 33.2298 126.401 33.2298C124.246 33.2298 122.278 32.7249 120.499 31.7151C118.72 30.7053 117.318 29.2537 116.271 27.3813C115.246 25.509 114.723 23.3421 114.723 20.8807C114.723 18.4193 115.246 16.2524 116.271 14.4011C117.297 12.5497 118.72 11.1192 120.499 10.1094C122.278 9.12064 124.246 8.61569 126.401 8.61569C129.226 8.61569 131.425 9.43621 132.952 11.0771V0.22168H141.261ZM131.696 25.0882C132.638 24.0784 133.098 22.6689 133.098 20.8807C133.098 19.1135 132.638 17.7461 131.717 16.7573C130.797 15.7685 129.603 15.2636 128.159 15.2636C126.694 15.2636 125.501 15.7685 124.58 16.7573C123.638 17.7461 123.178 19.1346 123.178 20.8807C123.178 22.6689 123.638 24.0573 124.58 25.0882C125.522 26.098 126.715 26.6029 128.159 26.6029C129.562 26.6029 130.754 26.098 131.696 25.0882Z" fill="#8F8F8F"/>
<path d="M6.70685 44.6743C4.00697 43.5383 1.78847 41.8973 0.0722656 39.7304L7.0208 31.4626C9.42764 34.6183 12.0229 36.1751 14.8065 36.1751C16.6483 36.1751 18.0505 35.6071 19.0133 34.492C19.976 33.377 20.4574 31.7361 20.4574 29.5692V12.9074C20.4574 5.90185 26.1083 0.22168 33.0778 0.22168V28.8119C33.0778 34.6814 31.6127 39.0782 28.6617 42.0025C25.7316 44.9268 21.3992 46.3994 15.7064 46.3994C12.3996 46.3994 9.40674 45.8313 6.70685 44.6743Z" fill="#8F8F8F"/>
<path d="M62.7764 41.2246H64.6598L63.7184 39.0156L62.7764 41.2246Z" fill="#8F8F8F"/>
<path d="M112.63 41.2246H114.514L113.572 39.0156L112.63 41.2246Z" fill="#8F8F8F"/>
<path d="M77.1338 41.2246H79.0173L78.0752 39.0156L77.1338 41.2246Z" fill="#8F8F8F"/>
<path d="M133.078 36.5332H35.275C34.3961 39.6468 32.9519 42.2344 30.9009 44.2751C30.7962 44.3802 30.6916 44.4644 30.5869 44.5696H138.498C140.131 44.5696 141.47 43.2232 141.47 41.5823V39.5416V36.5543H133.078V36.5332ZM58.0879 43.118L56.3299 41.0142L55.5346 41.8347V43.118H54.6137V38.09H55.5346V40.6566L58.0042 38.09H59.0507L56.9578 40.341L59.1766 43.118H58.0879ZM65.4758 43.118L64.9736 41.9609H62.4829L61.9807 43.118H61.0179L63.2783 38.09H64.1995L66.4599 43.118H65.4758ZM73.0945 43.118H68.8248V42.4869L71.7548 38.8894H68.8664V38.09H72.9895V38.7211L70.0595 42.3186H73.0945V43.118ZM79.8128 43.118L79.31 41.9609H76.8199L76.3171 43.118H75.3549L77.594 38.09H78.5152L80.7756 43.118H79.8128ZM87.054 43.118L85.2958 41.0142L84.501 41.8347V43.118H83.5797V38.09H84.501V40.6566L86.9703 38.09H88.0168L85.9238 40.341L88.1427 43.118H87.054ZM95.3424 43.118H94.4211V40.9721H91.8467V43.118H90.9053V38.09H91.8259V40.1727H94.4003V38.09H95.321V43.118H95.3424ZM102.165 42.4448C102.018 42.6762 101.788 42.8445 101.474 42.9918C101.16 43.118 100.805 43.2021 100.365 43.2021C99.9884 43.2021 99.6115 43.139 99.2559 43.0339C98.9004 42.9286 98.6071 42.7814 98.3976 42.5921L98.7116 41.8768C98.9211 42.0451 99.1722 42.1713 99.4654 42.2765C99.7581 42.3817 100.051 42.4237 100.365 42.4237C100.742 42.4237 101.014 42.3607 101.202 42.2344C101.39 42.1082 101.474 41.9609 101.474 41.7505C101.474 41.6033 101.433 41.4981 101.328 41.3929C101.223 41.3088 101.098 41.2246 100.93 41.1825C100.763 41.1194 100.554 41.0773 100.282 40.9932C99.9047 40.9091 99.5907 40.8038 99.3604 40.7197C99.1301 40.6356 98.9211 40.4883 98.7537 40.2989C98.5863 40.1096 98.5026 39.8361 98.5026 39.5206C98.5026 39.2471 98.5863 38.9946 98.7324 38.7632C98.879 38.5318 99.1093 38.3635 99.4025 38.2162C99.6952 38.09 100.072 38.0059 100.511 38.0059C100.825 38.0059 101.119 38.0479 101.412 38.111C101.704 38.1952 101.956 38.3004 102.165 38.4476L101.872 39.1629C101.663 39.0367 101.433 38.9315 101.182 38.8684C100.951 38.8053 100.721 38.7632 100.491 38.7632C100.114 38.7632 99.8418 38.8263 99.6744 38.9526C99.4862 39.0787 99.4025 39.2471 99.4025 39.4575C99.4025 39.6047 99.4441 39.7099 99.5491 39.8151C99.6536 39.8992 99.7789 39.9834 99.9463 40.0255C100.093 40.0886 100.323 40.1307 100.596 40.2148C100.972 40.2989 101.265 40.3831 101.516 40.4883C101.747 40.5724 101.956 40.7197 102.123 40.9091C102.29 41.0984 102.374 41.3509 102.374 41.6874C102.395 41.9609 102.333 42.2134 102.165 42.4448ZM108.988 38.8894H107.335V43.118H106.393V38.8894H104.74V38.09H108.988V38.8894ZM115.308 43.118L114.806 41.9609H112.316L111.813 43.118H110.851L113.09 38.09H114.011L116.271 43.118H115.308ZM123.492 43.118H122.738L119.976 39.7099V43.118H119.055V38.09H119.808L122.571 41.4981V38.09H123.492V43.118Z" fill="#8F8F8F"/>
</g>
<defs>
<clipPath id="clip0_2301_21779">
<rect width="141.419" height="46.1777" fill="white" transform="translate(0.0722656 0.22168)"/>
</clipPath>
</defs>
</svg>
