<svg width="569" height="269" viewBox="0 0 569 269" fill="none" xmlns="http://www.w3.org/2000/svg">
<path d="M539.215 208.709C541.697 208.722 544.155 209.199 546.462 210.114L546.905 210.336C547.25 210.484 547.584 210.644 547.904 210.816C548.225 210.989 548.557 211.149 548.902 211.297C551.466 212.529 553.5 213.146 555.004 213.146C556.173 213.226 557.34 212.969 558.368 212.406C558.819 212.12 559.204 211.742 559.497 211.296C559.79 210.85 559.986 210.346 560.069 209.818H560.513V231.339H560.069C559.626 227.963 558.679 224.672 557.259 221.577C556.068 219.023 554.441 216.696 552.452 214.699C550.678 212.973 548.596 211.593 546.314 210.632C544.437 209.83 542.435 209.355 540.397 209.227V209.301C537.735 209.301 535.133 210.099 532.929 211.593C530.492 213.244 528.427 215.385 526.864 217.879C525.042 220.76 523.671 223.902 522.797 227.197C521.79 230.909 521.292 234.74 521.318 238.586C521.263 243.488 522.089 248.36 523.759 252.97C525.102 256.887 527.329 260.442 530.267 263.36C531.339 264.376 532.531 265.258 533.816 265.985C534.766 266.517 535.755 266.974 536.774 267.354C537.948 267.712 539.17 267.886 540.397 267.871C542.406 267.814 544.386 267.388 546.24 266.614C547.921 265.863 549.509 264.92 550.973 263.804C551.17 263.607 551.466 263.299 551.86 262.88C552.313 262.382 552.71 261.836 553.044 261.253C553.479 260.494 553.826 259.687 554.079 258.85C554.388 257.818 554.538 256.745 554.522 255.669V248.792C554.576 247.876 554.301 246.971 553.746 246.24C553.195 245.602 552.479 245.128 551.676 244.872C550.683 244.554 549.649 244.379 548.606 244.354C547.423 244.305 546.166 244.28 544.835 244.28V243.688H568.5V244.28C567.366 244.28 566.417 244.305 565.652 244.354C565.005 244.378 564.366 244.515 563.767 244.761C563.287 244.97 562.903 245.353 562.694 245.833C562.447 246.469 562.334 247.149 562.362 247.83V264.248H561.844C561.402 263.817 560.873 263.485 560.293 263.274C559.713 263.064 559.095 262.98 558.479 263.027C557.037 263.131 555.617 263.442 554.264 263.952C552.785 264.494 551.207 265.148 549.531 265.912C547.945 266.652 546.3 267.258 544.613 267.724C542.849 268.172 541.035 268.395 539.215 268.389C535.73 268.415 532.287 267.631 529.157 266.097C527.599 265.32 526.114 264.404 524.72 263.36C523.296 262.284 522.005 261.043 520.874 259.663C518.462 256.86 516.561 253.655 515.254 250.196C514.574 248.359 514.054 246.466 513.701 244.539C513.35 242.574 513.176 240.582 513.183 238.586C513.173 234.623 513.875 230.691 515.254 226.976C516.561 223.517 518.463 220.313 520.874 217.51C523.158 214.813 525.979 212.621 529.157 211.075C532.284 209.527 535.725 208.718 539.215 208.709Z" fill="#8F8F8F"/>
<path d="M155.095 224.668H154.562V224.594C154.168 222.967 153.712 221.266 153.194 219.491C152.691 217.745 151.876 216.104 150.79 214.647C149.61 213.114 148.092 211.874 146.354 211.023C144.035 209.971 141.502 209.477 138.958 209.582H125.055V238.497H135.63C137.404 238.552 139.151 238.048 140.622 237.056C142.697 235.541 144.093 233.269 144.505 230.732C144.618 230.047 144.692 229.355 144.727 228.661V228.439H145.244V249.072H144.727V248.851C144.691 248.132 144.617 247.416 144.505 246.706C144.322 245.521 143.921 244.38 143.321 243.341C142.618 242.115 141.644 241.065 140.474 240.272C138.914 239.303 137.094 238.838 135.261 238.941H125.055V259.204C125.117 259.645 125.142 260.09 125.129 260.535C125.104 261.678 125.216 262.821 125.462 263.938C125.638 264.737 126.02 265.477 126.571 266.082C127.136 266.653 127.835 267.072 128.604 267.302C129.614 267.601 130.659 267.763 131.711 267.783H139.935C141.785 267.807 143.629 267.557 145.406 267.043C146.927 266.597 148.383 265.95 149.733 265.12C150.944 264.369 152.05 263.461 153.023 262.421C153.93 261.449 154.747 260.397 155.464 259.278C157.088 256.646 158.216 253.738 158.792 250.699H159.31L157.165 268.301H108.282V267.783C109.704 267.799 111.125 267.712 112.534 267.523C113.536 267.413 114.492 267.043 115.308 266.451C116.016 265.881 116.533 265.107 116.787 264.233C117.12 263.005 117.269 261.733 117.23 260.461V217.79C117.243 217.643 117.243 217.494 117.23 217.347C117.206 217.2 117.193 217.052 117.193 216.903C117.193 214.192 116.701 212.33 115.715 211.319C114.729 210.309 113.015 209.73 110.575 209.582H108.208V209.138H155.095V224.668Z" fill="#8F8F8F"/>
<path fill-rule="evenodd" clip-rule="evenodd" d="M220.962 209.138C224.605 209.187 228.205 209.966 231.547 211.431C234.896 212.907 237.895 215.074 240.348 217.79C242.837 220.543 244.76 223.76 246.005 227.257C248.626 234.674 248.626 242.765 246.005 250.182C244.749 253.651 242.828 256.842 240.348 259.574C237.912 262.327 234.909 264.522 231.547 266.008C227.97 267.532 224.12 268.312 220.232 268.301H188.507V267.783C189.916 267.8 191.325 267.713 192.722 267.523C193.711 267.409 194.654 267.039 195.458 266.451C196.167 265.881 196.684 265.107 196.938 264.233C197.27 263.005 197.419 261.733 197.381 260.461V216.903C197.381 214.192 196.888 212.33 195.902 211.319C194.916 210.309 193.19 209.73 190.726 209.582H188.433V209.138H220.962ZM211.137 209.582C210.201 209.648 209.279 209.846 208.4 210.173C207.703 210.439 207.081 210.871 206.588 211.431C206.082 212.051 205.739 212.789 205.59 213.575C205.375 214.646 205.276 215.737 205.294 216.829V259.204C205.295 259.414 205.307 259.624 205.331 259.833C205.344 260.067 205.344 260.301 205.331 260.535C205.306 261.678 205.418 262.821 205.664 263.938C205.838 264.73 206.206 265.467 206.736 266.082C207.283 266.657 207.971 267.078 208.732 267.302C209.766 267.604 210.836 267.766 211.913 267.783H218.643C221.652 267.77 224.606 266.98 227.221 265.49H227.258C228.519 264.729 229.697 263.837 230.771 262.828C231.913 261.754 232.942 260.564 233.84 259.278C235.781 256.424 237.254 253.278 238.203 249.96C239.26 246.307 239.783 242.521 239.756 238.719C239.779 234.893 239.256 231.083 238.203 227.404C237.274 224.079 235.799 220.93 233.84 218.086C232.942 216.8 231.913 215.61 230.771 214.536C229.697 213.528 228.519 212.635 227.258 211.874C224.845 210.48 222.129 209.694 219.345 209.582H211.137Z" fill="#8F8F8F"/>
<path fill-rule="evenodd" clip-rule="evenodd" d="M309.04 209.138C312.684 209.187 316.284 209.966 319.626 211.431C322.974 212.907 325.973 215.074 328.426 217.79C330.915 220.543 332.838 223.76 334.083 227.257C336.705 234.674 336.705 242.765 334.083 250.182C332.832 253.664 330.91 256.868 328.426 259.611L328.367 259.574C325.931 262.327 322.929 264.522 319.566 266.008C315.99 267.532 312.14 268.312 308.252 268.301H276.585V267.783C277.994 267.8 279.403 267.713 280.8 267.523C281.789 267.409 282.732 267.039 283.536 266.451C284.245 265.881 284.762 265.107 285.016 264.233C285.348 263.005 285.498 261.733 285.459 260.461V216.903C285.459 214.192 284.966 212.33 283.98 211.319C282.994 210.309 281.269 209.73 278.804 209.582H276.511V209.138H309.04ZM299.155 209.582C298.22 209.648 297.298 209.846 296.419 210.173C295.722 210.439 295.1 210.871 294.607 211.431C294.102 212.052 293.758 212.789 293.608 213.575C293.394 214.646 293.294 215.737 293.312 216.829V259.204C293.313 259.414 293.326 259.624 293.35 259.833C293.362 260.067 293.362 260.301 293.35 260.535C293.325 261.678 293.437 262.821 293.683 263.938C293.856 264.73 294.225 265.467 294.755 266.082C295.301 266.658 295.99 267.078 296.752 267.302C297.786 267.604 298.855 267.766 299.932 267.783H306.661C309.67 267.77 312.626 266.98 315.24 265.49H315.277C316.539 264.729 317.716 263.837 318.79 262.828C319.933 261.754 320.961 260.564 321.858 259.278C323.799 256.424 325.272 253.278 326.222 249.96C327.278 246.307 327.802 242.521 327.775 238.719C327.799 234.893 327.275 231.083 326.222 227.404C325.292 224.079 323.818 220.93 321.858 218.086C320.961 216.8 319.933 215.61 318.79 214.536C317.716 213.528 316.539 212.635 315.277 211.874C312.864 210.48 310.149 209.694 307.364 209.582H299.155Z" fill="#8F8F8F"/>
<path d="M390.576 209.582H387.618C385.4 209.829 383.859 210.445 382.996 211.431C382.133 212.417 381.702 214.216 381.702 216.829V260.535C381.678 261.678 381.789 262.821 382.034 263.938C382.21 264.737 382.593 265.477 383.144 266.082C383.719 266.659 384.432 267.078 385.215 267.302C386.237 267.598 387.293 267.761 388.357 267.783H390.65V268.301H364.841V267.783H364.914C366.336 267.799 367.758 267.712 369.167 267.523C370.169 267.413 371.125 267.044 371.94 266.451C372.649 265.881 373.165 265.107 373.419 264.233C373.752 263.005 373.901 261.733 373.862 260.461V216.903C373.862 214.192 373.37 212.33 372.384 211.319C371.398 210.309 369.672 209.73 367.207 209.582H364.841V209.138H390.576V209.582Z" fill="#8F8F8F"/>
<path d="M475.667 255.321V218.641C475.753 216.955 475.271 215.288 474.299 213.908C473.445 212.78 472.344 211.862 471.081 211.224C469.881 210.618 468.597 210.194 467.272 209.966C466.236 209.771 465.185 209.661 464.13 209.634H463.021V209.115H488.904L488.875 209.138V209.655H487.766C486.711 209.682 485.659 209.794 484.622 209.988C483.297 210.216 482.014 210.64 480.813 211.245C479.549 211.888 478.449 212.812 477.597 213.945C476.624 215.326 476.143 216.992 476.229 218.678V268.301H475.637L432.152 213.871V258.687C432.06 260.396 432.542 262.088 433.521 263.493C434.373 264.626 435.473 265.55 436.737 266.192C437.937 266.798 439.221 267.222 440.546 267.45C441.583 267.645 442.635 267.756 443.689 267.783H444.799V268.301H418.915V267.783H420.054C421.109 267.756 422.16 267.645 423.197 267.45C424.522 267.222 425.806 266.798 427.006 266.192C428.27 265.55 429.37 264.626 430.223 263.493C431.201 262.088 431.683 260.396 431.591 258.687V216.607C431.591 215.424 431.566 214.401 431.517 213.538C431.502 212.752 431.271 211.984 430.851 211.319C430.371 210.67 429.677 210.211 428.892 210.025C427.597 209.711 426.266 209.574 424.935 209.618H422.643V209.101H438.468L475.667 255.321Z" fill="#8F8F8F"/>
<path d="M79.9434 209.582H79.5732C78.8894 209.611 78.2093 209.697 77.54 209.841C76.5013 210.069 75.5036 210.455 74.582 210.986C73.3874 211.669 72.3228 212.558 71.4385 213.612C70.3051 215.012 69.4854 216.638 69.0352 218.382L54.3555 268.167H53.8379L39.1953 218.974L24.8486 268.167H24.2568L9.46582 218.323L9.16992 217.361C8.74828 215.803 8.11372 214.309 7.28418 212.924C6.75147 212.028 6.01705 211.269 5.13965 210.706C4.40293 210.285 3.58225 210.032 2.73633 209.966C1.89829 209.892 1.01084 209.782 0.0742188 209.634H0V209.115H24.2568V209.634H24.0352C22.7533 209.634 21.5451 209.67 20.4111 209.744C19.4319 209.766 18.4806 210.075 17.6748 210.632C17.3044 210.943 17.0014 211.326 16.7852 211.759C16.569 212.191 16.4444 212.664 16.418 213.146C16.3482 214.848 16.625 216.546 17.2314 218.138L28.1025 255.114L38.9736 218.138C38.8849 218.02 38.8329 217.879 38.8252 217.731C38.8268 217.616 38.8012 217.502 38.751 217.398C38.3293 215.84 37.6948 214.346 36.8652 212.961C36.3325 212.065 35.5981 211.306 34.7207 210.743C33.9723 210.318 33.1386 210.065 32.2803 210.003C31.4176 209.929 30.5426 209.818 29.6553 209.67H29.5811V209.152H53.8379V209.67H53.6162C52.3344 209.67 51.1386 209.695 50.0293 209.744C49.0532 209.751 48.101 210.047 47.293 210.595C46.9128 210.899 46.6009 211.281 46.3779 211.714C46.1549 212.147 46.026 212.623 45.999 213.109C45.9322 214.835 46.2087 216.557 46.8125 218.175L57.6836 255.151L68.9248 216.696C69.3685 215.069 69.2813 213.8 68.665 212.888C68.046 211.973 67.1903 211.244 66.1885 210.779C65.1826 210.254 64.094 209.904 62.9707 209.744C61.8616 209.621 61.0603 209.56 60.5674 209.56H60.124V209.042H79.9434V209.582Z" fill="#8F8F8F"/>
<path d="M142.789 35.1045C144.303 32.2303 146.147 30.9511 148.321 31.2666C150.495 31.5823 152.236 32.9995 153.542 35.5186C154.848 38.0378 155.341 41.4126 155.021 45.6426C154.7 49.8726 152.886 54.4728 149.578 59.4424C145.94 64.7029 141.959 70.8389 137.635 77.8496C133.311 84.8604 128.973 92.2189 124.619 99.9248C120.266 107.631 115.989 115.376 111.788 123.161C107.588 130.946 103.835 138.247 100.532 145.065C97.229 151.884 94.5002 157.914 92.3457 163.154C90.1912 168.395 88.9092 172.32 88.5 174.928C98.2858 170.903 108.441 167.841 118.821 165.787C127.86 164.006 137.023 162.926 146.228 162.556C154.122 162.244 162.029 162.469 169.893 163.229C177.125 163.968 183.535 164.83 189.121 165.816C190.815 166.186 192.448 166.794 193.972 167.621C195.146 168.172 196.194 168.961 197.049 169.937C197.566 170.651 197.425 171.263 196.627 171.771C195.828 172.278 194.029 172.401 191.229 172.14C185.002 171.592 177.954 171.132 170.085 170.757C161.623 170.405 153.147 170.779 144.749 171.874C135.071 173.146 125.537 175.339 116.277 178.426C106.318 181.67 96.0585 186.64 85.498 193.335C83.9981 194.422 82.1716 194.965 80.3213 194.873C78.7237 194.775 77.1935 194.192 75.9355 193.202C74.737 192.246 73.7816 191.018 73.1475 189.622C72.8223 188.932 72.6382 188.185 72.6064 187.423C72.5747 186.661 72.6962 185.9 72.9629 185.186C74.8841 177.589 77.355 170.141 80.3574 162.903C83.8086 154.315 87.7532 145.167 92.1904 135.459C96.6276 125.751 101.339 115.861 106.323 105.789C111.313 95.7168 116.166 86.1792 120.884 77.1768C125.602 68.1744 129.896 60.005 133.767 52.6689C137.637 45.3329 140.671 39.468 142.87 35.0752L142.789 35.1045Z" fill="#8F8F8F"/>
<path d="M467.479 96.7744C468.884 96.7596 469.703 97.2524 469.935 98.2529C470.166 99.2537 469.893 99.9101 469.114 100.221C465.777 102.127 462.962 104.827 460.92 108.082C458.745 111.452 457.162 115.168 456.239 119.071C455.302 123.006 454.985 127.063 455.3 131.096C455.498 134.76 456.455 138.344 458.11 141.619C464.795 136.117 471.918 131.171 479.408 126.829C488.064 121.794 497.149 117.537 506.557 114.108C507.335 113.803 507.804 114.035 507.962 114.804C508.059 115.072 508.087 115.361 508.046 115.644C508.005 115.926 507.894 116.194 507.725 116.424C506.207 117.712 504.56 118.837 502.808 119.781C500.308 121.231 497.382 122.956 494.029 124.958C490.677 126.96 487.127 129.156 483.38 131.547C479.809 133.811 476.371 136.281 473.085 138.942C470.209 141.245 467.581 143.843 465.246 146.692C463.141 149.31 462.009 151.776 461.852 154.088V154.096C461.668 156.682 461.107 159.229 460.188 161.653C459.254 164.189 458.078 166.628 456.675 168.938C455.378 171.107 453.894 173.159 452.238 175.068C450.942 176.605 449.45 177.965 447.801 179.113C445.148 180.967 442.73 181.971 440.546 182.124C438.362 182.277 436.686 181.697 435.518 180.386C434.268 178.854 433.605 176.927 433.646 174.95C433.568 172.638 434.386 169.939 436.102 166.853C439.07 161.124 444.229 154.793 451.58 147.861C447.054 143.227 444.323 138.79 443.386 134.55C442.695 131.671 442.349 128.724 442.351 125.771C442.425 123.701 442.557 122.1 442.882 119.759C443.425 117.035 444.421 114.414 445.841 112.009C447.675 108.91 450.009 106.136 452.748 103.8C455.189 101.711 457.907 99.9685 460.824 98.623C463.545 97.3906 465.764 96.7745 467.479 96.7744Z" fill="#8F8F8F"/>
<path d="M273.184 70.499C273.876 70.2614 274.613 70.1831 275.339 70.2715C276.065 70.3599 276.761 70.6123 277.376 71.0088C278.825 71.8371 279.94 73.3461 280.719 75.5352C281.498 77.7241 281.353 80.66 280.283 84.3428C278.544 89.6048 276.19 94.6438 273.272 99.3555C269.825 105.061 266.046 110.559 261.957 115.824C257.688 121.371 253.189 126.715 248.461 131.857C244.08 136.654 239.41 141.179 234.477 145.406C230.464 148.897 226.15 152.025 221.586 154.754C217.593 157.071 214.354 158.104 211.869 157.853C210.311 157.793 209.278 157.253 208.771 156.232C208.254 155.146 208.096 153.924 208.319 152.742C208.552 151.335 208.918 149.953 209.413 148.615C209.936 147.171 210.377 145.837 210.737 144.614C210.925 143.85 211.711 141.68 213.097 138.106C214.482 134.532 215.805 130.532 217.067 126.104C218.3 121.815 219.21 117.44 219.789 113.015C219.834 112.67 219.87 112.332 219.902 112.001L219.905 112C220 111.5 220.5 109 219.717 106.1C219.485 105.01 219.128 104.06 218.645 103.249C220.508 101.038 222.809 99.2361 225.402 97.957C227.626 96.9711 229.551 96.6587 231.178 97.0186C231.982 97.2046 232.736 97.5658 233.384 98.0771C234.032 98.5886 234.56 99.2375 234.928 99.9766C235.855 101.851 236.183 103.966 235.866 106.033C235.506 109.285 234.873 112.502 233.974 115.647C232.988 119.315 231.834 122.974 230.513 126.622C229.191 130.27 227.889 133.692 226.607 136.887C225.316 140.076 224.402 142.588 223.864 144.422C224.591 143.749 225.36 143.122 226.164 142.544C226.969 141.966 227.737 141.338 228.464 140.665C234.039 135.803 239.177 130.461 243.816 124.699C248.755 118.68 253.374 112.405 257.653 105.9C261.466 100.182 264.791 94.1536 267.593 87.8779C270.058 82.1837 271.29 77.5614 271.29 74.0117C271.206 72.158 271.838 70.9871 273.184 70.499Z" fill="#8F8F8F"/>
<path fill-rule="evenodd" clip-rule="evenodd" d="M311.395 90.8428C314.346 90.5714 317.3 91.3411 319.744 93.0176C322.027 94.6495 322.922 97.7702 322.429 102.38C321.966 104.615 321.174 106.768 320.077 108.77C318.566 111.732 316.649 114.47 314.383 116.904C311.736 119.745 308.637 122.128 305.213 123.959C301.276 126.029 296.896 127.116 292.448 127.125C291.856 130.44 291.687 133.817 291.945 137.175C292.087 139.809 292.919 142.359 294.356 144.57C295.012 145.508 295.863 146.293 296.851 146.87C297.839 147.447 298.941 147.803 300.08 147.913C302.57 148.238 305.723 147.472 309.539 145.613L309.523 145.672C314.026 143.445 318.321 140.819 322.354 137.825C326.712 134.648 330.909 131.255 334.927 127.657C338.891 124.098 342.536 120.646 345.864 117.304C348.623 114.595 351.201 111.707 353.578 108.658C354.038 107.9 354.771 107.347 355.626 107.113C355.947 107.045 356.28 107.046 356.601 107.119C356.921 107.192 357.222 107.333 357.482 107.534C358.001 107.924 358.388 108.464 358.592 109.08C358.695 109.382 358.732 109.703 358.7 110.021C358.668 110.338 358.569 110.646 358.407 110.922C355.637 114.057 352.491 117.718 348.971 121.903C345.451 126.089 341.661 130.225 337.604 134.312C333.558 138.394 329.3 142.26 324.847 145.894C320.763 149.284 316.295 152.183 311.535 154.531C307.668 156.426 303.432 157.448 299.126 157.526C295.426 157.601 291.776 156.66 288.573 154.806C285.441 152.905 282.909 150.16 281.267 146.885C279.376 143.112 278.451 138.93 278.574 134.712C278.471 129.612 279.14 124.526 280.557 119.626C281.936 114.654 284.092 109.932 286.946 105.634C289.686 101.5 293.248 97.9754 297.41 95.2803C301.592 92.5803 306.421 91.0479 311.395 90.8428ZM311.173 96.5967C309.349 96.9862 307.681 97.9075 306.381 99.2441C304.588 100.932 302.985 102.811 301.604 104.85C299.945 107.26 298.478 109.797 297.218 112.438C295.885 115.178 294.834 118.048 294.082 121.001C297.235 120.672 300.24 119.497 302.779 117.6C305.627 115.659 308.128 113.25 310.175 110.478C311.989 108.147 313.22 105.416 313.762 102.513C314.171 99.8851 313.308 97.913 311.173 96.5967Z" fill="#8F8F8F"/>
<path d="M412.939 103.438C416.218 103.438 418.013 104.362 418.323 106.211C418.634 108.06 417.775 109.988 415.749 111.994C413.693 114.148 411.923 116.559 410.484 119.167C408.73 122.171 407.204 125.303 405.921 128.537C404.789 131.29 403.966 134.16 403.466 137.094C403.076 139.638 403.35 141.218 404.287 141.834C407.35 140.634 410.316 139.202 413.161 137.552C416.612 135.624 420.083 133.464 423.573 131.073C427.064 128.682 430.535 126.292 433.986 123.9C437.437 121.509 440.519 119.35 443.23 117.422C443.094 118.289 442.979 119.057 442.882 119.759C442.662 120.859 442.515 121.975 442.446 123.102C442.382 123.991 442.351 124.881 442.351 125.771C442.35 125.785 442.35 125.8 442.35 125.814C439.466 128.358 437.023 130.251 433.276 133.026C429.529 135.802 425.832 138.462 422.184 141.006C418.516 143.55 415.044 145.862 411.771 147.942C408.497 150.023 405.835 151.613 403.784 152.712C402.348 153.536 400.751 154.041 399.103 154.191C397.317 154.434 395.499 154.194 393.837 153.496C392.106 152.71 390.73 151.307 389.977 149.562C389.04 147.634 388.845 144.819 389.393 141.116C389.94 137.414 391.382 132.71 393.719 127.006C396.061 121.302 399.727 114.363 404.716 106.188L404.745 106.211C407.142 104.497 409.994 103.532 412.939 103.438Z" fill="#8F8F8F"/>
<path fill-rule="evenodd" clip-rule="evenodd" d="M171.343 90.3994C173.318 90.015 175.351 90.0531 177.311 90.5107C178.007 90.7028 178.617 91.1255 179.042 91.71C179.467 92.2944 179.68 93.0059 179.647 93.7275C179.786 94.1909 180.389 94.7526 181.459 95.4131C182.665 96.1728 183.808 97.0293 184.876 97.9727C186.141 99.0931 187.2 100.427 188.004 101.914C188.901 103.477 189.147 105.491 188.743 107.956C188.503 108.465 188.324 109.002 188.211 109.554C188.026 110.307 187.917 111.078 187.886 111.854C187.852 112.552 187.904 113.252 188.041 113.938C188.174 114.579 188.475 114.9 188.943 114.9C191.901 115.319 196.339 114.525 202.255 112.519C208.171 110.512 210.351 109.91 219.717 106.1C220.067 107.748 220.127 109.714 219.902 112.001C216.526 114.647 216.772 113.951 212.896 115.795C209.221 117.561 205.449 119.117 201.597 120.454C198.324 121.609 194.959 122.487 191.539 123.079C189.1 123.529 186.624 123.744 184.144 123.723L184.121 123.7C181.753 129.844 178.24 135.484 173.769 140.317C169.287 145.159 164.704 148.61 160.021 150.671C155.337 152.727 151.067 153.104 147.212 151.803C143.357 150.501 140.921 146.821 139.905 140.762C139.131 136.413 139.437 131.448 140.822 125.867C142.207 120.285 144.341 114.917 147.167 109.908C149.93 104.981 153.509 100.558 157.75 96.8262C161.951 93.1285 166.482 90.9861 171.343 90.3994ZM172.585 101.736C169.93 103.23 167.557 105.177 165.574 107.49C163.049 110.293 160.818 113.349 158.918 116.608C156.951 119.924 155.327 123.43 154.067 127.073C152.927 130.212 152.249 133.501 152.056 136.835C151.883 141.302 152.77 143.611 154.718 143.764C156.665 143.917 158.884 142.96 161.374 140.895C164.133 138.534 166.528 135.778 168.48 132.716C170.719 129.329 172.048 126.254 172.467 123.493L172.444 123.508C171.755 123.085 171.17 122.514 170.729 121.836C170.289 121.158 170.006 120.39 169.9 119.589C169.579 117.63 169.579 115.632 169.9 113.673C170.221 111.507 170.655 109.359 171.202 107.238C171.754 105.099 172.215 103.265 172.585 101.736Z" fill="#8F8F8F"/>
<path d="M218.645 103.249C218.644 103.25 218.643 103.252 218.643 103.253V103.245C218.643 103.246 218.644 103.248 218.645 103.249Z" fill="#8F8F8F"/>
<path d="M363.569 8.99902C370.225 -4.73363 376.881 0.220864 381.155 9.10254C386.421 19.9439 385.955 27.3394 386.177 38.6836C386.243 41.8635 386.59 43.6314 388.158 42.8477C391.264 41.2946 412.23 22.3256 423.323 19.4414C434.416 16.5574 434.512 24.8697 432.197 28.9814C420.439 49.8954 389.304 70.7574 372.295 91.9893C368.39 96.8553 368.524 97.699 368.354 99.7549C368.183 101.81 366.69 101.973 365.196 101.145C363.702 100.316 362.09 93.9346 369.359 87.168C372.569 84.2098 382.738 72.5032 394.504 61.1514C396.974 58.7773 438.136 24.2929 427.782 22.2148C426.118 21.8821 420.683 21.7714 407.261 31.9766C393.838 42.1819 389.068 49.8358 385.186 50.9453C381.303 52.0546 379.195 50.3908 379.195 42.293C379.195 34.1952 378.308 12.5121 373.538 10.0713C368.768 7.63089 364.997 24.0479 363.998 30.1494C363 36.2505 361.72 58.3263 362.719 70.8613C363.717 83.3959 365.772 77.6278 366.549 81.3994C367.325 85.171 364.678 86.2432 364.678 86.2432C364.636 86.2632 360.335 88.2987 356.913 77.5908C353.363 66.4978 355.176 26.3854 363.569 8.99902Z" fill="#8F8F8F"/>
<path d="M435.85 56.5957C437.876 56.6746 439.905 58.0227 441.937 60.6406L441.958 60.6484C441.332 61.8809 440.24 63.769 438.683 66.3125C437.125 68.8565 435.448 71.4013 433.653 73.9453C431.859 76.4891 430.133 78.764 428.477 80.7705C426.82 82.7771 425.61 83.7803 424.846 83.7803C422.82 82.7006 421.572 80.4257 421.104 76.9551C420.635 73.4842 421.494 69.9764 423.678 66.4316C424.414 65.0706 425.234 63.7564 426.133 62.4971C427.273 60.831 428.7 59.3807 430.348 58.2148C431.946 57.0695 433.885 56.4991 435.85 56.5957Z" fill="#8F8F8F"/>
</svg>
