<svg width="180" height="38" viewBox="0 0 180 38" fill="none" xmlns="http://www.w3.org/2000/svg">
<g clip-path="url(#clip0_2301_21647)">
<path fill-rule="evenodd" clip-rule="evenodd" d="M165.876 35.8957H163.287V36.6552H150.697V4.26203H158.287V3.50293H170.877V4.24705H179.669V36.6706H165.876V35.8957ZM168.169 34.3779H177.376V6.53977H168.584V5.79608H160.579V6.55519H152.99V34.3629H160.994V33.6029H168.169V34.3783L168.169 34.3779Z" fill="#8F8F8F"/>
<path fill-rule="evenodd" clip-rule="evenodd" d="M75.6936 29.4965C75.5296 30.6811 75.0359 31.7793 74.1266 32.6189C73.096 33.5716 71.6189 34.1059 70.2176 34.0348C68.7764 33.962 67.4166 33.4517 66.4482 32.3526C65.5015 31.2775 65.1475 29.9075 65.1475 28.5006V10.6905C65.1475 7.63998 67.5434 5.4209 70.5511 5.4209H76.6903C80.5094 5.4209 84.0613 6.92369 85.9186 10.4144C86.7869 12.0465 87.1979 13.8785 87.1358 15.7243C87.0767 17.4732 86.661 19.027 85.6561 20.4788C85.0362 21.3745 84.292 22.1674 83.4109 22.793L85.7781 25.7823C86.4893 26.6805 86.8686 27.7911 86.8686 28.936C86.8686 31.7549 84.5819 34.0412 81.7634 34.0412C80.261 34.0412 78.8011 33.4093 77.8596 32.2237L75.6944 29.4969L75.6936 29.4965ZM73.4621 12.5598V18.4691H76.6719C78.2976 18.4691 79.6274 17.1397 79.6274 15.5145C79.6274 13.8896 78.2976 12.5598 76.6719 12.5598H73.4621ZM83.9804 27.2054L79.8427 21.9812C80.3861 21.8266 80.9469 21.589 81.5241 21.2735C82.3829 20.8025 83.1326 20.0965 83.7697 19.1743C84.5258 18.0833 84.7553 16.9458 84.8431 15.6468C84.8431 14.1996 84.5772 12.7773 83.893 11.4907C82.4437 8.76558 79.6458 7.71362 76.6894 7.71362H70.5502C68.7987 7.70592 67.4342 8.91672 67.4398 10.6905V28.5006C67.4385 29.4661 67.6624 30.2637 68.168 30.837C68.6732 31.4111 69.4268 31.7027 70.3327 31.7447C71.1193 31.7875 71.9948 31.4689 72.5702 30.935C73.1812 30.3724 73.4672 29.5474 73.4634 28.5639V23.001L79.6544 30.7972C80.1698 31.3807 80.923 31.7481 81.7626 31.7481C83.3154 31.7481 84.5755 30.4893 84.5755 28.9352C84.5755 28.2822 84.3528 27.682 83.9808 27.205L83.9804 27.2054Z" fill="#8F8F8F"/>
<path fill-rule="evenodd" clip-rule="evenodd" d="M96.8071 6.02775L97.7709 7.25953L99.7896 7.24326L100.561 12.8481L100.921 13.874L107.801 9.93973L115.092 16.2155L123.891 4.20898L131.047 11.0747L126.177 23.342L118.044 33.3016L112.223 35.489L109.632 28.6433L108.66 26.9556L106.364 30.3568L107.504 33.8594L100.711 36.0931C93.4959 24.2702 90.5005 24.5014 89.3154 8.65657L96.808 6.02732L96.8071 6.02775ZM101.685 33.3594L104.616 32.3956L103.837 30.0023L108.813 22.6304L111.711 27.6599L113.557 32.5386L116.285 31.5136L116.606 30.7014L124.295 21.8696L123.865 21.6769L127.777 12.8075L125.889 12.4611L126.85 9.81385L124.299 7.59991L118.624 15.614L115.298 19.9485L113.469 17.845L109.501 14.4288L108.335 13.9994L106.739 13.0917L104.596 14.3608L105.306 15.0081L101.008 21.0467L98.3206 13.3897L97.7927 9.55183L96.6611 9.56082L96.1953 8.9657L94.8094 9.71538L94.6544 9.27054L94.0375 9.49745L93.5203 9.06331L92.8545 9.69911L92.8018 10.0442L91.9815 10.2651L91.9335 11.1381C92.0521 12.6067 92.235 13.7738 92.4623 14.9752C92.78 16.6492 93.3541 18.0501 93.8666 19.5452C94.2498 20.6601 94.898 21.6611 95.4212 22.7045C95.9645 23.7851 96.6367 24.8371 97.1826 25.8728C97.8017 27.0442 98.4589 28.1882 99.1101 29.3271L101.685 33.3594Z" fill="#8F8F8F"/>
<path fill-rule="evenodd" clip-rule="evenodd" d="M49.4682 26.5708L47.1969 27.1077V33.6301L39.2192 35.454L34.8213 31.7253V19.193L37.3795 18.6369V12.6668L40.0721 11.8554V9.02025L42.7103 8.29668V5.29751L50.3917 3.83496L54.5978 6.46079V7.45195L57.0331 9.00954V10.0512L59.5219 11.6388L59.5236 15.484L61.8412 17.1854L61.8421 30.151L53.8657 31.9723L49.4682 28.244V26.5708ZM59.5485 18.3466L57.2314 16.6455L57.2296 12.8958L54.74 11.3083V10.2649L52.3047 8.70727V7.73195L49.9387 6.25527L45.0026 7.19506V10.0457L42.3644 10.7692V13.559L39.6722 14.3704V20.4843L37.1136 21.0409V30.6631L39.8263 32.9631L44.9037 31.8024V25.2941L51.7601 23.6731V27.1822L54.4728 29.4822L59.5489 28.3232L59.5481 18.347L59.5485 18.3466Z" fill="#8F8F8F"/>
<path fill-rule="evenodd" clip-rule="evenodd" d="M15.6716 9.10863L15.9794 8.02113C16.7933 5.14784 19.7 4.18965 22.4157 4.3151C25.4483 4.45553 27.6323 5.27885 28.3909 8.51136L31.8709 23.3411L32.6296 26.1823C33.6961 30.1773 31.3965 33.7378 27.1283 33.763C24.732 33.7776 22.974 33.054 21.8394 31.5654C20.9656 33.2737 19.4735 34.5341 17.3782 34.5397C15.1252 34.5457 13.6772 33.6723 12.6334 32.0213C11.462 34.2353 9.16373 35.3339 6.28829 35.3917C4.78079 38.378 1.17365 36.7956 1.75336 33.656C0.383291 32.119 0.127687 29.8545 0.297234 27.7544L1.73324 9.93709C2.03251 6.2242 4.15612 4.16396 7.92039 4.00683C11.0805 3.87453 13.4542 4.39131 14.9047 7.47653L15.6728 9.10906L15.6716 9.10863ZM26.1582 9.03541C25.6662 7.06037 24.5633 6.70929 22.3091 6.60568C20.2754 6.51106 18.7178 7.16698 18.1852 8.64623L16.2063 15.6336L12.8291 8.45228C11.8842 6.50978 10.622 6.29998 8.01458 6.29742C5.19224 6.53632 4.16554 7.80107 4.0174 10.1216L2.5814 27.9385C2.44953 30.3691 2.8811 32.0325 4.25459 32.7308L3.97159 34.2644L4.23533 34.368L4.93663 32.9791C5.26374 33.0583 5.6298 33.0998 6.03654 33.1011C8.68335 33.1011 10.7247 32.1237 11.1606 28.8697L11.5485 24.0951L14.072 29.8404C14.8735 31.5457 15.6249 32.2521 17.3713 32.247C18.8651 32.2431 19.7783 31.0075 20.1662 29.607L21.9901 23.7076L22.7672 27.8996C23.32 30.4513 24.4614 31.487 27.1146 31.4703C29.8201 31.4553 31.1242 29.3698 30.4144 26.7735L29.6467 23.8985L26.159 9.03499L26.1582 9.03541Z" fill="#8F8F8F"/>
<path fill-rule="evenodd" clip-rule="evenodd" d="M145.414 8.23606L145.752 10.3032C145.933 11.4103 145.96 12.7226 145.96 13.8379C145.96 16.2103 145.746 18.6015 145.394 20.9469C145.199 22.251 145.125 23.5796 145.125 24.8974C145.125 27.1614 145.337 29.5218 145.73 31.7546C145.808 32.2012 145.905 32.5621 145.907 33.0326C145.911 34.1792 145.415 35.2603 144.562 36.0258C142.504 37.8715 137.567 37.8715 135.508 36.0258C134.655 35.2611 134.159 34.1826 134.162 33.036C134.165 32.0556 134.457 31.1072 134.586 30.1422C134.816 28.4095 134.946 26.6459 134.946 24.8987C134.946 23.5804 134.87 22.251 134.675 20.9465C134.324 18.6024 134.109 16.2103 134.109 13.8388C134.109 12.7179 134.139 11.4245 134.317 10.3117L134.558 8.81106C134.282 8.13887 134.13 7.40374 134.13 6.63308C134.13 3.4558 136.708 0.87793 139.886 0.87793C143.063 0.87793 145.64 3.45537 145.64 6.63308C145.64 7.18967 145.561 7.72785 145.413 8.23692L145.414 8.23606ZM136.609 10.4988L136.581 10.6735C136.58 10.6829 136.403 11.7905 136.403 13.8379C136.403 15.5017 136.52 17.7867 136.942 20.6061C137.156 22.0361 137.239 23.5021 137.239 24.8983C137.239 27.0334 137.049 29.0059 136.859 30.4436C136.77 31.1132 136.456 32.4435 136.456 33.0412C136.454 33.3426 136.544 33.8756 137.039 34.3188C138.216 35.375 141.854 35.3741 143.032 34.3188C143.525 33.8756 143.616 33.343 143.614 33.042C143.613 32.7727 143.517 32.4071 143.472 32.1523C143.258 30.9381 142.832 28.1012 142.832 24.8974C142.832 23.5021 142.912 22.0361 143.127 20.6061C143.55 17.7867 143.667 15.5017 143.667 13.8379C143.667 11.7905 143.491 10.6829 143.488 10.6735L143.46 10.4988H136.608H136.609ZM136.424 6.63179C136.424 8.54347 137.974 10.0942 139.886 10.0942C141.798 10.0942 143.348 8.54347 143.348 6.63179C143.348 4.71969 141.798 3.1698 139.886 3.1698C137.974 3.1698 136.424 4.71969 136.424 6.63179Z" fill="#8F8F8F"/>
<path fill-rule="evenodd" clip-rule="evenodd" d="M28.2841 21.3346L27.2175 16.7873L19.1885 8.92564L18.411 11.6679L28.2841 21.3346ZM21.7227 21.916L16.8572 17.1529L17.6343 14.4106L29.4234 25.9539L29.7496 27.1775C30.0031 28.125 29.9504 28.9813 29.5856 29.6154L23.008 23.1756L22.3812 19.7873L21.7223 21.916H21.7227ZM23.8009 27.455L23.8814 27.893C24.2697 29.9858 25.0914 30.6931 27.1379 30.7217L23.8009 27.4545V27.455ZM26.1502 12.2382L21.2984 7.48878C21.6992 7.43868 22.0948 7.43483 22.4249 7.45024C23.0893 7.4815 24.2672 7.53245 24.8122 7.97001C25.165 8.25259 25.329 8.7441 25.4296 9.1684L26.1502 12.2382ZM8.01986 7.13898C7.55276 7.15867 7.14773 7.21134 6.79836 7.30467L15.1361 15.4686L12.0834 8.97616L10.334 7.264C9.58859 7.07733 8.6715 7.11115 8.02029 7.13941L8.01986 7.13898ZM5.05323 9.10032L20.8904 24.6069L20.0594 27.2948L4.718 12.2737L4.89054 10.1262C4.92137 9.74126 4.97574 9.40045 5.05323 9.09989V9.10032ZM4.4564 15.5217L4.19394 18.7679L10.5305 24.9713L10.7938 21.7272L4.4564 15.5217ZM12.0753 22.9808L14.7739 29.1256L17.2028 31.504C17.285 31.5087 17.371 31.5108 17.4601 31.5095C18.3613 31.5074 18.8978 30.7427 19.2121 29.9691L12.0753 22.9808ZM3.93235 22.0149L3.67118 25.262L9.54835 31.0172C9.90799 30.5124 10.1341 29.8445 10.2051 28.9749L10.2668 28.2171L3.93235 22.0154V22.0149ZM3.413 28.5129L7.26376 32.2828C6.86644 32.3474 6.43572 32.3765 5.97589 32.3761C5.34566 32.3748 4.64949 32.2665 4.17468 31.8157C3.40444 31.0857 3.35178 29.5829 3.413 28.5129Z" fill="#8F8F8F"/>
<path fill-rule="evenodd" clip-rule="evenodd" d="M49.6824 18.35L51.8214 20.108L47.3683 21.1673V18.8625L49.6824 18.3505V18.35ZM49.5253 14.8898L47.3683 15.3453V18.4267L49.5253 17.9497V14.8898ZM42.737 11.2368L44.6534 12.5748V15.1424L42.737 13.533V11.2368ZM40.0872 20.5362L40.1154 14.7802L41.7878 16.1134V21.8129L40.0872 20.5362ZM39.6137 32.5183L37.3184 30.545L37.3385 21.3034L39.6137 23.1363V32.5183ZM45.3371 7.46484L47.015 8.77797V11.3747L45.3371 10.0616V7.46484Z" fill="#8F8F8F"/>
<path fill-rule="evenodd" clip-rule="evenodd" d="M81.0269 9.80245C79.7648 8.95514 78.1926 8.60449 76.5712 8.60449H70.8584C69.4635 8.60449 68.373 9.53271 68.373 10.9649V27.5376C68.373 28.2033 68.4946 28.9256 68.9489 29.4407C69.148 29.6667 69.3908 29.8264 69.6575 29.9369C69.5916 29.8817 69.5295 29.8209 69.4704 29.7545C69.0161 29.2386 68.8945 28.5167 68.8945 27.851V11.2778C68.8945 9.84612 69.9854 8.91661 71.3799 8.91661H77.0927C78.4974 8.91661 79.8649 9.18163 81.0269 9.80288V9.80245Z" fill="#8F8F8F"/>
<path fill-rule="evenodd" clip-rule="evenodd" d="M73.6807 21.902L79.6495 29.4202C79.852 29.6741 80.1183 29.8604 80.4124 29.9807C80.3251 29.9075 80.2442 29.8244 80.1718 29.7332L73.6807 21.5586V21.902Z" fill="#8F8F8F"/>
<path fill-rule="evenodd" clip-rule="evenodd" d="M78.9193 13.1572C79.6989 13.7339 80.2072 14.6596 80.2072 15.6991C80.2072 17.4374 78.787 18.858 77.0483 18.858H74.1729V19.1714H77.5706C79.308 19.1714 80.7286 17.75 80.7286 16.0121C80.7286 14.7559 79.9871 13.6654 78.9193 13.1572Z" fill="#8F8F8F"/>
<path fill-rule="evenodd" clip-rule="evenodd" d="M122.778 21.4223L123.169 20.5605C123.39 20.0732 123.715 19.6271 124.016 19.1737L123.799 19.154L123.941 18.662C123.963 18.5833 123.994 18.5122 124.028 18.4424C124.005 18.3696 124 18.29 124.017 18.1992L124.027 18.1406L124.053 18.0875C124.232 17.7274 124.458 17.3117 124.588 16.9135L124.345 16.5487C124.227 16.815 124.087 17.0779 123.97 17.3168L123.943 17.3708L123.932 17.4294C123.916 17.5193 123.921 17.599 123.944 17.6726C123.91 17.7407 123.879 17.8126 123.857 17.8914L123.715 18.3829L123.93 18.4034C123.631 18.856 123.306 19.303 123.085 19.7898L122.407 21.287L122.585 21.1543L122.429 21.5289L122.778 21.4223H122.778ZM122.8 16.0482L121.603 16.669L122.851 15.1093C122.88 15.0733 122.906 15.0369 122.93 14.9988L123.112 15.1786C123.159 15.224 123.209 15.2574 123.262 15.2801C123.162 15.4848 123.079 15.698 122.935 15.8787L122.8 16.0478L122.8 16.0482ZM123.349 14.1549L123.339 14.0548L123.425 13.9276C123.652 13.5932 123.798 13.1942 123.976 12.8307L124.013 12.7553C124.028 12.7078 124.05 12.668 124.074 12.6316L124.133 12.51L123.81 12.2343C123.666 12.5468 123.532 12.8748 123.341 13.1565L123.255 13.2837L123.265 13.3839C123.129 13.5525 123.048 13.7041 122.943 13.9259L122.815 14.1973L123.029 14.4084C123.18 14.5595 123.204 14.3326 123.349 14.1554V14.1549ZM121.454 13.6065L121.656 12.9369L121.236 13.2742L120.85 14.5458L121.454 13.6065ZM110.733 15.8251L110.805 15.6329C110.815 15.6081 110.825 15.5828 110.834 15.5571C110.797 15.5554 110.761 15.5537 110.724 15.5537H110.717L110.448 15.5888L110.21 16.2139L110.732 15.8251H110.733ZM124.236 12.3024L124.268 12.2373L124.278 12.1469L124.172 12.0476C124.162 12.0468 124.151 12.0459 124.142 12.0459L124.236 12.3024ZM102.594 31.366L102.759 31.4324C102.686 31.432 102.685 31.4268 102.592 31.3887L102.223 31.2393L102.127 31.4409L101.887 30.9263L101.722 31.1686L99.6968 27.9965C99.0208 26.9368 98.4453 25.8138 97.8588 24.7019C97.318 23.6756 96.6895 22.6982 96.168 21.6608C95.6727 20.6735 95.0536 19.7217 94.6939 18.6732C94.1968 17.2265 93.6449 15.8457 93.3581 14.3326C93.2057 13.5316 93.0777 12.7391 92.9805 11.9393C93.0819 13.0041 93.2416 14.0462 93.4416 15.1033C93.7284 16.6164 94.2812 17.9967 94.7774 19.4426C95.1379 20.4915 95.7557 21.4437 96.2524 22.431C96.773 23.468 97.4019 24.4463 97.9431 25.4726C98.5297 26.5836 99.1042 27.7071 99.7811 28.7672L101.806 31.938L101.971 31.6966L102.211 32.2108L102.307 32.01L102.675 32.1594C102.782 32.2031 102.768 32.203 102.881 32.203H102.907L102.992 32.1928C103.113 32.1782 103.28 32.135 103.372 32.0519L103.544 31.8969C103.547 31.8922 103.549 31.8884 103.551 31.8845L103.784 31.4118C103.743 31.2598 103.723 31.1001 103.764 30.9499L103.854 30.6146C103.801 30.4536 103.746 30.2935 103.692 30.133L103.68 30.1796C103.64 30.3295 103.659 30.4883 103.7 30.6407L103.467 31.1134C103.465 31.1168 103.463 31.122 103.461 31.1258L103.289 31.2808C103.219 31.3442 103.104 31.3844 103 31.4063L103.04 31.3262C103.019 31.1519 103.029 30.97 103.084 30.767L103.119 30.6365C103.049 30.428 102.978 30.2199 102.907 30.0109L102.716 29.4573L102.874 29.2407L102.827 29.1409L103.008 28.688C103.086 28.4893 103.202 28.3172 103.344 28.1802C103.464 27.9267 103.62 27.6754 103.797 27.4549V27.3885L104.042 27.0837C104.069 27.0516 104.094 27.0178 104.119 26.9822L103.792 27.0494L105.788 24.5962C105.833 24.5396 105.88 24.4861 105.929 24.433C106.036 24.1689 106.212 23.9398 106.409 23.7095C106.453 23.6581 106.513 23.5939 106.551 23.5374L106.889 22.9195L107.011 22.9268C107.074 22.848 107.141 22.7697 107.209 22.6892L107.626 22.0483C107.766 21.8346 107.924 21.6398 108.094 21.4501L108.961 20.4748L109.718 21.3752L109.757 21.3401L109.62 21.1774L109.996 20.4919L109.456 20.983L108.699 20.0835L107.832 21.058C107.663 21.2472 107.503 21.4424 107.364 21.6561L106.947 22.297C106.879 22.3775 106.812 22.4563 106.749 22.5351L106.629 22.5274L106.289 23.1452C106.25 23.2017 106.19 23.2659 106.146 23.3173C105.949 23.5476 105.774 23.7767 105.666 24.0409C105.618 24.0939 105.571 24.1479 105.524 24.204L103.53 26.6577L103.857 26.5909C103.832 26.6252 103.806 26.659 103.78 26.6915L103.535 26.9972V27.0636C103.357 27.2824 103.201 27.535 103.082 27.7893C102.94 27.9254 102.825 28.0975 102.746 28.2962L102.565 28.7492L102.612 28.8489L102.454 29.0656L102.645 29.6192C102.716 29.8273 102.787 30.0362 102.857 30.2443L102.822 30.3761C102.768 30.5782 102.758 30.7606 102.778 30.9353L102.71 31.0723L102.687 31.0933C102.673 31.0963 102.658 31.098 102.647 31.0997L102.432 31.0137L102.596 31.3665L102.594 31.366ZM109.907 21.5204L110.213 21.883L110.177 21.9202L109.88 21.5687L109.907 21.5199V21.5204ZM111.909 26.0557L111.942 26.1212L112.073 26.3832L112.343 26.5609C112.298 26.4817 112.255 26.4111 112.215 26.3529L112.09 26.1739L111.91 26.0561L111.909 26.0557ZM114.537 30.4729L114.616 30.4258H114.618L114.597 30.4382L114.537 30.4729ZM113.883 30.3106C113.955 30.2708 114.015 30.2357 114.059 30.2092L114.356 30.0332L114.655 30.0508C114.691 30.0216 114.728 29.9938 114.765 29.9681C114.792 29.9454 114.819 29.9236 114.848 29.903C114.865 29.8568 114.876 29.808 114.885 29.7536L114.951 29.3255L115.286 29.051C115.704 28.7111 116.071 28.2804 116.445 27.892L116.978 27.341L117.182 27.4254L117.43 27.1582L117.523 27.219C117.847 26.8975 118.229 26.5502 118.395 26.2402L118.475 26.0891L118.555 25.9971C118.735 25.786 118.924 25.5659 119.128 25.3604L119.043 25.1549L119.799 24.6403C120.032 24.4793 120.276 24.1603 120.496 23.8401L120.457 23.8679L122.266 19.8776C122.4 19.5851 122.554 19.3205 122.716 19.0641L123.003 18.0746C123.015 18.0331 123.027 17.9929 123.042 17.9539C123.039 17.8674 123.045 17.7788 123.06 17.6889L123.007 17.551L123.096 17.5043L123.322 18.0811C123.306 18.171 123.3 18.2587 123.303 18.3461C123.289 18.385 123.276 18.4244 123.264 18.4668L122.978 19.4563C122.815 19.7127 122.66 19.9769 122.529 20.2697L120.719 24.2601L120.757 24.2318C120.538 24.5525 120.295 24.8715 120.06 25.0316L119.304 25.5471L119.389 25.7526C119.186 25.9572 118.996 26.1786 118.816 26.3892L118.737 26.4817L118.657 26.6329C118.489 26.9437 118.109 27.2901 117.785 27.6116L117.692 27.5508L117.443 27.818L117.239 27.7336L116.706 28.2855C116.333 28.673 115.965 29.1028 115.547 29.4436L115.212 29.7181L115.147 30.1462C115.138 30.2006 115.126 30.2486 115.11 30.2948C115.081 30.3158 115.054 30.338 115.028 30.3607C115.074 30.3436 115.12 30.3342 115.166 30.3312C115.261 30.2439 115.316 30.1681 115.423 30.1218C115.467 30.0846 115.515 30.0508 115.566 30.0186C115.667 29.8525 115.729 29.6804 115.76 29.4826L115.785 29.3225L115.909 29.2202C116.353 28.8575 116.734 28.4152 117.13 28.0055L117.33 27.7987L117.541 27.8852L117.645 27.7679L117.655 27.7649L117.719 27.6959L117.769 27.7281C117.819 27.7114 117.881 27.6827 117.914 27.6433C118.308 27.165 118.905 26.7339 119.194 26.1953L119.239 26.1109L119.269 26.0767C119.522 25.7804 119.81 25.4409 120.123 25.1853C120.128 25.1746 120.132 25.1639 120.138 25.1536L120.09 25.0363L120.373 24.8441C120.906 24.4814 121.311 23.7489 121.679 23.2244C121.967 22.8159 122.253 22.4023 122.526 21.9793L122.492 22.0568L122.669 21.9241L122.514 22.2992L122.98 22.157C122.604 22.7872 122.185 23.3969 121.763 23.995C121.395 24.5187 120.99 25.2517 120.458 25.6143L120.175 25.8074L120.222 25.9238C120.216 25.935 120.211 25.9448 120.208 25.956C119.895 26.2107 119.606 26.5507 119.353 26.8469L119.324 26.882L119.279 26.9664C118.99 27.505 118.391 27.9357 117.998 28.4139C117.965 28.4533 117.903 28.4812 117.854 28.4992L117.804 28.4658L117.739 28.5351L117.729 28.5381L117.626 28.6554L117.414 28.5681L117.214 28.7753C116.819 29.1855 116.437 29.6282 115.995 29.9895L115.869 30.0923L115.844 30.2533C115.814 30.4506 115.752 30.6223 115.65 30.7889C115.6 30.821 115.552 30.8548 115.509 30.8921C115.401 30.9374 115.344 31.0132 115.251 31.1006C115.192 31.1053 115.134 31.1194 115.075 31.1442C115.06 31.1515 115.045 31.1584 115.032 31.1652C114.997 31.1571 114.961 31.1511 114.922 31.149L114.792 31.1417L114.681 31.208C114.464 31.3365 113.743 31.7377 113.464 31.6837C113.457 31.6653 113.45 31.6465 113.444 31.6272L113.386 31.2598C113.255 30.4262 112.361 27.8111 111.897 27.1479L111.851 27.0811L111.342 26.7476L111.401 26.6179L111.311 26.4359C111.255 26.3254 111.201 26.215 111.148 26.1028C111.014 25.8207 111.019 25.4931 110.846 25.1776C110.365 24.2995 109.852 23.438 109.357 22.5672C109.338 22.5329 109.313 22.4991 109.29 22.4666L109.519 22.2358L108.946 21.5529L108.62 21.9181C108.474 22.0808 108.336 22.2486 108.216 22.4319L107.939 22.86L107.975 22.8746C107.764 23.1332 107.52 23.3661 107.367 23.6555L107.292 23.6508L107.163 23.8854C106.989 24.2031 106.639 24.4138 106.546 24.7974C106.476 24.8779 106.401 24.9562 106.333 25.0406L105.585 25.9611L105.754 25.9268L105.736 25.9444C105.211 26.4196 105.01 27.0041 104.592 27.5255L104.5 27.6403V27.7251C104.264 27.9623 104.049 28.3013 103.922 28.6173C103.809 28.6892 103.72 28.8061 103.662 28.9508L103.594 29.1204L103.687 29.3195C103.668 29.3447 103.649 29.3713 103.63 29.3974L103.624 29.4073L103.489 29.0125L103.418 28.8044L103.547 28.6267C103.565 28.6002 103.585 28.5745 103.604 28.548L103.511 28.3493L103.579 28.1793C103.637 28.0355 103.725 27.9182 103.838 27.8471C103.965 27.5303 104.181 27.192 104.415 26.9544L104.416 26.8692L104.508 26.7545C104.927 26.2334 105.128 25.6494 105.652 25.1729L105.671 25.1558L105.502 25.1909L106.25 24.2703C106.318 24.1864 106.393 24.1077 106.464 24.0272C106.556 23.644 106.906 23.4325 107.08 23.1161L107.209 22.8802L107.284 22.8853C107.437 22.5954 107.679 22.3625 107.892 22.1043L107.856 22.0898L108.133 21.6616C108.253 21.478 108.392 21.3114 108.536 21.1479L108.863 20.7822L109.437 21.4651L109.207 21.6963C109.231 21.7293 109.255 21.7631 109.274 21.7965C109.769 22.6678 110.282 23.5297 110.763 24.4074C110.936 24.7229 110.931 25.0504 111.064 25.3334C111.118 25.4448 111.172 25.5552 111.227 25.6657L111.318 25.8485L111.259 25.9774L111.767 26.3105L111.814 26.3777C112.277 27.0409 113.171 29.656 113.302 30.4896L113.36 30.857C113.367 30.8771 113.374 30.8959 113.38 30.9143C113.517 30.9404 113.762 30.857 114 30.7499C113.967 30.6163 113.928 30.4682 113.883 30.3106H113.883ZM119.778 18.6954L122.379 15.4458L122.058 15.1286L121.229 16.1647L119.518 18.8303L119.778 18.6954ZM122.091 15.0262L122.391 14.3939C122.419 14.3343 122.445 14.2795 122.472 14.2273L122.01 14.9474L122.091 15.0262ZM119.058 19.0679L119.153 18.7562L118.794 19.2049L119.058 19.0679ZM119.244 18.457L120.124 15.5584L119.549 16.2006L118.523 19.5817L119.244 18.457ZM114.593 21.3932L114.062 20.5926C114.035 20.551 114.008 20.5099 113.978 20.4684L114.592 21.3945L114.593 21.3932H114.593ZM108.979 18.4672L108.893 18.5148L109.028 18.2176L108.521 18.5944L109.335 16.4438L109.766 16.3882L108.979 18.4668L108.979 18.4672ZM108.688 16.1026L108.528 16.1236L108.62 15.8598L108.325 15.859L108.473 15.6432C108.56 15.6603 108.652 15.6706 108.752 15.6744L108.801 15.6762L108.829 15.8979L108.689 16.1026H108.688ZM104.576 18.54L104.471 18.7558L104.364 18.3431C104.405 18.2956 104.446 18.2485 104.489 18.2039L104.576 18.54ZM100.724 22.6845L100.66 22.7607L99.9494 21.0712C99.8231 20.7702 99.7075 20.4663 99.6189 20.1529C98.9741 17.8815 97.8121 15.8568 97.3 13.5046C97.1626 12.8709 97.1313 12.2039 97.0851 11.5587C97.0744 11.4165 97.0646 11.2624 97.0491 11.1031L97.1121 11.1014C97.1652 11.0993 97.217 11.0946 97.2658 11.0898C97.3065 11.3861 97.327 11.6901 97.3463 11.9513C97.3938 12.5969 97.4238 13.2635 97.5612 13.8972C98.0728 16.249 99.2353 18.2741 99.8801 20.5455C99.9687 20.8597 100.084 21.1629 100.211 21.463L100.724 22.6845ZM101.571 30.2575L101.825 29.8821L102.04 30.3432L101.825 30.6574L101.571 30.2575ZM120.228 15.2193L120.122 15.2334C120.182 15.144 120.242 15.0553 120.303 14.9719L120.228 15.2193ZM121.261 12.1748C121.351 12.0194 121.44 11.8618 121.527 11.7038C121.392 11.8348 121.274 11.9864 121.157 12.1392L121.261 12.1748H121.261Z" fill="#8F8F8F"/>
<path fill-rule="evenodd" clip-rule="evenodd" d="M153.92 7.30887H154.378V33.5504H153.92V7.30887ZM155.749 7.30887H156.207V33.5504H155.749V7.30887ZM161.901 17.7959C161.794 17.649 161.685 17.5026 161.576 17.3575C161.564 18.3944 161.547 19.4288 161.547 20.4667C161.547 21.8063 161.593 23.167 161.683 24.5097C161.73 25.211 161.803 25.9217 161.901 26.6358V17.7963V17.7959ZM157.579 26.8585C157.473 26.1585 157.396 25.4631 157.351 24.7764C157.069 20.5669 157.256 15.9198 157.256 11.6995C157.256 11.345 157.38 11.0616 157.579 10.8398V7.30887H158.035V10.4891C158.447 10.2669 158.959 10.1693 159.407 10.1637V7.30887H159.864V10.1894C160.439 10.2635 161.011 10.5024 161.326 11.0029L161.901 11.7654V6.57031H162.36V12.3738L162.407 12.4372C162.86 12.9047 163.301 13.3933 163.73 13.8963V6.57031H164.188V14.4439C164.658 15.0181 165.114 15.6089 165.56 16.2092V6.57074H166.017V16.8351C166.485 17.4842 166.941 18.141 167.388 18.7969V6.57031H167.846V19.4738C168.058 19.7893 168.268 20.104 168.476 20.4166C168.177 17.7274 168.151 15.3914 168.169 12.7228C167.9 11.7329 168.675 11.1909 169.516 11.0042V7.32299H170.047V10.9327C170.098 10.9301 170.149 10.9288 170.2 10.9288C170.628 10.9288 171.197 11.0367 171.637 11.2851V7.32299H172.166V11.7629C172.259 11.9114 172.316 12.0814 172.32 12.2754C172.382 14.7359 172.498 17.1952 172.666 19.5851C172.829 21.898 173.196 24.2827 173.757 26.6769V7.32299H174.286V33.535H173.757V27.8728C173.537 28.5231 172.923 28.9063 172.166 29.0253V33.5346H171.637V29.0656H171.633C170.873 29.0656 170.372 28.7997 170.047 28.4897V33.5346H169.516V27.8295C168.963 27.1188 168.405 26.4453 167.845 25.7748V32.811H167.387V25.2247C166.93 24.6749 166.472 24.1205 166.016 23.5416V32.811H165.559V22.9508C165.292 22.5997 165.026 22.2388 164.761 21.8629C164.57 21.5906 164.378 21.3165 164.187 21.0417V32.811H163.73V20.3819C163.277 19.7277 162.822 19.0726 162.359 18.4266V32.8106H161.901V30.1407C161.63 30.5512 161.254 30.8972 160.882 31.0877C160.607 31.2281 160.246 31.3091 159.864 31.3253V33.5487H159.407V31.3138C158.892 31.2663 158.384 31.0993 158.035 30.8004V33.5487H157.578V26.8568L157.579 26.8585ZM175.876 7.32342H176.406V33.5354H175.876V7.32342ZM158.324 30.4755C158.952 30.7409 159.856 30.7058 160.31 30.4733C160.942 30.1501 161.723 29.1349 161.424 28.3925L161.408 28.354L161.4 28.3129C161.144 26.9929 160.963 25.6558 160.873 24.3144C160.782 22.9598 160.736 21.5996 160.736 20.241C160.736 19.2036 160.753 18.1658 160.765 17.128L160.78 15.8346L161.149 16.3269L161.138 17.3528C161.126 18.3897 161.109 19.428 161.109 20.4658C161.109 21.8248 161.156 23.1837 161.246 24.5392C161.336 25.8806 161.516 27.2177 161.773 28.5377L161.781 28.5788L161.797 28.6173C162.095 29.3589 161.315 30.3748 160.683 30.6981C160.127 30.982 158.897 30.9713 158.325 30.4755H158.324ZM170.455 28.2521C170.776 28.5128 171.167 28.6267 171.633 28.6267C172.747 28.6267 173.637 28.0997 173.351 26.8713C172.796 24.4887 172.399 22.0568 172.227 19.6159C172.056 17.1764 171.943 14.7316 171.881 12.2865C171.873 11.9607 171.601 11.7359 171.264 11.5899C171.408 11.7154 171.503 11.8721 171.508 12.0622C171.57 14.5073 171.684 16.9524 171.855 19.3916C172.027 21.8337 172.424 24.2643 172.979 26.647C173.264 27.8749 172.375 28.4032 171.26 28.4032C170.961 28.4032 170.693 28.3553 170.454 28.2525L170.455 28.2521ZM168.696 21.5383L168.74 21.9395L167.738 20.435C165.89 17.6615 163.687 15.1362 161.683 12.4766L160.603 11.0427C160.531 10.9455 160.446 10.8608 160.353 10.7863C160.596 10.8942 160.814 11.0522 160.975 11.2675L162.057 12.7022C164.059 15.3615 166.263 17.8871 168.11 20.6602L168.695 21.5388L168.696 21.5383Z" fill="#8F8F8F"/>
<path fill-rule="evenodd" clip-rule="evenodd" d="M140.299 3.94043C139.152 3.94043 138.223 4.87079 138.223 6.01865C138.223 7.16566 139.152 8.09517 140.299 8.09517C141.447 8.09517 142.377 7.16566 142.377 6.01865C142.377 4.87079 141.447 3.94043 140.299 3.94043ZM140.242 14.019H140.25C140.821 14.019 141.287 14.4857 141.287 15.0568V16.7711C141.287 17.3419 140.821 17.8094 140.25 17.8094H140.242C139.671 17.8094 139.205 17.3419 139.205 16.7711V15.0568C139.205 14.4857 139.671 14.019 140.242 14.019ZM137.184 10.9316C137.056 11.8581 137.039 12.9341 137.039 13.8435C137.039 16.0882 137.244 18.3557 137.576 20.5748C137.793 22.0202 137.879 23.49 137.879 24.95C137.879 26.8266 137.74 28.7173 137.494 30.5776C137.438 30.9985 137.348 31.4249 137.271 31.8436C137.2 32.2315 137.094 32.738 137.093 33.1293C137.092 33.4988 137.257 33.8371 137.532 34.082C137.592 34.1363 137.662 34.1873 137.738 34.2348C137.509 33.9981 137.372 33.6885 137.374 33.3541C137.375 32.9624 137.48 32.4563 137.552 32.0684C137.629 31.6497 137.719 31.2232 137.775 30.8015C138.021 28.9416 138.16 27.0505 138.16 25.1748C138.16 23.7144 138.074 22.2441 137.858 20.7996C137.525 18.5801 137.32 16.313 137.32 14.0674C137.32 13.1584 137.337 12.0829 137.465 11.1556C139.413 11.251 141.361 11.1787 143.309 10.9312C141.267 11.1196 139.226 11.1072 137.185 10.9312L137.184 10.9316ZM141.305 14.0233C141.568 14.29 141.729 14.6557 141.729 15.0564V16.7711C141.729 17.5859 141.064 18.25 140.25 18.25H140.242C139.958 18.25 139.693 18.1695 139.467 18.0295C139.736 18.3039 140.11 18.4743 140.523 18.4743H140.531C141.346 18.4743 142.01 17.8098 142.01 16.9955V15.2812C142.01 14.7511 141.728 14.2836 141.306 14.0229L141.305 14.0233Z" fill="#8F8F8F"/>
</g>
<defs>
<clipPath id="clip0_2301_21647">
<rect width="179.419" height="36.5329" fill="white" transform="translate(0.25 0.876953)"/>
</clipPath>
</defs>
</svg>
