<svg width="599" height="137" viewBox="0 0 599 137" fill="none" xmlns="http://www.w3.org/2000/svg">
<path fill-rule="evenodd" clip-rule="evenodd" d="M52.4796 3.08647C63.7296 -0.162442 74.986 -0.338217 86.2308 2.56137C97.4812 5.45734 107.689 11.4976 116.848 20.6572C126.007 29.8166 132.069 40.0505 135.025 51.3554C137.983 62.6656 137.838 73.9438 134.587 85.1941C131.343 96.4441 125.139 106.652 115.98 115.812C106.816 124.975 96.6128 131.174 85.3624 134.419C74.1121 137.672 62.8339 137.811 51.5236 134.86C40.2188 131.9 29.9847 125.843 20.8254 116.683C11.6663 107.519 5.63289 97.3125 2.73299 86.0626C-0.166899 74.8122 0.00570325 63.5651 3.25472 52.3147C6.49992 41.0648 12.7045 30.8622 21.8689 21.6939C31.0268 12.5347 41.2349 6.33165 52.4796 3.08647ZM70.6629 20.2128C61.5635 15.8748 52.9773 13.9608 44.9161 14.4805C36.8566 14.9989 29.9265 18.1601 24.1309 23.9592C18.6802 29.4099 15.5177 36.0474 14.6487 43.8794C13.7761 51.706 15.4311 60.2027 19.6035 69.367C23.7815 78.5262 30.6247 87.8647 40.133 97.3691C49.0665 106.302 58.0502 112.97 67.0983 117.373C76.1429 121.78 84.7292 123.696 92.8451 123.112C100.96 122.534 107.913 119.345 113.718 113.546C119.168 108.096 122.326 101.456 123.2 93.6294C124.067 85.7991 122.387 77.2731 118.154 68.0543C113.922 58.8404 107.051 49.4748 97.5373 39.9614C88.7285 31.1513 79.7713 24.5704 70.6629 20.2128Z" fill="#8F8F8F"/>
<path d="M372.502 2.20793C383.002 2.20804 392.625 4.13703 401.406 7.98741C410.18 11.8435 417.603 17.2954 423.679 24.3497C429.74 31.4039 434.087 39.6912 436.712 49.1944H410.393C409.07 41.6581 406.822 34.5596 403.624 27.9143C400.426 21.2739 396.238 15.8614 391.072 11.68C385.907 7.49835 379.716 5.40584 372.502 5.40566C364.795 5.40566 357.866 7.86565 351.713 12.7874C345.564 17.7052 340.722 24.8834 337.202 34.3132C333.673 43.7436 331.908 55.1831 331.908 68.6299C331.908 81.2628 333.551 92.3344 336.832 101.843C340.108 111.36 344.825 118.777 350.979 124.109C357.128 129.44 364.303 132.1 372.502 132.1C379.22 132.1 385.175 130.175 390.342 126.32C395.507 122.468 399.814 117.26 403.257 110.702C406.702 104.145 409.07 96.5946 410.393 88.0654H436.712C434.087 97.4169 429.74 105.657 423.679 112.789C417.603 119.925 410.18 125.462 401.406 129.4C392.625 133.334 383.002 135.304 372.502 135.304C359.546 135.304 347.946 132.475 337.697 126.818C327.44 121.156 319.365 113.282 313.458 103.196C307.558 93.1127 304.602 81.5904 304.602 68.6299C304.602 55.6794 307.558 44.1936 313.458 34.1886C319.365 24.1836 327.439 16.3515 337.697 10.6937C347.946 5.03614 359.546 2.20793 372.502 2.20793Z" fill="#8F8F8F"/>
<path fill-rule="evenodd" clip-rule="evenodd" d="M533.644 2.20793C544.14 2.20796 553.851 4.1369 562.794 7.98741C571.732 11.8435 579.312 17.2954 585.548 24.3497C591.779 31.404 596.214 39.691 598.834 49.1944H494.531C493.565 55.1373 493.046 61.5941 493.046 68.6299C493.046 81.2632 494.687 92.3342 497.978 101.843C501.254 111.36 505.963 118.777 512.111 124.109C518.266 129.44 525.441 132.1 533.644 132.1C543.318 132.1 551.682 128.291 558.731 120.662C565.785 113.037 570.461 102.009 572.754 87.5739H598.834C596.371 97.0856 591.987 105.454 585.683 112.664C579.359 119.885 571.769 125.462 562.922 129.4C554.062 133.334 544.296 135.304 533.644 135.304C520.679 135.304 509.083 132.475 498.829 126.818C488.581 121.156 480.504 113.282 474.604 103.196C468.697 93.1127 465.741 81.5904 465.741 68.6299C465.741 55.6794 468.697 44.1936 474.604 34.1886C480.504 24.1841 488.581 16.3513 498.829 10.6937C509.083 5.03593 520.679 2.20793 533.644 2.20793ZM533.644 5.40566C525.932 5.40566 519.001 7.86565 512.852 12.7874C506.7 17.7052 501.859 24.883 498.334 34.3132C497.002 37.889 495.999 41.8464 495.167 45.9967H571.835C570.461 39.6497 568.38 33.6034 565.504 27.9143C562.139 21.2739 557.832 15.8614 552.588 11.68C547.332 7.49822 541.02 5.4057 533.644 5.40566Z" fill="#8F8F8F"/>
<path d="M232.768 2.20457C240.309 2.20466 246.989 3.93327 252.816 7.37479C258.635 10.8217 263.23 15.5769 266.59 21.6434C269.953 27.7102 271.639 34.6005 271.639 42.3075V132.837H245.064V40.8298C245.064 35.4206 244.088 30.5448 242.112 26.1943C240.149 21.8514 237.404 18.363 233.875 15.7394C230.346 13.1196 226.286 11.8011 221.7 11.8011C217.104 11.8012 212.999 13.0732 209.391 15.6148C205.789 18.1603 202.911 21.5216 200.784 25.7028C198.646 29.8842 197.586 34.6787 197.586 40.096V132.837H171.018V4.66514H197.586V25.5514C198.17 24.1314 198.813 22.7361 199.558 21.3943C202.834 15.4942 207.343 10.8215 213.087 7.37479C218.821 3.93297 225.392 2.20457 232.768 2.20457Z" fill="#8F8F8F"/>
</svg>
