<svg width="99" height="99" viewBox="0 0 99 99" fill="none" xmlns="http://www.w3.org/2000/svg">
<g clip-path="url(#clip0_2301_21852)">
<path d="M7.35017 0.230469H92.344C94.1548 0.230469 95.8028 0.970563 96.9944 2.16336C98.1871 3.35616 98.9272 5.00166 98.9272 6.81374V91.8075C98.9272 93.6133 98.1871 95.2588 96.9944 96.4528L96.9893 96.4579C95.7939 97.6507 94.1497 98.3908 92.344 98.3908H7.35017C5.53809 98.3908 3.89131 97.6507 2.69852 96.4579C1.50572 95.2651 0.765625 93.6196 0.765625 91.8075V6.81374C0.765625 5.00547 1.50572 3.36124 2.69852 2.16845L2.7036 2.16336C3.8964 0.970563 5.54063 0.230469 7.3489 0.230469L7.35017 0.230469ZM30.0731 63.394C31.5685 62.4823 32.5757 60.833 32.5757 58.9522C32.5757 56.0897 30.2397 53.7525 27.3772 53.7525H18.1337V81.4844H27.3772C32.4739 81.4844 36.6208 77.3376 36.6208 72.2408C36.6208 68.0813 33.8613 64.5576 30.0731 63.3953V63.394ZM22.7548 54.9071H27.3772C29.6039 54.9071 31.421 56.723 31.421 58.9509C31.421 61.1788 29.6039 62.9947 27.3772 62.9947C25.6948 62.9947 24.1155 63.4449 22.7548 64.241V54.9071ZM27.3772 80.3285H22.7548V65.6092C24.0646 64.6911 25.6554 64.1519 27.3772 64.1519C31.8381 64.1519 35.4648 67.7787 35.4648 72.2396C35.4648 76.7017 31.8381 80.3285 27.3772 80.3285ZM49.1375 53.7525L38.7393 81.4844H39.9715L42.5708 74.5514H52L54.5992 81.4844H59.5357L49.1362 53.7525H49.1375ZM43.0069 73.3955L47.2822 61.9825L51.5714 73.3955H43.0069ZM83.0318 62.996C83.0318 57.8993 78.8849 53.7525 73.7882 53.7525H64.5434V81.4844H69.1658V70.9959C70.5265 71.7919 72.1071 72.2408 73.7882 72.2408C74.3325 72.2408 74.8666 72.1963 75.3867 72.0997L81.638 81.4844H83.0318L76.5807 71.811C80.3168 70.6233 83.0318 67.125 83.0318 62.996ZM73.7882 71.0849C72.0677 71.0849 70.4756 70.5457 69.1658 69.6276V54.9084H73.7882C78.2491 54.9084 81.8758 58.5351 81.8758 62.996C81.8758 67.4582 78.2491 71.0849 73.7882 71.0849ZM36.0422 28.2421C36.0422 23.1454 31.8953 18.9986 26.7986 18.9986H17.5551V46.7292H22.1775V36.2407C23.5381 37.0368 25.1175 37.4869 26.7986 37.4869C27.3454 37.4869 27.877 37.4424 28.3971 37.3458L34.6497 46.7305H36.0422L29.5911 37.0571C33.3272 35.8694 36.0422 32.3711 36.0422 28.2434V28.2421ZM26.7986 36.3298C25.0781 36.3298 23.4873 35.7906 22.1775 34.8725V20.1532H26.7986C31.2608 20.1532 34.8875 23.7799 34.8875 28.2409C34.8875 32.703 31.2608 36.3285 26.7986 36.3285V36.3298ZM49.5228 18.9986L39.1246 46.7292H40.3568L42.9573 39.7962H52.3865L54.9858 46.7292H59.9223L49.5228 18.9986ZM43.3922 38.6416L47.6675 27.2286L51.9554 38.6416H43.3922ZM66.0261 23.2179H77.9783C78.2428 23.2179 78.5988 23.4748 78.4589 23.6986L72.584 33.0108H71.2793L65.5467 23.6986C65.4081 23.4735 65.7629 23.2179 66.0274 23.2179H66.0261ZM61.859 18.0461H82.162C82.4595 18.0461 82.7901 18.1529 83.0534 18.3208C83.2149 18.4225 83.3624 18.5522 83.4717 18.701C83.6142 18.893 83.7006 19.1143 83.7006 19.3521C83.7006 19.5327 83.651 19.7132 83.5417 19.8875L73.5631 35.7067C73.5059 35.7969 73.4385 39.2011 73.3902 41.6694C73.3737 42.5163 73.3584 43.2602 73.3431 43.7574L79.4063 45.3813L79.4356 46.9072L63.7117 46.9645L63.7156 45.3482L70.426 43.7676C70.412 43.3021 70.3993 42.6205 70.3853 41.8398C70.3395 39.3563 70.2734 35.8058 70.2098 35.7041L60.4703 19.8836C60.3661 19.7107 60.3177 19.5327 60.3177 19.3546C60.3177 19.113 60.408 18.888 60.5555 18.6921C60.6713 18.5395 60.82 18.4085 60.9815 18.3094C61.2448 18.1504 61.5665 18.0474 61.8564 18.0474L61.859 18.0461ZM82.162 19.3864H61.859C61.8285 19.3864 61.7916 19.3953 61.7534 19.4106L71.3518 35.0009C71.601 35.4053 71.6709 39.177 71.7193 41.8169C71.7421 43.0796 71.7612 44.0677 71.779 44.191L71.8706 44.8001L68.4219 45.6127L75.0115 45.5886L71.8884 44.7518L71.9888 44.1541C72.0092 44.0384 72.0295 42.9766 72.0562 41.6427C72.1071 39.0193 72.1796 35.3976 72.4327 34.9958L82.2637 19.4106C82.2268 19.3953 82.1912 19.3864 82.1607 19.3864H82.162ZM92.3427 2.91108H7.3489C6.27436 2.91108 5.29775 3.3498 4.58944 4.05683C3.88241 4.76513 3.4437 5.74175 3.4437 6.81629V91.8101C3.4437 92.8821 3.88368 93.8587 4.59199 94.567C5.30029 95.2753 6.27691 95.7153 7.3489 95.7153H92.3427C93.4185 95.7153 94.3939 95.2766 95.0996 94.5708L95.1047 94.5657C95.8105 93.86 96.2479 92.8846 96.2479 91.8088V6.81501C96.2479 5.74302 95.8092 4.7664 95.0996 4.0581C94.3913 3.3498 93.4147 2.90981 92.3427 2.90981V2.91108Z" fill="#8F8F8F"/>
</g>
<defs>
<clipPath id="clip0_2301_21852">
<rect width="98.1616" height="98.1616" fill="white" transform="translate(0.765625 0.230469)"/>
</clipPath>
</defs>
</svg>
