<svg width="205" height="57" viewBox="0 0 205 57" fill="none" xmlns="http://www.w3.org/2000/svg">
<g clip-path="url(#clip0_2301_21720)">
<path fill-rule="evenodd" clip-rule="evenodd" d="M88.296 47.4335C89.4396 47.4335 90.402 47.8133 91.1824 48.568C92.0306 49.3859 92.4532 50.4757 92.4532 51.8346C92.4532 53.2178 92.0156 54.3176 91.1381 55.1339C90.3542 55.8661 89.4073 56.2295 88.296 56.2305C87.1064 56.2305 86.1215 55.8257 85.3354 55.0164C84.5393 54.1914 84.1406 53.1308 84.1406 51.8346C84.1406 50.4757 84.5652 49.383 85.4165 48.5616C86.1975 47.8101 87.1565 47.4348 88.296 47.4335ZM121.218 47.4335V47.6749C120.678 47.6994 120.315 47.7775 120.127 47.9088C119.945 48.0404 119.855 48.3194 119.855 48.7518V54.9831C119.855 55.1278 119.882 55.2418 119.933 55.3257C119.99 55.4061 120.114 55.4564 120.3 55.4776C120.411 55.49 120.525 55.4985 120.645 55.5024C120.77 55.5077 120.997 55.5096 121.333 55.5096C122.639 55.5096 123.52 55.4142 123.981 55.2232C124.439 55.0334 124.883 54.549 125.313 53.7677H125.689L124.969 56.0159H117.064V55.7817C117.605 55.7304 117.953 55.6471 118.111 55.5282C118.275 55.4061 118.356 55.099 118.356 54.6094V48.84C118.356 48.3792 118.276 48.0803 118.12 47.9408C117.962 47.7971 117.611 47.7086 117.064 47.6749V47.4335H121.218ZM76.0136 47.4335V47.6749C75.5475 47.7086 75.2446 47.7951 75.1058 47.9336C74.9655 48.0731 74.8955 48.3759 74.8955 48.84V51.3662H78.7258V48.84C78.7258 48.3759 78.6587 48.0731 78.5237 47.9336C78.3876 47.7951 78.0846 47.7086 77.6176 47.6749V47.4335H81.1265V47.6749C80.6635 47.7086 80.3593 47.7951 80.2206 47.9336C80.0834 48.0731 80.0167 48.3759 80.0167 48.84V54.6094C80.0167 55.0824 80.0834 55.3875 80.2206 55.522C80.3593 55.6524 80.6635 55.7396 81.1265 55.7817V56.0159H77.6176V55.7817C78.1146 55.7304 78.4226 55.638 78.5403 55.5024C78.6644 55.3679 78.7258 55.02 78.7258 54.4562V51.9369H74.8955V54.6094C74.8955 55.0824 74.9655 55.3875 75.1058 55.522C75.2446 55.6573 75.5475 55.7438 76.0136 55.7817V56.0159H72.5015V55.7817C72.9957 55.7262 73.3037 55.6337 73.4274 55.5024C73.5506 55.3679 73.6126 55.02 73.6126 54.4562V48.84C73.6126 48.3759 73.5416 48.0731 73.4026 47.9336C73.2664 47.7951 72.9667 47.7086 72.5015 47.6749V47.4335H76.0136ZM104.047 47.4335L104.126 49.6378H103.77C103.594 48.9459 103.369 48.4951 103.097 48.2887C102.829 48.0783 102.262 47.9712 101.394 47.9712H100.559V54.6097C100.559 55.1127 100.652 55.4247 100.831 55.5468C101.011 55.6661 101.405 55.7438 102.015 55.782V56.0159H97.6531V55.782C98.2853 55.7389 98.6801 55.6484 98.8339 55.5089C98.9914 55.3691 99.0699 55.0193 99.0699 54.4578V47.9712H98.2368C97.4074 47.9712 96.8423 48.0764 96.5414 48.2828C96.2429 48.4899 96.0193 48.9404 95.8685 49.6378H95.5013L95.5888 47.4335H104.047ZM133.744 47.4335L134.023 50.0865H133.719C133.512 49.287 133.175 48.7299 132.714 48.4134C132.255 48.0963 131.801 47.9395 131.349 47.9395C131.001 47.9395 130.694 48.0411 130.432 48.2428C130.172 48.4419 130.044 48.7192 130.044 49.0771C130.044 49.3964 130.144 49.6715 130.343 49.8983C130.544 50.1288 130.855 50.3703 131.274 50.6209L132.401 51.2972C133.105 51.7181 133.599 52.1043 133.889 52.4584C134.171 52.8153 134.311 53.2369 134.314 53.724C134.314 54.3767 134.058 54.9216 133.55 55.3594C133.045 55.797 132.401 56.0159 131.614 56.0159C131.216 56.0159 130.802 55.9428 130.369 55.797C129.94 55.6514 129.694 55.5784 129.631 55.5784C129.481 55.5784 129.38 55.6226 129.326 55.7123C129.276 55.802 129.242 55.8967 129.224 55.9971H128.944L128.564 53.3463H128.856C129.072 53.9062 129.327 54.3519 129.619 54.6844C130.128 55.2647 130.759 55.5536 131.511 55.5536C131.921 55.5536 132.272 55.4287 132.569 55.1772C132.869 54.9256 133.019 54.5746 133.019 54.1252C133.019 53.719 132.869 53.367 132.569 53.0653C132.372 52.8752 131.96 52.5904 131.331 52.2087L130.239 51.5466C129.908 51.3433 129.645 51.1382 129.449 50.9315C129.088 50.5378 128.906 50.1053 128.906 49.6301C128.906 49.0018 129.121 48.4783 129.551 48.0605C129.98 47.6437 130.547 47.4345 131.256 47.4335C131.548 47.4335 131.899 47.5047 132.306 47.6478C132.719 47.7855 132.954 47.8545 133.014 47.8545C133.171 47.8545 133.279 47.8181 133.337 47.7453C133.401 47.6722 133.447 47.5687 133.482 47.4335H133.744ZM113.384 47.4335L113.432 49.296H113.059C112.934 48.7221 112.747 48.3504 112.498 48.1809C112.25 48.0127 111.694 47.9274 110.831 47.9274H108.832C108.617 47.9274 108.484 47.9591 108.43 48.0228C108.383 48.0826 108.358 48.1953 108.358 48.3648V51.2594H110.624C111.249 51.2594 111.65 51.1765 111.823 51.0122C111.995 50.8482 112.135 50.5144 112.24 50.0114H112.584V53.0138H112.24C112.13 52.5121 111.989 52.1796 111.817 52.0192C111.644 51.8552 111.246 51.7719 110.624 51.7719H108.358V54.9831C108.358 55.2418 108.452 55.3937 108.632 55.4397C108.818 55.4861 109.373 55.5096 110.293 55.5096C111.289 55.5096 112.024 55.4142 112.498 55.2232C112.972 55.0291 113.4 54.5634 113.777 53.8252H114.189L113.519 56.0159H105.564V55.7817C106.104 55.7304 106.452 55.6471 106.613 55.5282C106.775 55.4061 106.858 55.099 106.858 54.6094V48.84C106.858 48.3792 106.777 48.0803 106.619 47.9408C106.462 47.7971 106.11 47.7086 105.564 47.6749V47.4335H113.384ZM88.296 47.8958C87.537 47.8958 86.8923 48.2178 86.3633 48.8604C85.8391 49.5002 85.5784 50.4908 85.5784 51.8346C85.5784 53.1764 85.8391 54.1683 86.3633 54.811C86.8895 55.4504 87.5328 55.7692 88.296 55.7692C89.0447 55.7692 89.6817 55.4584 90.2107 54.836C90.7438 54.2097 91.0087 53.2095 91.0087 51.8346C91.0087 50.4452 90.7416 49.4414 90.2034 48.8229C89.6677 48.2046 89.0329 47.8971 88.296 47.8958ZM93.676 7.51521L102.629 20.4119L111.579 7.51521H115.961L105.371 23.6408L115.122 38.4108L204.627 38.5398L186.985 41.2938L112.677 41.5508L102.629 26.5033L92.5788 41.5508L18.2712 41.2938L0.626953 38.5398L90.1339 38.4108L99.8847 23.6408L89.2951 7.51521H93.676ZM171.846 13.104L172.48 19.7339H171.789C171.321 17.7372 170.566 16.3428 169.527 15.5516C168.495 14.7613 167.474 14.3664 166.46 14.3664C165.673 14.3664 164.983 14.6199 164.393 15.1272C163.813 15.6226 163.521 16.3171 163.521 17.2096C163.521 18.0106 163.747 18.6956 164.196 19.2625C164.647 19.8412 165.344 20.4433 166.292 21.0717L168.822 22.7595C170.407 23.8137 171.522 24.7816 172.171 25.6636C172.807 26.556 173.125 27.6109 173.126 28.8269C173.126 30.4585 172.554 31.8221 171.411 32.9176C170.275 34.012 168.822 34.56 167.05 34.56C166.161 34.56 165.228 34.3769 164.253 34.012C163.286 33.6472 162.732 33.4641 162.593 33.4641C162.256 33.4641 162.025 33.5758 161.904 33.8002C161.791 34.0229 161.716 34.2598 161.679 34.5129H161.047L160.188 27.8844H160.849C161.336 29.2831 161.909 30.3989 162.564 31.2295C163.709 32.6793 165.13 33.4049 166.826 33.4049C167.744 33.4049 168.536 33.0898 169.202 32.4613C169.879 31.8329 170.215 30.955 170.215 29.8307C170.215 28.8171 169.879 27.9355 169.202 27.1845C168.762 26.708 167.834 25.9932 166.417 25.0412L163.959 23.3829C163.216 22.878 162.627 22.3652 162.186 21.8481C161.37 20.8643 160.962 19.7806 160.962 18.5934C160.962 17.0214 161.444 15.7144 162.409 14.6706C163.376 13.6262 164.655 13.104 166.249 13.104C166.905 13.104 167.694 13.2827 168.611 13.6357C169.541 13.9812 170.069 14.1528 170.201 14.1528C170.557 14.1528 170.801 14.0625 170.932 13.8804C171.073 13.6976 171.181 13.4391 171.255 13.104H171.846ZM134.314 13.104C137.084 13.104 139.411 14.0247 141.302 15.8676C143.352 17.8613 144.376 20.5201 144.376 23.8403C144.376 27.2108 143.317 29.895 141.196 31.8866C139.297 33.6688 137.002 34.56 134.314 34.56C131.436 34.56 129.046 33.5745 127.147 31.5997C125.217 29.5847 124.251 26.9993 124.251 23.8403C124.251 20.5201 125.281 17.8572 127.341 15.8527C129.23 14.0206 131.555 13.105 134.314 13.104ZM134.314 14.2278C132.474 14.2278 130.914 15.0125 129.637 16.5814C128.366 18.1408 127.732 20.5603 127.732 23.8403C127.732 27.1098 128.366 29.5296 129.637 31.0985C130.905 32.6579 132.464 33.4362 134.314 33.4362C136.122 33.4362 137.668 32.6768 138.948 31.159C140.238 29.6304 140.882 27.1906 140.882 23.8403C140.882 20.4491 140.233 17.9995 138.933 16.4901C137.633 14.9818 136.093 14.2288 134.314 14.2278ZM75.3765 13.104V13.6665C74.1899 13.7254 73.4214 13.9178 73.0708 14.2425C72.7195 14.5576 72.5444 15.273 72.5444 16.3854V29.8492C72.5444 31.0215 72.7195 31.7504 73.0708 32.0356C73.4214 32.3119 74.1899 32.4938 75.3765 32.5826V33.1296H66.7515V32.5826C67.9371 32.4938 68.7066 32.3119 69.0569 32.0356C69.4085 31.7504 69.5837 31.0215 69.5837 29.8492V16.3854C69.5837 15.273 69.4085 14.5576 69.0569 14.2425C68.7066 13.9178 67.9371 13.7254 66.7515 13.6665V13.104H75.3765ZM40.3027 13.104C41.9789 13.104 43.3743 13.3261 44.4929 13.7688C46.6118 14.6069 47.6738 16.1483 47.6738 18.3949C47.6738 19.9031 47.201 21.061 46.2534 21.8685C45.3166 22.677 44.0381 23.2082 42.4179 23.4635L48.4128 31.1343C48.7813 31.6079 49.1499 31.953 49.5197 32.1691C49.8882 32.3862 50.3611 32.5237 50.9391 32.5826V33.1296H46.2534L39.3226 23.8191L37.7043 23.8918V29.8494C37.7043 30.9731 37.8655 31.6862 38.1882 31.9924C38.5188 32.2882 39.2332 32.4845 40.3309 32.5826V33.1296H32.2518V32.5826C33.3684 32.474 34.0635 32.2477 34.3388 31.9026C34.6122 31.5583 34.75 30.755 34.75 29.4939V16.3852C34.75 15.3204 34.5951 14.6267 34.2812 14.302C33.9785 13.9672 33.3027 13.7553 32.2518 13.6665V13.104H40.3027ZM39.4946 14.2576C38.669 14.2576 38.1632 14.3208 37.9745 14.4487C37.7938 14.5678 37.7043 14.853 37.7043 15.3069V22.7711C39.7974 22.6902 41.2923 22.4639 42.1925 22.0895C43.7352 21.43 44.5059 20.1886 44.5059 18.365C44.5059 16.6115 43.8156 15.4145 42.434 14.7744C41.6957 14.4293 40.7143 14.2586 39.4946 14.2576ZM102.689 0.230469L105.024 3.36359L103.703 10.9853L106.433 3.36359H109.876L102.689 14.5344L95.5013 3.36359H98.9443L101.677 10.9853L100.355 3.36359L102.689 0.230469Z" fill="#8F8F8F"/>
</g>
<defs>
<clipPath id="clip0_2301_21720">
<rect width="204" height="56" fill="white" transform="translate(0.626953 0.230469)"/>
</clipPath>
</defs>
</svg>
