<svg width="87" height="87" viewBox="0 0 87 87" fill="none" xmlns="http://www.w3.org/2000/svg">
<path fill-rule="evenodd" clip-rule="evenodd" d="M0.359375 0.111328H86.7654V86.5112H0.359375V0.111328ZM74.9068 67.6923H70.9342C70.9727 66.7209 70.3929 66.2354 69.1923 66.2354C68.0828 66.2354 67.5285 66.6132 67.5285 67.3674C67.5285 67.7967 67.9334 68.1352 68.7419 68.3827C69.4691 68.5696 70.1895 68.7582 70.9036 68.9452L70.9931 68.9687C73.1589 69.7365 74.2433 71.0185 74.2433 72.8144C74.2433 74.3894 73.5718 75.632 72.2302 76.5429C71.0459 77.35 69.6195 77.7529 67.9538 77.7529C66.1956 77.7529 64.7882 77.3621 63.7349 76.5801C62.5242 75.6821 61.958 74.3996 62.0359 72.7317H66.1998C66.1998 73.4601 66.3747 73.9858 66.7269 74.312C66.9874 74.5453 67.515 74.662 68.3112 74.662C68.7793 74.6615 69.1971 74.5515 69.5614 74.331C69.9786 74.0835 70.1861 73.7443 70.1861 73.3157C70.1861 72.8851 69.8666 72.5412 69.2277 72.2801C68.4307 72.0209 67.6296 71.7659 66.8206 71.5184C65.7889 71.1807 65.019 70.771 64.511 70.2894C63.8179 69.6389 63.4732 68.7865 63.4732 67.7324C63.4732 66.2626 64.0986 65.1035 65.3493 64.2576C66.444 63.5149 67.7727 63.1438 69.3361 63.1438C71.004 63.1438 72.3144 63.47 73.2646 64.1205C74.398 64.9019 74.9454 66.0923 74.9068 67.6923ZM52.113 63.4789L49.2046 77.4179H60.8822L61.6256 73.8354H54.2429L54.6144 72.1024H61.3319L62.0169 68.7756H55.3165L55.6867 67.0622H62.913L63.6353 63.4789H52.113ZM14.6316 72.5559L13.6169 77.4183H9.40095L12.2944 63.4793L19.3742 63.4799C20.8222 63.4799 21.9036 63.7201 22.6211 64.2016C23.4947 64.7876 23.9315 65.7643 23.9315 67.1304C23.9315 68.1451 23.637 68.9978 23.0469 69.6882C22.4575 70.3779 21.6592 70.8066 20.6506 70.9762V71.0155C21.2433 71.1858 21.649 71.5616 21.8681 72.1489C22.009 72.5383 22.081 73.1114 22.081 73.8663V75.1936C22.066 75.7139 22.066 76.1229 22.081 76.4247C22.119 76.8398 22.1881 77.1714 22.292 77.4183H18.1905C18.0738 77.1591 18.0148 76.702 18.0148 76.0523C18.0148 75.8305 18.0486 75.4622 18.1185 74.9481C18.1865 74.4339 18.2224 74.0595 18.2224 73.8249C18.2224 72.9791 17.6431 72.5559 16.484 72.5559H14.6316ZM19.6188 68.01C19.6188 67.2084 19.1371 66.8061 18.1726 66.8061L15.847 66.8059L15.2596 69.5625H17.5271C18.2047 69.5625 18.7331 69.4079 19.1115 69.0978C19.4498 68.8118 19.6188 68.4502 19.6188 68.01ZM36.3588 72.6963L38.2742 63.4794H33.9769L32.3756 71.1283C32.1809 72.0914 31.9198 72.8056 31.5936 73.2743C31.1507 73.937 30.5334 74.2686 29.7398 74.2686C28.9964 74.2686 28.5093 74.0148 28.2733 73.5075C28.1697 73.2871 28.118 72.9289 28.118 72.4345C28.118 72.2263 28.1893 71.778 28.3331 71.0882L29.9148 63.4794H25.618L23.7629 72.364C23.6577 72.8597 23.6062 73.2361 23.6062 73.4966C23.6062 74.7074 24.0682 75.6963 24.9927 76.4647C26.0473 77.3247 27.5578 77.7534 29.524 77.7534C33.3779 77.7534 35.6569 76.0681 36.3588 72.6963ZM40.7904 77.4178L41.6701 73.2051H44.5643C46.3501 73.2051 47.8158 72.6843 48.9629 71.6438C50.059 70.6406 50.6064 69.4172 50.6064 67.971C50.6064 66.4742 50.221 65.3414 49.4526 64.573C48.735 63.8446 47.7129 63.4796 46.3828 63.4796H39.4625L36.5487 77.4178H40.7904ZM44.4388 67.0619C45.6758 67.0619 46.2939 67.477 46.2939 68.3051C46.2939 69.3538 45.5322 69.8788 44.0081 69.8788H42.368L42.9738 67.0619H44.4388ZM76.4355 64.0585V64.5693H76.7339C76.9455 64.5693 77.1348 64.5543 77.1348 64.2999C77.1348 64.0971 76.9497 64.0585 76.7754 64.0585H76.4355ZM76.7224 64.7797H76.4355L76.4353 65.4947H76.1857V63.8471H76.8132C77.2026 63.8471 77.3951 63.991 77.3951 64.3172C77.3951 64.6115 77.2106 64.7398 76.9678 64.7695L77.4372 65.4945H77.1571L76.7224 64.7797ZM78.1814 64.6678C78.1814 65.4953 77.5159 66.1003 76.7374 66.1003C75.9505 66.1003 75.2853 65.4945 75.2853 64.6678C75.2853 63.8471 75.9505 63.2427 76.7374 63.2427C77.5161 63.2427 78.1814 63.8471 78.1814 64.6678ZM76.7374 63.4808C76.0836 63.4808 75.5729 63.9908 75.5729 64.6678C75.5729 65.3561 76.0836 65.8614 76.7374 65.8614C77.3844 65.8614 77.8938 65.3555 77.8938 64.6678C77.8938 63.991 77.3844 63.4802 76.7374 63.4808Z" fill="#8F8F8F"/>
</svg>
