<svg width="109" height="43" viewBox="0 0 109 43" fill="none" xmlns="http://www.w3.org/2000/svg">
<g clip-path="url(#clip0_2301_21806)">
<path d="M25.8484 12.6311C25.7893 12.6356 25.7483 12.6356 25.7028 12.6356C24.8884 12.6356 24.0694 12.6356 23.2549 12.6402C23.1366 12.6402 23.0956 12.6129 23.0729 12.49C22.8772 11.3616 22.6452 10.2377 22.3085 9.14573C21.9672 8.03097 21.5623 6.9435 20.8752 5.98344C20.1609 4.98698 19.2054 4.30903 18.0542 3.91772C16.5481 3.40812 15.0102 3.34441 13.4632 3.68567C11.716 4.06787 10.4329 5.06433 9.7185 6.7251C9.31809 7.65786 9.22254 8.64522 9.35904 9.65078C9.5911 11.3616 10.492 12.6766 11.8434 13.7049C13.172 14.715 14.6371 15.5021 16.125 16.2529C17.4672 16.9309 18.8322 17.5679 20.1563 18.2822C21.7579 19.1513 23.2594 20.1705 24.5471 21.4764C25.8939 22.8459 26.7493 24.4794 27.1952 26.3404C27.5501 27.8237 27.6366 29.3298 27.4955 30.8449C27.2498 33.4111 26.2579 35.6634 24.6199 37.6427C23.7918 38.6437 22.8545 39.5128 21.7352 40.1816C20.6659 40.8186 19.5239 41.2782 18.3272 41.6103C17.2625 41.9061 16.1796 42.0972 15.083 42.2155C13.8454 42.352 12.6032 42.402 11.3611 42.3884C9.8914 42.3702 8.43083 42.2655 6.97482 42.0562C5.2549 41.8105 3.54863 41.5011 1.86511 41.0689C1.3646 40.9415 0.873198 40.7913 0.354492 40.6457C1.05065 36.7145 1.74226 32.806 2.43842 28.8838H6.22861C6.13761 29.2979 6.03296 29.7074 5.9556 30.1215C5.69625 31.5365 5.6826 32.947 6.00565 34.353C6.35146 35.8591 7.19777 37.0057 8.49908 37.811C10.3419 38.9486 12.3302 39.3444 14.446 38.8166C16.5572 38.2888 17.9905 36.9556 18.6684 34.8945C19.2554 33.1017 19.1781 31.3045 18.3408 29.5846C17.8904 28.6609 17.2124 27.9101 16.4253 27.2595C15.4834 26.4814 14.4278 25.8854 13.3494 25.3212C12.1209 24.6796 10.8697 24.079 9.64115 23.4374C7.93488 22.5456 6.28776 21.5583 4.79989 20.3252C3.32568 19.1012 2.23366 17.6134 1.63761 15.7797C1.32365 14.806 1.1644 13.8095 1.13255 12.7858C1.08705 11.4526 1.23265 10.1422 1.60576 8.85453C2.08351 7.20741 2.92072 5.76504 4.06733 4.49103C5.83275 2.52996 8.06228 1.38334 10.5967 0.782736C11.8525 0.486983 13.1265 0.332281 14.4141 0.26858C15.6245 0.20943 16.8302 0.24128 18.036 0.350481C19.2281 0.459682 20.4111 0.650785 21.5805 0.901037C22.9819 1.20134 24.356 1.5972 25.721 2.034C25.8484 2.07495 25.8439 2.1523 25.8439 2.2524C25.8075 4.04512 25.7483 5.83784 25.7438 7.63056C25.7438 9.23218 25.8029 10.8338 25.8348 12.4354C25.8348 12.4991 25.8348 12.5583 25.8348 12.6402L25.8484 12.6311Z" fill="#8F8F8F"/>
<path d="M96.3336 35.5542C96.3336 35.6952 96.2881 35.7726 96.1744 35.859C95.3417 36.4687 94.4226 36.8828 93.3988 37.0466C92.0111 37.2695 90.6415 37.1558 89.3902 36.5051C86.9605 35.2448 85.2133 33.3474 84.3078 30.7357C83.9484 29.7073 83.8255 28.6381 83.8619 27.5506C83.9165 25.8262 84.3215 24.1836 85.0358 22.6229C85.6319 21.3216 86.4964 20.2432 87.7431 19.5016C88.4529 19.0875 89.2173 18.8418 90.0318 18.769C90.9873 18.6826 91.9292 18.7372 92.8437 19.042C93.9494 19.4106 94.7547 20.1295 95.3189 21.135C95.9104 22.1952 96.2153 23.3464 96.2562 24.5476C96.3245 26.445 96.3245 28.3423 96.3518 30.2443C96.3427 30.2443 96.3336 30.2443 96.3245 30.2443C96.3245 32.0142 96.32 33.7842 96.3291 35.5542H96.3336ZM107.895 36.7053C107.613 36.6143 107.304 36.5688 107.003 36.5643C106.43 36.5552 105.857 36.587 105.284 36.5961C105.183 36.6007 105.079 36.5916 104.983 36.5734C104.26 36.4278 103.773 35.991 103.482 35.3267C103.2 34.6851 103.154 33.998 103.154 33.3155C103.15 22.5137 103.154 11.7073 103.154 0.905526V0.655273C99.4185 1.25133 95.7057 1.84284 91.9792 2.43434C92.093 3.06225 92.2022 3.66741 92.3114 4.27711C92.3523 4.26801 92.3751 4.26801 92.3978 4.26346C92.8801 4.20431 93.3624 4.11331 93.8493 4.08601C94.3043 4.06326 94.7411 4.17246 95.1324 4.42727C95.6784 4.78672 95.9377 5.32818 96.1015 5.93333C96.3063 6.70229 96.3291 7.4849 96.3291 8.27206C96.3336 11.357 96.3336 14.4465 96.3336 17.5314V17.7453C96.2562 17.7043 96.2153 17.6816 96.1698 17.6588C95.8149 17.4768 95.4691 17.2721 95.1005 17.1219C93.7537 16.5804 92.3614 16.2528 90.9099 16.1982C89.3356 16.1391 87.7886 16.3165 86.2871 16.7943C84.0849 17.4905 82.3103 18.7781 80.9681 20.6527C79.7214 22.3954 79.0389 24.3565 78.734 26.4586C78.5293 27.8828 78.5202 29.3115 78.6931 30.7448C78.8705 32.2281 79.2345 33.6659 79.8078 35.0491C80.5904 36.9328 81.6961 38.5845 83.3068 39.8631C84.913 41.1371 86.7466 41.7695 88.8033 41.7559C90.0409 41.7468 91.2148 41.4419 92.3614 41.0006C93.8038 40.4455 95.1278 39.7129 96.2426 38.6254C96.2608 38.6072 96.2835 38.5981 96.3336 38.5663V41.7513C96.411 41.7513 96.4656 41.7559 96.5202 41.7513C97.2209 41.674 97.9307 41.6194 98.6268 41.5102C100.688 41.178 102.708 40.6684 104.669 39.9541C105.584 39.6219 106.48 39.2443 107.295 38.7028C107.7 38.4343 108.077 38.1295 108.287 37.6699C108.473 37.2559 108.328 36.8509 107.904 36.7144L107.895 36.7053Z" fill="#8F8F8F"/>
<path d="M39.8352 16.5711C40.9363 16.421 42.042 16.3802 43.1477 16.494C44.6809 16.6532 46.1051 17.1031 47.3244 18.0858C48.4937 19.0275 49.2492 20.238 49.6496 21.6756C49.8771 22.4946 49.9504 23.3322 49.9504 24.1785C49.955 27.8959 49.9452 31.6087 49.9543 35.326C49.9543 35.872 49.9958 36.4272 50.0686 36.9686C50.105 37.237 50.2228 37.5106 50.3547 37.7518C50.514 38.0337 50.8012 38.1157 51.0832 37.952C51.3288 37.8064 51.5423 37.6013 51.7561 37.4012C51.8926 37.2738 51.9933 37.1002 52.1252 36.9637C52.2798 36.8046 52.4575 36.6595 52.6985 36.7323C52.9529 36.8096 53.0345 37.0323 53.0891 37.2596C53.2028 37.7645 53.1352 38.2562 52.9533 38.7293C52.5666 39.7531 51.8293 40.4315 50.8283 40.8319C50.1049 41.1231 49.3629 41.3637 48.594 41.5184C47.0835 41.8232 45.7097 41.5094 44.4494 40.6405C43.8579 40.231 43.3347 39.7667 43.0071 39.116C42.9207 38.9433 42.8473 38.7571 42.761 38.5526L42.7658 38.5428C42.3017 39.1389 41.7418 39.608 41.1731 40.0721C40.0538 40.9957 38.77 41.4871 37.3322 41.6463C36.4225 41.7509 35.5174 41.7777 34.6076 41.7323C33.4019 41.6731 32.2182 41.487 31.0988 41.0047C29.4974 40.3222 28.4878 39.139 28.0783 37.451C27.8418 36.4728 27.8182 35.4809 27.9592 34.4891C28.0502 33.8704 28.1467 33.2426 28.3059 32.6375C28.547 31.7366 29.1292 31.0399 29.8117 30.4256C30.658 29.6659 31.6635 29.1883 32.719 28.8016C35.9767 27.6186 39.2389 26.44 42.5012 25.2616C42.6058 25.2252 42.6512 25.1796 42.6467 25.0614C42.6422 23.842 42.6516 22.6225 42.6379 21.4032C42.6288 20.7618 42.57 20.1247 42.3108 19.5243C41.965 18.7189 41.2589 18.3367 40.4035 18.5096C39.4118 18.7098 38.4564 19.0096 37.592 19.5555C36.3225 20.3563 35.6035 21.5078 35.4533 23.0047C35.417 23.3914 35.4266 23.7782 35.4221 24.1649C35.4221 24.2604 35.4034 24.315 35.3078 24.3514C33.5606 25.0794 31.8177 25.8122 30.0705 26.5448C30.0524 26.5537 30.0291 26.5579 29.9748 26.576C29.8975 26.2167 29.8071 25.8705 29.7571 25.5203C29.6252 24.6105 29.652 23.705 29.884 22.8133C30.107 21.9489 30.5119 21.1797 31.0852 20.5018C32.1134 19.2825 33.4149 18.4504 34.8752 17.8543C36.4677 17.2037 38.1335 16.8032 39.8352 16.5711ZM42.5383 27.8914C42.3472 28.0325 42.1646 28.1784 41.969 28.3104C41.2365 28.8108 40.4399 29.2062 39.6438 29.5975C38.5655 30.1298 37.4696 30.6176 36.4914 31.3319C35.4995 32.0599 34.7894 32.9881 34.4709 34.1893C34.3208 34.7533 34.2338 35.3219 34.3293 35.9041C34.3775 36.1999 34.4631 36.4779 34.5764 36.742C34.7631 37.1804 35.0294 37.5796 35.3401 37.9559C36.159 38.9523 37.1914 39.3615 38.4563 39.0203C40.0488 38.5881 41.4188 37.747 42.5881 36.5868C42.6381 36.5367 42.6516 36.4365 42.6516 36.3592C42.6561 33.5928 42.6565 30.8216 42.6565 28.0506V27.8455L42.6516 27.8368L42.6477 27.828C42.5933 27.8597 42.5655 27.8733 42.5383 27.8914Z" fill="#8F8F8F"/>
<path d="M65.8975 16.5125C67.1624 16.376 68.4227 16.3762 69.6739 16.6219C71.2118 16.9176 72.5721 17.5684 73.6505 18.7332C74.5376 19.6977 75.1017 20.8302 75.3702 22.1131C75.5158 22.8001 75.5665 23.4922 75.5665 24.1883C75.571 27.9102 75.5613 31.6276 75.5704 35.3494C75.5704 35.8863 75.6119 36.4284 75.6847 36.9608C75.7211 37.229 75.8393 37.5017 75.9757 37.7381C76.1349 38.0202 76.4221 38.0979 76.7042 37.9295C76.9452 37.7885 77.1587 37.588 77.3634 37.3924C77.518 37.2469 77.6274 37.0562 77.7774 36.9061C78.1505 36.5466 78.5332 36.6468 78.6788 37.1473C78.8333 37.6748 78.7607 38.1933 78.5743 38.6981C78.2057 39.6854 77.509 40.3634 76.5489 40.7684C75.7937 41.0868 75.0114 41.338 74.2061 41.5018C72.6956 41.8112 71.321 41.488 70.0606 40.619C69.4737 40.214 68.9546 39.7498 68.627 39.1082C68.5361 38.9309 68.464 38.7396 68.3731 38.535V38.5438C67.9182 39.1307 67.3719 39.5859 66.8214 40.0408C65.693 40.9827 64.3959 41.488 62.9444 41.6473C61.7479 41.7792 60.5514 41.7922 59.3595 41.6649C58.1082 41.5329 56.902 41.2324 55.8282 40.5408C54.5953 39.7446 53.8987 38.5938 53.6212 37.1697C53.4437 36.2644 53.4349 35.3498 53.5714 34.4354C53.6624 33.8303 53.7491 33.225 53.9083 32.6336C54.1494 31.7374 54.7272 31.0457 55.4005 30.4315C56.224 29.6853 57.1977 29.2066 58.2306 28.8289C61.5202 27.6277 64.8143 26.4403 68.1085 25.2527C68.2222 25.2118 68.2634 25.1617 68.2589 25.0389C68.2543 23.9152 68.2585 22.7915 68.254 21.6678C68.2494 21.0217 68.213 20.3755 68.0128 19.7567C67.8353 19.2016 67.508 18.7696 66.9483 18.5467C66.6799 18.4421 66.3977 18.4276 66.1202 18.4822C65.0828 18.6824 64.0816 18.9881 63.1807 19.5613C61.9344 20.3575 61.2196 21.4947 61.0694 22.9686C61.0285 23.3644 61.0469 23.7654 61.0333 24.1658C61.0286 24.2249 60.9878 24.3106 60.9425 24.3289C59.1771 25.0751 57.4119 25.8129 55.6466 26.5545H55.5958C55.5367 26.2998 55.4642 26.0358 55.4141 25.7674C55.1912 24.5253 55.2548 23.3058 55.7188 22.1229C56.0328 21.3221 56.5154 20.6304 57.1251 20.0252C58.3626 18.7877 59.8638 18.0045 61.5108 17.4676C62.9395 16.9989 64.396 16.6718 65.8975 16.5125ZM67.5811 28.3152C66.7849 28.8612 65.9202 29.2749 65.0557 29.6981C64.0502 30.194 63.026 30.6627 62.1114 31.327C61.9227 31.4648 61.7449 31.6107 61.5772 31.7635C60.8559 32.4182 60.3333 33.2149 60.0782 34.1981C59.9281 34.7668 59.8414 35.3409 59.9415 35.9324C60.0826 36.7376 60.4834 37.4111 61.002 38.0252C61.8573 39.035 62.9308 39.3626 64.1954 38.9852C65.6798 38.5444 66.9685 37.7607 68.088 36.6922C68.1025 36.6784 68.1175 36.6651 68.1319 36.6512C68.2274 36.5602 68.2637 36.4643 68.2638 36.3279C68.2592 33.5707 68.2589 30.8088 68.2589 28.0516V27.824L68.2638 27.8192C68.0135 28.0011 67.7995 28.1651 67.5811 28.3152Z" fill="#8F8F8F"/>
</g>
<defs>
<clipPath id="clip0_2301_21806">
<rect width="108" height="42.1565" fill="white" transform="translate(0.359375 0.232422)"/>
</clipPath>
</defs>
</svg>
