<svg width="184" height="57" viewBox="0 0 184 57" fill="none" xmlns="http://www.w3.org/2000/svg">
<path fill-rule="evenodd" clip-rule="evenodd" d="M62.1017 26.2429L60.275 30.503C63.707 31.9563 65.399 32.5364 69.5801 32.8656C75.9788 33.3734 83.2085 32.1272 85.2323 27.7043C86.5058 24.9229 85.5711 21.9031 82.4694 20.5122C78.2085 18.5947 67.2364 19.8963 65.4267 18.5335C64.8735 18.1146 64.7133 17.2323 65.2215 16.6256C66.1042 15.5653 69.1336 15.0391 71.6936 14.8882C76.3376 14.6202 80.4109 15.8148 83.1924 16.7865L84.8227 12.6507C83.1639 11.6082 78.448 10.6362 76.1505 10.4668C72.6122 10.2173 69.3399 10.3413 66.1212 11.3133C57.6626 13.8722 58.3413 20.5731 63.8483 22.6161C65.5587 23.2494 67.5656 23.3722 69.6067 23.428C72.2284 23.5081 75.9014 23.5439 78.3413 23.8372C79.4285 23.9697 80.3012 24.2919 80.5349 24.9413C80.8456 25.7975 80.3825 26.4404 79.9467 26.8308C79.02 27.6519 77.1133 28.1231 75.1253 28.3376C72.3442 28.6398 69.4296 28.4881 66.7121 27.7932C65.2573 27.4294 63.8856 26.9216 62.1017 26.2429ZM152.5 32.2323H158.179L160.595 28.0338H175.541L177.956 32.2323L183.627 32.2419L171.503 10.9846H164.615L152.5 32.2323ZM163.268 23.3722L172.868 23.3818L168.119 15.0483L163.268 23.3722ZM122.366 32.1977L127.722 32.2346V17.4375L143.097 32.2535L148.453 32.2439L148.444 10.9676L143.095 10.9957V25.7278L127.772 10.9676H122.375V32.2H122.366L122.366 32.1977ZM87.8166 32.2319H93.4954L95.9007 28.0334H110.849L113.263 32.2319L118.933 32.2416L106.81 10.9842H99.9194L87.8166 32.2319ZM98.5924 23.3718L108.194 23.3814L103.443 15.0479L98.5924 23.3718Z" fill="#8F8F8F"/>
<path fill-rule="evenodd" clip-rule="evenodd" d="M32.8347 20.9578L12.415 8.78157L24.102 0.411133L44.5217 12.5778L32.8347 20.9578Z" fill="#D3D3D3"/>
<path fill-rule="evenodd" clip-rule="evenodd" d="M44.5235 12.5762L32.8369 20.9632V26.3031L44.5235 17.923V12.5762Z" fill="#A8A8A8"/>
<path fill-rule="evenodd" clip-rule="evenodd" d="M44.5162 23.2715L32.7588 31.605L32.8296 47.6756L44.5162 39.2971V23.2715Z" fill="#A8A8A8"/>
<path fill-rule="evenodd" clip-rule="evenodd" d="M40.4596 20.8392L32.8398 26.3031L16.9266 16.8193L16.917 22.1593L32.8371 31.6434L44.5237 23.2722L40.4596 20.8392Z" fill="#8F8F8F"/>
<path fill-rule="evenodd" clip-rule="evenodd" d="M12.4143 35.5918L32.8343 47.6784L21.1412 56.0492L0.791992 43.9157L12.4143 35.5918Z" fill="#D3D3D3"/>
<path fill-rule="evenodd" clip-rule="evenodd" d="M0.791992 43.9143L12.4147 35.5901V30.1543L0.791992 38.4874V43.9143Z" fill="#A8A8A8"/>
<path fill-rule="evenodd" clip-rule="evenodd" d="M0.791992 33.1334L12.4147 24.8092V8.78125L0.791992 17.1066V33.1334Z" fill="#A8A8A8"/>
<path fill-rule="evenodd" clip-rule="evenodd" d="M4.94545 35.5007L12.4147 30.1543L28.3256 39.6473V34.2981L12.4147 24.8047L0.791992 33.1316L4.94545 35.5007Z" fill="#8F8F8F"/>
<path fill-rule="evenodd" clip-rule="evenodd" d="M28.323 39.6489L12.4121 30.1555V35.5917L32.8322 47.6786V31.6449L16.9136 22.1612L16.9228 16.8208L32.8322 26.305V20.957L12.4148 8.78223V24.809L28.3257 34.3024V39.6489H28.323Z" fill="white"/>
<path d="M63.6225 46.4369C63.1782 46.4369 62.769 46.3545 62.3971 46.1879C62.0237 46.0212 61.7199 45.7848 61.4824 45.4784L62.3274 44.4636C62.5088 44.7011 62.7009 44.8824 62.9022 45.0037C63.1035 45.1238 63.3183 45.1862 63.5489 45.1862C64.1688 45.1862 64.4794 44.8224 64.4794 44.0971V40.9692H62.17V39.748H65.9943V44.0132C65.9943 44.8266 65.7929 45.4356 65.393 45.8356C64.9876 46.236 64.3997 46.4369 63.6221 46.4369H63.6225Z" fill="#8F8F8F"/>
<path d="M67.9535 44.9138L68.3589 43.7592H71.7401L72.1547 44.9138H67.9535ZM66.4883 46.3232L69.4191 39.7471H70.922L73.8632 46.3232H72.2675L69.8606 40.5178H70.4635L68.0474 46.3247H66.4887V46.3232H66.4883Z" fill="#8F8F8F"/>
<path d="M78.268 39.2397C78.1056 39.2397 77.9616 39.21 77.8361 39.15C77.7094 39.0915 77.5978 39.0222 77.4973 38.9448C77.396 38.8663 77.3025 38.7981 77.2163 38.7381C77.1293 38.6795 77.0399 38.6488 76.9537 38.6488C76.8271 38.6488 76.7243 38.6957 76.6415 38.7858C76.5603 38.8782 76.5137 39.0087 76.5002 39.1754H75.7576C75.7684 38.7565 75.8735 38.4232 76.0683 38.1752C76.2631 37.9285 76.5256 37.8057 76.8579 37.8057C77.0192 37.8057 77.1643 37.8353 77.2898 37.8938C77.4149 37.9539 77.5296 38.0247 77.632 38.1048C77.7348 38.1872 77.8307 38.2553 77.9188 38.3154C78.0055 38.3754 78.0894 38.4047 78.1722 38.4047C78.3042 38.4047 78.4097 38.3596 78.4924 38.2676C78.5748 38.1756 78.6176 38.0528 78.626 37.8969H79.3686C79.3617 38.2973 79.2605 38.6222 79.0618 38.869C78.8659 39.1157 78.6006 39.2397 78.2684 39.2397H78.268ZM74.5469 46.322V39.7475H75.8053L79.6843 44.4811H79.0734V39.7475H80.5763V46.322H79.3267L75.4377 41.5888H76.0483V46.322H74.5469Z" fill="#8F8F8F"/>
<path d="M82.7391 44.9138L83.1444 43.7592H86.5256L86.9403 44.9138H82.7391ZM81.2754 46.3232L84.2077 39.7471H85.7103L88.6518 46.3232H87.0557L84.6462 40.5178H85.2491L82.833 46.3232H81.2758H81.2754Z" fill="#8F8F8F"/>
<path d="M93.1852 38.124H96.6611V38.9494H93.1852V38.124ZM94.9145 46.4359C93.9813 46.4359 93.2518 46.1761 92.7267 45.656C92.2001 45.1374 91.9375 44.3948 91.9375 43.4293V39.7467H93.4578V43.3747C93.4578 44.0014 93.5871 44.4522 93.8427 44.7282C94.0987 45.0058 94.4598 45.1428 94.9214 45.1428C95.3857 45.1428 95.7453 45.0058 96.0016 44.7282C96.2577 44.4533 96.3855 44.0014 96.3855 43.3747V39.7467H97.888V43.4293C97.888 44.3944 97.6255 45.1347 97.0988 45.656C96.5776 46.1761 95.848 46.4359 94.9145 46.4359Z" fill="#8F8F8F"/>
<path d="M103.576 46.322L101.932 43.9367H103.557L105.22 46.322H103.576ZM100.918 43.9937L100.241 43.2803H102.158C102.627 43.2803 102.978 43.1791 103.211 42.9766C103.441 42.7726 103.557 42.4908 103.557 42.1339C103.557 41.7713 103.441 41.4898 103.211 41.2885C102.978 41.0875 102.627 40.9886 102.158 40.9886H100.241L100.918 40.266V43.9937ZM99.3955 46.322V39.7471H102.242C102.83 39.7471 103.338 39.8429 103.764 40.0323C104.189 40.2244 104.519 40.4966 104.749 40.8535C104.98 41.2096 105.097 41.6361 105.097 42.132C105.097 42.6213 104.98 43.0413 104.749 43.3947C104.518 43.7481 104.189 44.0187 103.764 44.2054C103.338 44.3937 102.83 44.4868 102.242 44.4868H100.241L100.918 43.8201V46.3185H99.3955V46.3212V46.322Z" fill="#8F8F8F"/>
<path d="M110.114 42.9695C109.884 43.1709 109.532 43.2706 109.062 43.2706H107.822V40.9892H109.062C109.532 40.9892 109.884 41.0893 110.114 41.2883C110.345 41.4893 110.462 41.7711 110.462 42.1349C110.462 42.4895 110.345 42.7678 110.114 42.9695ZM111.656 40.8564C111.425 40.5003 111.096 40.2254 110.67 40.0353C110.245 39.8432 109.737 39.75 109.147 39.75H106.3V46.3245H107.823V44.5109H109.147C109.735 44.5109 110.243 44.4151 110.67 44.2257C111.096 44.0351 111.425 43.7602 111.656 43.4045C111.887 43.0473 112.004 42.6246 112.004 42.1353C112.004 41.6391 111.887 41.2137 111.656 40.8568V40.8564Z" fill="#8F8F8F"/>
<path d="M114.516 43.7591L115.564 41.2414L116.607 43.7591H114.516ZM116.323 39.748H114.82L111.888 46.3226H113.448L114.033 44.9136H117.081L117.665 46.3226H119.261L116.323 39.748Z" fill="#8F8F8F"/>
<path d="M125.192 47.8364C124.936 47.8364 124.693 47.8079 124.465 47.7521C124.236 47.6951 124.009 47.6054 123.788 47.4787C123.565 47.3532 123.332 47.1839 123.092 46.9721C122.852 46.7585 122.59 46.4959 122.308 46.1825L123.904 45.7776C124.074 46.0093 124.23 46.1933 124.373 46.3308C124.517 46.4678 124.657 46.5667 124.792 46.6214C124.927 46.6784 125.068 46.7069 125.22 46.7069C125.62 46.7069 125.976 46.544 126.289 46.2176L126.966 47.0241C126.522 47.5669 125.93 47.8364 125.192 47.8364ZM123.04 45.14C123.335 45.14 123.605 45.0892 123.852 44.9895C124.099 44.8883 124.316 44.7443 124.504 44.556C124.691 44.3693 124.837 44.1457 124.94 43.8839C125.043 43.624 125.096 43.3399 125.096 43.0331C125.096 42.7197 125.043 42.436 124.94 42.1785C124.837 41.9209 124.691 41.6999 124.504 41.5105C124.316 41.3223 124.099 41.1783 123.852 41.0786C123.605 40.9773 123.332 40.9265 123.04 40.9265C122.745 40.9265 122.473 40.9773 122.224 41.0786C121.972 41.1783 121.755 41.3223 121.572 41.5105C121.386 41.6972 121.243 41.9198 121.14 42.1785C121.036 42.4348 120.984 42.7197 120.984 43.0331C120.984 43.3399 121.036 43.624 121.14 43.8839C121.243 44.1453 121.386 44.3693 121.572 44.556C121.757 44.7443 121.974 44.8883 122.224 44.9895C122.473 45.0892 122.745 45.14 123.04 45.14ZM123.04 46.4359C122.525 46.4359 122.049 46.3519 121.608 46.1825C121.166 46.0132 120.786 45.776 120.463 45.4692C120.14 45.1624 119.888 44.8009 119.71 44.389C119.532 43.9759 119.442 43.5251 119.442 43.0358C119.442 42.5465 119.532 42.0953 119.71 41.6807C119.887 41.2676 120.14 40.9088 120.466 40.602C120.792 40.2956 121.173 40.058 121.613 39.8886C122.052 39.7193 122.528 39.6338 123.04 39.6338C123.559 39.6338 124.037 39.7193 124.472 39.8886C124.907 40.058 125.285 40.2929 125.608 40.5966C125.93 40.9007 126.182 41.2607 126.365 41.6714C126.545 42.0861 126.637 42.5392 126.637 43.0354C126.637 43.5243 126.545 43.9755 126.365 44.3936C126.184 44.8097 125.93 45.1708 125.608 45.4723C125.285 45.7764 124.907 46.0124 124.472 46.1818C124.037 46.3512 123.559 46.4351 123.04 46.4351V46.4359Z" fill="#8F8F8F"/>
<path d="M133.626 45.14C133.92 45.14 134.191 45.0892 134.438 44.9895C134.685 44.8883 134.902 44.7443 135.09 44.5576C135.277 44.3693 135.423 44.1484 135.526 43.8893C135.63 43.6333 135.682 43.3465 135.682 43.0331C135.682 42.7197 135.63 42.4375 135.526 42.1785C135.423 41.9224 135.279 41.6999 135.094 41.5105C134.909 41.3223 134.691 41.1783 134.442 41.0786C134.191 40.9773 133.919 40.9277 133.626 40.9277C133.331 40.9277 133.06 40.9773 132.814 41.0786C132.567 41.1783 132.35 41.3223 132.161 41.5105C131.975 41.6984 131.828 41.9198 131.726 42.1785C131.622 42.4345 131.57 42.7197 131.57 43.0331C131.57 43.3399 131.622 43.624 131.726 43.8839C131.828 44.1453 131.972 44.3693 132.158 44.5576C132.343 44.7443 132.56 44.8883 132.81 44.9895C133.06 45.0892 133.333 45.14 133.626 45.14ZM133.638 46.4374C133.118 46.4374 132.638 46.3519 132.194 46.1825C131.752 46.0132 131.371 45.776 131.048 45.4692C130.726 45.1624 130.474 44.8009 130.296 44.389C130.118 43.9759 130.028 43.5251 130.028 43.0354C130.028 42.5465 130.118 42.0953 130.296 41.6822C130.473 41.2676 130.725 40.9088 131.052 40.602C131.378 40.2956 131.759 40.058 132.199 39.8886C132.638 39.7193 133.114 39.6338 133.626 39.6338C134.144 39.6338 134.623 39.7193 135.058 39.8886C135.493 40.058 135.871 40.2952 136.194 40.602C136.516 40.9088 136.768 41.2676 136.951 41.6768C137.131 42.0861 137.223 42.5392 137.223 43.035C137.223 43.5243 137.131 43.9755 136.951 44.3936C136.77 44.8097 136.516 45.1708 136.194 45.4723C135.871 45.7776 135.493 46.0124 135.058 46.1818C134.626 46.3512 134.15 46.4366 133.638 46.4366V46.4374Z" fill="#8F8F8F"/>
<path d="M142.552 46.322L140.908 43.9367H142.534L144.196 46.322H142.552ZM139.892 43.9937L139.215 43.2803H141.132C141.6 43.2803 141.954 43.1791 142.184 42.9766C142.415 42.7726 142.532 42.4908 142.532 42.1339C142.532 41.7713 142.415 41.4898 142.184 41.2885C141.954 41.0875 141.6 40.9886 141.132 40.9886H139.215L139.892 40.266V43.9937ZM138.372 46.322V39.7471H141.219C141.807 39.7471 142.315 39.8429 142.74 40.0323C143.165 40.2244 143.495 40.4966 143.725 40.8535C143.956 41.2096 144.073 41.6361 144.073 42.132C144.073 42.6213 143.956 43.0413 143.725 43.3947C143.495 43.7481 143.165 44.0187 142.74 44.2054C142.315 44.3937 141.807 44.4868 141.219 44.4868H139.218L139.895 43.8201V46.3185H138.372V46.3212V46.322Z" fill="#8F8F8F"/>
<path d="M146.542 46.3226V40.9869H144.438V39.748H150.169V40.9869H148.065V46.3226H146.542Z" fill="#8F8F8F"/>
<path d="M151.261 44.9138L151.666 43.7592H155.047L155.462 44.9138H151.261ZM149.796 46.3232L152.727 39.7471H154.229L157.171 46.3232H155.575L153.167 40.5178H153.768L151.353 46.3247H149.796V46.3232Z" fill="#8F8F8F"/>
<path d="M157.854 46.3226V39.748H159.376V45.0826H162.673V46.3226H157.854Z" fill="#8F8F8F"/>
<path d="M164.486 46.3226V43.6359L164.834 44.5575L161.94 39.748H163.558L165.774 43.4388H164.843L167.07 39.748H168.563L165.67 44.5575L166.009 43.6359V46.3226H164.486Z" fill="#8F8F8F"/>
<path d="M173.364 45.4027V42.9335H174.755V45.6014L173.364 45.4027ZM172.059 39.2867C171.57 39.2867 171.164 39.1589 170.842 38.9029C170.519 38.6468 170.349 38.3004 170.33 37.8604H171.251C171.263 38.0671 171.347 38.2307 171.501 38.3493C171.654 38.4678 171.842 38.5279 172.059 38.5279C172.278 38.5279 172.466 38.4678 172.622 38.3493C172.777 38.2307 172.86 38.0682 172.866 37.8604H173.787C173.77 38.3004 173.598 38.6468 173.275 38.9029C172.953 39.1592 172.549 39.2867 172.06 39.2867H172.059ZM172.095 46.436C171.576 46.436 171.097 46.3548 170.663 46.1869C170.228 46.0202 169.849 45.7838 169.527 45.4786C169.204 45.1721 168.952 44.8106 168.775 44.3987C168.596 43.9853 168.507 43.5321 168.507 43.0363C168.507 42.5416 168.596 42.087 168.775 41.6723C168.952 41.2589 169.204 40.9001 169.531 40.5937C169.856 40.2868 170.238 40.0493 170.678 39.8841C171.117 39.7175 171.599 39.6347 172.124 39.6347C172.708 39.6347 173.232 39.7305 173.698 39.9253C174.164 40.1201 174.558 40.4015 174.878 40.7719L173.901 41.6723C173.664 41.424 173.403 41.2362 173.122 41.1149C172.84 40.9936 172.534 40.9324 172.2 40.9324C171.88 40.9324 171.589 40.9817 171.327 41.083C171.063 41.183 170.838 41.327 170.646 41.5149C170.452 41.7031 170.307 41.9241 170.204 42.1832C170.1 42.4392 170.048 42.7245 170.048 43.0378C170.048 43.3443 170.1 43.6261 170.204 43.8844C170.307 44.1408 170.452 44.3644 170.646 44.5566C170.838 44.7487 171.062 44.8942 171.321 44.9939C171.583 45.094 171.868 45.1448 172.182 45.1448C172.482 45.1448 172.773 45.0967 173.06 44.9981C173.346 44.9023 173.623 44.7383 173.893 44.505L174.758 45.6048C174.4 45.8743 173.984 46.0807 173.512 46.2246C173.038 46.3632 172.566 46.4368 172.095 46.4368V46.436Z" fill="#8F8F8F"/>
<path d="M177.799 46.3226V43.6359L178.147 44.5575L175.254 39.748H176.871L179.087 43.4388H178.157L180.383 39.748H181.877L178.983 44.5575L179.322 43.6359V46.3226H177.799Z" fill="#8F8F8F"/>
</svg>
