<svg width="183" height="40" viewBox="0 0 183 40" fill="none" xmlns="http://www.w3.org/2000/svg">
<g clip-path="url(#clip0_2301_21725)">
<path d="M0.626953 7.68832C0.704886 7.25184 0.760552 6.80869 0.867431 6.3789C1.42855 4.12748 2.91595 2.6978 4.98228 1.7959C6.31604 1.21245 7.72773 0.927405 9.1706 0.802698C12.7934 0.488703 16.2781 1.02984 19.6047 2.51965C19.8162 2.61318 19.9075 2.71562 19.9053 2.96058C19.8942 5.06056 19.8985 7.16054 19.8985 9.26052C19.8985 9.34738 19.8897 9.43422 19.8853 9.52552C19.7382 9.52998 19.647 9.43645 19.5401 9.38523C16.5519 7.93106 13.4124 7.12269 10.0746 7.14941C9.6471 7.15386 9.22626 7.21621 8.83883 7.41441C8.30221 7.68832 8.24209 8.17156 8.69187 8.57018C9.02587 8.86413 9.43557 9.02001 9.84528 9.167C11.326 9.70145 12.8513 10.0978 14.352 10.5766C15.8261 11.0466 17.2467 11.6322 18.527 12.5229C20.1257 13.6364 21.1923 15.1039 21.4105 17.0725C21.7289 19.9564 20.7491 22.2925 18.3421 23.976C16.9105 24.9781 15.3005 25.537 13.5883 25.7619C10.0768 26.2252 6.63 25.9557 3.2878 24.7153C2.35261 24.368 1.46417 23.927 0.62918 23.3791V16.1395C2.00525 17.2106 3.55945 17.9254 5.20717 18.4622C7.31357 19.1458 9.45116 19.6357 11.6867 19.4954C12.2456 19.4598 12.8045 19.3974 13.2966 19.0923C13.8533 18.7494 13.8778 18.1749 13.3656 17.7763C13.1251 17.5892 12.8535 17.4578 12.5752 17.342C11.4061 16.861 10.1971 16.5002 8.99024 16.1373C7.25346 15.6161 5.54117 15.0371 3.99587 14.0618C2.48175 13.1042 1.32835 11.8615 0.876338 10.0756C0.767232 9.64578 0.711566 9.20262 0.631406 8.76615V7.69277" fill="#8F8F8F"/>
<path d="M101.108 13.3495C101.108 9.42782 101.111 5.50623 101.102 1.58463C101.102 1.2929 101.16 1.18824 101.482 1.19046C104.849 1.20383 108.216 1.18378 111.582 1.20605C114.11 1.22387 116.546 1.69375 118.773 2.94527C121.801 4.64886 123.923 7.09402 124.622 10.5613C125.348 14.1623 124.902 17.585 122.576 20.5647C120.612 23.081 117.98 24.5508 114.865 25.1833C113.712 25.4171 112.542 25.5173 111.365 25.5173C108.065 25.5173 104.764 25.5128 101.465 25.5262C101.155 25.5262 101.102 25.4327 101.104 25.1499C101.113 21.2171 101.111 17.2844 101.111 13.3516M108.566 13.3561V18.2486C108.566 19.0993 108.566 19.1037 109.414 19.0971C110.61 19.0904 111.808 19.1617 112.988 18.8878C114.762 18.478 116.123 17.5583 116.804 15.8057C117.154 14.9082 117.26 13.964 117.212 13.0088C117.058 9.98455 115.452 8.21416 112.465 7.73537C111.285 7.54608 110.098 7.64852 108.915 7.61066C108.639 7.60175 108.557 7.67524 108.559 7.95806C108.573 9.75741 108.566 11.5545 108.566 13.3539" fill="#8F8F8F"/>
<path d="M61.0494 25.9697C57.5936 25.9563 54.6656 25.1057 52.1985 22.97C48.9587 20.1664 47.547 16.6122 47.7941 12.3454C48.1192 6.72913 52.5948 1.85887 58.1414 0.948065C61.8999 0.33121 65.4649 0.827811 68.6066 3.14381C71.3031 5.13244 73.0688 7.75129 73.6232 11.0961C74.9303 18.9906 69.484 24.8385 63.3451 25.7714C62.5035 25.8985 61.6573 25.9586 61.0494 25.9697ZM55.3982 13.3565C55.3937 13.9399 55.4494 14.5189 55.6052 15.0823C56.1464 17.0375 57.2997 18.4672 59.306 19.0017C61.3144 19.5361 63.1536 19.1397 64.6366 17.6009C66.4179 15.7526 66.7229 12.381 65.3691 10.1051C63.3762 6.75364 58.825 6.78703 56.7475 9.38362C55.8079 10.555 55.4093 11.8844 55.3982 13.3586" fill="#8F8F8F"/>
<path d="M21.822 1.20004H22.2852C24.7679 1.20004 27.2528 1.20449 29.7356 1.19336C29.9894 1.19336 30.0962 1.26907 30.1808 1.51181C31.7774 6.0948 33.3849 10.6733 34.9926 15.2519C35.0371 15.3766 35.0861 15.4991 35.1596 15.6905C35.478 14.7953 35.7742 13.9691 36.0659 13.1429C37.433 9.27261 38.8002 5.40223 40.1585 1.5274C40.2475 1.2713 40.3611 1.19336 40.6305 1.19336C43.0575 1.20449 45.4846 1.20004 47.9139 1.20004H48.2457C48.2768 1.33811 48.2056 1.43387 48.1654 1.53408C45.0037 9.58215 41.8396 17.628 38.6822 25.6783C38.5953 25.8987 38.4907 25.9811 38.248 25.979C36.0993 25.9678 33.9528 25.97 31.8041 25.979C31.5747 25.979 31.4523 25.9255 31.361 25.6917C28.2103 17.628 25.0507 9.56656 21.8932 1.50735C21.8577 1.41605 21.7998 1.3292 21.8242 1.20227" fill="#8F8F8F"/>
<path d="M72.9258 1.19981H73.2599C75.8427 1.19981 78.4279 1.20204 81.0108 1.19536C81.2401 1.19536 81.3715 1.26662 81.4917 1.46259C82.7676 3.53585 84.0524 5.60243 85.3371 7.67123C85.4062 7.7848 85.4797 7.89615 85.5532 8.01195C85.6935 7.93846 85.7357 7.80485 85.8025 7.69796C87.1096 5.63137 88.4143 3.56257 89.7103 1.48709C89.8461 1.26885 89.9886 1.19313 90.2447 1.19536C92.7385 1.20649 95.2324 1.20204 97.7285 1.20204H98.0624C98.0424 1.3891 97.931 1.49154 97.8554 1.60957C95.0542 5.86297 92.2531 10.1164 89.4454 14.3653C89.2917 14.5992 89.2182 14.8263 89.2182 15.1091C89.2271 18.5942 89.2182 22.0794 89.2316 25.5667C89.2316 25.8629 89.158 25.9363 88.8642 25.9342C86.6264 25.9208 84.3909 25.9186 82.153 25.9342C81.8146 25.9363 81.7545 25.8273 81.7567 25.52C81.7678 22.1017 81.7612 18.6834 81.7678 15.265C81.7678 15.0067 81.7033 14.7951 81.563 14.5791C78.7596 10.2478 75.963 5.91197 73.1641 1.57616C73.0973 1.47372 73.0349 1.37129 72.9258 1.20204" fill="#8F8F8F"/>
<path d="M152.973 13.3835C152.973 17.2828 152.97 21.1799 152.983 25.0793C152.983 25.4266 152.883 25.5024 152.549 25.5024C144.754 25.4934 136.957 25.4957 129.162 25.4957C128.861 25.4957 128.71 25.342 128.71 25.0347C128.71 17.2717 128.71 9.50642 128.71 1.7434C128.71 1.41381 128.876 1.24902 129.209 1.24902C136.971 1.24902 144.733 1.24902 152.495 1.24902C152.814 1.24902 152.973 1.40713 152.973 1.72335C152.973 5.61155 152.973 9.49752 152.973 13.3857M140.85 17.9754C142.27 17.9754 143.691 17.9687 145.112 17.9821C145.381 17.9843 145.448 17.8997 145.448 17.6413C145.439 14.782 145.439 11.9226 145.448 9.06327C145.448 8.81608 145.379 8.73591 145.127 8.73591C142.264 8.74259 139.401 8.74259 136.536 8.73591C136.272 8.73591 136.19 8.81831 136.192 9.08108C136.199 11.9293 136.201 14.7775 136.192 17.6258C136.192 17.9086 136.286 17.9843 136.557 17.9821C137.988 17.9709 139.42 17.9776 140.852 17.9776" fill="#8F8F8F"/>
<path d="M174.96 11.9776C174.642 12.512 174.322 13.0487 174.004 13.5832C173.258 14.8414 172.504 16.0951 171.771 17.36C171.633 17.5983 171.478 17.6673 171.214 17.6651C170.108 17.6517 168.999 17.6517 167.892 17.6651C167.65 17.6673 167.511 17.5916 167.387 17.3845C166.338 15.6698 165.28 13.9617 164.22 12.2536C164.161 12.1557 164.129 12.0287 163.956 11.9508V25.0273C163.956 25.3198 163.813 25.466 163.528 25.466C161.393 25.466 159.255 25.4615 157.12 25.4726C156.83 25.4726 156.743 25.4059 156.743 25.1029C156.752 17.2487 156.752 9.39654 156.743 1.54221C156.743 1.22153 156.846 1.15918 157.14 1.16141C159.366 1.17254 161.591 1.17031 163.817 1.16141C164.06 1.16141 164.196 1.23712 164.323 1.44422C165.955 4.11207 167.594 6.77323 169.235 9.4344C169.303 9.54575 169.35 9.67713 169.471 9.75952C169.593 9.68604 169.638 9.55242 169.705 9.44331C171.346 6.7955 172.989 4.1477 174.619 1.49322C174.774 1.23712 174.944 1.15918 175.233 1.15918C177.427 1.17031 179.617 1.17031 181.811 1.15918C182.1 1.15918 182.207 1.2104 182.207 1.53553C182.197 9.38986 182.199 17.2419 182.207 25.0963C182.207 25.388 182.14 25.4726 181.84 25.4704C179.704 25.457 177.567 25.457 175.431 25.4704C175.131 25.4704 175.038 25.4014 175.038 25.0829C175.049 20.8496 175.044 16.6139 175.044 12.3807V11.9864C175.017 11.982 174.991 11.9753 174.964 11.9708" fill="#8F8F8F"/>
<path d="M0.626953 33.0827C0.626953 32.4903 0.73297 31.9601 0.943322 31.4923C1.15367 31.0244 1.4347 30.6541 1.78473 30.3798C2.13475 30.1055 2.5218 29.8985 2.94418 29.7605C3.36657 29.6208 3.81083 29.5518 4.27865 29.5518C5.02414 29.5518 5.68885 29.7083 6.27278 30.023V31.6674C5.76963 31.3442 5.1941 31.1827 4.5479 31.1827C3.98248 31.1827 3.50624 31.3308 3.1192 31.627C2.73215 31.9231 2.54031 32.3776 2.54031 32.9885C2.54031 33.5994 2.73383 34.0186 3.1192 34.3299C3.50456 34.6395 3.97239 34.7944 4.52098 34.7944C5.21261 34.7944 5.81843 34.6379 6.34009 34.3231V35.9809C5.66698 36.2687 4.93832 36.4117 4.15749 36.4117C3.18651 36.4117 2.35688 36.1273 1.66524 35.5568C0.973613 34.9862 0.626953 34.1616 0.626953 33.0845V33.0827Z" fill="#8F8F8F"/>
<path d="M10.6376 34.1206L12.2413 29.7549H14.1816L11.3124 37.0053C10.6746 38.5773 9.74403 39.3632 8.52399 39.3632C8.26316 39.3632 7.92659 39.3144 7.51263 39.2152V37.6651C7.8088 37.7274 8.06458 37.7593 8.27998 37.7593C8.96321 37.7593 9.47479 37.2881 9.81639 36.3439L9.82985 36.317L6.77051 29.7549H8.75118L10.6376 34.1206Z" fill="#8F8F8F"/>
<path d="M16.9843 36.2228H15.1113V29.7549H21.4707V36.2228H19.5977V31.3319H16.9843V36.2228Z" fill="#8F8F8F"/>
<path d="M22.6973 32.9877C22.6973 32.4038 22.8 31.8854 23.0069 31.4309C23.2139 30.9765 23.4848 30.6197 23.8214 30.3588C24.158 30.098 24.5131 29.9011 24.8866 29.7664C25.2585 29.6318 25.6389 29.5645 26.0259 29.5645C26.6721 29.5645 27.2325 29.6856 27.7036 29.928C28.1749 30.1703 28.5232 30.4834 28.7487 30.8654C28.9724 31.2475 29.1273 31.6783 29.2131 32.1597C29.299 32.641 29.2737 33.1189 29.1391 33.5953H24.5854C24.6847 34.0446 24.9438 34.3796 25.3662 34.6C25.7886 34.8205 26.2867 34.9299 26.8622 34.9299C27.5724 34.9299 28.2237 34.8003 28.816 34.5395V36.0087C28.1782 36.278 27.3873 36.4127 26.4449 36.4127C25.3662 36.4127 24.4727 36.1114 23.7642 35.5105C23.0541 34.908 22.6989 34.0682 22.6989 32.9911L22.6973 32.9877ZM27.4529 32.3818C27.4983 32.0856 27.4125 31.7793 27.1972 31.4663C26.9817 31.1515 26.6132 30.995 26.0916 30.995C25.6775 30.995 25.3241 31.1178 25.0263 31.3653C24.7301 31.6127 24.577 31.951 24.5686 32.3835H27.4513L27.4529 32.3818Z" fill="#8F8F8F"/>
<path d="M32.0619 30.6971C32.5919 29.9431 33.3728 29.5645 34.406 29.5645C35.3854 29.5645 36.1561 29.8994 36.7165 30.5692C37.2785 31.2391 37.5579 32.0452 37.5579 32.9877C37.5579 33.9302 37.2768 34.738 36.7165 35.4062C36.1545 36.0761 35.3854 36.4093 34.406 36.4093C33.5174 36.4093 32.8073 36.1182 32.2772 35.5341V39.1863H30.4043V29.753H32.0619V30.6954V30.6971ZM35.1885 34.3022C35.4931 33.947 35.6462 33.5094 35.6462 32.9877C35.6462 32.4659 35.4931 32.0284 35.1885 31.6733C34.8822 31.3182 34.47 31.1415 33.9482 31.1415C33.5612 31.1415 33.2179 31.2441 32.9167 31.4511C32.6155 31.6581 32.3984 31.914 32.2637 32.2186V33.7552C32.3984 34.0615 32.6155 34.3173 32.9167 34.5226C33.2179 34.7296 33.5612 34.8323 33.9482 34.8323C34.4682 34.8323 34.8822 34.6556 35.1885 34.3005V34.3022Z" fill="#8F8F8F"/>
<path d="M40.6043 36.2228H38.7852V29.7549H40.5773L42.585 32.9627L44.606 29.7549H46.3848V36.2228H44.5791V32.409L43.0561 34.8208H42.1272L40.6043 32.409V36.2228Z" fill="#8F8F8F"/>
<path d="M53.7553 34.5515C53.7553 34.8393 53.9084 34.9824 54.213 34.9824C54.3393 34.9824 54.4553 34.9639 54.563 34.9285V36.1555C54.2214 36.2817 53.8764 36.344 53.5248 36.344C52.8415 36.344 52.3653 36.1016 52.0961 35.6169C51.4229 36.1471 50.6455 36.4112 49.7654 36.4112C49.1276 36.4112 48.5908 36.2345 48.1549 35.8794C47.7191 35.5243 47.502 35.0413 47.502 34.4303C47.502 33.9187 47.6551 33.4912 47.9597 33.1496C48.2643 32.8079 48.6194 32.5773 49.0249 32.4562C49.4288 32.335 49.8697 32.2744 50.3459 32.2744C50.876 32.2744 51.3876 32.3333 51.8824 32.4494V32.2205C51.8824 31.889 51.7528 31.6231 51.492 31.4261C51.2311 31.2292 50.8542 31.13 50.3594 31.13C49.6408 31.13 48.8768 31.2915 48.0691 31.6147V29.9973C48.9307 29.7095 49.767 29.5664 50.5748 29.5664C52.6952 29.5664 53.7553 30.5409 53.7553 32.4915V34.5532V34.5515ZM50.7784 33.3919C50.3913 33.3919 50.0683 33.4642 49.8074 33.6074C49.5466 33.7504 49.417 33.9759 49.417 34.2806C49.417 34.5145 49.5129 34.7047 49.7065 34.8528C49.9 35.0008 50.139 35.0749 50.4267 35.0749C50.9921 35.0749 51.4785 34.8999 51.8824 34.5498V33.54C51.4683 33.4407 51.1016 33.3919 50.7768 33.3919H50.7784Z" fill="#8F8F8F"/>
<path d="M57.2181 30.6971C57.7482 29.9431 58.529 29.5645 59.5623 29.5645C60.5417 29.5645 61.3124 29.8994 61.8728 30.5692C62.4349 31.2391 62.7142 32.0452 62.7142 32.9877C62.7142 33.9302 62.4332 34.738 61.8728 35.4062C61.3107 36.0761 60.5417 36.4093 59.5623 36.4093C58.6738 36.4093 57.9636 36.1182 57.4336 35.5341V39.1863H55.5605V29.753H57.2181V30.6954V30.6971ZM60.3448 34.3022C60.6494 33.947 60.8025 33.5094 60.8025 32.9877C60.8025 32.4659 60.6494 32.0284 60.3448 31.6733C60.0385 31.3182 59.6262 31.1415 59.1046 31.1415C58.7175 31.1415 58.3742 31.2441 58.073 31.4511C57.7717 31.6581 57.5547 31.914 57.4201 32.2186V33.7552C57.5547 34.0615 57.7717 34.3173 58.073 34.5226C58.3742 34.7296 58.7175 34.8323 59.1046 34.8323C59.6245 34.8323 60.0385 34.6556 60.3448 34.3005V34.3022Z" fill="#8F8F8F"/>
<path d="M65.8143 36.2228H63.9414V29.7549H65.8143V32.1667H66.5952L68.2393 29.7549H70.3412L68.1182 32.9492L70.5296 36.2244H68.4277L66.5683 33.6645H65.8143V36.2244V36.2228Z" fill="#8F8F8F"/>
<path d="M70.624 32.9877C70.624 32.4038 70.7266 31.8854 70.9337 31.4309C71.1407 30.9765 71.4116 30.6197 71.7482 30.3588C72.0847 30.098 72.4397 29.9011 72.8133 29.7664C73.1853 29.6318 73.5655 29.5645 73.9526 29.5645C74.5988 29.5645 75.1592 29.6856 75.6304 29.928C76.1016 30.1703 76.4499 30.4834 76.6755 30.8654C76.8992 31.2475 77.054 31.6783 77.1399 32.1597C77.2257 32.641 77.2005 33.1189 77.0658 33.5953H72.5122C72.6115 34.0446 72.8705 34.3796 73.293 34.6C73.7154 34.8205 74.2135 34.9299 74.789 34.9299C75.4991 34.9299 76.1503 34.8003 76.7427 34.5395V36.0087C76.1049 36.278 75.314 36.4127 74.3716 36.4127C73.293 36.4127 72.3994 36.1114 71.691 35.5105C70.9807 34.908 70.6257 34.0682 70.6257 32.9911L70.624 32.9877ZM75.3797 32.3818C75.4251 32.0856 75.3393 31.7793 75.1238 31.4663C74.9085 31.1515 74.5399 30.995 74.0182 30.995C73.6043 30.995 73.2509 31.1178 72.953 31.3653C72.6568 31.6127 72.5037 31.951 72.4953 32.3835H75.3779L75.3797 32.3818Z" fill="#8F8F8F"/>
<path d="M81.5919 36.2228H79.7324V31.3319H77.6709V29.7549H83.6533V31.3319H81.5919V36.2228Z" fill="#8F8F8F"/>
<path d="M89.5282 36.2228H87.6553V29.7549H89.5282V32.2071H92.1416V29.7549H94.0146V36.2228H92.1416V33.7706H89.5282V36.2228Z" fill="#8F8F8F"/>
<path d="M95.2412 32.9877C95.2412 32.4038 95.3438 31.8854 95.5509 31.4309C95.7578 30.9765 96.0287 30.6197 96.3654 30.3588C96.7019 30.098 97.0569 29.9011 97.4305 29.7664C97.8025 29.6318 98.1827 29.5645 98.5702 29.5645C99.2165 29.5645 99.7768 29.6856 100.247 29.928C100.719 30.1703 101.067 30.4834 101.293 30.8654C101.516 31.2475 101.672 31.6783 101.757 32.1597C101.843 32.641 101.817 33.1189 101.683 33.5953H97.1294C97.2286 34.0446 97.4877 34.3796 97.9102 34.6C98.333 34.8205 98.8309 34.9299 99.4059 34.9299C100.117 34.9299 100.768 34.8003 101.36 34.5395V36.0087C100.722 36.278 99.9311 36.4127 98.989 36.4127C97.9102 36.4127 97.0166 36.1114 96.3081 35.5105C95.5979 34.908 95.2429 34.0682 95.2429 32.9911L95.2412 32.9877ZM99.9965 32.3818C100.042 32.0856 99.9565 31.7793 99.7407 31.4663C99.5259 31.1515 99.1569 30.995 98.6356 30.995C98.2215 30.995 97.8681 31.1178 97.5702 31.3653C97.274 31.6127 97.1209 31.951 97.1125 32.3835H99.9955L99.9965 32.3818Z" fill="#8F8F8F"/>
<path d="M104.08 37.935H102.354V34.7945H103.257C103.93 33.6265 104.244 31.9468 104.199 29.7539H109.522V34.7945H110.492V37.935H108.767V36.2234H104.08V37.935ZM105.926 31.1827C105.872 32.6571 105.63 33.8605 105.198 34.7945H107.664V31.1827H105.926Z" fill="#8F8F8F"/>
<path d="M115.614 36.2228H111.652V29.7549H115.506C116.225 29.7549 116.76 29.9199 117.11 30.2463C117.46 30.5745 117.635 30.9802 117.635 31.4665C117.635 32.2037 117.302 32.6968 116.637 32.9492C117.4 33.2017 117.783 33.7083 117.783 34.4724C117.783 34.984 117.613 35.4048 117.272 35.733C116.93 36.0612 116.377 36.2244 115.614 36.2244V36.2228ZM113.512 31.0341V32.409H114.94C115.479 32.409 115.749 32.1852 115.749 31.7359C115.749 31.2865 115.474 31.0357 114.927 31.0357H113.512V31.0341ZM113.526 33.54V34.9419H115.061C115.637 34.9419 115.923 34.7131 115.923 34.2553C115.923 33.7975 115.635 33.5417 115.061 33.5417H113.526V33.54Z" fill="#8F8F8F"/>
<path d="M120.681 36.2228H119.05V29.7549H120.923V33.3936L123.806 29.7549H125.423V36.2228H123.563V32.584L120.679 36.2228H120.681Z" fill="#8F8F8F"/>
<path d="M136.795 36.2234H134.787L133.184 33.8117H132.457V36.2234H130.584V33.8117H129.857L128.253 36.2234H126.246L128.482 32.9752L126.435 29.7539H128.428L129.978 32.3272H130.584V29.7539H132.457V32.3272H133.063L134.612 29.7539H136.607L134.559 32.9752L136.795 36.2234Z" fill="#8F8F8F"/>
<path d="M139.248 36.2228H137.616V29.7549H139.49V33.3936L142.372 29.7549H143.989V36.2228H142.129V32.584L139.246 36.2228H139.248Z" fill="#8F8F8F"/>
<path d="M147.399 36.2228H145.579V29.7549H147.371L149.379 32.9627L151.4 29.7549H153.179V36.2228H151.373V32.409L149.85 34.8208H148.922L147.399 32.409V36.2228Z" fill="#8F8F8F"/>
<path d="M155.442 35.5095C154.75 34.9069 154.403 34.0671 154.403 32.99C154.403 31.9128 154.748 31.0713 155.442 30.4705C156.133 29.868 156.978 29.5684 157.974 29.5684C158.97 29.5684 159.827 29.8696 160.514 30.4705C161.2 31.073 161.546 31.9128 161.546 32.99C161.546 34.0671 161.202 34.9086 160.514 35.5095C159.827 36.1119 158.979 36.4115 157.974 36.4115C156.97 36.4115 156.133 36.1103 155.442 35.5095ZM159.201 34.2489C159.497 33.9206 159.646 33.5016 159.646 32.9882C159.646 32.4749 159.497 32.0559 159.201 31.7277C158.905 31.3995 158.496 31.2363 157.974 31.2363C157.453 31.2363 157.047 31.3995 156.754 31.7277C156.461 32.0559 156.317 32.4749 156.317 32.9882C156.317 33.5016 156.463 33.9206 156.754 34.2489C157.045 34.5771 157.453 34.7403 157.974 34.7403C158.496 34.7403 158.903 34.5771 159.201 34.2489Z" fill="#8F8F8F"/>
<path d="M162.409 33.0827C162.409 32.4903 162.516 31.9601 162.725 31.4923C162.936 31.0244 163.218 30.6541 163.567 30.3798C163.917 30.1055 164.304 29.8985 164.727 29.7605C165.149 29.6208 165.594 29.5518 166.061 29.5518C166.806 29.5518 167.471 29.7083 168.055 30.023V31.6674C167.552 31.3442 166.977 31.1827 166.331 31.1827C165.765 31.1827 165.289 31.3308 164.902 31.627C164.515 31.9231 164.323 32.3776 164.323 32.9885C164.323 33.5994 164.516 34.0186 164.902 34.3299C165.287 34.6395 165.755 34.7944 166.303 34.7944C166.996 34.7944 167.601 34.6379 168.122 34.3231V35.9809C167.45 36.2687 166.721 36.4117 165.94 36.4117C164.969 36.4117 164.139 36.1273 163.448 35.5568C162.756 34.9862 162.409 34.1616 162.409 33.0845V33.0827Z" fill="#8F8F8F"/>
<path d="M172.757 36.2228H170.897V31.3319H168.835V29.7549H174.817V31.3319H172.757V36.2228Z" fill="#8F8F8F"/>
<path d="M177.459 36.2228H175.829V29.7549H177.703V33.3936L180.584 29.7549H182.202V36.2228H180.342V32.584L177.458 36.2228H177.459Z" fill="#8F8F8F"/>
</g>
<defs>
<clipPath id="clip0_2301_21725">
<rect width="181.581" height="39.0497" fill="white" transform="translate(0.626953 0.705078)"/>
</clipPath>
</defs>
</svg>
