<svg width="121" height="65" viewBox="0 0 121 65" fill="none" xmlns="http://www.w3.org/2000/svg">
<g clip-path="url(#clip0_2301_21756)">
<path d="M109.324 2.19922H94.1303L91.4326 17.393H111.433L120.208 2.19922H109.324Z" fill="#828282"/>
<path d="M15.4015 17.3926L12.7348 32.6174L10.0371 47.8112H25.2619L27.9286 32.6174L30.6263 17.3926H15.4015Z" fill="#A1A1A1"/>
<path d="M45.8204 17.3926L43.1537 32.6174L40.4561 47.8112H55.6809L58.3475 32.6174L61.0142 17.3926H45.8204Z" fill="#A1A1A1"/>
<path d="M88.766 32.6174L91.4327 17.3926H76.2389L73.5412 32.6174L72.704 37.3926C71.6807 43.16 75.5567 47.8112 81.2931 47.8112H106.068L114.844 32.6174H88.766Z" fill="#A1A1A1"/>
<path d="M15.4018 17.393H0.208008L8.9832 2.19922H18.0995L15.4018 17.393Z" fill="#A1A1A1"/>
<path d="M30.6262 17.393H15.4014L18.099 2.19922H33.2928L30.6262 17.393Z" fill="#8F8F8F"/>
<path d="M45.8208 17.393H30.627L33.2936 2.19922H48.5184L45.8208 17.393Z" fill="#A1A1A1"/>
<path d="M61.0141 17.393H45.8203L48.518 2.19922H63.7118L61.0141 17.393Z" fill="#8F8F8F"/>
<path d="M76.2395 17.393H61.0146L63.7123 2.19922H78.9061L76.2395 17.393Z" fill="#A1A1A1"/>
<path d="M91.4331 17.393H76.2393L77.0765 12.6178C78.0997 6.88139 83.5881 2.19922 89.3555 2.19922H94.1307L91.4331 17.393Z" fill="#A1A1A1"/>
<path d="M44.3009 55.9974H42.1924L42.2544 55.5632H46.9676L46.9056 55.9974H44.766L43.8668 61.9819H43.4017L44.3009 55.9974ZM47.8048 57.2997H48.2389L48.0218 58.633C48.487 57.7958 49.3242 57.1757 50.2234 57.2377L50.1304 57.7338H50.0994C49.0761 57.7338 48.0528 58.54 47.8048 60.0594L47.5257 61.9819H47.0916L47.8048 57.2997ZM54.3784 60.2144L54.4715 59.6873C54.0994 59.5943 53.6342 59.4702 52.9831 59.4702C52.0528 59.4702 51.4637 59.9353 51.3397 60.5865C51.2466 61.2687 51.8048 61.6718 52.487 61.6718C53.3862 61.6718 54.2544 61.0826 54.3784 60.2144ZM50.9056 60.5865C51.0296 59.6253 51.9288 59.0671 53.0761 59.0671C53.6963 59.0671 54.0994 59.1601 54.5335 59.2842L54.5645 59.0671C54.6885 58.1369 54.2234 57.6408 53.2932 57.6408C52.766 57.6408 52.3009 57.7958 51.8358 58.0129L51.7428 57.6408C52.2699 57.3927 52.766 57.2377 53.3862 57.2377C54.0063 57.2377 54.4404 57.3927 54.7195 57.7338C54.9676 58.0439 55.0606 58.478 54.9676 59.0671L54.5335 61.9819H54.1304L54.2234 61.2067C53.8513 61.6408 53.2311 62.0749 52.3939 62.0749C51.5567 62.0749 50.7505 61.5788 50.9056 60.5865ZM57.4482 57.2997H57.8823L57.7583 58.1679C58.1304 57.6098 58.7195 57.1757 59.5257 57.1757C60.642 57.1757 61.1691 57.9819 61.0141 59.1291L60.58 61.9819H60.1459L60.58 59.1912C60.704 58.2299 60.3009 57.6098 59.4017 57.6098C58.5335 57.6098 57.7273 58.2919 57.6032 59.2842L57.2001 61.9819H56.766L57.4482 57.2997ZM62.5025 61.3927L62.8125 61.0206C63.2466 61.4237 63.7428 61.6408 64.3319 61.6408C64.9211 61.6408 65.4482 61.2997 65.5412 60.7415C65.6032 60.1834 65.0761 59.9974 64.487 59.8113C63.8048 59.5943 63.0296 59.3462 63.1536 58.509C63.2777 57.7338 63.9598 57.2067 64.828 57.2067C65.3552 57.2067 65.9443 57.3927 66.3164 57.7338L66.0373 58.1059C65.6653 57.7958 65.2311 57.6408 64.735 57.6408C64.1459 57.6408 63.6808 57.9819 63.5877 58.447C63.5257 58.9741 64.0839 59.1912 64.704 59.3772C65.3862 59.5943 66.0994 59.8733 65.9753 60.7105C65.8513 61.5477 65.0761 62.0749 64.2389 62.0749C63.5877 62.0749 62.9056 61.7958 62.5025 61.3927ZM68.1459 60.7726L68.611 57.7028H67.9598L68.0218 57.2997H68.673L68.9211 55.8113H69.3552L69.1071 57.2997H70.6885L70.6265 57.7028H69.0451L68.611 60.7415C68.487 61.3927 68.828 61.6408 69.3552 61.6408C69.5722 61.6408 69.7583 61.5788 70.0373 61.4857L69.9753 61.8888C69.7273 62.0129 69.5102 62.0749 69.2311 62.0749C68.518 62.0749 68.0218 61.6718 68.1459 60.7726ZM75.5877 59.4082C75.6497 58.478 75.2777 57.6098 74.2544 57.6098C73.3552 57.6098 72.549 58.385 72.3319 59.4082H75.5877ZM71.8358 59.6253C72.0528 58.2609 73.1071 57.1757 74.3164 57.1757C75.5877 57.1757 76.2079 58.2609 75.9908 59.6253C75.9908 59.7183 75.9908 59.7493 75.9598 59.8113H72.2699C72.1769 60.9896 72.859 61.6718 73.7273 61.6718C74.4404 61.6718 74.9676 61.3307 75.3707 60.9276L75.6497 61.2067C75.0916 61.7338 74.5025 62.0749 73.6653 62.0749C72.487 62.0749 71.6187 61.1136 71.8358 59.6253ZM78.6575 55.2842H79.0916L78.0684 61.9819H77.6342L78.6575 55.2842ZM84.2389 59.4082C84.3009 58.478 83.9288 57.6098 82.9056 57.6098C82.0063 57.6098 81.2001 58.385 80.9831 59.4082H84.2389ZM80.487 59.6253C80.704 58.2609 81.7583 57.1757 82.9676 57.1757C84.2389 57.1757 84.859 58.2609 84.642 59.6253C84.642 59.7183 84.642 59.7493 84.611 59.8113H80.9211C80.828 60.9896 81.5102 61.6718 82.3784 61.6718C83.0916 61.6718 83.6187 61.3307 84.0218 60.9276L84.3009 61.2067C83.7428 61.7338 83.1536 62.0749 82.3164 62.0749C81.1381 62.0749 80.2699 61.1136 80.487 59.6253ZM86.2854 59.6253C86.4715 58.2919 87.6497 57.1757 88.9211 57.1757C89.7583 57.1757 90.2544 57.5788 90.5645 58.0439L90.2234 58.385C89.9133 57.9508 89.5102 57.6098 88.859 57.6098C87.8668 57.6098 86.9056 58.509 86.7505 59.6253C86.5645 60.7726 87.2466 61.6718 88.2699 61.6718C88.9211 61.6718 89.4482 61.2997 89.8823 60.8656L90.1614 61.1757C89.6032 61.7028 89.0141 62.0749 88.1769 62.0749C86.9056 62.0749 86.0684 60.9896 86.2854 59.6253ZM95.9598 59.6253C96.1149 58.509 95.4327 57.6098 94.4094 57.6098C93.4172 57.6098 92.4559 58.509 92.3009 59.6253C92.1149 60.7726 92.797 61.6718 93.8203 61.6718C94.8125 61.6718 95.7738 60.7415 95.9598 59.6253ZM91.8358 59.6253C92.0218 58.3229 93.1691 57.1757 94.5025 57.1757C95.8048 57.1757 96.611 58.2919 96.4249 59.6253C96.2079 60.9586 95.0606 62.0749 93.7273 62.0749C92.4249 62.0749 91.6187 60.9586 91.8358 59.6253ZM98.7505 57.2997H99.1846L99.0606 58.1369C99.4327 57.6408 99.8978 57.1757 100.704 57.1757C101.479 57.1757 101.882 57.6408 102.068 58.1989C102.409 57.6718 102.968 57.1757 103.805 57.1757C104.89 57.1757 105.417 57.9508 105.231 59.1291L104.797 61.9819H104.394L104.797 59.1912C104.952 58.1989 104.549 57.6098 103.712 57.6098C102.968 57.6098 102.223 58.1989 102.068 59.2532L101.665 61.9819H101.231L101.634 59.1601C101.789 58.1989 101.386 57.6098 100.58 57.6098C99.7738 57.6098 99.0296 58.3229 98.9056 59.2842L98.5025 61.9819H98.0684L98.7505 57.2997Z" fill="#8F8F8F" stroke="#8F8F8F" stroke-width="0.375005"/>
</g>
<defs>
<clipPath id="clip0_2301_21756">
<rect width="120" height="64" fill="white" transform="translate(0.208008 0.230469)"/>
</clipPath>
</defs>
</svg>
