<svg width="225" height="47" viewBox="0 0 225 47" fill="none" xmlns="http://www.w3.org/2000/svg">
<g clip-path="url(#clip0_2301_21789)">
<path d="M0.492258 23.7412H36.9991V27.921C36.9949 37.9768 28.8251 46.1278 18.7458 46.1278C8.66657 46.1278 0.496362 37.9769 0.492188 27.921V23.7412H0.492258ZM36.9991 3.32158V18.5614H0.492258V3.32158C4.16255 5.65733 5.72274 7.33356 7.89483 11.6566L8.03394 11.8123C10.2759 7.34148 15.0302 2.86279 18.7459 0.494141C22.4612 2.85862 27.2154 7.34148 29.457 11.8123L29.5968 11.6566C31.7686 7.33356 33.3283 5.65733 36.9991 3.32158Z" fill="#8F8F8F"/>
<path d="M64.6909 32.7282H61.0459V17.6634H55.8623V14.9678H69.8991V17.6634H64.6909V32.7282Z" fill="#8F8F8F"/>
<path d="M70.9524 19.6787H74.4204V27.9536C74.4204 29.7913 75.3513 30.4485 76.8847 30.4485C78.4181 30.4485 79.3731 29.7913 79.3731 27.9536V19.6787H82.8718V28.0024C82.8718 31.3734 80.4318 32.9796 76.8847 32.9796C73.3376 32.9796 70.9463 31.4217 70.9463 28.0024V19.6787H70.9523H70.9524Z" fill="#8F8F8F"/>
<path d="M89.1713 27.6243C89.1713 29.6078 89.3478 30.2892 91.2096 30.2892C91.8362 30.2892 91.9398 30.2404 91.9398 30.2404L92.0917 32.7289C92.0917 32.7289 91.4102 32.8812 90.2786 32.8812C86.3297 32.8812 85.7031 30.4899 85.7031 27.1435V14.5671L89.1773 14.3418V27.6242H89.1713V27.6243Z" fill="#8F8F8F"/>
<path d="M97.5892 17.4369H94.0908V14.5713H97.5892V17.4369ZM97.5653 32.7331H94.0908V19.6759H97.5653V32.7331Z" fill="#8F8F8F"/>
<path d="M103.92 21.4119C104.699 19.7508 106.056 19.1729 107.796 19.1729C111.793 19.1729 113.734 22.6164 113.734 26.0176C113.734 29.7411 111.721 32.9598 107.924 32.9844H107.851C106.037 32.9844 104.809 32.4061 104.005 31.1225V37.4075L100.531 37.7605V19.6777H103.677L103.926 21.4117H103.92L103.92 21.4119ZM110.382 26.1151C110.382 22.6164 108.696 21.7343 107.163 21.7343C105.63 21.7343 103.969 22.793 103.969 26.1151C103.969 29.437 105.605 30.4167 107.26 30.4167C108.818 30.4167 110.382 29.358 110.382 26.1151Z" fill="#8F8F8F"/>
<path d="M137.042 21.0585L132.49 30.191H129.85L125.195 20.9549V32.7282H121.952V14.9678H125.396L131.182 26.1631L136.92 14.9678H140.315V32.7282H137.042V21.0585Z" fill="#8F8F8F"/>
<path d="M146.049 26.8938C146.122 29.2851 147.46 30.4655 149.723 30.4655C151.336 30.4655 152.693 29.8876 153.472 29.3093L154.427 31.4451C153.295 32.3273 151.811 32.9785 149.596 32.9785C145.069 32.9785 142.629 30.289 142.629 26.0847C142.629 22.2333 144.972 19.167 149.018 19.167C153.064 19.167 154.828 22.3123 154.828 25.811V25.8598C154.828 26.1883 154.804 26.5167 154.804 26.8391V26.8878H146.049V26.8938H146.049ZM151.658 25.032V24.9043C151.658 22.7931 150.727 21.7344 149.067 21.7344C147.935 21.7344 146.249 22.4159 146.073 25.032H151.658Z" fill="#8F8F8F"/>
<path d="M166.219 30.8916C165.592 32.0719 164.405 32.9786 162.495 32.9786H162.318C158.546 32.9053 156.508 29.9361 156.508 26.0118C156.508 22.337 158.595 19.1671 162.416 19.1671C164.63 19.1671 165.738 20.2012 166.213 21.1567V14.3418H169.687V32.7288H166.292L166.219 30.8916ZM166.267 26.1154C166.267 22.7932 164.655 21.7345 163.097 21.7345C161.54 21.7345 159.854 22.6167 159.854 26.1154C159.854 29.6137 161.54 30.4169 163.097 30.4169C164.655 30.4169 166.267 29.486 166.267 26.1154Z" fill="#8F8F8F"/>
<path d="M176.232 17.4369H172.733V14.5713H176.232V17.4369ZM176.208 32.7331H172.733V19.6759H176.208V32.7331Z" fill="#8F8F8F"/>
<path d="M188.525 29.4856L189.183 31.8282C188.051 32.5826 187.017 32.9844 185.386 32.9844H185.337C181.516 32.9844 178.675 30.6966 178.675 25.914C178.675 21.1318 181.796 19.1729 185.088 19.1729H185.192C186.974 19.1971 188.008 19.5988 189.037 20.3532L188.483 22.6651C187.954 22.2879 186.67 21.7342 185.514 21.7342C183.579 21.7342 182.015 22.9936 182.015 26.0358C182.015 29.0783 183.451 30.4653 185.587 30.4653C186.791 30.4653 187.826 29.9846 188.532 29.4857H188.525L188.525 29.4856Z" fill="#8F8F8F"/>
<path d="M194.794 17.4369H191.295V14.5713H194.794V17.4369ZM194.769 32.7331H191.301V19.6759H194.769V32.7331Z" fill="#8F8F8F"/>
<path d="M204.365 21.7374C203.081 21.7374 201.724 22.7658 201.17 23.8245V32.7257H197.672V19.6685H200.592L200.866 21.4025C201.9 20.192 203.531 19.139 205.496 19.1635C208.666 19.2119 210.023 21.5548 210.023 24.7735V32.7195H206.525V25.0958C206.525 23.2828 206.427 21.7253 204.359 21.7253L204.365 21.7374L204.365 21.7374Z" fill="#8F8F8F"/>
<path d="M215.581 26.8938C215.659 29.2851 216.992 30.4655 219.255 30.4655C220.868 30.4655 222.225 29.8876 223.003 29.3093L223.959 31.4451C222.827 32.3273 221.342 32.9785 219.128 32.9785C214.601 32.9785 212.161 30.289 212.161 26.0847C212.161 22.2333 214.498 19.167 218.55 19.167C222.602 19.167 224.36 22.3123 224.36 25.811V25.8598C224.36 26.1883 224.336 26.5167 224.336 26.8391V26.8878H215.58V26.8938H215.581ZM221.19 25.032V24.9043C221.19 22.7931 220.26 21.7344 218.598 21.7344C217.467 21.7344 215.781 22.4159 215.605 25.032H221.19Z" fill="#8F8F8F"/>
</g>
<defs>
<clipPath id="clip0_2301_21789">
<rect width="223.868" height="45.6336" fill="white" transform="translate(0.492188 0.494141)"/>
</clipPath>
</defs>
</svg>
