<svg width="645" height="147" viewBox="0 0 645 147" fill="none" xmlns="http://www.w3.org/2000/svg">
<path d="M160.064 0.382812H175.72L102.57 146.682H73.1494L0 0.382812H15.6553C25.9123 0.382812 35.3595 6.32166 39.9482 15.499L87.7246 113.48L135.771 15.2285C140.36 6.0514 149.808 0.113281 160.064 0.113281V0.382812Z" fill="#8F8F8F"/>
<path d="M380.592 117.529C380.592 125.897 377.622 132.645 371.954 138.313C366.286 143.982 359.267 146.681 351.439 146.681H234.293C225.926 146.681 219.177 143.982 213.509 138.313C207.841 132.645 205.142 125.627 205.142 117.529H380.592Z" fill="#8F8F8F"/>
<path d="M439.164 58.6865H556.311C556.311 67.054 553.342 73.8024 547.674 79.4707C542.005 85.1391 534.987 87.8379 527.159 87.8379H439.435V146.411H410.013V0.113281H439.164V58.6865Z" fill="#8F8F8F"/>
<path d="M585.732 146.411H556.311V0.113281H585.732V146.411Z" fill="#8F8F8F"/>
<path d="M644.036 146.411H614.885V0.113281H644.036V146.411Z" fill="#8F8F8F"/>
<path d="M380.592 58.957C380.592 67.3246 377.622 74.0728 371.954 79.7412C366.286 85.4096 359.267 88.1084 351.439 88.1084H234.293C225.926 88.1083 219.177 85.4095 213.509 79.7412C207.841 74.0729 205.142 67.0546 205.142 58.957H380.592Z" fill="#8F8F8F"/>
<path d="M380.592 0.383789C380.592 8.75138 377.622 15.4996 371.954 21.168C366.286 26.8363 359.267 29.5352 351.439 29.5352H234.293C225.926 29.5351 219.177 26.8363 213.509 21.168C207.841 15.4996 205.142 8.4814 205.142 0.383789H380.592Z" fill="#8F8F8F"/>
</svg>
