<svg width="294" height="57" viewBox="0 0 294 57" fill="none" xmlns="http://www.w3.org/2000/svg">
<g clip-path="url(#clip0_2301_21664)">
<path d="M41.2148 22.9807L45.7898 11.9346L56.8381 16.5119L52.2613 27.5586L41.2148 22.9807Z" fill="#B5B5B5"/>
<path d="M41.2148 22.9815L56.8381 16.5127L52.2613 27.5593L41.2148 22.9815Z" fill="#8F8F8F"/>
<path d="M45.7901 11.9355L41.2148 22.9815L49.0264 19.7452L45.7901 11.9355Z" fill="#C8C8C8"/>
<path d="M23.5901 15.6826L12.542 11.1057L17.1189 0.0576172L28.167 4.63451L23.5901 15.6826Z" fill="#B5B5B5"/>
<path d="M23.5903 15.6826L17.1191 0.0576172L28.1672 4.63451L23.5903 15.6826Z" fill="#8F8F8F"/>
<path d="M12.543 11.1055L23.5913 15.6824L20.3585 7.87109L12.543 11.1055Z" fill="#C8C8C8"/>
<path d="M33.9148 40.6084L44.9595 45.1836L40.3843 56.2298L29.3379 51.6546L33.9148 40.6084Z" fill="#B5B5B5"/>
<path d="M33.9148 40.6084L40.3843 56.2298L29.3379 51.6546L33.9148 40.6084Z" fill="#8F8F8F"/>
<path d="M44.9598 45.1832L33.916 40.6084L37.1526 48.418L44.9598 45.1832Z" fill="#C8C8C8"/>
<path d="M16.2901 33.3064L11.7132 44.3549L0.668945 39.7778L5.24347 28.7295L16.2901 33.3064Z" fill="#B5B5B5"/>
<path d="M16.2901 33.3064L0.668945 39.7778L5.24347 28.7295L16.2901 33.3064Z" fill="#8F8F8F"/>
<path d="M11.7122 44.354L16.2891 33.3057L8.47949 36.5427L11.7122 44.354Z" fill="#C8C8C8"/>
<path d="M41.2148 33.3064L52.2613 28.7295L56.8381 39.7778L45.7898 44.3549L41.2148 33.3064Z" fill="#B5B5B5"/>
<path d="M41.2148 33.3066L56.8381 39.7781L45.7898 44.3552L41.2148 33.3066Z" fill="#8F8F8F"/>
<path d="M52.2608 28.7295L41.2148 33.3064L49.0283 36.5429L52.2608 28.7295Z" fill="#C8C8C8"/>
<path d="M33.9148 15.6826L29.3379 4.63237L40.3843 0.0576172L44.9595 11.1057L33.9148 15.6826Z" fill="#B5B5B5"/>
<path d="M33.915 15.6826L40.3846 0.0576172L44.9598 11.1057L33.915 15.6826Z" fill="#8F8F8F"/>
<path d="M29.3379 4.63281L33.9148 15.683L37.1535 7.87149L29.3379 4.63281Z" fill="#C8C8C8"/>
<path d="M23.5901 40.6084L28.167 51.6546L17.1201 56.2298L12.542 45.1836L23.5901 40.6084Z" fill="#B5B5B5"/>
<path d="M23.5901 40.6084L17.1201 56.2298L12.542 45.1836L23.5901 40.6084Z" fill="#8F8F8F"/>
<path d="M28.168 51.6546L23.5911 40.6084L20.3584 48.418L28.168 51.6546Z" fill="#C8C8C8"/>
<path d="M16.2901 22.9807L5.24347 27.5586L0.668945 16.5119L11.7132 11.9346L16.2901 22.9807Z" fill="#B5B5B5"/>
<path d="M16.2901 22.9807L0.668945 16.5119L11.7132 11.9346L16.2901 22.9807Z" fill="#8F8F8F"/>
<path d="M5.24414 27.5581L16.2906 22.981L8.47902 19.7461L5.24414 27.5581Z" fill="#C8C8C8"/>
<path d="M293.75 34.2966H282.473V22.2723H284.465V32.5029H293.75V34.2966H293.75ZM273.19 29.8146L270.127 23.9877L267.028 29.8146H273.19ZM277.726 34.2966H275.543L274.158 31.6059H266.061L264.674 34.2966H262.492L268.854 22.2723H271.361L277.726 34.2966ZM259.42 24.0677H253.675V34.2966H251.68V24.0677H245.935V22.2723H259.42V24.0677ZM241.101 34.2966H239.108V22.2723H241.101V34.2966ZM229.972 27.9201C231.511 27.9201 232.282 27.3004 232.282 26.0585C232.282 24.7319 231.468 24.0677 229.841 24.0677H222.783V27.9201H229.972ZM230.323 22.2723C231.553 22.2723 232.523 22.6128 233.244 23.2931C233.962 23.9747 234.323 24.8868 234.323 26.0256C234.323 27.2233 233.949 28.1353 233.202 28.7665C232.456 29.3978 231.367 29.7135 229.937 29.7135H222.783V34.2968H220.79V22.2726H230.323V22.2723ZM211.504 29.8148L208.44 23.988L205.338 29.8148H211.504ZM216.039 34.2968H213.857L212.472 31.6062H204.372L202.987 34.2968H200.808L207.167 22.2726H209.677L216.039 34.2968ZM196.737 25.015L194.928 25.66C193.707 24.3657 192.003 23.7168 189.812 23.7168C188.15 23.7168 186.798 24.1427 185.75 24.9957C184.706 25.8495 184.183 26.9306 184.183 28.2515C184.183 29.6149 184.7 30.7113 185.733 31.5478C186.773 32.3845 188.168 32.8032 189.928 32.8032C192.055 32.8032 193.726 32.1447 194.943 30.8254L196.655 31.7708C195.791 32.7798 194.813 33.5081 193.722 33.9578C192.628 34.405 191.331 34.6275 189.812 34.6275C187.687 34.6275 185.919 34.0971 184.514 33.0355C182.907 31.8168 182.105 30.2231 182.105 28.2515C182.105 26.3143 182.921 24.7322 184.548 23.5021C185.966 22.4287 187.718 21.8906 189.813 21.8906C192.825 21.8906 195.131 22.9302 196.737 25.0147L196.737 25.015ZM168.986 22.2723L162.41 29.547V34.2966H160.417V29.547L153.839 22.2723H156.324L161.422 27.8876L166.501 22.2723H168.986H168.986ZM148.423 34.2966H145.944L136.765 24.4354V34.2966H134.772V22.2723H137.248L146.433 32.1369V22.2723H148.423V34.2966ZM123.894 27.9201C125.43 27.9201 126.199 27.3004 126.199 26.0585C126.199 24.7319 125.37 24.0677 123.71 24.0677H116.7V27.9201H123.894ZM128.343 34.2966H126.025L122.771 29.7133H116.7V34.2966H114.706V22.2723H124.192C125.455 22.2723 126.447 22.6128 127.166 23.2931C127.884 23.9747 128.242 24.8982 128.242 26.0588C128.242 27.0779 127.95 27.8968 127.363 28.5189C126.821 29.092 126.075 29.4564 125.121 29.6149L128.344 34.2968L128.343 34.2966ZM108.379 34.2966H95.791V22.2723H107.917V24.0677H97.7825V27.1534H104.825V28.9487H97.7825V32.5029H108.379V34.2966ZM90.3752 22.2723L83.9002 34.2966H81.6065L75.1279 22.2723H77.3529L82.7513 32.2937L88.1495 22.2723H90.375H90.3752Z" fill="#8F8F8F"/>
</g>
<defs>
<clipPath id="clip0_2301_21664">
<rect width="293.081" height="56.1725" fill="white" transform="translate(0.668945 0.0576172)"/>
</clipPath>
</defs>
</svg>
