<svg width="582" height="183" viewBox="0 0 582 183" fill="none" xmlns="http://www.w3.org/2000/svg">
<path fill-rule="evenodd" clip-rule="evenodd" d="M564.209 108.185C577.094 103.487 568.727 123.997 570.021 126.465C571.304 127.996 573.91 126.748 573.871 130.927C573.856 132.525 573.809 136.813 571.975 137.291C569.396 137.071 568.722 133.28 566.42 135.359C565.47 136.217 562.583 138.948 561.658 139.466C557.316 141.9 551.494 139.118 551.394 134.95C551.211 127.307 555.642 130.9 560.173 125.993C562.213 123.783 566.543 116.942 562.653 114.826C559.553 114.934 554.365 123.075 552.816 125.347C549.428 130.317 548.624 134.345 547.36 140.442C546.144 146.312 540.048 166.126 537.215 171.401C535.201 175.152 533.343 182.807 527.853 182.572C522.544 182.345 524.259 170.149 525.058 166.669C527.632 155.445 540.974 141.021 536.896 138.439C535.193 137.736 533.922 142.278 529.177 142.834C523.776 143.465 524.232 138.62 522.111 137.395C520.41 137.352 514.325 152.486 507.197 145.17C503.854 141.738 508.624 127.8 510.536 124.609C513.571 119.545 516.771 111.119 525.119 114.979C529.834 117.16 529.164 135.562 529.952 136.122C533.601 138.317 545.312 116.393 548.236 112.348C553.236 105.431 553.225 111.449 551.625 114.88C550.976 116.271 550.586 120.895 552.625 118.067C555.494 114.089 559.5 109.903 564.209 108.185ZM515.94 138.932C518.342 137.952 527.617 117.533 521.955 120.077C515.067 123.173 511.43 140.768 515.94 138.932Z" fill="#8F8F8F"/>
<path fill-rule="evenodd" clip-rule="evenodd" d="M167.189 0.887643C170.719 0.602147 169.557 2.3619 168.064 5.21479C167.438 6.41133 146.602 64.5113 146.011 68.3662C145.741 70.1274 142.98 73.8873 146.668 73.6445C147.645 73.58 154.158 72.7427 154.204 72.748C156.153 77.9891 152.386 88.7197 147.733 90.9248C145.65 91.9115 139.51 92.919 138.508 94.831C135.575 100.43 133.145 122.754 132.898 128.752C132.728 132.868 132.796 137.723 132.886 141.868C132.942 144.479 134.869 152.037 134.051 153.738C122.84 156.279 113.058 145.512 113.037 134.88C113.018 124.831 113.733 112.453 116.658 99.5781C116.079 99.0824 87.9291 103.392 84.7334 104.58C80.0409 106.325 78.7718 103.378 78.0577 110.607C77.2959 118.321 69.0536 141.047 65.3428 148.702C59.1778 161.42 49.0479 170.818 34.2129 163.872C31.6189 162.658 28.1287 161.341 25.2999 160.081C22.6797 158.914 19.9984 156.66 17.5225 155.154C12.0775 151.844 8.43456 146.932 4.67485 142.596C0.913337 138.257 -2.07543 128.961 1.8438 123.756C11.9911 110.279 42.3677 97.5819 58.751 91.7353C64.2945 89.7571 64.444 91.2428 65.7413 86.0224C66.9826 81.0268 68.0843 75.5301 69.3438 70.6435C71.2664 63.1846 80.6493 27.8169 79.4776 24.4345C71.3518 23.2964 65.1054 25.0667 58.0948 26.8603C55.9902 27.399 52.1541 29.4455 49.5342 30.5761C48.218 31.1439 42.1248 34.976 41.8194 34.8017C40.2179 31.6134 45.8509 21.2275 48.2139 18.2675C51.857 13.7051 56.8556 10.7689 62.2715 8.77436C67.5801 6.81935 104.97 5.03579 105.565 8.15327C105.718 8.9675 97.2385 41.8619 96.3272 45.957C95.022 51.825 86.5917 79.7427 88.629 83.2148C97.4426 81.6173 110.26 80.9063 118.207 78.6757C123.371 77.2262 124.571 78.6503 125.609 74.3095C127.44 66.6525 129.496 59.8323 131.811 52.291L144.577 10.6953C147.824 0.278186 146.23 0.895989 150.72 1.01167L167.189 0.887643ZM50.8897 144.386C52.3636 141.806 61.6566 112.453 57.2979 113.287C54.8981 113.747 32.1123 124.617 30.1094 126.182C27.0131 128.599 20.2337 130.665 18.8301 134.887C16.4676 141.993 29.4459 153.231 39.8165 153.408C45.5875 153.507 48.3387 148.847 50.8897 144.386Z" fill="#8F8F8F"/>
<path fill-rule="evenodd" clip-rule="evenodd" d="M546.763 79.6455C554.271 77.9544 560.394 77.8174 568.313 78.2236C577.003 78.6699 577.773 84.1413 576.166 91.3183C575.364 94.8986 558.902 93.2635 555.126 93.2617C547.718 93.2587 540.906 95.1417 534.307 95.5683C529.608 95.872 501.601 103.933 498.975 107.057C498.736 107.63 500.901 114.613 501.284 115.831C502.586 119.968 502.08 121.768 502.149 126.093C502.287 134.663 500.756 138.364 498.422 145.75C494.122 159.355 472.676 158.363 479.046 139.51C481.486 132.288 483.002 130.559 487.221 124.42C492.592 116.606 501.591 125.82 496.719 114.258C494.643 109.332 489.194 104.018 495.694 98.3544C503.179 91.834 537.495 81.7332 546.763 79.6455ZM489.753 147C493.471 145.845 500.389 125.89 495.414 129.229C490.347 132.632 484.288 148.697 489.753 147Z" fill="#8F8F8F"/>
<path fill-rule="evenodd" clip-rule="evenodd" d="M296.676 23.415C299.991 23.454 302.799 23.5497 305.237 26.1445C306.539 27.5305 306.751 29.0812 306.444 30.7207C305.583 35.324 300.587 45.9885 298.808 50.8876C298.243 52.4424 297.777 52.486 297.014 52.04C294.629 50.6476 285.759 47.8109 287.198 45.1386C287.811 43.9996 291.165 37.493 290.523 36.5126C287.933 34.1227 277.279 48.5968 275.265 50.5859C274.183 51.6556 261.756 66.8767 261.768 66.9736C263.764 69.0235 266.761 65.8716 269.328 69.4052C270.593 71.146 278.069 88.6924 281.459 88.0312C299.37 77.6865 312.722 46.939 318.185 27.1269L333.956 27.1289L316.569 82.3671L317.577 82.6884C320.313 85.0238 325.616 76.364 326.981 74.3124C329.579 70.4085 332.709 66.7233 334.773 63.4072C336.542 60.5647 350.451 43.05 350.462 41.538L363.546 41.7226C365.221 44.1323 355.868 93.3748 356.932 95.7148C356.946 95.736 360.847 99.265 361.985 101.079C362.762 102.317 364.135 108.059 363.622 109.815L354.808 108.463L354.738 108.912C354.66 109.029 343.338 135.611 340.023 139.726C319.993 164.594 288.786 139.012 310.694 113.261C316.59 106.331 319.012 106.124 323.137 102.722C325.997 100.363 338.007 95.8813 339.432 96.1064L344.507 64.0165L343.416 63.8437C343.109 63.9007 334.864 76.6627 334.09 77.9941C332.113 81.3927 326.763 87.5424 323.449 90.7626C318.355 95.7126 314.78 98.4924 307.94 95.5966C300.059 92.2595 302.088 80.4977 299.625 80.4853C298.348 80.4812 291.17 104.261 276.638 103.916C271.475 103.793 272.271 102.61 269.662 99.04C267.196 95.6657 256.889 79.5454 255.212 78.3476C253.546 79.3808 248.563 88.4289 247.234 91.0644C245.325 94.8527 245.917 94.9995 245.95 99.7597C245.96 101.187 246.192 109.207 245.782 109.878C243.485 111.205 236.034 108.401 234.221 106.643C229.346 101.914 231.954 96.5291 230.36 94.8017C228.793 94.841 222.682 110.15 216.062 114.847C204.234 123.237 200.933 113.729 200.234 103.094C199.149 86.5725 203.58 81.251 192.606 97.6767C188.004 104.564 183.166 111.599 178.388 117.715C172.226 125.601 168.172 131.586 156.758 125.425C153.789 123.822 151.373 117.195 151.296 113.75C151.154 107.399 166.66 49.3071 168.283 45.8662L185.846 45.1396L168.232 111.086L168.807 111.239C175.233 114.334 191.77 88.3589 195.219 82.166C199.241 74.9462 203.947 65.8886 208.213 59.0263C208.898 57.9248 209.912 57.226 212.32 56.871C214.643 56.5282 221.969 55.0246 224.298 55.1972C225.695 59.3011 210.976 103.321 215.554 104.324C219.802 106.409 235.907 71.6203 237.004 67.2812C237.172 66.6173 241.084 56.9726 241.212 56.788C242.569 54.8198 247.987 36.6387 249.826 36.0009C250.998 35.5953 263.293 35.2724 263.682 35.666C264.899 36.7553 253.926 63.2994 256.188 64.0546C257.437 64.468 273.202 36.7366 286.15 26.6484C290.211 23.4857 291.533 23.3543 296.676 23.415ZM339.164 111.34C341.454 104.963 322.176 117.986 321.034 119.03C315.403 124.184 311.3 130.869 316.871 138.329C329.775 155.606 337.001 117.362 339.164 111.34Z" fill="#8F8F8F"/>
<path d="M562.606 20.3007C568.438 -0.812199 563.944 0.915798 574.732 1.00288C583.89 1.07676 581.971 -0.265684 579.592 6.72749C573.675 24.1231 571.585 44.069 572.355 62.4355C572.572 67.6146 573.978 72.6565 570.745 72.1005C566.574 71.3843 561.703 68.7832 559.148 65.3876C553.254 57.5532 558.223 40.5513 557.056 39.3115C556.679 39.1064 534.54 42.4059 533.954 42.8906C529.803 46.3625 527.148 74.7292 526.405 76.3037C524.776 79.7576 518.551 77.1435 517.027 74.956C511.433 66.9209 516.46 54.2642 514.725 52.5703C513.681 53.4919 506.796 69.0686 498.863 70.6044C480.662 74.129 486.037 54.4446 483.884 52.4326C483.779 52.5012 476.754 67.6025 469.573 73.3623C465.678 76.4867 461.173 76.4956 456.556 75.4697C446.084 73.1428 446.708 56.1352 446.064 55.2763C445.367 55.2139 437.271 65.5168 435.945 66.79C430.423 72.0963 429.739 72.2544 423.472 76.0126C421.104 77.4327 417.615 76.8734 415.76 74.4384C409.287 65.9412 412.803 50.0179 411.235 48.2783C410.626 48.2892 401.432 63.1317 400.654 65.0478C398.982 69.1654 391.362 76.3512 387.912 79.5664C382.531 84.5806 372.358 84.4113 371.497 75.3017C370.712 66.9959 370.851 59.5117 372.968 51.2822L387.447 50.1367L383.591 70.7412L384.702 70.9492C386.653 71.5653 394.943 59.9375 396.427 57.1103C402.273 45.9687 411.956 30.1557 415.25 18.6601C415.672 17.188 416.274 16.4153 420.255 16.4267C421.781 16.4307 432.058 16.3402 432.631 16.6152C433.291 17.3684 423.686 63.1967 429.961 63.9482C437.21 64.3069 453.432 28.4657 457.02 19.9277C459.167 14.8159 457.295 14.1101 463.087 14.1474C465.073 14.1603 473.29 13.726 474.603 14.3613L463.039 61.1162L464.327 61.4345C467.812 63.9176 479.739 45.6371 481.63 43.1025C485.539 37.863 491.86 22.8399 494.494 19.7373L507.195 20.2802C504.603 28.4866 503.331 37.2909 501.027 45.5107C500.55 47.2137 498.396 58.9347 503.15 54.7851C509.911 48.8845 511.551 46.3483 516.77 38.2148C525.749 24.22 527.817 7.85758 530.036 3.56049L544.687 3.20991C545.411 4.51827 534.414 31.7822 536.186 32.7998C537.221 33.3933 542.253 33.1212 543.742 33.1249C549.214 33.1386 552.307 31.8764 557.273 30.8115C561.529 29.8995 561.339 24.8874 562.606 20.3007Z" fill="#8F8F8F"/>
</svg>
