<svg width="953" height="157" viewBox="0 0 953 157" fill="none" xmlns="http://www.w3.org/2000/svg">
<path d="M397.52 127.594C409.99 127.593 409.47 126.713 409.819 130.927V133.212H397.168C384.342 133.212 383.283 132.339 383.283 139.54V143.405C383.282 154.298 380.296 156.408 371.336 156.408C363.959 156.408 362.726 156.228 362.55 150.783C366.067 150.783 368.707 150.786 370.638 150.61C378.895 149.906 377.664 142.876 377.664 136.552C377.664 134.444 377.837 131.807 377.837 130.927C378.188 126.712 377.49 127.594 388.383 127.594H397.52Z" fill="#8F8F8F"/>
<path d="M437.053 112.831C437.404 113.006 437.755 113.008 438.281 113.183C441.62 113.887 442.677 115.644 442.677 120.74V147.443C442.677 153.767 440.214 156.407 433.892 156.408C430.379 156.408 427.917 156.404 426.162 156.229C422.823 156.053 422.121 154.122 421.945 150.783H425.106C435.647 150.783 437.053 150.432 437.053 138.664V112.831Z" fill="#8F8F8F"/>
<path d="M394.007 58.8884C394.359 61.3499 395.412 67.4996 396.464 75.0521C395.412 81.0278 394.182 89.6386 392.599 100.533H390.667C387.329 100.533 387.328 100.356 388.383 94.0312C391.193 75.4082 392.776 63.9851 394.007 58.8884Z" fill="#8F8F8F"/>
<path fill-rule="evenodd" clip-rule="evenodd" d="M403.49 1.43899C405.423 1.61222 406.828 1.96155 407.707 2.48841C408.938 3.7192 409.64 6.8828 410.344 9.69359C415.616 38.8597 418.429 54.3232 418.605 55.7274L427.39 60.4754C428.268 61.0031 428.971 61.8788 428.971 62.9325C428.971 64.1617 428.268 64.865 427.39 65.3897L421.062 68.9027L424.927 99.4767C425.235 102.091 426.215 103.362 428.459 104.11L430.647 104.717C433.083 105.594 433.892 107.497 433.892 111.955V138.664C433.892 147.269 433.712 147.622 425.106 147.622C421.592 147.622 419.128 147.619 417.37 147.443C412.455 147.09 413.153 143.227 413.153 136.552C413.153 134.27 412.98 131.109 412.98 130.755C412.279 123.551 410.345 124.426 397.52 124.426H388.383C377.313 124.426 375.379 123.55 374.676 130.755C374.676 131.109 374.503 134.27 374.503 136.552C374.503 143.227 375.204 147.09 370.286 147.443C368.531 147.619 366.067 147.622 362.55 147.622C353.945 147.622 353.771 147.269 353.771 138.664V111.955C353.771 105.1 356.582 104.045 358.692 103.694C362.552 102.99 362.73 101.235 363.433 96.3157C365.367 86.4764 367.296 75.4072 368.175 70.3105C368.175 69.7844 368.353 69.2585 368.354 69.0819L361.853 65.3897C360.622 64.8648 360.093 64.1628 360.093 62.9325C360.093 61.8775 360.622 61.0029 361.853 60.4754L370.811 55.5546C375.029 33.7686 377.842 17.9517 379.424 8.28583C380.652 2.49061 382.057 1.43935 388.203 1.43899H403.49ZM395.761 54.8507C394.705 52.9177 392.596 53.6201 391.896 54.8507C390.489 58.0137 388.736 70.4904 385.222 93.5065C384.167 100.006 383.815 103.694 390.667 103.694H397.52C401.033 103.693 403.315 101.06 402.614 95.9637C399.976 74.8811 398.22 60.9999 395.761 54.8507Z" fill="#8F8F8F"/>
<path d="M662.48 77.1637C662.832 76.1094 663.888 76.2881 663.888 77.3429L663.536 90.8702C660.725 100.709 658.438 107.561 652.818 124.074C650.534 130.751 648.42 133.564 639.636 133.564C631.908 133.564 630.153 133.388 629.801 127.945H630.857C634.722 127.946 645.262 129.696 647.897 121.617L649.657 116.344C653.697 104.225 657.032 95.7902 658.788 89.6416L662.48 77.1637Z" fill="#8F8F8F"/>
<path d="M703.42 69.2547C704.299 69.9578 704.821 70.6631 704.822 71.891C704.822 72.946 704.299 73.6513 703.42 74.3546L696.388 78.3923V120.561C696.388 130.928 696.215 133.564 685.497 133.564C677.241 133.564 675.834 133.565 675.483 127.945H683.04C691.998 126.89 690.77 119.505 690.77 114.06V71.3663L696.388 68.2052C697.09 67.6784 697.795 66.9752 698.32 66.2728L703.42 69.2547Z" fill="#8F8F8F"/>
<path d="M945.19 64.865C944.839 63.6342 945.543 63.1061 946.246 64.1611C948.001 66.7953 949.577 69.7826 950.457 73.1196C951.336 76.1055 951.868 79.2689 952.044 82.782V94.556C952.044 122.139 936.753 133.564 912.684 133.564H901.262C893.706 133.564 892.479 133.385 892.303 127.939H912.684C931.659 127.939 944.839 116.872 946.246 99.1248C946.419 97.7202 946.419 94.3798 946.419 85.7702V73.8235C946.246 70.6617 945.893 67.6753 945.19 64.865Z" fill="#8F8F8F"/>
<path d="M848.899 69.4338C849.778 70.137 850.307 70.8387 850.307 71.891C850.307 73.1217 849.779 73.9999 848.899 74.5274L841.17 78.917V122.494C841.17 128.819 840.113 132.684 833.612 133.212C829.046 133.563 828.516 133.388 824.302 133.212C820.965 133.035 820.437 130.928 820.437 127.766C823.247 127.766 826.058 127.763 828.871 127.587C836.424 126.884 835.551 119.857 835.551 113.708V72.0638L841.701 68.5508C842.576 68.026 843.279 67.3237 843.806 66.4455L848.899 69.4338Z" fill="#8F8F8F"/>
<path d="M292.975 76.8118C300.706 76.2844 302.113 76.8124 302.816 78.3923C303.165 79.2713 303.341 80.5021 303.341 82.2572C302.289 82.2572 301.41 82.4362 300.532 82.4364C295.438 82.788 295.963 87.3539 295.963 92.2715V124.253C295.963 131.457 294.73 133.212 286.646 133.212C280.675 133.212 277.687 133.39 276.28 131.983C275.58 131.107 275.227 129.875 275.051 127.594H277.867C290.339 127.594 290.338 127.591 290.338 115.468V83.4922C290.338 78.3955 291.395 76.9876 292.975 76.8118Z" fill="#8F8F8F"/>
<path d="M116.218 88.7585C116.394 87.5308 117.095 86.8311 118.15 89.2896L121.49 97.5442V99.3039C121.49 99.5118 121.481 105.308 121.311 116.523V128.297C120.959 131.809 119.906 132.86 116.57 133.212C113.231 133.212 109.715 133.215 106.376 133.039C103.39 133.039 102.335 131.807 102.159 128.643C102.159 128.295 102.161 127.944 101.987 127.594H107.963C112.879 127.065 115.159 124.78 115.687 119.684V107.738L116.039 91.7468C116.039 90.5169 116.042 89.6373 116.218 88.7585Z" fill="#8F8F8F"/>
<path d="M250.102 69.2547C250.981 69.7822 251.51 70.6657 251.51 71.7182C251.509 72.9475 250.981 73.6483 250.102 74.1754L243.953 77.6948C248.698 106.332 251.334 121.269 251.51 122.673C252.388 127.767 252.563 130.048 251.158 131.279C248.872 133.211 247.996 133.212 233.766 133.212C232.01 133.212 230.95 132.687 230.246 131.983C229.192 131.107 228.844 129.875 228.493 127.594C229.02 127.594 229.722 127.766 230.425 127.766C238.684 127.766 242.374 127.764 244.484 125.303C245.709 123.896 245.359 119.852 244.305 113.356C244.129 112.65 243.775 110.539 242.897 104.749C241.669 97.8967 239.734 86.2983 237.1 70.6624L241.144 68.2052C242.371 67.3268 243.073 66.4473 243.601 65.5689L250.102 69.2547Z" fill="#8F8F8F"/>
<path d="M343.225 69.2547C344.105 69.7822 344.633 70.6657 344.633 71.7182C344.633 72.9472 344.103 73.6483 343.225 74.1754L336.199 78.2195V122.142C336.199 129.873 334.79 133.212 326.179 133.212C323.194 133.212 320.911 133.215 319.332 133.039C316.168 132.863 315.467 130.579 315.467 127.594H317.399C330.575 127.594 330.575 127.589 330.575 114.764V71.1935L336.027 68.2052C336.901 67.6786 337.601 66.9746 337.953 66.2728L343.225 69.2547Z" fill="#8F8F8F"/>
<path d="M523.848 69.2547C524.727 69.7822 525.255 70.6657 525.255 71.7182C525.255 72.9476 524.726 73.6483 523.848 74.1754L517.698 77.6948C522.443 106.332 525.079 121.269 525.255 122.673C526.134 127.767 526.309 130.048 524.903 131.279C522.62 133.211 521.741 133.212 507.511 133.212C505.755 133.212 504.695 132.687 503.992 131.983C502.94 131.107 502.59 129.875 502.238 127.594C502.766 127.594 503.47 127.766 504.171 127.766C512.43 127.766 516.122 127.764 518.229 125.303C519.457 123.896 519.104 119.853 518.05 113.356C517.874 112.65 517.524 110.539 516.649 104.749C515.418 97.8968 513.482 86.2988 510.845 70.6624L514.889 68.2052C516.119 67.3268 516.821 66.4473 517.346 65.5689L523.848 69.2547Z" fill="#8F8F8F"/>
<path d="M603.623 69.2547C604.501 69.7822 605.024 70.6661 605.024 71.7182C605.024 72.9463 604.5 73.6484 603.623 74.1754L598.702 77.1637C604.324 110.723 606.256 121.093 606.432 122.673C608.011 132.336 606.606 133.212 590.268 133.212C588.51 133.212 586.224 132.687 585.52 131.983C584.466 131.107 584.118 129.875 583.767 127.594C592.55 127.594 597.122 127.768 599.054 125.834C601.336 123.726 600.633 119.68 599.579 113.356C599.225 111.588 596.764 97.3575 592.374 70.4896L596.418 68.2052C597.296 67.6781 597.998 66.9755 598.35 66.2728L603.623 69.2547Z" fill="#8F8F8F"/>
<path d="M562.683 64.3403C562.858 63.2856 564.09 63.2834 564.09 64.5131C564.44 66.9723 564.964 71.8929 565.492 75.2312C566.019 78.2176 566.372 81.2068 566.899 84.3689C565.844 91.3973 564.435 101.062 562.503 114.943C562.327 116.349 561.45 121.096 560.046 129.174C559.518 131.81 558.109 133.039 555.65 133.039C550.207 133.215 545.639 133.215 541.95 133.039C538.261 132.863 538.079 130.755 538.431 127.594C552.662 127.594 553.369 126.888 554.422 121.092C556.003 112.662 556.709 108.094 556.885 106.509L561.275 75.2312L562.683 64.3403Z" fill="#8F8F8F"/>
<path d="M210.749 100.181L210.922 100.36H211.274C211.977 100.36 213.735 100.357 214.614 105.626C207.585 105.802 207.229 106.859 206.174 114.943C205.998 116.347 205.824 117.932 204.42 125.834C203.893 128.471 202.486 133.038 196.69 133.039C191.246 133.039 190.364 133.215 186.676 133.039C182.987 132.863 182.805 130.755 183.157 127.594H184.04C186.323 127.594 188.96 127.59 191.597 127.414C195.637 127.414 198.444 125.132 199.148 121.092L200.555 113.535C201.082 109.673 201.61 107.565 201.611 106.509C201.787 105.103 202.313 101.416 203.192 100.712C203.895 100.184 207.234 100.181 210.045 100.181H210.749Z" fill="#8F8F8F"/>
<path d="M484.494 100.181L484.667 100.36H485.019C485.722 100.36 487.48 100.357 488.359 105.626C481.331 105.802 480.978 106.859 479.925 114.943C479.75 116.347 479.572 117.932 478.166 125.834C477.638 128.471 476.233 133.039 470.436 133.039C464.99 133.039 464.11 133.215 460.422 133.039C456.735 132.863 456.56 130.755 456.909 127.594H457.785C460.071 127.594 462.707 127.59 465.342 127.414C469.383 127.414 472.196 125.133 472.899 121.092L474.301 113.535C474.828 109.673 475.356 107.565 475.357 106.509C475.532 105.104 476.059 101.419 476.937 100.712C477.638 100.184 480.98 100.181 483.79 100.181H484.494Z" fill="#8F8F8F"/>
<path d="M158.387 10.0455C159.615 10.0472 160.32 11.6248 159.794 12.8546C159.267 14.2607 158.386 16.0178 157.51 17.7754C155.224 22.518 150.831 30.6059 141.871 48.5286C140.114 51.8646 140.114 51.8693 143.803 60.8273C145.035 63.6394 148.018 70.6625 149.774 75.0521C156.099 90.6914 162.073 105.456 169.277 123.025C172.263 129.875 170.51 133.038 163.659 133.039H151.361C146.968 133.039 143.803 131.81 141.871 127.594H147.496C163.481 127.594 165.063 127.942 159.794 114.943C152.59 97.3729 145.911 80.6802 139.587 65.0442C137.831 60.6517 136.069 57.1366 134.839 54.326C133.962 52.3918 134.141 50.8083 135.018 48.8741C149.601 20.0609 151.18 17.071 154.342 10.5702L154.694 10.0455H158.387Z" fill="#8F8F8F"/>
<path d="M73.1722 86.4741C75.63 86.4752 77.2099 88.0599 77.2099 90.5182C77.7374 100.357 75.8077 106.86 74.7527 110.374C70.1857 126.713 50.8582 135.319 33.6397 130.223C31.8815 129.696 32.0539 128.473 33.9853 128.822C49.6246 131.635 67.5491 122.316 71.4125 102.638C72.1154 99.2992 72.2888 93.8522 71.9372 86.4741H73.1722Z" fill="#8F8F8F"/>
<path d="M782.658 86.4741C785.117 86.4741 786.702 88.059 786.702 90.5182C787.229 100.357 785.297 106.86 784.245 110.374C779.675 126.713 760.344 135.32 743.125 130.223C741.371 129.696 741.546 128.474 743.477 128.822C759.114 131.635 777.039 122.316 780.905 102.638C781.608 99.2992 781.778 93.8524 781.429 86.4741H782.658Z" fill="#8F8F8F"/>
<path d="M33.6397 0.907881C38.7317 0.73224 42.4204 0.907827 44.7035 0.907881C46.286 1.08371 48.0448 1.25951 49.4515 1.78453C53.6685 3.36725 58.7602 7.41128 64.5593 14.2624C69.8293 20.5875 68.952 34.2936 68.7762 39.5637C68.6002 43.7808 67.3689 44.83 63.1515 44.83C59.4626 45.0057 55.9496 45.0058 52.2606 44.83C47.3422 44.4808 48.2195 43.7806 48.0437 32.7105C47.692 26.0346 43.3014 21.4688 38.3813 21.4676C35.9221 21.4676 33.8111 22.5217 32.0528 24.4559C28.5405 28.3212 28.8917 32.3619 28.8917 36.7546C28.7159 57.1354 28.7159 74.0045 28.8917 87.7091C28.8917 90.1675 28.8921 92.453 29.2437 94.5624C29.7719 98.9521 32.4065 103.872 37.8502 104.225C43.2986 104.576 47.8679 99.4763 48.0437 92.9754V83.3131C48.3954 79.4476 49.2746 78.2195 52.9645 78.2195C56.6535 78.0462 60.6939 78.0463 64.7321 78.2195C67.1933 78.3953 68.6029 79.7988 68.6034 82.2572C69.1309 92.0962 68.9547 98.5988 68.2515 102.113C63.5089 126.712 31.1786 136.551 13.08 111.955C10.4425 108.616 9.38787 104.046 9.38787 98.2481V69.4338L2.36186 65.3897C1.48293 64.689 0.954381 63.9871 0.954102 62.9325C0.954102 61.7042 1.48269 60.9995 2.36186 60.2962L9.38787 56.2521C9.56366 42.197 9.56674 33.4111 9.2151 28.6664C8.86465 17.9511 16.2448 6.35368 27.6632 2.13647C29.948 1.26045 31.882 0.907881 33.6397 0.907881Z" fill="#8F8F8F"/>
<path d="M743.125 0.907881C748.218 0.732111 751.91 0.907754 754.196 0.907881C755.776 1.08371 757.539 1.25951 758.944 1.78453C763.161 3.36749 768.253 7.4114 774.051 14.2624C779.321 20.5875 778.444 34.2936 778.268 39.5637C778.09 43.7807 776.861 44.83 772.644 44.83C768.955 45.0057 765.442 45.0058 761.753 44.83C756.834 44.4808 757.712 43.7806 757.536 32.7105C757.184 26.0351 752.793 21.4694 747.873 21.4676C745.414 21.4676 743.303 22.5217 741.545 24.4559C738.032 28.3213 738.384 32.3617 738.384 36.7546C738.208 57.1354 738.208 74.0045 738.384 87.7091C738.384 90.1675 738.384 92.453 738.736 94.5624C739.264 98.9517 741.897 103.871 747.342 104.225C752.788 104.576 757.36 99.4763 757.536 92.9754V83.3131C757.888 79.4475 758.767 78.2195 762.457 78.2195C766.146 78.0463 770.189 78.0462 774.231 78.2195C776.688 78.3961 778.089 79.7997 778.089 82.2572C778.617 92.0965 778.447 98.5989 777.744 102.113C772.999 126.712 740.671 136.55 722.572 111.955C719.937 108.616 718.88 104.046 718.88 98.2481V69.4338L711.854 65.3897C710.978 64.689 710.447 63.9871 710.446 62.9325C710.446 61.7042 710.977 60.9995 711.854 60.2962L718.88 56.2521C719.056 42.197 719.059 33.4111 718.707 28.6664C718.357 17.9511 725.734 6.35368 737.155 2.13647C739.437 1.26045 741.368 0.908209 743.125 0.907881Z" fill="#8F8F8F"/>
<path d="M632.789 1.25982C641.394 1.2599 641.747 1.61122 641.748 10.2183C641.748 10.8491 641.753 23.6706 641.92 48.5286C641.92 54.3233 641.924 55.5513 642.803 58.3637C643.507 60.4712 645.789 60.4712 646.668 58.3637C647.02 57.6606 647.373 56.7816 647.724 55.7274L660.727 11.7988C661.779 8.63794 662.48 6.35524 662.832 5.12476C663.535 2.66557 665.118 1.43899 667.228 1.43899H683.916C687.955 1.61233 687.609 5.82677 687.609 11.2741V56.4312L694.635 60.4754C695.51 61.178 696.042 61.8763 696.042 63.1053C696.042 64.1603 695.511 64.868 694.635 65.5689L687.609 69.6066V114.06C687.609 119.682 688.309 124.075 682.861 124.778H676.711C666.874 124.778 666.697 124.78 666.697 115.295V77.1637C666.697 73.474 666.52 71.0132 665.993 69.6066C665.113 67.5004 662.479 66.6234 661.776 69.0819C661.073 71.1916 660.547 73.3007 659.844 75.4104C659.139 78.0484 656.153 87.716 646.668 115.295C645.79 117.928 645.26 119.331 644.909 120.561C642.977 126.182 635.072 124.778 630.857 124.778C621.542 124.778 621.015 124.427 621.015 115.116V69.6066L614.162 65.5689C613.107 64.868 612.581 64.1603 612.581 63.1053C612.582 61.8766 613.109 61.1778 614.162 60.4754L621.015 56.4312V7.19801C621.089 4.24875 621.585 1.74502 624.349 1.61176C626.986 1.26257 629.802 1.25982 632.789 1.25982Z" fill="#8F8F8F"/>
<path d="M911.276 66.9702C913.384 66.9702 915.317 67.5016 916.722 68.7299C914.44 69.609 913.385 71.1896 913.209 73.4715C913.209 84.19 913.212 79.7995 913.036 90.1663L912.857 100.353C911.978 100.529 910.922 100.533 909.868 100.533C907.411 100.533 907.238 100.531 907.238 95.9637C907.238 93.5045 907.411 89.9878 907.411 85.7702C907.411 80.5012 907.408 74.0021 907.584 69.0819V69.2547C907.584 67.6755 908.642 66.9704 911.276 66.9702Z" fill="#8F8F8F"/>
<path fill-rule="evenodd" clip-rule="evenodd" d="M894.236 1.25982C898.275 1.25989 901.961 1.4372 903.015 2.48841C903.718 3.19151 904.25 5.29784 904.25 8.4586V33.2352C904.25 38.8569 903.37 43.0773 909.344 43.7806C910.224 43.9563 912.863 44.1325 916.901 44.1325C920.062 44.3084 922.523 44.6604 924.279 45.3611C935.348 49.5787 942.726 59.4186 943.251 74.0027V85.7702C943.251 94.0295 943.254 98.427 943.079 98.952C941.321 120.211 923.224 124.778 912.684 124.778H892.476C883.691 124.778 883.518 124.603 883.518 115.992V69.4338L876.485 65.3897C875.61 64.865 875.084 64.1617 875.084 62.9325C875.084 61.8775 875.608 60.9965 876.485 60.469L883.518 56.4312V33.5871C883.518 27.7934 883.515 25.5074 881.937 23.752C880.179 21.8178 874.906 22.1651 871.392 22.1651C869.458 22.1651 868.051 22.1681 867.348 21.9923C863.836 21.8161 862.606 20.9366 862.433 17.4235C862.257 15.4901 862.254 13.5594 862.254 11.6261C862.254 9.69437 862.257 7.58364 862.433 5.64947C862.434 4.24601 862.955 3.1885 863.483 2.66118C864.889 1.43316 866.999 1.43899 871.04 1.43899L894.236 1.25982ZM911.276 63.8092C906.883 63.8094 904.599 65.7438 904.423 69.0819C904.423 79.7972 904.426 75.4084 904.25 85.7702C904.25 89.9878 904.071 93.5045 904.071 95.9637C904.071 101.586 904.952 103.693 909.868 103.694C922.521 103.694 923.402 93.6765 923.402 83.1339V77.1637C923.402 68.2036 917.425 63.8092 911.276 63.8092Z" fill="#8F8F8F"/>
<path d="M800.933 1.43899H843.102C851.361 1.43899 851.715 1.43684 851.715 9.69359C851.715 13.2073 851.712 15.8442 851.536 17.2507C851.536 18.8283 851.186 19.8815 850.659 20.5845C849.253 21.8125 846.794 21.8131 843.633 21.8131C840.119 21.8131 836.424 21.6445 834.316 23.752C832.212 25.6837 832.384 28.6704 832.384 35.5196V56.2521L840.114 60.6481C840.993 61.3512 841.521 62.0509 841.522 63.1053C841.522 64.3361 840.993 65.2142 840.114 65.7417L832.384 70.1377V113.708C832.384 120.033 832.909 124.074 828.692 124.426C824.126 124.602 819.733 124.602 815.516 124.426C810.95 124.25 811.651 120.034 811.651 114.764V70.3105L803.57 65.7417C802.691 65.2141 802.341 64.336 802.341 63.1053C802.341 62.0512 802.691 61.351 803.57 60.6481L811.651 56.0793V33.7663C811.651 27.7944 811.652 25.5077 810.071 23.752C808.315 21.8178 804.799 21.8131 801.285 21.8131C799.354 21.8131 797.951 21.8132 797.247 21.6404C793.733 21.462 792.503 20.5857 792.327 17.0715C792.151 13.3818 792.151 9.33886 792.327 5.29753C792.327 3.89691 792.85 2.84393 793.376 2.31564C794.783 1.08746 796.893 1.43889 800.933 1.43899Z" fill="#8F8F8F"/>
<path d="M208.112 62.0495C208.288 62.577 208.289 62.9331 208.464 63.6364C208.989 66.4473 209.869 70.8394 210.045 72.5949V73.4715C209.693 73.6474 208.986 73.6507 208.285 73.6507H206.705V72.9468C207.056 68.2043 207.585 64.687 208.112 62.0495Z" fill="#8F8F8F"/>
<path fill-rule="evenodd" clip-rule="evenodd" d="M217.244 1.43899C219 1.61235 220.412 1.96091 221.115 2.48841C222.345 3.7197 223.045 6.88324 223.572 9.69359C228.493 38.8576 231.126 54.3213 231.302 55.7274L239.563 60.4754C240.44 61.0031 240.964 61.8788 240.964 62.9325C240.964 64.1617 240.441 64.865 239.563 65.3897L233.587 68.9027C238.332 97.5438 240.968 112.48 241.144 113.887C242.023 118.981 241.846 122.146 240.44 123.377C238.855 124.957 226.391 124.426 224.98 124.426C223.223 124.25 222.168 123.9 221.467 123.197C219.885 121.793 219.707 119.156 219.003 113.535C218.654 110.9 218.478 108.792 218.127 107.386C217.951 105.627 217.596 97.1954 211.446 97.0195C210.603 96.8511 210.084 96.8406 210.045 96.8404C200.909 96.8404 199.499 97.1971 198.444 106.157C198.27 107.567 197.392 112.31 195.987 120.388C195.461 123.022 194.055 124.253 191.597 124.253C186.149 124.429 181.58 124.429 177.89 124.253C172.97 124.077 174.199 120.388 174.902 115.295C179.117 91.3988 181.579 76.4597 182.632 70.3105C182.632 69.7844 182.811 69.2585 182.811 69.0819L176.662 65.3897C175.607 64.8648 175.082 64.1628 175.081 62.9325C175.081 61.8775 175.607 61.0029 176.662 60.4754L185.096 55.5546C188.959 33.7686 191.597 17.9517 193.177 8.28583C194.232 2.48971 195.638 1.43899 201.259 1.43899H217.244ZM210.045 56.604C208.99 54.6722 207.057 55.3747 206.353 56.604C205.124 59.9424 204.071 65.394 203.544 72.7741C203.369 73.6511 203.364 74.5273 203.364 75.0521C203.364 77.6892 213.204 77.5162 213.558 75.2312C213.558 74.8821 213.555 73.8255 213.379 72.2429C213.027 69.0797 211.101 59.7678 211.101 59.2404C210.925 58.5371 210.572 57.6588 210.045 56.604Z" fill="#8F8F8F"/>
<path d="M481.858 62.0495C482.034 62.577 482.034 62.9331 482.21 63.6364C482.737 66.4473 483.617 70.8394 483.79 72.5949V73.4715C483.441 73.6474 482.734 73.6507 482.031 73.6507H480.45V72.9468C480.802 68.2043 481.33 64.687 481.858 62.0495Z" fill="#8F8F8F"/>
<path fill-rule="evenodd" clip-rule="evenodd" d="M490.996 1.43899C492.752 1.61246 494.158 1.96123 494.86 2.48841C496.091 3.71955 496.79 6.88327 497.318 9.69359C502.236 38.8574 504.871 54.3211 505.048 55.7274L513.309 60.4754C514.184 61.0029 514.71 61.8781 514.71 62.9325C514.71 64.1626 514.185 64.8648 513.309 65.3897L507.332 68.9027C512.077 97.5438 514.713 112.48 514.889 113.887C515.768 118.981 515.592 122.146 514.185 123.377C512.6 124.957 500.135 124.426 498.725 124.426C496.968 124.25 495.916 123.9 495.212 123.197C493.63 121.793 493.452 119.157 492.749 113.535C492.397 110.9 492.224 108.792 491.872 107.386C491.696 105.627 491.341 97.1954 485.192 97.0195C484.346 96.8506 483.827 96.8406 483.79 96.8404C474.654 96.8404 473.251 97.1971 472.196 106.157C472.019 107.567 471.135 112.309 469.732 120.388C469.204 123.022 467.8 124.253 465.342 124.253C459.897 124.429 455.326 124.429 451.636 124.253C446.718 124.077 447.944 120.388 448.648 115.295C452.865 91.3988 455.322 76.4597 456.377 70.3105C456.378 69.7844 456.556 69.2585 456.557 69.0819L450.407 65.3897C449.355 64.8648 448.827 64.1628 448.827 62.9325C448.827 61.8775 449.355 61.0029 450.407 60.4754L458.841 55.5546C462.707 33.7686 465.343 17.9517 466.923 8.28583C467.978 2.48968 469.383 1.43899 475.005 1.43899H490.996ZM483.79 56.604C482.738 54.6718 480.799 55.374 480.098 56.604C478.867 59.9424 477.817 65.394 477.289 72.7741C477.116 73.6511 477.116 74.5273 477.116 75.0521C477.116 77.6892 486.952 77.5162 487.303 75.2312C487.303 74.8821 487.3 73.8255 487.124 72.2429C486.775 69.0797 484.846 59.7678 484.846 59.2404C484.67 58.5371 484.318 57.6587 483.79 56.604Z" fill="#8F8F8F"/>
<path d="M572.518 1.43899C574.271 1.61214 575.678 1.96196 576.383 2.48841C577.611 3.71925 578.319 6.88273 578.846 9.69359C583.767 38.8584 586.4 54.322 586.576 55.7274L594.831 60.4754C595.71 61.0029 596.238 61.8775 596.238 62.9325C596.238 64.1628 595.71 64.8648 594.831 65.3897L588.861 68.9027C593.606 97.5438 596.242 112.48 596.418 113.887C597.297 118.981 597.12 122.146 595.714 123.377C594.131 124.957 581.67 124.427 580.254 124.426C578.496 124.25 577.435 123.901 576.735 123.197C575.154 121.793 574.98 119.154 574.277 113.535C573.928 110.901 573.752 108.792 573.401 107.386C573.225 105.627 566.368 59.7679 566.368 59.2404C566.192 58.5373 565.84 57.6581 565.313 56.604C564.258 54.6753 562.331 55.3754 561.627 56.604C560.398 59.9424 559.342 65.3935 553.718 106.157C553.544 107.567 552.666 112.31 551.26 120.388C550.733 123.022 549.328 124.252 546.871 124.253C541.423 124.429 536.854 124.429 533.164 124.253C528.244 124.077 529.473 120.388 530.176 115.295C534.391 91.3988 536.853 76.4597 537.906 70.3105C537.906 69.7844 538.078 69.2585 538.079 69.0819L531.929 65.3897C530.876 64.8649 530.349 64.1618 530.349 62.9325C530.349 61.8786 530.877 61.003 531.929 60.4754L540.37 55.5546C544.233 33.7686 546.865 17.9517 548.445 8.28583C549.5 2.48886 550.912 1.43899 556.533 1.43899H572.518Z" fill="#8F8F8F"/>
<path d="M135.19 1.61176C141.693 1.08678 147.492 1.08685 152.41 1.61176C153.641 1.7876 154.345 3.01728 153.818 4.24811C153.29 5.65226 152.41 7.41314 151.533 9.16888C149.247 13.9155 143.451 25.3365 134.493 43.2559C132.738 46.5875 132.03 47.9925 132.202 47.4728C130.799 50.2826 130.801 52.9205 132.029 55.5546C133.26 58.3675 134.84 61.8807 136.598 66.2728C142.923 81.9114 149.602 98.6013 156.806 116.171C157.509 117.753 158.037 119.332 158.387 120.913C158.738 122.317 157.86 123.722 156.454 124.074C153.644 124.426 152.939 124.426 147.496 124.426H142.575C137.832 124.778 134.492 122.67 132.733 117.752C132.557 117.049 131.33 113.71 128.868 107.386C124.653 96.6674 122.191 90.341 121.49 88.7585C120.436 86.1243 119.381 84.3681 118.502 83.3131C117.625 82.2581 115.687 82.2581 114.81 83.3131C113.404 85.0713 112.705 87.3563 112.705 90.5182C112.704 90.8548 112.691 96.6434 112.526 107.738V119.505C112.174 123.019 111.122 124.074 107.784 124.426C104.446 124.426 100.929 124.429 97.5905 124.253C94.6059 124.253 93.5494 123.019 93.3736 119.857C93.1982 118.801 93.2008 116.695 93.2008 113.535V69.4338L86.1684 65.3897C85.291 64.6897 84.7673 63.9861 84.767 62.9325C84.767 61.7049 85.2902 60.9991 86.1684 60.2962L93.2008 56.2521V11.2741C93.2007 5.82683 92.8488 1.78758 97.0658 1.61176C100.932 1.4384 104.798 1.4384 108.84 1.61176C112.878 1.78943 112.526 5.6563 112.526 9.87276V16.8988C112.526 22.3442 112.354 25.5076 113.409 29.1975C113.761 30.7787 115.867 31.3079 117.274 30.2533C118.153 29.5499 119.377 27.7907 120.607 25.1534C121.662 23.2217 123.072 20.413 124.831 16.8988C126.937 13.0349 128.165 10.2234 129.041 8.465C131.151 4.77804 132.029 1.78848 135.19 1.61176Z" fill="#8F8F8F"/>
<path d="M307.91 1.9637C309.492 0.383925 320.03 0.556325 323.37 0.907881C328.115 1.25955 327.414 5.30356 327.414 9.87276V56.4312L334.44 60.4754C335.319 61.0029 335.848 61.8776 335.848 62.9325C335.847 64.1628 335.319 64.8648 334.44 65.3897L327.414 69.4338V114.764C327.414 124.075 326.885 124.426 317.399 124.426C314.413 124.426 312.129 124.429 310.546 124.253C306.156 123.902 306.681 120.037 306.681 115.295L306.502 84.7208C306.502 81.7341 306.326 79.2715 305.798 77.5157C304.394 72.5958 296.84 73.2991 291.746 73.6507C286.65 74.0024 287.177 78.5738 287.177 83.4922V115.468C287.177 123.725 286.473 124.426 277.867 124.426C271.895 124.426 268.908 124.603 267.501 123.197C266.27 121.793 266.266 119.508 266.266 113.183V69.4338L259.24 65.3897C258.363 64.8648 257.832 64.1628 257.832 62.9325C257.832 61.8778 258.363 61.0029 259.24 60.4754L266.266 56.4312V9.69359C266.266 5.30032 266.622 2.84286 267.501 1.9637C269.258 0.384598 279.793 0.556379 283.133 0.907881C287.878 1.25949 287.178 5.29901 287.177 10.5702V39.7365C287.177 45.3565 286.826 48.872 288.758 50.8066C290.865 52.7383 297.019 52.7385 301.588 52.0352C306.854 51.506 306.502 46.0643 306.502 40.9715V25.3325C306.502 18.4824 306.505 13.2078 306.681 9.69359C306.681 5.30188 307.031 2.84367 307.91 1.9637Z" fill="#8F8F8F"/>
<path d="M436.176 69.2547C437.053 69.7822 437.757 70.6658 437.757 71.7182C437.756 72.9467 437.051 73.6484 436.176 74.1754L430.724 77.3429L433.892 102.638L430.199 101.236C428.444 100.885 428.27 100.707 428.094 99.1248L424.402 70.6624C427.74 68.9045 429.675 67.852 430.903 66.4455L436.176 69.2547Z" fill="#8F8F8F"/>
<path d="M38.3813 24.6286C39.6115 24.6292 40.8424 25.1577 41.8943 26.0364C38.2047 27.7949 37.6775 32.8869 37.6775 39.2118C37.6775 59.5935 37.5016 82.2587 37.6775 95.9637C37.6775 97.7208 37.6772 99.4756 37.8502 101.057C35.0409 100.705 32.9327 98.2497 32.4048 94.2104V94.0312C32.0534 92.2736 32.0528 90.1669 32.0528 87.7091C31.877 74.0045 31.877 57.1354 32.0528 36.7546C32.0528 32.1861 31.8768 29.3715 34.3372 26.5611C35.7414 25.1544 36.8013 24.6286 38.3813 24.6286Z" fill="#8F8F8F"/>
<path d="M747.873 24.6286C749.103 24.6295 750.332 25.1579 751.386 26.0364C747.698 27.7955 747.17 32.8877 747.17 39.2118C747.17 59.5935 746.994 82.2587 747.17 95.9637C747.17 97.7208 747.167 99.4756 747.342 101.057C744.534 100.704 742.425 98.2489 741.897 94.2104V94.0312C741.545 92.2736 741.545 90.167 741.545 87.7091C741.369 74.0045 741.369 57.1354 741.545 36.7546C741.545 32.1859 741.368 29.3717 743.829 26.5611C745.234 25.1544 746.293 24.6286 747.873 24.6286Z" fill="#8F8F8F"/>
<path d="M332.155 9.69359C336.897 9.69359 336.2 14.086 336.199 18.6521V57.839H336.027L330.575 54.6715V9.69359H332.155Z" fill="#8F8F8F"/>
<path d="M692.702 10.2183C696.743 10.219 696.388 14.6147 696.388 20.0598V57.839L690.77 54.6715V10.2183H692.702Z" fill="#8F8F8F"/>
<path d="M854.876 10.2183C860.322 10.3941 860.501 11.2751 860.501 18.4793C860.501 23.5735 860.497 25.155 858.389 27.265C856.28 29.3707 853.646 29.901 850.134 29.9013C844.69 29.9013 843.281 30.0757 842.053 31.1299C841.174 32.0066 841.17 34.1159 841.17 44.3053V57.6598L835.551 54.3196V35.5196C835.551 28.6677 835.722 26.7333 836.601 26.03C837.304 25.1517 838.541 24.9806 843.633 24.9806C846.971 24.9808 851.013 25.3306 853.296 23.0481C854.351 21.8173 854.703 19.7068 854.703 17.4235C854.703 15.8409 854.876 13.3802 854.876 10.2183Z" fill="#8F8F8F"/>
<path d="M582.186 10.2183C584.294 10.3943 585.872 10.9226 586.576 11.2741C587.804 12.5022 588.506 15.6664 589.033 18.4793L595.362 57.3079L589.385 53.7949C588.682 49.0486 586.228 34.464 582.186 10.2183Z" fill="#8F8F8F"/>
<path d="M226.912 10.3975C229.719 10.3977 230.249 10.7472 231.302 11.4469C232.53 12.6776 233.238 15.8415 233.766 18.6521C236.752 36.7505 239.03 49.7551 240.261 57.1351C238.33 56.0804 236.221 54.6742 234.29 53.6221C233.763 50.4596 232.356 42.8998 230.246 29.7222C229.191 24.1011 228.143 17.6005 226.912 10.3975Z" fill="#8F8F8F"/>
<path d="M500.658 10.3975C503.467 10.3976 503.994 10.7473 505.048 11.4469C506.278 12.6775 506.986 15.8415 507.511 18.6521C510.5 36.7505 512.784 49.7551 514.012 57.1351C512.081 56.0803 509.97 54.6746 508.036 53.6221C507.508 50.4596 506.102 42.8998 503.992 29.7222C502.939 24.1011 501.889 17.6005 500.658 10.3975Z" fill="#8F8F8F"/>
<path d="M413.684 10.3975C416.139 10.5731 417.019 10.923 417.722 11.2741C418.952 12.5023 419.657 15.6663 420.358 18.4793L427.39 56.7832L421.414 53.6221C420.71 48.8771 418.077 34.2931 413.684 10.3975Z" fill="#8F8F8F"/>
<path d="M71.4125 20.5909C71.9393 20.5927 72.6412 21.8138 72.993 22.517C77.0347 30.0729 77.0338 41.4988 76.858 46.7689C76.6815 50.9854 73.8705 53.091 70.3567 53.091C66.668 53.2667 64.7331 53.2668 61.0463 53.091C57.5304 52.9151 57.0052 52.3874 56.8294 48.1702C71.587 48.1702 71.7614 47.2924 71.9372 39.7365C72.1131 36.3973 72.4639 29.7198 71.2333 22.8689C70.8845 21.1153 70.712 20.5909 71.4125 20.5909Z" fill="#8F8F8F"/>
<path d="M780.905 20.5909C781.432 20.5909 782.133 21.8133 782.485 22.517C786.527 30.0729 786.526 41.4988 786.35 46.7689C786.174 50.9854 783.363 53.091 779.849 53.091C776.159 53.2668 774.228 53.2668 770.538 53.091C767.024 52.9152 766.497 52.3878 766.322 48.1702C781.081 48.1702 781.251 47.2922 781.429 39.7365C781.605 36.3973 781.96 29.7199 780.732 22.8689C780.38 21.1147 780.202 20.5911 780.905 20.5909Z" fill="#8F8F8F"/>
<path d="M644.909 10.0455C650.357 10.3972 650.533 11.6253 650.533 19.004V34.9949L649.305 39.2118L646.668 48.7014C646.141 50.4572 645.089 50.4568 645.088 48.7014V38.6871L644.909 10.0455Z" fill="#8F8F8F"/>
<path d="M291.919 9.69359C296.661 9.69359 295.963 14.0864 295.963 19.3559V49.2261C293.504 49.2261 292.27 49.2252 291.215 48.1702C290.338 47.2925 290.338 45.3534 290.338 39.7365V9.69359H291.919Z" fill="#8F8F8F"/>
<path d="M907.411 10.2183C909.521 10.3941 911.104 10.5708 911.807 11.2741C912.508 11.9759 913.036 14.0895 913.036 17.2507V40.9715C911.281 40.7957 910.045 40.795 909.868 40.6195C907.235 40.2681 907.411 40.4381 907.411 33.2352V10.2183Z" fill="#8F8F8F"/>
<path d="M869.28 25.3325C877.875 25.3325 879.117 25.5048 879.473 26.03C880.174 26.5575 880.35 27.4401 880.35 32.3585H880.177C877.719 32.3585 875.961 32.3577 875.084 32.0066C870.69 31.8308 869.283 30.7753 869.107 26.3819V25.3325H869.28Z" fill="#8F8F8F"/>
<path d="M801.285 24.9806C805.675 24.9806 807.083 25.1543 807.786 25.8572C808.138 26.3846 808.49 27.0874 808.49 30.5988C807.436 30.5988 806.554 30.6019 806.027 30.4261C802.515 30.2499 801.288 29.3703 801.112 25.8572V24.9806H801.285Z" fill="#8F8F8F"/>
<path d="M117.625 10.3975C121.138 10.5743 121.311 13.3852 121.311 16.8988C120.432 18.8308 118.152 23.0465 116.922 25.5053C116.394 26.5603 115.514 26.3842 115.514 25.1534C115.514 23.2217 115.687 20.0603 115.687 16.8988V10.3975H117.625Z" fill="#8F8F8F"/>
</svg>
