<svg width="438" height="163" viewBox="0 0 438 163" fill="none" xmlns="http://www.w3.org/2000/svg">
<path fill-rule="evenodd" clip-rule="evenodd" d="M0.370117 104.349V50.2021C10.0679 60.7778 14.1983 68.7327 25.0003 79.8749C29.0223 84.0222 33.0132 87.7875 38.1306 91.6578C40.7627 93.6479 51.143 100.765 52.4944 102.204C53.1627 105.221 48.6827 124.418 46.764 128.376C45.4927 130.999 43.6508 133.043 41.0207 133.027C33.883 132.985 27.8797 132.691 22.4517 130.922C11.2199 127.26 1.86572 116.047 0.370117 104.349Z" fill="#8F8F8F"/>
<path fill-rule="evenodd" clip-rule="evenodd" d="M70.5102 113.747C62.7466 119.671 60.1158 119.726 58.3258 123.187C55.5873 128.48 53.6612 138.312 50.2017 145.621C47.1479 152.072 43.6885 158.547 41.4229 162.817H49.8959L61.5629 132.742L88.6831 132.746C109.561 132.746 106.611 134.051 106.637 124.025C106.651 118.926 106.967 70.8696 106.85 70.2949C96.0384 92.0707 77.3751 108.505 70.5102 113.747Z" fill="#A1A1A1"/>
<path fill-rule="evenodd" clip-rule="evenodd" d="M59.2872 88.405C59.5992 91.6818 58.9578 112.505 59.7292 113.194C75.6533 104.479 94.0673 88.539 107.004 63.7101C107.004 52.1104 107.414 40.4077 106.198 28.8687C104.529 13.0174 88.7748 2.15138 73.8996 0.969727L38.9424 0.973764V0.974439C49.9485 34.4725 55.8494 52.2115 59.2872 88.405Z" fill="#A1A1A1"/>
<path fill-rule="evenodd" clip-rule="evenodd" d="M52.4331 94.7823C54.2965 92.1023 55.1312 87.7321 54.7392 79.7967C53.4012 52.7344 38.3556 9.90576 35.5423 0.974609L0.370117 0.978655V45.8426C9.30396 53.7079 23.7466 76.5656 52.4331 94.7823Z" fill="#8F8F8F"/>
<path fill-rule="evenodd" clip-rule="evenodd" d="M259.293 36.5603L272.098 36.1251L272.192 92.9571C262.272 92.2369 249.635 91.3625 241.99 84.0017C236.514 78.7314 233.603 70.7832 233.903 62.8673C234.354 50.951 242.082 39.1041 259.293 36.5603ZM214.836 22.3393C217.274 15.3679 215.203 12.9824 208.692 13.0167C203.425 13.045 198.155 13.0188 192.889 13.0188C183.18 13.0188 173.002 12.3727 164.434 16.0315C149.605 22.3689 137.558 31.391 132.601 47.6749C126.93 66.3018 129.911 82.1619 141.342 96.0009C151.597 108.414 162.29 112.569 174.68 113.904C182.997 114.798 192.078 114.423 202.306 114.423L213.167 114.435C214.385 114.435 214.12 112.25 214.12 110.386C214.104 87.069 186.275 101.81 167.167 93.8942C160.936 91.312 153.607 84.6801 151.017 78.4047C143.562 60.3437 148.752 45.2193 164.625 35.347C172.762 30.2855 182.219 31.0495 191.982 31.096C197.427 31.1222 213.037 27.485 214.836 22.3393ZM437.708 112.87L437.532 102.511C435.622 98.4477 432.302 94.6003 430.131 91.8678C427.435 88.4697 411.558 67.8021 409.096 65.5271C404.021 60.8307 406.424 61.9302 410.05 56.5562L430.78 29.9042C432.817 27.5052 434.612 24.9269 434.625 23.3983L434.687 14.8822L423.4 15.2857C421.037 16.3711 418.7 17.9199 417.713 19.2417C414.631 23.368 391.292 54.1565 390.299 54.8167H372.673C372.675 54.7163 372.404 30.0086 371.869 26.2413C370.121 13.9653 364.015 13.6062 355.158 13.5988L355.183 114.435H372.673V71.4798H391.985C400.67 79.5884 416.919 105.628 428.307 113.165L437.708 112.87ZM289.216 93.0656V35.702C298.911 34.6349 311.302 37.4071 318.419 44.4128C327.479 53.3298 329.619 68.4563 321.844 79.2313C312.86 91.6731 308.798 92.6223 289.216 93.0656ZM218.971 47.7267C213.581 64.8433 215.121 79.5021 226.797 93.172C231.796 99.0278 237.008 102.891 244.23 105.815C249.948 108.129 265.664 108.453 272.192 108.316V119.763L289.216 119.916V108.316C306.475 107.522 314.263 110.726 329.028 97.9465C339.656 88.7486 344.299 76.8997 344.34 62.6827C344.381 48.8181 337.504 36.8156 327.763 28.6747C314.317 17.4341 305.164 19.3562 287.751 18.2507C287.12 17.7232 282.674 10.5834 280.887 8.60944L272.192 8.52051V18.4891C269.909 18.5437 269.178 18.3025 264.281 18.2891C245.099 18.2385 225.027 28.4962 218.971 47.7267Z" fill="#8F8F8F"/>
</svg>
