<svg width="18" height="18" viewBox="0 0 18 18" fill="none" xmlns="http://www.w3.org/2000/svg">
<path d="M5 17H3C1.89543 17 1 16.1046 1 15V3C1 1.89543 1.89543 1 3 1H6M5 17V11C5 10.4477 5.44772 10 6 10H12C12.5523 10 13 10.4477 13 11V17M5 17H13M13 17H15C16.1046 17 17 16.1046 17 15V5.82843C17 5.29799 16.7893 4.78929 16.4142 4.41421L13.5858 1.58579C13.2107 1.21071 12.702 1 12.1716 1H12M12 1V4C12 4.55228 11.5523 5 11 5H7C6.44772 5 6 4.55228 6 4V1M12 1H6" stroke="#F7F7F7" stroke-width="1.3" stroke-linecap="round" stroke-linejoin="round"/>
</svg>
